<svg xmlns="http://www.w3.org/2000/svg" width="20mm" height="15mm" viewBox="0 0 56.69 42.52"><g data-name="Слой 2"><g data-name="Слой 1"><path fill="none" d="M0 0h56.69v42.52H0z"/><path d="M48.64 17.65c-1.17-4.32-6.76-6.5-6.76-6.5-1.49-.55-.9.31-.9.31s6.43 3 6.43 7.08c0 5.11-7 6.63-7 6.63 6.38-2 6.4-6.36 6.4-6.36-.12-4.32-5.81-7.35-5.81-7.35a16.14 16.14 0 0 0-3.41-1.56c-2.87-1-1.94.16-1.94.16s8.66 2.73 8.66 8.75-12.08 8.13-12.08 8.13c11.36-2.11 11.36-8.08 11.36-8.08 0-5.38-7.95-8.8-7.95-8.8a17.73 17.73 0 0 0-3.22-1.17c-1.88-.4-.81.42-.81.42 7.61 4.45 7.61 9.36 7.61 9.36a7.07 7.07 0 0 1-5 6.83 28.13 28.13 0 0 1-4.27 1 1 1 0 0 0-.77.82.58.58 0 0 0 .14.41 14.55 14.55 0 0 0 1.2 1 1.54 1.54 0 0 1 .48 1.11c0 1-1.18 1.86-2.64 1.88h-.11c-1.46 0-2.64-.85-2.64-1.88a1.54 1.54 0 0 1 .53-1.12 14.6 14.6 0 0 0 1.2-1 .58.58 0 0 0 .15-.41 1 1 0 0 0-.77-.82 28.13 28.13 0 0 1-4.27-1 7.07 7.07 0 0 1-5-6.83s0-4.92 7.61-9.36c0 0 1.06-.82-.81-.42A17.73 17.73 0 0 0 21 10.06s-7.94 3.43-7.94 8.8c0 0 0 6 11.36 8.08 0 0-12.08-2-12.08-8.13S21 10.06 21 10.06s1-1.12-1.89-.16a16.15 16.15 0 0 0-3.39 1.56s-5.71 3-5.82 7.36c0 0 0 4.33 6.4 6.36 0 0-7-1.53-7-6.63 0-4.12 6.43-7.08 6.43-7.08s.6-.86-.9-.31c0 0-5.59 2.18-6.76 6.5a5.4 5.4 0 0 0 .16 2.82c.63 1.46 2.27 3.87 6.45 5.22 0 0 1.9.78 9.51 2.3l.45.1s.33.14.09.4l-1 .9s-1.54 1.18.66 2.18A6.31 6.31 0 0 1 26.61 33a2.62 2.62 0 0 0 1.63.61h.18a2.62 2.62 0 0 0 1.66-.61 6.32 6.32 0 0 1 2.28-1.47c2.2-1 .66-2.18.66-2.18l-1-.9c-.23-.26.09-.4.09-.4l.45-.1c7.61-1.52 9.51-2.3 9.51-2.3 4.18-1.35 5.82-3.76 6.45-5.22a5.4 5.4 0 0 0 .16-2.82z" fill="#0052a4" fill-rule="evenodd"/></g></g></svg>