<svg xmlns="http://www.w3.org/2000/svg" width="20mm" height="15mm" viewBox="0 0 56.69 42.52"><defs><style>.cls-5{fill:none}.cls-2,.cls-4{fill:#fff}.cls-2,.cls-5{stroke:#010101;stroke-miterlimit:2.61}.cls-2{stroke-width:.16px}.cls-3{fill:#010101}.cls-5{stroke-width:.46px}</style></defs><g id="Слой_2" data-name="Слой 2"><g id="Слой_1-2" data-name="Слой 1"><path fill="none" d="M0 0h56.69v42.52H0z"/><path class="cls-2" d="M28.22 27.52c4.26 0 7.72-2.87 7.72-6.41s-3.46-6.41-7.72-6.41-7.72 2.87-7.72 6.41 3.46 6.41 7.72 6.41z"/><path class="cls-2" d="M28.22 27.11c4 0 7.3-2.68 7.3-6s-3.27-6-7.3-6-7.3 2.68-7.3 6 3.27 6 7.3 6z"/><path class="cls-3" d="M23.38 22.85c-.33.18-1.25.44-1.5-.15-.37.18-1.14.33-1.5-.15-.62.15-1.32.44-1.57-.26-.55.15-1.9.48-2.05-.41-.81.11-2 .18-2.12-.66-.7 0-1.9-.11-1.9-.92-.7 0-1.9-.48-1.76-1-.62-.07-1.47-.74-1.47-1.18-.62-.18-1.32-.66-1.17-1.29-.37-.22-1-.48-1-.85a.65.65 0 0 1 .66-.69c.33 0 1.57.18 2 .18s5.75-.11 7 0a27.89 27.89 0 0 0 3.59 0c.77-.07 4-.25 4.51.66.33.66.07.88-.22 1.14a2.57 2.57 0 0 0-1.28 2.28c0 1.55.18 2.36-.18 3.35z"/><path class="cls-4" d="M8.51 15.66c1.14 0 3.77.07 4.28.07a42.65 42.65 0 0 1 4.71.59c.26.07.31.33 0 .35s-4 .07-4.6.07-4.31.05-4.82-.61c-.37-.48.09-.46.42-.48zM9.19 17.1h4.34l3.72-.2c.35 0 .68.07.68.18s-.07.2-.48.29a49.07 49.07 0 0 1-6.94.46 2.08 2.08 0 0 1-1.43-.52c-.18-.26 0-.24.11-.24zM10.47 18.32c.46 0 5.86-.41 7-.64.38 0 .64-.06.68.11s0 .24-.31.33a46 46 0 0 1-6.37.88c-.68 0-1.47-.66-1-.68zM11.85 19.46c.64-.07 4.91-.76 6.06-1.07.46-.11.68-.06.73.07s.06.35-.27.46-4.1 1-4.8 1a3.64 3.64 0 0 1-1.74-.29c-.22-.17 0-.2 0-.2zM13.57 20.42c.46-.09 4.18-.94 5.24-1.34.31-.09.42 0 .48.11a.25.25 0 0 1-.13.37 19.29 19.29 0 0 1-4.41 1.36 2.48 2.48 0 0 1-1.12-.29c-.15-.07-.09-.07-.06-.2zM19.63 19.64a32.43 32.43 0 0 1-4 1.51c-.27.07-.42.28-.09.39a3.5 3.5 0 0 0 1.56-.07 9.2 9.2 0 0 0 3-1.44 2.15 2.15 0 0 1-.52-.39zM20.4 20.27a19.89 19.89 0 0 1-2.89 1.38c-.27.09-.15.35.13.39a2.87 2.87 0 0 0 1.79-.46 12.33 12.33 0 0 0 1.45-1l-.48-.28zM21.24 20.77l-1.72 1.16c-.24.17-.37.44.11.41a3 3 0 0 0 2.05-1.4 3.84 3.84 0 0 1-.44-.17zM22.07 21c-.29.29-.73.77-1 1s-.06.57.29.41a2.55 2.55 0 0 0 1.14-1.31 2.84 2.84 0 0 1-.39-.13zM22.8 21.5c-.24.29-.48.53-.62.72s0 .37.18.42.42.2.75-.46l-.31-.68z"/><path class="cls-4" d="M15.69 15.59c.48 0 2.09.11 2.67.11s1.94 0 2.44-.07a19.29 19.29 0 0 1 2.31 0c.51.06 1.65.13 1.85.66s-.24.83-.51 1a2.34 2.34 0 0 0-1.15 2c-.22-.09-.53-.15-.31-.61.13-.26.75-1.11.6-1.49s-.62-.7-1.7-.74-2.6 0-3.13-.09-2.58-.61-3-.66c-.18 0-.18-.11-.06-.13z"/><path class="cls-4" d="M20 16.62a22 22 0 0 1 2.2 0 1.57 1.57 0 0 1 1.12.55c.18.31-.13.81-.27 1a7.17 7.17 0 0 1-.73.76c-.15.11-.42-.07-.18-.35-.31.18-.7.15-.51-.28-.27.22-.73.24-.46-.33-.18.15-.7.13-.37-.31-.27.09-.59-.07-.38-.35-.35.06-.55-.2-.18-.41-.35.09-.44-.31-.22-.33zM18.43 16.5c-.48 0-.49.52.06.49s1-.13.94-.3-.64-.18-1-.19zM18.5 17.06c-.27 0-.28.17-.24.27s.18.26.65.19.73-.26.73-.43-.86-.06-1.14 0zM19 17.64c-.18 0-.35.16-.3.33s.48.26.94 0 .43-.29.38-.42-.53 0-1 .06zM19.83 17.94a3.31 3.31 0 0 0-.64.31c-.18.12-.33.53.37.35s.74-.43.64-.59-.32-.08-.37-.07zM19.61 18.75c-.24.15-.13.71.4.45s.89-.52.82-.71-.68 0-1.22.25zM21 18.88c-.25.12-1.07.39-.8.73.13.17.39 0 .5 0s.68-.46.54-.68-.18 0-.24 0zM20.95 19.53c-.53.34.07.63.4.34.18-.16.56-.44.38-.65s-.62.22-.79.31zM21.78 19.67c-.16.18-.55.46-.25.67s.4 0 .52-.14.56-.57.39-.75-.52.14-.66.22zM22.9 19.74c-.17-.14-.52.23-.64.45s0 .35.1.41a.36.36 0 0 0 .39-.19c0-.13.33-.49.15-.67z"/><path class="cls-5" d="M24.15 16c.26.13.55.31.57.5s0 .37-.35.59"/><path class="cls-3" d="M33.31 22.85c.33.18 1.25.44 1.5-.15.37.18 1.14.33 1.5-.15.62.15 1.32.44 1.57-.26.55.15 1.9.48 2.05-.41.81.11 2 .18 2.12-.66.7 0 1.9-.11 1.9-.92.7 0 1.9-.48 1.76-1 .62-.07 1.46-.74 1.46-1.18.62-.18 1.32-.66 1.17-1.29.37-.22 1-.48 1-.85a.65.65 0 0 0-.62-.66c-.33 0-1.57.18-2 .18s-5.75-.11-7 0a27.89 27.89 0 0 1-3.59 0c-.77-.07-4-.25-4.51.66-.33.66-.07.88.22 1.14a2.57 2.57 0 0 1 1.28 2.28c0 1.55-.18 2.36.18 3.35z"/><path class="cls-4" d="M48.18 15.66c-1.14 0-3.77.07-4.29.07a42.66 42.66 0 0 0-4.71.59c-.26.07-.31.33 0 .35s4 .07 4.6.07 4.31.05 4.82-.61c.37-.48-.09-.46-.42-.48zM47.5 17.1h-4.34l-3.72-.2c-.35 0-.68.07-.68.18s.07.2.48.29a49 49 0 0 0 6.94.46 2.08 2.08 0 0 0 1.43-.52c.18-.26 0-.24-.11-.24zM46.22 18.32c-.46 0-5.86-.41-7-.64-.38 0-.64-.06-.68.11s0 .24.31.33a46 46 0 0 0 6.37.88c.68 0 1.46-.66 1-.68zM44.85 19.46c-.64-.07-4.91-.76-6.06-1.07-.46-.11-.68-.06-.73.07s-.05.35.27.46 4.1 1 4.8 1a3.64 3.64 0 0 0 1.74-.29c.22-.17 0-.2 0-.2zM43.12 20.42c-.46-.09-4.18-.94-5.24-1.34-.31-.09-.42 0-.48.11a.25.25 0 0 0 .13.37A19.29 19.29 0 0 0 42 20.91a2.48 2.48 0 0 0 1.12-.29c.15-.07.09-.07.05-.2zM37.06 19.64a32.43 32.43 0 0 0 4 1.51c.27.07.42.28.09.39a3.5 3.5 0 0 1-1.56-.07 9.2 9.2 0 0 1-3-1.44 2.14 2.14 0 0 0 .52-.39zM36.29 20.27a19.91 19.91 0 0 0 2.89 1.38c.27.09.15.35-.13.39a2.87 2.87 0 0 1-1.79-.46 12.29 12.29 0 0 1-1.45-1l.48-.28zM35.45 20.77l1.72 1.16c.24.17.37.44-.11.41A3 3 0 0 1 35 20.93a3.84 3.84 0 0 0 .44-.17zM34.63 21c.29.29.73.77 1 1s.06.57-.29.41a2.55 2.55 0 0 1-1.14-1.31 2.85 2.85 0 0 0 .39-.13zM33.89 21.5c.24.29.48.53.62.72s0 .37-.18.42-.42.2-.75-.46l.31-.68z"/><path class="cls-4" d="M41 15.59c-.48 0-2.09.11-2.67.11s-1.94 0-2.44-.07a19.29 19.29 0 0 0-2.31 0c-.51.06-1.65.13-1.85.66s.24.83.51 1a2.34 2.34 0 0 1 1.15 2c.22-.09.53-.15.31-.61-.13-.26-.75-1.11-.6-1.49s.62-.7 1.7-.74 2.6 0 3.13-.09 2.58-.61 3-.66c.18 0 .18-.11.05-.13z"/><path class="cls-4" d="M36.68 16.62a22 22 0 0 0-2.2 0 1.57 1.57 0 0 0-1.12.55c-.18.31.13.81.27 1a7.13 7.13 0 0 0 .73.76c.15.11.42-.07.18-.35.31.18.7.15.51-.28.27.22.73.24.46-.33.18.15.7.13.37-.31.27.09.59-.07.38-.35.35.06.55-.2.18-.41.35.09.44-.31.22-.33zM38.26 16.5c.48 0 .49.52-.06.49s-1-.13-.94-.3.64-.18 1-.19zM38.19 17.06c.27 0 .28.17.24.27s-.18.26-.65.19-.78-.26-.78-.42.86-.06 1.14 0zM37.73 17.64c.18 0 .35.16.3.33s-.48.26-.94 0-.43-.29-.38-.42.53 0 1 .06zM36.87 17.94a3.3 3.3 0 0 1 .64.31c.18.12.33.53-.37.35s-.74-.43-.64-.59.32-.08.37-.07zM37.08 18.75c.24.15.13.71-.4.45s-.89-.52-.82-.71.68 0 1.22.25zM35.69 18.88c.25.12 1.07.39.8.73-.13.17-.39 0-.5 0s-.68-.46-.54-.68.18 0 .24 0zM35.75 19.53c.53.34-.07.63-.4.34-.18-.16-.56-.44-.38-.65s.62.22.79.31zM34.91 19.67c.16.18.55.46.25.67s-.4 0-.52-.14-.56-.57-.39-.75.52.14.66.22zM33.79 19.74c.17-.14.52.23.64.45s0 .35-.1.41a.36.36 0 0 1-.39-.19c0-.13-.33-.49-.15-.67z"/><path class="cls-5" d="M32.54 16c-.26.13-.55.31-.57.5s0 .37.35.59"/><path class="cls-2" d="M28.2 27.72c-.28 0-.5-.19-.47-.63l.14-1.8c0-.16.24-.27.34-.27s.34.11.34.27l.14 1.8c0 .45-.19.63-.5.63z"/><path class="cls-2" d="M28.23 27.72c.28 0 .5-.19.47-.63l-.14-1.8c0-.16-.24-.27-.34-.27s-.34.11-.34.27l-.14 1.8c0 .45.19.63.5.63z"/><path class="cls-2" d="M29.29 27.68c.28 0 .47-.26.37-.7l-.4-1.76c0-.16-.28-.23-.38-.22s-.32.16-.3.32l.13 1.8c0 .45.28.59.59.55z"/><path class="cls-2" d="M30.35 27.48c.27-.08.42-.33.25-.75l-.69-1.67c-.05-.15-.31-.18-.41-.15s-.29.21-.24.36l.43 1.73c.11.44.37.54.67.45z"/><path class="cls-2" d="M31.36 27.18c.25-.12.37-.39.15-.78l-.91-1.55c-.07-.14-.34-.13-.43-.09s-.26.25-.19.39l.66 1.68c.17.42.44.48.72.35zM27.15 27.68c-.28 0-.47-.26-.37-.7l.4-1.76c0-.16.28-.23.38-.22s.32.16.3.32l-.13 1.8c0 .45-.28.59-.59.55z"/><path class="cls-2" d="M26.08 27.48c-.27-.08-.42-.33-.25-.75l.69-1.67c.05-.15.31-.18.41-.15s.29.21.24.36L26.75 27c-.11.44-.37.54-.67.45z"/><path class="cls-2" d="M25.07 27.18c-.25-.12-.37-.39-.15-.78l.91-1.55c.07-.14.34-.13.43-.09s.26.25.19.39l-.66 1.68c-.17.42-.44.48-.72.35z"/><path class="cls-3" d="M28.22 25.28c3.09 0 5.59-1.87 5.59-4.17s-2.5-4.17-5.59-4.17-5.59 1.87-5.59 4.17 2.5 4.17 5.59 4.17z"/><path class="cls-4" d="M30.67 19.59c0-.61-.64-1.53-2.51-1.53a3.75 3.75 0 0 0-2.56.79.68.68 0 0 1 .27.46v3.37a1 1 0 0 1-.26.55 4.16 4.16 0 0 0 2.75.76c1.36 0 2.62-.48 2.62-1.73a1.49 1.49 0 0 0-1-1.25c-.15 0-.12-.18 0-.24a1.6 1.6 0 0 0 .74-1.18z"/><path class="cls-3" d="M28.24 20.63a.94.94 0 1 0-.85-.94.9.9 0 0 0 .85.94z"/><path d="M28.35 23.23a1 1 0 1 0-1-1 1 1 0 0 0 1 1z" fill="#010101" stroke-width=".16" stroke="#010101" stroke-miterlimit="2.61"/></g></g></svg>