<svg xmlns="http://www.w3.org/2000/svg" width="20mm" height="15mm" viewBox="0 0 56.69 42.52"><defs><style>.cls-1{fill:#231f20;fill-rule:evenodd}</style></defs><g id="Слой_2" data-name="Слой 2"><g id="Слой_1-2" data-name="Слой 1"><path class="cls-1" d="M5.8 20.56H4.19v-2.23H.86v5.83h3.33v-2.25H5.8v2.25h3.33v-5.83H5.8v2.23zM14.62 22.23a.83.83 0 1 1-1.67 0v-3.9H9.62v4c0 .59.51 1.88 2.42 1.88h3.49c1.91 0 2.42-1.29 2.42-1.88v-4h-3.33v3.9zM23.51 20.7l-1.31-2.37h-3.82v5.83h3.06v-2.49l1.37 2.49h1.4l1.37-2.49v2.49h3.06v-5.83h-3.81l-1.32 2.37zM34.21 20.7l-1.32-2.37h-3.82v5.83h3.07v-2.49l1.37 2.49h1.4l1.37-2.49v2.49h3.06v-5.83h-3.82l-1.31 2.37zM39.72 24.16h6.5v-1.61h-3.06v-.64h3.06v-1.35h-3.06v-.61h3.06v-1.62h-6.5v5.83zM55 20.27a1.83 1.83 0 0 0-1.75-1.93h-6.6v5.83H50v-1.7l1.42 1.69h4.11l-1.76-2.06c.7 0 1.26-1.1 1.26-1.83zm-4.1.73H50v-1.3h1c.83 0 .75 1.32-.11 1.32zM55.34 18.26a.49.49 0 1 0 .49.49.49.49 0 0 0-.49-.49zm0 .89a.41.41 0 1 1 .39-.41.39.39 0 0 1-.39.41z"/><path class="cls-1" d="M55.57 18.63c0-.11-.07-.16-.2-.16h-.21V19h.09v-.24h.1l.15.24h.1l-.16-.25a.15.15 0 0 0 .15-.15zm-.33.09v-.17h.12c.06 0 .12 0 .12.08s-.06.09-.14.09z"/><path fill="none" d="M0 0h56.69v42.52H0z"/></g></g></svg>