<svg xmlns="http://www.w3.org/2000/svg" xmlns:xlink="http://www.w3.org/1999/xlink" width="20mm" height="15mm" viewBox="0 0 56.69 42.52"><defs><style>.cls-3{fill:#333}.cls-6{fill:#010101}</style><linearGradient id="Безымянный_градиент_5" data-name="Безымянный градиент 5" x1="10.57" y1="38.39" x2="43.47" y2="6.6" gradientTransform="matrix(1 0 0 -1 0 42.43)" gradientUnits="userSpaceOnUse"><stop offset="0" stop-color="#e0f3fd"/><stop offset=".1" stop-color="#d6e9f4"/><stop offset=".27" stop-color="#bfd0d9"/><stop offset=".49" stop-color="#98a5ac"/><stop offset=".75" stop-color="#646c6f"/><stop offset="1" stop-color="#2b2c2b"/></linearGradient><radialGradient id="Безымянный_градиент_2" data-name="Безымянный градиент 2" cx="-6.09" cy="50.38" r="44.3" gradientTransform="matrix(.5 0 0 -.5 15.68 31.79)" gradientUnits="userSpaceOnUse"><stop offset="0" stop-color="#fff"/><stop offset=".31" stop-color="#a9a8a8"/><stop offset=".65" stop-color="#505050"/><stop offset=".89" stop-color="#171717"/><stop offset="1" stop-color="#010101"/></radialGradient><linearGradient id="Безымянный_градиент_3" data-name="Безымянный градиент 3" x1="681.54" y1="-984.08" x2="702.49" y2="-1004.33" gradientTransform="matrix(-1 0 0 1 721.21 1016.24)" gradientUnits="userSpaceOnUse"><stop offset="0" stop-color="#e0f3fd"/><stop offset=".09" stop-color="#d6e9f4"/><stop offset=".23" stop-color="#bed0d9"/><stop offset=".42" stop-color="#96a4ad"/><stop offset=".65" stop-color="#60696e"/><stop offset=".91" stop-color="#1a1d1e"/><stop offset="1" stop-color="#010101"/></linearGradient><radialGradient id="Безымянный_градиент_6" data-name="Безымянный градиент 6" cx="-14.05" cy="54.89" r="106.45" gradientTransform="matrix(.5 0 0 -.5 15.68 31.79)" gradientUnits="userSpaceOnUse"><stop offset="0" stop-color="#fff"/><stop offset=".31" stop-color="#fff"/><stop offset=".45" stop-color="#f6f6f6"/><stop offset=".56" stop-color="#e9e9e9"/><stop offset=".65" stop-color="#d7d7d7"/><stop offset=".72" stop-color="#c0bfbf"/><stop offset=".79" stop-color="#a2a2a1"/><stop offset=".86" stop-color="#818181"/><stop offset=".92" stop-color="#575858"/><stop offset=".97" stop-color="#2b2c2b"/><stop offset="1" stop-color="#161616"/></radialGradient><radialGradient id="Безымянный_градиент_6-2" cx="-14.05" cy="54.89" r="106.46" xlink:href="#Безымянный_градиент_6"/><radialGradient id="Безымянный_градиент_6-3" cx="-14.06" cy="54.92" r="106.54" xlink:href="#Безымянный_градиент_6"/><radialGradient id="Безымянный_градиент_11" data-name="Безымянный градиент 11" cx="5.02" cy="40.13" r="28.71" gradientTransform="matrix(.5 0 0 -.5 15.68 31.79)" gradientUnits="userSpaceOnUse"><stop offset="0" stop-color="#e6e6e5"/><stop offset=".1" stop-color="#d7d6d6"/><stop offset=".31" stop-color="#aeaeae"/><stop offset=".59" stop-color="#6c6d6d"/><stop offset=".93" stop-color="#141414"/><stop offset="1" stop-color="#010101"/></radialGradient><radialGradient id="Безымянный_градиент_8" data-name="Безымянный градиент 8" cx="12.87" cy="36.27" r="41.76" gradientTransform="matrix(.5 0 0 -.5 15.68 31.79)" gradientUnits="userSpaceOnUse"><stop offset="0" stop-color="#fff"/><stop offset=".34" stop-color="#fff"/><stop offset=".48" stop-color="#f6f6f6"/><stop offset=".58" stop-color="#eaeaea"/><stop offset=".67" stop-color="#d8d9d8"/><stop offset=".74" stop-color="#c2c2c2"/><stop offset=".8" stop-color="#a7a6a6"/><stop offset=".86" stop-color="#848484"/><stop offset=".91" stop-color="#606060"/><stop offset=".95" stop-color="#414141"/><stop offset=".96" stop-color="#414141"/><stop offset="1" stop-color="#414141"/><stop offset="1" stop-color="#010101"/></radialGradient><radialGradient id="Безымянный_градиент_10" data-name="Безымянный градиент 10" cx=".61" cy="52.1" r="73.95" gradientTransform="matrix(.5 0 0 -.5 15.68 31.79)" gradientUnits="userSpaceOnUse"><stop offset=".17" stop-color="#fff"/><stop offset=".2" stop-color="#e0eff6"/><stop offset=".24" stop-color="#b4d9ec"/><stop offset=".29" stop-color="#8dc5e2"/><stop offset=".34" stop-color="#6cb6db"/><stop offset=".38" stop-color="#52a9d4"/><stop offset=".44" stop-color="#42a0cf"/><stop offset=".49" stop-color="#369bcd"/><stop offset=".56" stop-color="#3499cd"/><stop offset=".61" stop-color="#3596c8"/><stop offset=".66" stop-color="#338fbc"/><stop offset=".7" stop-color="#3480a9"/><stop offset=".75" stop-color="#316e8d"/><stop offset=".8" stop-color="#2e5568"/><stop offset=".85" stop-color="#2a383d"/><stop offset=".87" stop-color="#292929"/></radialGradient><radialGradient id="Безымянный_градиент_10-2" cx=".61" cy="52.1" r="73.95" xlink:href="#Безымянный_градиент_10"/><radialGradient id="Безымянный_градиент_11-2" cx="5.41" cy="39.77" r="28.16" xlink:href="#Безымянный_градиент_11"/><linearGradient id="Безымянный_градиент_17" data-name="Безымянный градиент 17" x1="26.51" y1="33.92" x2="40.17" y2="20.72" gradientTransform="matrix(1 0 0 -1 0 42.43)" gradientUnits="userSpaceOnUse"><stop offset="0" stop-color="#f1f4fa"/><stop offset=".11" stop-color="#eceff9"/><stop offset=".25" stop-color="#dce0ea"/><stop offset=".4" stop-color="#c4c7ce"/><stop offset=".57" stop-color="#a2a4ab"/><stop offset=".75" stop-color="#77787d"/><stop offset=".93" stop-color="#424344"/><stop offset="1" stop-color="#2b2c2b"/></linearGradient><linearGradient id="Безымянный_градиент_17-2" x1="15.43" y1="22.77" x2="29.08" y2="9.58" xlink:href="#Безымянный_градиент_17"/><linearGradient id="Безымянный_градиент_14" data-name="Безымянный градиент 14" x1="22.03" y1="27.48" x2="29.11" y2="20.64" gradientTransform="matrix(1 0 0 -1 0 42.43)" gradientUnits="userSpaceOnUse"><stop offset="0" stop-color="#c2d7e8"/><stop offset=".13" stop-color="#bacfe0"/><stop offset=".34" stop-color="#a4bbcd"/><stop offset=".6" stop-color="#8098ab"/><stop offset=".89" stop-color="#4f6a80"/><stop offset="1" stop-color="#3b576d"/></linearGradient><linearGradient id="Безымянный_градиент_15" data-name="Безымянный градиент 15" x1="18.49" y1="25.8" x2="32.01" y2="12.74" gradientTransform="matrix(1 0 0 -1 0 42.43)" gradientUnits="userSpaceOnUse"><stop offset="0" stop-color="#f1f4fa"/><stop offset=".1" stop-color="#e8ebf6"/><stop offset=".26" stop-color="#d2d5de"/><stop offset=".46" stop-color="#acafb5"/><stop offset=".7" stop-color="#797a7e"/><stop offset=".96" stop-color="#373738"/><stop offset="1" stop-color="#2b2c2b"/></linearGradient><linearGradient id="Безымянный_градиент_16" data-name="Безымянный градиент 16" x1="28.45" y1="20.96" x2="33.19" y2="16.37" gradientTransform="matrix(1 0 0 -1 0 42.43)" gradientUnits="userSpaceOnUse"><stop offset="0" stop-color="#d9dff1"/><stop offset=".12" stop-color="#d5daeb"/><stop offset=".26" stop-color="#c7cfe2"/><stop offset=".41" stop-color="#b0bcd1"/><stop offset=".57" stop-color="#91a1b8"/><stop offset=".72" stop-color="#688099"/><stop offset=".88" stop-color="#365775"/><stop offset=".97" stop-color="#183d5d"/></linearGradient><linearGradient id="Безымянный_градиент_17-3" x1="23.6" y1="30.76" x2="37.1" y2="17.71" xlink:href="#Безымянный_градиент_17"/></defs><g id="Слой_2" data-name="Слой 2"><g id="Слой_1-2" data-name="Слой 1"><path fill="none" d="M0 0h56.69v42.52H0z"/><path d="M28.35 5.71a15.51 15.51 0 1 0 15.5 15.5 15.51 15.51 0 0 0-15.5-15.5zm0 30.24a14.73 14.73 0 1 1 14.73-14.74 14.73 14.73 0 0 1-14.73 14.73z" fill="url(#Безымянный_градиент_5)"/><path class="cls-3" d="M43.19 21.21A14.84 14.84 0 1 1 28.35 6.37a14.84 14.84 0 0 1 14.84 14.84z"/><path d="M43.08 21.21A14.73 14.73 0 1 1 28.35 6.48a14.73 14.73 0 0 1 14.73 14.73z" fill="url(#Безымянный_градиент_2)"/><path d="M38.22 21.21a9.88 9.88 0 1 1-9.88-9.88 9.88 9.88 0 0 1 9.88 9.88z" fill="url(#Безымянный_градиент_3)"/><path class="cls-6" d="M28.74 11.07l1.03-2.72v2.72h.78V7.18h-1.17l-1.07 2.79h.01l-1.06-2.79h-1.17v3.89h.77V8.35l1.03 2.72h.85zM39.43 12.82l-1.33 1.94 2.09-1.03.57.68-3.29 1.65-.66-.8 1.27-1.92-.01-.02-2.12.91-.67-.8 2.22-2.93.56.68-1.38 1.87 2.15-.96.6.73z"/><path class="cls-3" d="M21.45 12.07A1 1 0 0 0 20.2 12a.87.87 0 0 0 0-.58 1.39 1.39 0 0 0-.43-.54c-.52-.44-1.07-.06-1.47.4l-1.9 2.26 3 2.51 2-2.39c.46-.58.53-1.12.05-1.59zm-3.86 1.09l1.14-1.36a.47.47 0 0 1 .62 0 .41.41 0 0 1 .07.6l-1.13 1.34zm3.15.23l-1.19 1.42-.75-.63 1.2-1.42a.49.49 0 0 1 .74.64z"/><path fill="url(#Безымянный_градиент_6)" d="M28.75 10.92l1.03-2.72v2.72h.77V7.03h-1.17l-1.06 2.79h.01l-1.06-2.79h-1.18v3.89h.78V8.2l1.03 2.72h.85z"/><path fill="url(#Безымянный_градиент_6-2)" d="M39.44 12.56l-1.33 1.94 2.09-1.03.57.68-3.29 1.65-.67-.8 1.28-1.93-.01-.01-2.12.91-.67-.8 2.22-2.94.56.68-1.39 1.88 2.15-.96.61.73z"/><path d="M21.31 12a1 1 0 0 0-1.25-.11.87.87 0 0 0 0-.58 1.38 1.38 0 0 0-.43-.54c-.52-.44-1.07-.06-1.46.4l-1.9 2.26 3 2.51 2-2.39c.45-.55.52-1.08.04-1.55zm-3.86 1.09l1.14-1.36a.47.47 0 0 1 .62 0 .41.41 0 0 1 .07.6l-1.13 1.34zm3.15.23l-1.19 1.42-.75-.63 1.2-1.43a.49.49 0 0 1 .74.64z" fill="url(#Безымянный_градиент_6-3)"/><path d="M18.8 21.21a9.55 9.55 0 1 1 9.55 9.55 9.55 9.55 0 0 1-9.55-9.55z" fill="url(#Безымянный_градиент_11)"/><path d="M19.07 21.21a9.27 9.27 0 1 1 9.27 9.27 9.27 9.27 0 0 1-9.27-9.27z" fill="url(#Безымянный_градиент_8)"/><path d="M19.06 21.21h9.29v-9.28a9.29 9.29 0 0 0-9.29 9.28z" fill="url(#Безымянный_градиент_10)"/><path d="M28.35 21.21v9.29a9.29 9.29 0 0 0 9.29-9.29h-9.29z" fill="url(#Безымянный_градиент_10-2)"/><path fill="url(#Безымянный_градиент_11-2)" d="M37.71 21.05h-9.2v-9.2h-.33v9.2h-9.2v.33h9.2v9.2h.33v-9.2h9.2v-.33z"/><path d="M28.51 12.11A9.11 9.11 0 0 1 37.45 21h.16a9.27 9.27 0 0 0-9.1-9.1v.16z" fill="url(#Безымянный_градиент_17)"/><path d="M19.23 21a9.12 9.12 0 0 1 9-9v-.16A9.28 9.28 0 0 0 19.06 21h.16z" fill="#c2d7e8"/><path d="M28.18 30.32a9.1 9.1 0 0 1-8.94-8.94h-.16a9.27 9.27 0 0 0 9.1 9.1v-.16z" fill="url(#Безымянный_градиент_17-2)"/><path d="M37.45 21.38a9.11 9.11 0 0 1-8.94 8.94v.16a9.27 9.27 0 0 0 9.1-9.1z" fill="#14404f"/><path fill="url(#Безымянный_градиент_14)" d="M28.01 11.93v8.94h-8.94v.18h9.11v-9.12h-.17z"/><path fill="url(#Безымянный_градиент_15)" d="M27.99 30.4v-8.83h-8.85v-.18h9.02v9.01h-.17z"/><path fill="url(#Безымянный_градиент_16)" d="M28.7 30.4v-8.83h8.83v-.18h-9v9.01h.17z"/><path fill="url(#Безымянный_градиент_17-3)" d="M28.7 12.01v8.83h8.83v.17h-9v-9h.17z"/></g></g></svg>