<svg xmlns="http://www.w3.org/2000/svg" xmlns:xlink="http://www.w3.org/1999/xlink" width="20mm" height="15mm" viewBox="0 0 56.69 42.52"><defs><style>.cls-1,.cls-21,.cls-22,.cls-23,.cls-24,.cls-27,.cls-32,.cls-33,.cls-34,.cls-38,.cls-39,.cls-40,.cls-41,.cls-42,.cls-43,.cls-44{fill:none}.cls-14,.cls-27,.cls-37{stroke:#6d6f71;stroke-linecap:round;stroke-linejoin:round}.cls-14,.cls-27,.cls-37,.cls-40{stroke-width:.25px}.cls-14,.cls-35{fill:#d2b887}.cls-21,.cls-22,.cls-23,.cls-24,.cls-32,.cls-33,.cls-34{stroke:#b6a269}.cls-21{stroke-width:.08px}.cls-22,.cls-39{stroke-width:.13px}.cls-23{stroke-width:.06px}.cls-24,.cls-38{stroke-width:.19px}.cls-32{stroke-width:.12px}.cls-33{stroke-width:.19px}.cls-34{stroke-width:.06px}.cls-37{fill:#a22a2e}.cls-38,.cls-39,.cls-40,.cls-41,.cls-42,.cls-43,.cls-44{stroke:#a93737}.cls-41{stroke-width:.16px}.cls-42{stroke-width:.19px}.cls-43{stroke-width:.13px}.cls-44{stroke-width:.26px}</style><linearGradient id="linear-gradient" x1="18.97" y1="13.77" x2="18.97" y2="28.31" gradientUnits="userSpaceOnUse"><stop offset="0" stop-color="#f8f8f9"/><stop offset=".46" stop-color="#f6f6f7"/><stop offset=".62" stop-color="#eff0f2"/><stop offset=".74" stop-color="#e4e5e8"/><stop offset=".84" stop-color="#d3d6da"/><stop offset=".92" stop-color="#bdc1c7"/><stop offset=".99" stop-color="#a2a9b1"/><stop offset="1" stop-color="#9da4ad"/></linearGradient><linearGradient id="linear-gradient-2" x1="9.12" y1="15.93" x2="9.92" y2="15.34" gradientUnits="userSpaceOnUse"><stop offset="0" stop-color="#acb6cd"/><stop offset=".35" stop-color="#a0aabd"/><stop offset="1" stop-color="#818b96"/></linearGradient><linearGradient id="linear-gradient-3" x1="10.71" y1="21.2" x2="12.29" y2="20.95" gradientUnits="userSpaceOnUse"><stop offset="0" stop-color="#e1e4ec"/><stop offset=".17" stop-color="#d8dce4"/><stop offset=".46" stop-color="#c0c5ce"/><stop offset=".81" stop-color="#98a1ab"/><stop offset="1" stop-color="#818b96"/></linearGradient><linearGradient id="linear-gradient-4" x1="31.33" y1="29.66" x2="20.67" y2="27.35" gradientUnits="userSpaceOnUse"><stop offset="0" stop-color="#e1e4ec"/><stop offset=".02" stop-color="#d7dbe3"/><stop offset=".09" stop-color="#bcc2cb"/><stop offset=".17" stop-color="#a6aeb7"/><stop offset=".27" stop-color="#959ea8"/><stop offset=".38" stop-color="#8a939e"/><stop offset=".55" stop-color="#838d98"/><stop offset="1" stop-color="#818b96"/></linearGradient><linearGradient id="linear-gradient-5" x1="12.19" y1="19.78" x2="15.9" y2="19.78" gradientUnits="userSpaceOnUse"><stop offset="0" stop-color="#cad0df"/><stop offset=".02" stop-color="#c7cddc"/><stop offset=".7" stop-color="#687685"/><stop offset="1" stop-color="#435363"/></linearGradient><linearGradient id="linear-gradient-6" x1="12.52" y1="22.27" x2="16.33" y2="22.27" xlink:href="#linear-gradient-5"/><linearGradient id="linear-gradient-7" x1="33.85" y1="29.67" x2="48.84" y2="14.19" gradientUnits="userSpaceOnUse"><stop offset="0" stop-color="#231f20"/><stop offset=".35" stop-color="#242123"/><stop offset=".56" stop-color="#28272b"/><stop offset=".73" stop-color="#2f3339"/><stop offset=".88" stop-color="#39424d"/><stop offset="1" stop-color="#435363"/></linearGradient><linearGradient id="linear-gradient-8" x1="28.32" y1="27.56" x2="43.14" y2="27.56" gradientUnits="userSpaceOnUse"><stop offset="0" stop-color="#818b96"/><stop offset=".01" stop-color="#828c97"/><stop offset=".46" stop-color="#b5bbc5"/><stop offset=".81" stop-color="#d5d9e1"/><stop offset="1" stop-color="#e1e4ec"/></linearGradient><linearGradient id="linear-gradient-9" x1="28.32" y1="21.48" x2="48.9" y2="21.48" gradientUnits="userSpaceOnUse"><stop offset="0" stop-color="#f6f6f8"/><stop offset=".33" stop-color="#f4f4f6"/><stop offset=".48" stop-color="#ededf0"/><stop offset=".59" stop-color="#e0e2e5"/><stop offset=".69" stop-color="#ced1d6"/><stop offset=".77" stop-color="#b6bcc3"/><stop offset=".85" stop-color="#99a1ab"/><stop offset=".92" stop-color="#76828e"/><stop offset=".98" stop-color="#4f5e6d"/><stop offset="1" stop-color="#435363"/></linearGradient><linearGradient id="linear-gradient-10" x1="31.47" y1="20.14" x2="31.47" y2="19" gradientUnits="userSpaceOnUse"><stop offset="0" stop-color="#407cca"/><stop offset=".12" stop-color="#3e77c2"/><stop offset=".32" stop-color="#3969ab"/><stop offset=".56" stop-color="#315185"/><stop offset=".83" stop-color="#253152"/><stop offset=".9" stop-color="#222944"/></linearGradient><linearGradient id="linear-gradient-11" x1="42.76" y1="22.34" x2="41.29" y2="20.77" gradientUnits="userSpaceOnUse"><stop offset="0" stop-color="#fff"/><stop offset=".16" stop-color="#fcfcfc"/><stop offset=".3" stop-color="#f2f1f1"/><stop offset=".43" stop-color="#e0e0e0"/><stop offset=".55" stop-color="#c8c7c8"/><stop offset=".67" stop-color="#a9a8a8"/><stop offset=".78" stop-color="#838181"/><stop offset=".89" stop-color="#575455"/><stop offset="1" stop-color="#242021"/><stop offset="1" stop-color="#231f20"/></linearGradient><linearGradient id="linear-gradient-12" x1="42.92" y1="24.2" x2="40.34" y2="22.9" gradientUnits="userSpaceOnUse"><stop offset="0" stop-color="#fff"/><stop offset=".17" stop-color="#fcfcfc"/><stop offset=".31" stop-color="#f2f2f2"/><stop offset=".44" stop-color="#e2e1e1"/><stop offset=".55" stop-color="#cac9c9"/><stop offset=".67" stop-color="#acabab"/><stop offset=".78" stop-color="#878585"/><stop offset=".89" stop-color="#5b5859"/><stop offset=".99" stop-color="#2a2627"/><stop offset="1" stop-color="#231f20"/></linearGradient><linearGradient id="linear-gradient-13" x1="41.41" y1="25.39" x2="29.16" y2="27.79" gradientUnits="userSpaceOnUse"><stop offset="0" stop-color="#d2b887"/><stop offset=".06" stop-color="#c0a980"/><stop offset=".22" stop-color="#90826e"/><stop offset=".39" stop-color="#68625f"/><stop offset=".55" stop-color="#4a4953"/><stop offset=".71" stop-color="#34374b"/><stop offset=".86" stop-color="#262d46"/><stop offset="1" stop-color="#222944"/></linearGradient><linearGradient id="linear-gradient-14" x1="41.49" y1="25.79" x2="41.12" y2="24.43" gradientUnits="userSpaceOnUse"><stop offset="0" stop-color="#fff"/><stop offset=".14" stop-color="#fbfbfb"/><stop offset=".28" stop-color="#f0f0f0"/><stop offset=".41" stop-color="#ddd"/><stop offset=".54" stop-color="#c3c2c2"/><stop offset=".67" stop-color="#a1a0a0"/><stop offset=".79" stop-color="#787576"/><stop offset=".92" stop-color="#474445"/><stop offset="1" stop-color="#231f20"/></linearGradient><linearGradient id="linear-gradient-15" x1="7.34" y1="13.85" x2="28.32" y2="13.85" gradientUnits="userSpaceOnUse"><stop offset="0" stop-color="#e4e5e6"/><stop offset=".31" stop-color="#d9dadc"/><stop offset=".86" stop-color="#bcbdc0"/><stop offset="1" stop-color="#b3b5b8"/></linearGradient><linearGradient id="linear-gradient-16" x1="10.54" y1="16.1" x2="15.58" y2="16.1" gradientUnits="userSpaceOnUse"><stop offset="0" stop-color="#cad0df"/><stop offset=".14" stop-color="#bfc6d5"/><stop offset=".39" stop-color="#a1aaba"/><stop offset=".72" stop-color="#727e8e"/><stop offset="1" stop-color="#435363"/></linearGradient><linearGradient id="linear-gradient-17" x1="15.11" y1="15.96" x2="14.6" y2="16.33" gradientUnits="userSpaceOnUse"><stop offset="0" stop-color="#435363"/><stop offset=".23" stop-color="#414f5e"/><stop offset=".49" stop-color="#3a4450"/><stop offset=".77" stop-color="#2f3238"/><stop offset="1" stop-color="#231f20"/></linearGradient><linearGradient id="linear-gradient-18" x1="15.38" y1="18.04" x2="16.01" y2="17.87" gradientUnits="userSpaceOnUse"><stop offset="0" stop-color="#435363"/><stop offset=".1" stop-color="#404e5c"/><stop offset="1" stop-color="#231f20"/></linearGradient><linearGradient id="linear-gradient-19" x1="11.93" y1="17.95" x2="15.7" y2="17.95" gradientUnits="userSpaceOnUse"><stop offset="0" stop-color="#cad0df"/><stop offset=".02" stop-color="#c7cddc"/><stop offset=".66" stop-color="#687685"/><stop offset=".94" stop-color="#435363"/></linearGradient><linearGradient id="linear-gradient-20" x1="13.14" y1="25.04" x2="17.74" y2="25.04" xlink:href="#linear-gradient-5"/><linearGradient id="linear-gradient-21" x1="19.36" y1="25.5" x2="19.36" y2="24.51" gradientUnits="userSpaceOnUse"><stop offset="0" stop-color="#407cca"/><stop offset=".06" stop-color="#3e76c1"/><stop offset=".51" stop-color="#2f4d7e"/><stop offset=".83" stop-color="#263354"/><stop offset="1" stop-color="#222944"/></linearGradient><linearGradient id="linear-gradient-22" x1="25.18" y1="22.74" x2="25.18" y2="21.8" gradientUnits="userSpaceOnUse"><stop offset="0" stop-color="#407cca"/><stop offset=".24" stop-color="#3866a7"/><stop offset=".76" stop-color="#283a60"/><stop offset="1" stop-color="#222944"/></linearGradient><linearGradient id="linear-gradient-23" x1="38.38" y1="16.85" x2="38.38" y2="15.67" gradientUnits="userSpaceOnUse"><stop offset="0" stop-color="#407cca"/><stop offset="1" stop-color="#222944"/></linearGradient><linearGradient id="linear-gradient-24" x1="43.52" y1="16.86" x2="43.23" y2="15.6" gradientUnits="userSpaceOnUse"><stop offset="0" stop-color="#fff"/><stop offset=".13" stop-color="#fbfbfb"/><stop offset=".26" stop-color="#efefef"/><stop offset=".4" stop-color="#dbdada"/><stop offset=".54" stop-color="#bfbebe"/><stop offset=".67" stop-color="#9a9999"/><stop offset=".81" stop-color="#6e6b6c"/><stop offset=".94" stop-color="#3a3738"/><stop offset="1" stop-color="#231f20"/></linearGradient><linearGradient id="linear-gradient-25" x1="43.26" y1="21.1" x2="42.22" y2="17.7" gradientUnits="userSpaceOnUse"><stop offset="0" stop-color="#fff"/><stop offset=".2" stop-color="#fcfcfc"/><stop offset=".34" stop-color="#f3f3f3"/><stop offset=".46" stop-color="#e4e3e4"/><stop offset=".57" stop-color="#cecece"/><stop offset=".68" stop-color="#b3b1b1"/><stop offset=".78" stop-color="#908e8f"/><stop offset=".87" stop-color="#686565"/><stop offset=".96" stop-color="#3a3637"/><stop offset="1" stop-color="#231f20"/></linearGradient><linearGradient id="linear-gradient-26" x1="44.31" y1="21.14" x2="45.9" y2="21.14" gradientUnits="userSpaceOnUse"><stop offset="0" stop-color="#e1e4ec"/><stop offset=".08" stop-color="#ced2db"/><stop offset=".22" stop-color="#b2b9c2"/><stop offset=".37" stop-color="#9ca4af"/><stop offset=".53" stop-color="#8d96a1"/><stop offset=".73" stop-color="#848e99"/><stop offset="1" stop-color="#818b96"/></linearGradient><linearGradient id="linear-gradient-27" x1="46.37" y1="15.76" x2="47.72" y2="15.76" gradientUnits="userSpaceOnUse"><stop offset="0" stop-color="#acb6cd"/><stop offset=".03" stop-color="#a7b1c8"/><stop offset=".2" stop-color="#8894a8"/><stop offset=".38" stop-color="#707e8f"/><stop offset=".56" stop-color="#5f6e7e"/><stop offset=".76" stop-color="#556473"/><stop offset="1" stop-color="#526170"/></linearGradient><linearGradient id="linear-gradient-28" x1="38.83" y1="14.65" x2="38.83" y2="12.74" gradientUnits="userSpaceOnUse"><stop offset="0" stop-color="#e4e5e6"/><stop offset=".4" stop-color="#e2e3e4"/><stop offset=".63" stop-color="#d9dbdc"/><stop offset=".81" stop-color="#cccdcf"/><stop offset=".97" stop-color="#b8babd"/><stop offset="1" stop-color="#b3b5b8"/></linearGradient></defs><g id="Слой_2" data-name="Слой 2"><g id="Слой_1-2" data-name="Слой 1"><path class="cls-1" d="M0 0h56.69v42.52H0z"/><path d="M9.62 14.4a11 11 0 0 1 .92.92h17.55v1.55H11.68c.09.15.17.3.24.45v.06h16.2v1.12h-16l.09.54h15.9v1.48H12.43l.09.59h9.36v2.31h-9l.13.84a1.67 1.67 0 0 0 .12.37h8.75v.8h-7.71a21.66 21.66 0 0 0 2.31.67c2.51.48 11.83 2.45 11.83 2.45V14.4z" fill="url(#linear-gradient)"/><path d="M15.06 25.94c-1.71-.46-2.13-.85-2.17-1.25s-1.21-7.37-1.21-7.37a19.42 19.42 0 0 0-1.79-2.42 4.55 4.55 0 0 0-2.26-1.22l2.61 3.55s1.13 6.5 1.3 7.41c.07.38.49.82 2 1.37l5.22.79s-1.99-.4-3.7-.86z" stroke-width=".25" stroke-linejoin="round" stroke-linecap="round" stroke="#6d6f71" fill="#231f20"/><path d="M8 14.21l.79.62a1.58 1.58 0 0 1 .88.48c.39.42 1.39 1.73 1.39 1.73l-.8.4a.57.57 0 0 0-.1-.29z" fill="url(#linear-gradient-2)"/><path d="M10.25 17.32h1.18s1 5.66 1.08 6 .48 1.51 0 1.53-.94-.06-1.07-.77z" fill="url(#linear-gradient-3)"/><path d="M27.88 28.47c-1.87-.39-9.21-1.94-11.39-2.36-2.61-.66-3.27-.88-3.47-1.84-.32-2.1-1-6-1.1-6.93a10.49 10.49 0 0 0-2.3-2.93 9.56 9.56 0 0 0-2.26-1.06l.26.35a4.55 4.55 0 0 1 2.26 1.22 19.42 19.42 0 0 1 1.79 2.42s1.17 7 1.21 7.37.46.79 2.17 1.25 3.72.87 3.72.87 8.11 1.6 9.1 1.66z" fill="#fff" stroke-width=".25" stroke-linejoin="round" stroke-linecap="round" stroke="#6d6f71"/><path d="M27.88 28.47c-1-.06-9.1-1.66-9.1-1.66L13.56 26c2.12.76 6.36 1.75 14.75 3.1v-.56z" fill="url(#linear-gradient-4)" stroke-width=".25" stroke="#6d6f71"/><path d="M12.19 19l.24 1.48h3.47c-.09-.43-.18-1.13-.22-1.48z" fill="url(#linear-gradient-5)" stroke-width=".25" stroke-linejoin="round" stroke-linecap="round" stroke="#6d6f71"/><path d="M12.52 21.11c.13.8.26 1.6.37 2.31h3.44L16 21.11z" fill="url(#linear-gradient-6)" stroke-width=".25" stroke-linejoin="round" stroke-linecap="round" stroke="#6d6f71"/><path d="M49.35 13.31L47 14.4l-2 3s-.67 4.66-.91 5.82-.52 2.08-1.3 2.38c-2.73.89-14.48 3-14.48 3s7.63-1 11.14-1.83l3.69-.77c1.52-.55 1.94-1 2-1.37.17-.91 1.3-7.41 1.3-7.41l2.89-3.93z" fill="url(#linear-gradient-7)" stroke-width=".25" stroke-linejoin="round" stroke-linecap="round" stroke="#6d6f71"/><path d="M28.32 28.56v.56C36.77 27.76 41 26.77 43.14 26l-3.69.72c-3.51.8-11.13 1.84-11.13 1.84z" fill="url(#linear-gradient-8)" stroke-width=".25" stroke="#6d6f71"/><path d="M28.32 14.4v14.16s11.75-2.07 14.48-3c.78-.3 1.06-1.21 1.3-2.38s.91-5.82.91-5.82l2-3z" fill="url(#linear-gradient-9)"/><path fill="url(#linear-gradient-10)" stroke-width=".25" stroke-linejoin="round" stroke-linecap="round" stroke="#6d6f71" d="M28.59 19.12h5.75v.76h-5.75z"/><path class="cls-14" d="M40.72 21.14H28.59v1.44h11.89z"/><path fill="url(#linear-gradient-11)" stroke-width=".25" stroke-linejoin="round" stroke-linecap="round" stroke="#6d6f71" d="M44.14 21.14h-3.42l-.24 1.44h3.37l.29-1.44z"/><path d="M28.59 23.14v1h11.37a7.3 7.3 0 0 0 .24-1z" fill="#1e252b" stroke-width=".25" stroke="#6d6f71"/><path d="M43.74 23.16H40.2a7.3 7.3 0 0 1-.24 1h3.67z" fill="url(#linear-gradient-12)" stroke-width=".25" stroke-linejoin="round" stroke-linecap="round" stroke="#6d6f71"/><path d="M37.89 25.92c-1 .25-8.08 1.42-9.3 1.62v.71s10.82-2 12.13-2.35l1-.29c-.67-.09-1.87-.18-2.44-.22a5.8 5.8 0 0 1-1.39.53z" fill="url(#linear-gradient-13)" stroke-width=".25" stroke-linejoin="round" stroke-linecap="round" stroke="#6d6f71"/><path d="M43.26 24.71h-3.33a1.26 1.26 0 0 1-.62.67c.58 0 1.77.13 2.44.22.77-.23 1.31-.48 1.51-.89z" fill="url(#linear-gradient-14)" stroke-width=".25" stroke-linejoin="round" stroke-linecap="round" stroke="#6d6f71"/><path d="M28.32 14.4v-1.09h-21a9.56 9.56 0 0 1 2.3 1.09z" fill="url(#linear-gradient-15)" stroke-width=".25" stroke-linejoin="round" stroke-linecap="round" stroke="#6d6f71"/><path class="cls-14" d="M28.09 15.32H14.35l1.24 1.56h12.5v-1.56z"/><path class="cls-21" d="M14.56 15.59h13.53"/><path class="cls-22" d="M14.69 15.75h13.4M14.86 15.97h13.23"/><path class="cls-23" d="M15.05 16.2h13.04"/><path class="cls-22" d="M15.23 16.44h12.86M15.43 16.68h12.66"/><path class="cls-21" d="M15.8 15.32v1.56"/><path class="cls-22" d="M16.28 15.32v1.56"/><path class="cls-24" d="M17.05 15.32v1.56"/><path class="cls-22" d="M17.8 15.32v1.56"/><path class="cls-23" d="M18.47 15.32v1.56"/><path class="cls-24" d="M19.42 15.32v1.56"/><path class="cls-22" d="M20.48 15.32v1.56M21.57 15.32v1.56"/><path class="cls-24" d="M22.72 15.32v1.56"/><path class="cls-22" d="M23.67 15.32v1.56"/><path class="cls-23" d="M24.65 15.32v1.56"/><path class="cls-22" d="M25.42 15.32v1.56"/><path class="cls-24" d="M26.23 15.32v1.56"/><path class="cls-23" d="M27.27 15.32v1.56"/><path d="M10.54 15.32a9.68 9.68 0 0 1 1.14 1.55h3.8l-1.22-1.55z" fill="url(#linear-gradient-16)" stroke-width=".25" stroke-linecap="round" stroke="#6d6f71"/><path fill="url(#linear-gradient-17)" d="M14.35 15.32h-.09l1.21 1.56h.12l-1.24-1.56z"/><path class="cls-27" d="M15.06 25.94c-1.71-.46-2.13-.85-2.17-1.25s-1.21-7.37-1.21-7.37a19.42 19.42 0 0 0-1.79-2.42 4.55 4.55 0 0 0-2.26-1.22l2.61 3.55s1.13 6.5 1.3 7.41c.07.38.49.82 2 1.37l5.22.79s-1.99-.4-3.7-.86z"/><path fill="url(#linear-gradient-18)" d="M15.38 17.39l.32 1.11h.36l-.32-1.11h-.36z"/><path d="M11.93 17.39l.18 1.11h3.6l-.32-1.11z" fill="url(#linear-gradient-19)" stroke-width=".25" stroke-linejoin="round" stroke-linecap="round" stroke="#6d6f71"/><path fill="#1e252b" d="M28.13 17.39H15.74l.32 1.11h12.07v-1.11z"/><path class="cls-14" d="M28.09 19H15.68c0 .35.14 1.06.22 1.48h12.19z"/><path class="cls-21" d="M15.72 19.33h12.37"/><path class="cls-22" d="M15.76 19.64h12.33"/><path class="cls-24" d="M15.81 20h12.28"/><path class="cls-22" d="M15.86 20.28h12.23M16.32 19.04v1.48M24.2 19.04v1.48"/><path class="cls-23" d="M17.58 19.04v1.48M27.3 19.04v1.48M23.31 19.04v1.48M20.49 19.04v1.48"/><path class="cls-24" d="M19.48 19.04v1.48M25.31 19.04v1.48M22.46 19.04v1.48"/><path class="cls-22" d="M21.49 19.04v1.48M26.39 19.04v1.48M18.43 19.04v1.48"/><path stroke-width=".07" stroke="#b6a269" fill="none" d="M28.63 21.43h12.04"/><path class="cls-32" d="M28.67 21.73h11.95"/><path class="cls-33" d="M28.72 22.07h11.85"/><path class="cls-32" d="M28.82 22.35h11.7M29.23 21.14v1.44M37.11 21.14v1.44"/><path class="cls-34" d="M30.49 21.14v1.44M40.21 21.14v1.44M36.22 21.14v1.44M33.4 21.14v1.44"/><path class="cls-33" d="M32.39 21.14v1.44M38.22 21.14v1.44M35.37 21.14v1.44"/><path class="cls-32" d="M34.39 21.14v1.44M39.3 21.14v1.44M31.33 21.14v1.44"/><path class="cls-1" d="M34.37 26.65v-.08l-.45.08z"/><path class="cls-35" d="M35.45 26v.36l.76-.13V26zM37.17 26.07l.26-.05h-.26zM36.26 26v.22l.83-.15V26zM37.17 25.35v.58h.71l.28-.08v-.49zM38.3 25.35v.45a4.94 4.94 0 0 0 1-.39v-.06zM39.36 25.36zM29.29 26.78v.49h1.19v-.44zM39.45 25.3a1.14 1.14 0 0 0 .48-.58h-.58v.58zM30.53 26.78v.44l.78-.13v-.31zM31.39 26.78v.29l.94-.16v-.13zM34.46 26v.54l.87-.15V26zM33.44 26v.63h.48l.45-.08V26zM32.47 26.89l.66-.11h-.66zM33.44 24.71h.93v.58h-.93zM35.45 25.35h.76v.58h-.76zM32.47 25.35h.93v.58h-.93zM34.46 25.35h.87v.58h-.87zM33.44 25.35h.93v.58h-.93zM31.39 25.35h.94v.58h-.94zM32.47 26.02h.93v.63h-.93zM29.29 26.02h1.19v.63h-1.19zM31.39 26.02h.94v.63h-.94zM30.53 26.02h.78v.63h-.78zM30.53 25.35h.78v.58h-.78zM29.29 25.35h1.19v.58h-1.19zM36.26 25.35h.83v.58h-.83zM34.46 24.71h.87v.58h-.87zM36.26 24.71h.83v.58h-.83zM37.17 24.71h1v.58h-1zM32.47 24.71h.93v.58h-.93zM35.45 24.71h.76v.58h-.76zM28.84 27.36v-.09h.37v-.49h-.47v-.13h.47V26h-.52v-.09h.52v-.58h-.56v-.03h.56v-.58h-.6v2.82l.6-.1v-.08zM29.29 27.42l.38-.06h-.38zM29.29 24.71h1.19v.58h-1.19zM31.39 24.71h.94v.58h-.94zM30.53 24.71h.78v.58h-.78zM38.3 24.71h.96v.58h-.96z"/><path d="M29.29 27.27v-.49h1.19v.44-.44h.78v.31h.09v-.29h.94v.13h.13v-.11h.66l.79-.13h-.48V26h.93v.55h.09V26h.87v.39h.13V26h.76v.23V26H37v.07h.09V26h.26l.41-.09h-.67v-.58h1v.49h.13v-.45h1v.06l.09-.05.08-.05h-.1v-.58h-.09v.58h-1v-.58h-.13v.58h-1v-.58h-.09v.58h-.83v-.58.58h-.76v-.58h-.13v.58h-.87v-.58h-.09v.58h-.93v-.58.58h-.93v-.58h-.13v.58h-.94v-.58h-.09v.58h-.78v-.58.58h-1.21v-.58h-.09v.58h-.56v.05h.56v.58h-.52V26h.52v.63h-.47v.13h.47v.49h-.37v.09h.37v.08h.09v-.06h.38l.54-.09zm7-1.92h.83v.58h-.83zm-.8 0h.76v.58h-.76zm-1 0h.87v.58h-.87zm-1 0h.93v.58h-.93zm-1 0h.93v.58h-.93zm0 .67h.93v.63h-.93zm-1.08-.67h.94v.58h-.94zm0 .67h.94v.63h-.94zm-.87-.67h.78v.58h-.78zm0 .67h.78v.63h-.78zm-1.23-.67h1.19v.58h-1.21zm0 .67h1.19v.63h-1.21z" fill="#b6a269"/><path class="cls-37" d="M21.89 21.11h-5.87l.31 2.31h5.56v-2.31z"/><path class="cls-38" d="M16.68 21.11v2.31"/><path class="cls-39" d="M17.9 21.11v2.31M21.65 21.11v2.31M20.13 21.11v2.31"/><path class="cls-38" d="M19.04 21.11v2.31"/><path class="cls-40" d="M19.61 21.11v2.31M17.25 21.11v2.31M21.2 21.11v2.31"/><path class="cls-39" d="M20.6 21.11v2.31M18.4 21.11v2.31"/><path class="cls-41" d="M16.4 21.11v2.31"/><path class="cls-37" d="M28.59 15.35h5.75v2.31h-5.75z"/><path class="cls-38" d="M29.14 15.35v2.32"/><path class="cls-39" d="M30.36 15.35v2.32M34.11 15.35v2.32M32.58 15.35v2.32"/><path class="cls-38" d="M31.5 15.35v2.32"/><path class="cls-40" d="M32.07 15.35v2.32M29.71 15.35v2.32M33.66 15.35v2.32"/><path class="cls-39" d="M33.06 15.35v2.32M30.86 15.35v2.32"/><path class="cls-41" d="M28.85 15.35v2.32"/><path class="cls-37" d="M41.23 18.01l-6.28.04v2.48h5.82l.46-2.52z"/><path class="cls-42" d="M35.49 18.05v2.48"/><path class="cls-43" d="M36.71 18.05v2.48M40.47 18.05v2.48M38.94 18.05v2.48"/><path class="cls-42" d="M37.85 18.05v2.48"/><path class="cls-44" d="M38.43 18.05v2.48M36.06 18.05v2.48M40.02 18.05v2.48"/><path class="cls-43" d="M39.41 18.05v2.48M37.21 18.05v2.48"/><path stroke-width=".17" stroke="#a93737" fill="none" d="M35.21 18.05v2.48"/><path d="M16.84 24.64h-3.7a1.68 1.68 0 0 0 1 .8h3.57a2 2 0 0 1-.87-.8z" fill="url(#linear-gradient-20)" stroke-width=".25" stroke-linejoin="round" stroke-linecap="round" stroke="#6d6f71"/><path d="M21.89 24.64h-5a2 2 0 0 0 .9.8h4.15z" fill="url(#linear-gradient-21)" stroke-width=".25" stroke-linejoin="round" stroke-linecap="round" stroke="#6d6f71"/><path fill="url(#linear-gradient-22)" stroke-width=".25" stroke-linejoin="round" stroke-linecap="round" stroke="#6d6f71" d="M22.28 21.86h5.8v.85h-5.8z"/><path class="cls-37" d="M22.27 23.85v2.63l5.82 1.06v-3.69h-5.82z"/><path class="cls-40" d="M22.58 23.85v2.69"/><path class="cls-38" d="M23.19 23.85v2.69"/><path class="cls-39" d="M23.98 23.85v2.9"/><path class="cls-40" d="M24.79 23.88v3.01"/><path class="cls-38" d="M25.63 23.88v3.19"/><path class="cls-39" d="M26.36 23.88v3.3"/><path class="cls-38" d="M27.15 23.88v3.49"/><path class="cls-39" d="M27.77 23.88v3.6"/><path d="M34.94 15.94v.83h6.28a7.72 7.72 0 0 0 .59-.83z" fill="url(#linear-gradient-23)" stroke-width=".25" stroke-linejoin="round" stroke-linecap="round" stroke="#6d6f71"/><path d="M44.73 15.94h-2.92a7.72 7.72 0 0 1-.59.83H45l.54-.83a6.7 6.7 0 0 0-.81 0z" fill="url(#linear-gradient-24)" stroke-width=".25" stroke-linejoin="round" stroke-linecap="round" stroke="#6d6f71"/><path fill="url(#linear-gradient-25)" stroke-width=".25" stroke-linejoin="round" stroke-linecap="round" stroke="#6d6f71" d="M44.62 17.99l-3.39.02-.46 2.52h3.47l.38-2.54z"/><path d="M28.61 24.71v2.82c-.01-.92 0-2.16 0-2.82z" stroke-width=".06" stroke="#6d6f71" fill="none"/><path d="M46.45 17.31h-1.22a52.91 52.91 0 0 1-1.4 7c-.32.71 0 .73.39.71a2.06 2.06 0 0 0 1-.47l1.32-7.2" fill="url(#linear-gradient-26)"/><path d="M48.6 14.33l-1 .87a2.14 2.14 0 0 0-.9.52c-.27.33-1 1.38-1 1.38l.78.08z" fill="url(#linear-gradient-27)"/><path class="cls-27" d="M39.93 24.71H28.59v2.82s6.57-1.07 7.67-1.29 3.65-.63 3.67-1.53zM40.72 21.14H28.59v1.44h11.89zM41.23 18.01l-6.28.04v2.48h5.82l.46-2.52zM28.59 15.35h5.75v2.31h-5.75zM28.09 15.32H14.35l1.24 1.56h12.5v-1.56zM28.09 19H15.68c0 .35.14 1.06.22 1.48h12.19zM22.27 23.85v2.63l5.82 1.06v-3.69h-5.82z"/><path class="cls-1" d="M21.89 21.11h-5.87l.31 2.31h5.56v-2.31z"/><path class="cls-27" d="M21.89 21.11h-5.87l.31 2.31h5.56v-2.31z"/><path fill="url(#linear-gradient-28)" stroke-width=".25" stroke-linejoin="round" stroke-linecap="round" stroke="#6d6f71" d="M28.35 13.31h-.03v1.09h18.71l2.32-1.09h-21z"/><path d="M47.27 24.57a.35.35 0 1 1-.35-.34.34.34 0 0 1 .35.34zm-.61 0a.26.26 0 0 0 .27.27.26.26 0 0 0 .26-.27.26.26 0 1 0-.52 0zm.21.18h-.08v-.34h.13a.18.18 0 0 1 .12 0 .09.09 0 0 1 0 .07.09.09 0 0 1-.07.08l.06.08a.31.31 0 0 0 0 .08H47a.27.27 0 0 1 0-.08s0-.05-.07-.05zm0-.19h.08s0-.05-.07-.05z" fill="#6d6f71"/></g></g></svg>