<svg xmlns="http://www.w3.org/2000/svg" xmlns:xlink="http://www.w3.org/1999/xlink" width="20mm" height="15mm" viewBox="0 0 56.69 42.52"><defs><style>.cls-4{fill:#231f20}.cls-5{fill:#a7a9ac}</style><linearGradient id="linear-gradient" x1="26.29" y1="15.16" x2="15.48" y2="22.23" gradientUnits="userSpaceOnUse"><stop offset=".02" stop-color="gray"/><stop offset="1" stop-color="#fff"/></linearGradient><linearGradient id="linear-gradient-2" x1="28.9" y1="19.1" x2="41.13" y2="19.1" xlink:href="#linear-gradient"/><linearGradient id="linear-gradient-3" x1="16.48" y1="15.65" x2="40.27" y2="15.65" gradientUnits="userSpaceOnUse"><stop offset=".02" stop-color="gray"/><stop offset=".54" stop-color="#fff"/><stop offset="1" stop-color="gray"/></linearGradient><linearGradient id="linear-gradient-4" x1="26.29" y1="24.15" x2="15.48" y2="31.23" xlink:href="#linear-gradient"/><linearGradient id="linear-gradient-5" x1="28.9" y1="28.09" x2="41.13" y2="28.09" xlink:href="#linear-gradient"/><linearGradient id="linear-gradient-6" x1="16.48" y1="24.64" x2="40.27" y2="24.64" xlink:href="#linear-gradient-3"/></defs><g id="Слой_2" data-name="Слой 2"><g id="Слой_1-2" data-name="Слой 1"><path d="M15.59 21.52s2-2 2.84-2.67a16.34 16.34 0 0 1 2.15-1.68s5.18-3.27 7.24-2.43c0 0-.22.74-2.9 2.36s-8.81 6.44-8.81 6.44-.37.22-.4-.32-.12-1.7-.12-1.7z" fill="url(#linear-gradient)"/><path d="M41.13 21.52s-2-2-2.84-2.67a16.34 16.34 0 0 0-2.15-1.68S31 13.91 28.9 14.74c0 0 .22.74 2.9 2.36s8.81 6.44 8.81 6.44.37.22.4-.32.12-1.7.12-1.7z" fill="url(#linear-gradient-2)"/><path d="M15.8 20.48a20.19 20.19 0 0 1 2.79-3.26c1.67-1.56 7.54-7.69 9.78-7.46s4.63 2.66 6.11 3.9 5.66 5.65 5.66 5.65a6.13 6.13 0 0 1 .86 2.11s-3-2.91-4-3.65-3.47-2.07-3.47-2.07L29.18 14l-3.49.43-3 1.25s-2.69 1.85-2.95 2.07-2.76 2.3-4.14 3.8a4 4 0 0 1 .2-1.07z" fill="url(#linear-gradient-3)"/><path class="cls-4" d="M16.2 23.65s4.91-3.94 6.63-5.07c.91-.6 4-2.55 5.58-2.55 1.16 0 3.48 1.26 5.12 2.35a80 80 0 0 1 6.84 5.28.49.49 0 0 0 .5.14c.27-.07.34-.41.33-.6l.05-1.71a3.78 3.78 0 0 0-1-2.25c-1-1.06-4.66-4.78-6.14-6.05a23 23 0 0 0-4.55-3.24 2.78 2.78 0 0 0-1.18-.31 3.83 3.83 0 0 0-1.78.58 27.45 27.45 0 0 0-4 3c-1.18 1-2.78 2.63-3.65 3.49l-.46.46c-.5.49-2.06 2.19-2.33 2.49a3.06 3.06 0 0 0-.71 1.91v1.71a.7.7 0 0 0 .21.49.41.41 0 0 0 .54-.12zm-.33-.16a.48.48 0 0 1-.09-.28s-.06-.87 0-1.69a2.77 2.77 0 0 1 .64-1.73c.27-.3 1.82-2 2.31-2.47l.46-.46c.86-.86 2.46-2.45 3.63-3.48a27.17 27.17 0 0 1 3.93-2.93 3.59 3.59 0 0 1 1.66-.55 2.54 2.54 0 0 1 1.05.28 22.74 22.74 0 0 1 4.5 3.2c1.47 1.27 5.14 5 6.12 6a3.56 3.56 0 0 1 .92 2.1l-.05 1.71c0 .1 0 .3-.12.33a.22.22 0 0 1-.22 0 79.43 79.43 0 0 0-6.88-5.32c-.6-.4-3.7-2.39-5.27-2.39s-4.53 1.82-5.73 2.6c-1.73 1.13-6.61 5-6.66 5.08s-.17.03-.2.01z"/><path class="cls-4" d="M19.51 17.93s5.19-4.44 8.7-4.44 8 3.61 9 4.47a18.62 18.62 0 0 0-5.06-2.38c-2.43-.59-2.47-.25-2.51-.1a30.34 30.34 0 0 0 2.68 1.44c.7.45 2.59 1.74 3.57 2.51s3.08 2.56 3.53 3 1.22 1.27 1.22 1.27-.11 0-.42-.3-1.16-1-1.6-1.34-2.32-1.77-2.32-1.77-2.3-1.77-2.85-2.12-2.5-1.46-2.5-1.46a16.82 16.82 0 0 0-1.73-.71 3.61 3.61 0 0 0-1.85 0 13.88 13.88 0 0 0-1.55.63c-.33.15-1.93 1.06-1.93 1.06s-1.33.85-1.66 1.07-1.68 1.25-2 1.54-1.84 1.42-1.84 1.42L17 22.84l-.74.6a2.7 2.7 0 0 1-.25.18h-.09s.69-.68 1.06-1 2.75-2.36 3.38-2.88 2.73-2 3-2.16 1.33-.83 1.69-1a18.28 18.28 0 0 1 1.66-.84c.21-.07.45-.12.29-.36s-1.41 0-1.95.06a17.21 17.21 0 0 0-2.55.89c-.5.2-2.2 1.07-2.99 1.6z"/><path class="cls-5" d="M28.35 10.55a11.9 11.9 0 0 0 .06 1.3c.06.34.34 1 1.39 1.3a25.7 25.7 0 0 1 6 3.34c2 1.58 4.52 3.93 4.52 3.93l-.06-.22s-3.56-4-5.45-5.58-6.12-5.34-6.46-4.07z"/><g><path d="M15.59 30.52s2-2 2.84-2.67a16.33 16.33 0 0 1 2.15-1.68s5.18-3.27 7.24-2.43c0 0-.22.74-2.9 2.36s-8.81 6.44-8.81 6.44-.37.22-.4-.32-.12-1.7-.12-1.7z" fill="url(#linear-gradient-4)"/><path d="M41.13 30.52s-2-2-2.84-2.67a16.33 16.33 0 0 0-2.15-1.68S31 22.9 28.9 23.74c0 0 .22.74 2.9 2.36s8.81 6.44 8.81 6.44.37.22.4-.32.12-1.7.12-1.7z" fill="url(#linear-gradient-5)"/><path d="M15.8 29.48a20.19 20.19 0 0 1 2.79-3.26c1.67-1.56 7.54-7.69 9.78-7.46s4.63 2.66 6.11 3.9 5.66 5.65 5.66 5.65a6.13 6.13 0 0 1 .86 2.1s-3-2.91-4-3.65-3.47-2.07-3.47-2.07L29.18 23l-3.49.43-3 1.25s-2.69 1.85-2.95 2.06S17 29 15.59 30.53a4 4 0 0 1 .21-1.05z" fill="url(#linear-gradient-6)"/><path class="cls-4" d="M16.2 32.64s4.91-3.94 6.63-5.07c.91-.6 4-2.55 5.58-2.55 1.16 0 3.48 1.26 5.12 2.35a80 80 0 0 1 6.84 5.28.49.49 0 0 0 .5.14c.27-.07.34-.41.33-.6l.05-1.71a3.78 3.78 0 0 0-1-2.25c-1-1.06-4.66-4.78-6.14-6.05a23 23 0 0 0-4.55-3.24 2.78 2.78 0 0 0-1.18-.31 3.83 3.83 0 0 0-1.78.58 27.44 27.44 0 0 0-4 3c-1.18 1-2.78 2.63-3.65 3.49l-.46.46c-.5.49-2.06 2.19-2.33 2.49a3.06 3.06 0 0 0-.71 1.91v1.71a.7.7 0 0 0 .21.49.41.41 0 0 0 .54-.12zm-.33-.16a.48.48 0 0 1-.09-.28s-.06-.87 0-1.69a2.77 2.77 0 0 1 .64-1.73c.27-.3 1.82-2 2.31-2.47l.46-.46c.86-.86 2.46-2.45 3.63-3.48a27.17 27.17 0 0 1 3.93-2.93 3.59 3.59 0 0 1 1.66-.55 2.54 2.54 0 0 1 1.05.28 22.74 22.74 0 0 1 4.5 3.2c1.47 1.27 5.14 5 6.12 6a3.56 3.56 0 0 1 .92 2.1l-.05 1.71c0 .1 0 .3-.12.33a.22.22 0 0 1-.22 0 79.43 79.43 0 0 0-6.88-5.32c-.6-.4-3.7-2.39-5.27-2.39s-4.53 1.82-5.73 2.6c-1.73 1.13-6.61 5-6.66 5.08s-.17.03-.2.01z"/><path class="cls-4" d="M19.51 26.92s5.19-4.44 8.7-4.44 8 3.61 9 4.47a18.62 18.62 0 0 0-5.06-2.38c-2.43-.59-2.47-.25-2.51-.1a30.35 30.35 0 0 0 2.68 1.44c.7.45 2.59 1.74 3.57 2.51S39 31 39.45 31.4s1.22 1.27 1.22 1.27-.11 0-.42-.3-1.16-1-1.6-1.34-2.32-1.77-2.32-1.77-2.33-1.75-2.88-2.1-2.5-1.46-2.5-1.46a16.82 16.82 0 0 0-1.73-.7 3.61 3.61 0 0 0-1.85 0 13.88 13.88 0 0 0-1.55.63c-.33.15-1.93 1.06-1.93 1.06s-1.33.85-1.66 1.07-1.68 1.25-2 1.54-1.84 1.42-1.84 1.42L17 31.83l-.74.6a2.7 2.7 0 0 1-.25.18h-.09s.69-.68 1.06-1 2.75-2.36 3.38-2.88 2.73-2 3-2.16 1.33-.83 1.69-1a18.27 18.27 0 0 1 1.66-.84c.21-.07.45-.12.29-.36s-1.41 0-1.95.06a17.21 17.21 0 0 0-2.55.89c-.5.2-2.2 1.07-2.99 1.6z"/><path class="cls-5" d="M28.35 19.54a11.91 11.91 0 0 0 .06 1.3c.06.34.34 1 1.39 1.3a25.7 25.7 0 0 1 6 3.34c2 1.58 4.52 3.93 4.52 3.93l-.06-.22s-3.56-4-5.45-5.58-6.12-5.34-6.46-4.07z"/></g><path fill="none" d="M0 0h56.69v42.52H0z"/></g></g></svg>