<svg xmlns="http://www.w3.org/2000/svg" width="20mm" height="15mm" viewBox="0 0 56.69 42.52"><defs><linearGradient id="a" x1="7.83" y1="20.86" x2="48.97" y2="20.86" gradientUnits="userSpaceOnUse"><stop offset="0" stop-color="#fff"/><stop offset="0" stop-color="#e3e3e3"/><stop offset=".01" stop-color="#bfbfbf"/><stop offset=".01" stop-color="#9f9f9f"/><stop offset=".02" stop-color="#838383"/><stop offset=".03" stop-color="#6d6d6d"/><stop offset=".04" stop-color="#5c5c5c"/><stop offset=".05" stop-color="#515151"/><stop offset=".06" stop-color="#4a4a4a"/><stop offset=".11" stop-color="#484848"/><stop offset=".12" stop-color="#3e3e3e"/><stop offset=".16" stop-color="#282828"/><stop offset=".2" stop-color="#161616"/><stop offset=".25" stop-color="#090909"/><stop offset=".32" stop-color="#020202"/><stop offset=".49"/><stop offset=".6" stop-color="#040404"/><stop offset=".72" stop-color="#121212"/><stop offset=".85" stop-color="#272727"/><stop offset=".93" stop-color="#393939"/><stop offset=".94" stop-color="#3d3d3d"/><stop offset=".95" stop-color="#4a4a4a"/><stop offset=".96" stop-color="#5e5e5e"/><stop offset=".97" stop-color="#7b7b7b"/><stop offset=".98" stop-color="#a0a0a0"/><stop offset=".99" stop-color="#cdcdcd"/><stop offset="1" stop-color="#fff"/></linearGradient><linearGradient id="b" x1="25.24" y1="12.02" x2="31.88" y2="12.02" gradientUnits="userSpaceOnUse"><stop offset="0" stop-color="#64655a"/><stop offset=".16" stop-color="#626358"/><stop offset=".26" stop-color="#5a5a51"/><stop offset=".33" stop-color="#4d4c45"/><stop offset=".4" stop-color="#3a3835"/><stop offset=".46" stop-color="#231f20"/><stop offset=".53" stop-color="#313033"/><stop offset=".63" stop-color="#42464a"/><stop offset=".73" stop-color="#4e565b"/><stop offset=".85" stop-color="#565f65"/><stop offset="1" stop-color="#586268"/></linearGradient><linearGradient id="c" x1="11.73" y1="18.79" x2="11.73" y2="21.19" gradientUnits="userSpaceOnUse"><stop offset="0" stop-color="#c4d2e7" stop-opacity="0"/><stop offset=".06" stop-color="#c4d2e7" stop-opacity=".02"/><stop offset=".14" stop-color="#c4d2e7" stop-opacity=".09"/><stop offset=".22" stop-color="#c4d2e7" stop-opacity=".19"/><stop offset=".3" stop-color="#c4d2e7" stop-opacity=".34"/><stop offset=".39" stop-color="#c4d2e7" stop-opacity=".52"/><stop offset=".46" stop-color="#c4d2e7" stop-opacity=".7"/><stop offset=".49" stop-color="#c4d2e7" stop-opacity=".64"/><stop offset=".57" stop-color="#c4d2e7" stop-opacity=".44"/><stop offset=".66" stop-color="#c4d2e7" stop-opacity=".28"/><stop offset=".75" stop-color="#c4d2e7" stop-opacity=".16"/><stop offset=".83" stop-color="#c4d2e7" stop-opacity=".07"/><stop offset=".92" stop-color="#c4d2e7" stop-opacity=".02"/><stop offset="1" stop-color="#c4d2e7" stop-opacity="0"/></linearGradient><linearGradient id="d" x1="3184.53" y1="18.79" x2="3184.53" y2="21.19" gradientTransform="matrix(-1 0 0 1 3229.49 0)" gradientUnits="userSpaceOnUse"><stop offset="0" stop-color="#cbcdbf" stop-opacity="0"/><stop offset=".07" stop-color="#cbcdbf" stop-opacity=".02"/><stop offset=".15" stop-color="#cbcdbf" stop-opacity=".1"/><stop offset=".23" stop-color="#cbcdbf" stop-opacity=".21"/><stop offset=".32" stop-color="#cbcdbf" stop-opacity=".38"/><stop offset=".42" stop-color="#cbcdbf" stop-opacity=".59"/><stop offset=".46" stop-color="#cbcdbf" stop-opacity=".7"/><stop offset=".55" stop-color="#cbcdbf" stop-opacity=".5"/><stop offset=".64" stop-color="#cbcdbf" stop-opacity=".32"/><stop offset=".73" stop-color="#cbcdbf" stop-opacity=".18"/><stop offset=".82" stop-color="#cbcdbf" stop-opacity=".08"/><stop offset=".91" stop-color="#cbcdbf" stop-opacity=".02"/><stop offset="1" stop-color="#cbcdbf" stop-opacity="0"/></linearGradient><linearGradient id="e" x1="8.32" y1="20.62" x2="48.33" y2="20.62" gradientUnits="userSpaceOnUse"><stop offset=".02" stop-color="#888"/><stop offset=".05" stop-color="#9f9f9f"/><stop offset=".1" stop-color="#bdbdbd"/><stop offset=".15" stop-color="#d5d5d5"/><stop offset=".21" stop-color="#e8e8e8"/><stop offset=".27" stop-color="#f5f5f5"/><stop offset=".36" stop-color="#fdfdfd"/><stop offset=".53" stop-color="#fff"/><stop offset=".64" stop-color="#fcfcfc"/><stop offset=".72" stop-color="#f2f2f2"/><stop offset=".79" stop-color="#e2e2e2"/><stop offset=".86" stop-color="#cacaca"/><stop offset=".92" stop-color="#adadad"/><stop offset=".98" stop-color="#888"/><stop offset=".98" stop-color="#888"/></linearGradient></defs><g data-name="Слой 2"><g data-name="Слой 1"><g data-name="3 столбик"><path d="M28.37 10.57c-11 0-22.9 4.06-20.51 12.74 2 7.42 15.33 8.56 15.33 8.56l5.16-13 5.18 13s15.61-1.12 15.61-10.55c.01-7.32-10.2-10.73-20.77-10.75zm9.12 14.2l-9.12-10.63-9.21 10.63s-6.42-1.12-6.42-4.86c0-3.54 6.21-6.82 15.63-6.91 8.53-.08 15.21 2.9 15.58 6.93.33 3.58-6.46 4.84-6.46 4.84z" fill="#747575"/><path d="M48.76 20.89c0-.84-1.64-9.49-20.58-10.06a36.42 36.42 0 0 0-13.27 2.4C10.64 15 7.73 18.65 8 21.22c.82 8.13 12.74 9.2 13.46 9.22a1.64 1.64 0 0 1 1.11.45 2.37 2.37 0 0 1 0-.62s3.87-9.38 4.78-10.57 1.61-1.21 2.82 1.44 4 9.31 4 9.31a1.24 1.24 0 0 1 0 .43.92.92 0 0 1 .7-.35c.43 0 6.47-.76 9.9-3.16a8.68 8.68 0 0 0 3.99-6.48zm-2.82-.72c-.19 4.28-6.41 5.66-8.43 6l-9.15-11-9.16 11s-8-1-8.38-6 7.87-8.71 17.65-8.73 17.67 4.12 17.47 8.73z" fill="url(#a)"/><path d="M25.24 11.63s2.47.79 3.1 1a20.86 20.86 0 0 1 3.61-1s-4.43-.63-6.71 0z" fill="url(#b)"/><path d="M12.83 20.66l-1.68.94c-1.21-1.51.1-3.54.1-3.54l1.53 1.36a3 3 0 0 0 .05 1.24z" fill="url(#c)"/><path d="M43.91 20.7l1.61.9c1.21-1.51-.1-3.54-.1-3.54l-1.55 1.37a3.27 3.27 0 0 1 .04 1.27z" fill="url(#d)"/><path d="M28.4 10.87C12.22 10.7 5.67 18.66 9.29 23.93c2.9 4.23 12.85 6.44 12.85 6.44l6.21-13.81 6.15 13.81s3.81-1.23 5-1.48 6.88-1.5 8.56-6.18S44.57 11 28.4 10.87zm17.55 9.3c-.19 4.28-6.41 5.66-8.43 6l-9.15-11-9.16 11s-8-1-8.38-6 7.87-8.71 17.65-8.73 17.66 4.12 17.46 8.73z" fill="url(#e)"/></g><path fill="none" d="M0 0h56.69v42.52H0z"/></g></g></svg>