<svg xmlns="http://www.w3.org/2000/svg" width="20mm" height="15mm" viewBox="0 0 56.69 42.52"><defs><style>.cls-1,.cls-2,.cls-226{fill:none}.cls-1{clip-rule:evenodd}.cls-5{fill:#8da2ad}.cls-8{fill:#df9d53}.cls-15{fill:#e2a354}.cls-19{fill:#e4a754}.cls-23{fill:#e6ab54}.cls-27{fill:#e8af53}.cls-31{fill:#eab353}.cls-35{fill:#ecb753}.cls-49{fill:#f2c353}.cls-52{fill:#edad50}.cls-59{fill:#f0b448}.cls-60{fill:#f1b547}.cls-61{fill:#f1b645}.cls-76{fill:#f8c330}.cls-91{fill:#ffd200}.cls-104{fill:#f9e9c3}.cls-153{fill:#9a5f3c}.cls-155,.cls-339{fill:#fdd144}.cls-165{fill:#ffc614}.cls-189{fill:#e9a822}.cls-190{fill:#e9a622}.cls-226{stroke-miterlimit:3.86;stroke-width:.07px}.cls-339{fill-rule:evenodd}.cls-222{fill:#9b2e33}.cls-225{fill:#ed1c24}.cls-226{stroke:#dd9c54}.cls-338{fill:#006ab6}.cls-341{fill:#f4bc3d}.cls-342{fill:#fccb1e}.cls-343{fill:#ffd63f}.cls-344{fill:#feda67}.cls-345{fill:#fcde86}.cls-346{fill:#fbe3a3}</style><clipPath id="clip-path"><path class="cls-2" d="M27.37 20.88a.93.93 0 1 1 .93 1 .95.95 0 0 1-.93-1z"/></clipPath><clipPath id="clip-path-2"><path class="cls-1" d="M26 21a2.27 2.27 0 1 1 2.27 2.29A2.28 2.28 0 0 1 26 21zm-.62.08a2.15 2.15 0 0 1 .79-1.92c.14-.11.1-.16-.07-.08A2.27 2.27 0 0 0 24.59 21a2.23 2.23 0 0 0 1.46 1.87c.14.07.18 0 .06-.09a2.35 2.35 0 0 1-.7-1.69zm5-1.92a2.14 2.14 0 0 1 .83 1.84 2.54 2.54 0 0 1-.64 1.79c-.07.06 0 .1 0 .06A2.21 2.21 0 0 0 32 21a2.27 2.27 0 0 0-1.54-1.91c-.12-.05-.14 0 0 .08zM24.24 21c0-1.43 1.82-2.59 4.06-2.59s4.06 1.16 4.06 2.59-1.82 2.59-4.06 2.59-4.06-1.19-4.06-2.59z"/></clipPath><clipPath id="clip-path-3"><path class="cls-1" d="M25.75 22.77l.27.14c.17.08.31 0 .2-.14h.54a2.33 2.33 0 0 0 3.09 0h.62c-.08.12.08.17.17.12l.22-.12h.21a5.76 5.76 0 0 1-5.56 0z"/></clipPath><clipPath id="clip-path-4"><path class="cls-1" d="M25.52 22.77a2.21 2.21 0 0 1-1.2-1.8c0-1.36 1.75-2.52 4-2.52s4 1.15 4 2.52a2.21 2.21 0 0 1-1.2 1.8h-.21A2.17 2.17 0 0 0 32.1 21a2.34 2.34 0 0 0-1.58-2h-.09a.1.1 0 0 0-.1.05.11.11 0 0 0 0 .1l.07.07a2.07 2.07 0 0 1 .73 1.78 2.47 2.47 0 0 1-.62 1.74v.05h-.62a2.34 2.34 0 1 0-3.09 0h-.54l-.06-.06a2.28 2.28 0 0 1-.67-1.64 2.07 2.07 0 0 1 .76-1.86l.09-.08a.14.14 0 0 0 0-.05.09.09 0 0 0 0-.08.1.1 0 0 0-.06 0H26.15a2.34 2.34 0 0 0-1.59 2 2.17 2.17 0 0 0 1.23 1.79z"/></clipPath><clipPath id="clip-path-5"><path class="cls-2" d="M28.93 22.69a.76.76 0 0 1-.7.07.45.45 0 0 0-.16 0h-.27a.56.56 0 0 1-.33-.11l-.08-.07a1.81 1.81 0 0 0-.16-.16 1.58 1.58 0 0 0-.4-.26c-.39-.17-.35-.66-.32-.82a9.93 9.93 0 0 0 .08-1 .51.51 0 0 1 .26-.46 1.62 1.62 0 0 0 .49-.41.9.9 0 0 1 .78-.28 2.46 2.46 0 0 0 .4 0 .91.91 0 0 1 .52.1c.14.09.39.18.62.3a.59.59 0 0 1 .26.36 1.75 1.75 0 0 1 .07.36.87.87 0 0 0 .09.27l.16.3a.65.65 0 0 1 0 .41 1.89 1.89 0 0 1-.05.19l.18.12-.46 1.4-.19-.14-.17.55s-.14-.14-.62-.71z"/></clipPath><clipPath id="clip-path-6"><path class="cls-2" d="M30 21.34v.06c-.08.12-.21.18-.26.3a.84.84 0 0 1-.38.4 1.75 1.75 0 0 0-.3.24l-.12.08a.54.54 0 0 1-.55.07.66.66 0 0 0-.23 0h-.27a.35.35 0 0 1-.21-.07h-.05a1.9 1.9 0 0 0-.21-.21 1.8 1.8 0 0 0-.46-.3c-.22-.09-.23-.41-.19-.58a10.46 10.46 0 0 0 .08-1.08.31.31 0 0 1 .14-.27 1.82 1.82 0 0 0 .57-.48.69.69 0 0 1 .59-.2 2.6 2.6 0 0 0 .42 0 .7.7 0 0 1 .4.07c.14.09.39.19.63.31a.38.38 0 0 1 .16.24 1.57 1.57 0 0 1 .06.32 1.08 1.08 0 0 0 .11.34l.16.31a.48.48 0 0 1 0 .27 1.8 1.8 0 0 1-.07.21z"/></clipPath><clipPath id="clip-path-7"><path class="cls-2" d="M26.91 20.87a1.39 1.39 0 1 1 1.4 1.35 1.37 1.37 0 0 1-1.4-1.35z"/></clipPath><clipPath id="clip-path-8"><path d="M27.37 20.88a.93.93 0 1 1 .93 1 .95.95 0 0 1-.93-1" clip-path="url(#clip-path)" fill="none"/></clipPath><clipPath id="clip-path-9"><path class="cls-2" d="M29.54 23.28s-.06-.06-.58-.68a.68.68 0 0 1-.69.1 1.24 1.24 0 0 0-.45 0 .48.48 0 0 1-.39-.19 1.88 1.88 0 0 0-.59-.44c-.33-.14-.31-.58-.28-.74a10.21 10.21 0 0 0 .08-1 .44.44 0 0 1 .22-.4 1.69 1.69 0 0 0 .52-.44.83.83 0 0 1 .71-.25 2.5 2.5 0 0 0 .4 0 .84.84 0 0 1 .48.1c.14.09.39.18.63.31s.28.5.29.67a2 2 0 0 0 .25.6c.1.18-.07.6-.07.6l.18.13-.37 1.31-.19-.13-.16.53zm.36-2.7l-2.58 1.54h.05a1.91 1.91 0 0 1 .21.21h.05a.35.35 0 0 0 .21.07h.27a.66.66 0 0 1 .23 0 .54.54 0 0 0 .55-.07l.12-.08a1.75 1.75 0 0 1 .3-.24.84.84 0 0 0 .38-.4c.05-.13.18-.18.26-.3v-.06a1.8 1.8 0 0 0 .07-.21.48.48 0 0 0 0-.27l-.15-.3zm-3.17.67l2.78-1.61c-.22-.11-.44-.2-.58-.28a.7.7 0 0 0-.4-.07 2.6 2.6 0 0 1-.42 0 .69.69 0 0 0-.59.2 1.82 1.82 0 0 1-.57.48.31.31 0 0 0-.14.27c0 .21 0 .83-.08 1z"/></clipPath><clipPath id="clip-path-10"><path class="cls-1" d="M27.3 21.25v.06h-.08v-.05.43-.06h.07v.11a.11.11 0 0 1 0 .1l-.11.05s-.08.05-.08 0v-.51a.12.12 0 0 1 0-.1zm.07 0v.54l.08-.05v-.31l.1-.05v.31l.08-.05v-.38h-.08l-.1.05v-.1zm.45 0v.27l-.08.05v-.34zm.12 0l.06.09h.05v.06l-.09.05-.11-.17zm.27 0h-.08v-.08z"/></clipPath><clipPath id="clip-path-11"><path class="cls-1" d="M27.1 21.25l.13-.06v.05zm.36 0v-.19l-.08.05v.13zm.18 0V21l-.08.05v.24zm.07 0v-.33l.08-.05h.08s.1-.05.1 0v.21s0 .09-.05.11v.06h-.24zm.43 0V21l-.14-.25h.09l.08.14.06-.24.1-.06-.11.4v.3zm1.18-.6l.08-.05v-.27h.06l.12.19.09-.05v-.06h-.05l-.1-.15.05-.11v-.21c0-.1-.1 0-.1 0h-.08l-.08.05v.67zm-.13-.3v.1l-.09.05v.2l.16-.09v.07l-.23.13v-.67l.23-.13v.09l-.16.09v.2l.09-.05zm-.77.14l.12-.07s.07-.05.07 0v.09h-.06s0-.05 0 0v.17h.12V21a.12.12 0 0 1-.06.1h-.18V21h.07v-.15h-.07s-.06 0-.06-.06v-.24a.08.08 0 0 1 0-.08zm.53.29l-.14.08v-.59h-.09V21l.22-.12v-.08zm.45-.78v.23h.05a.08.08 0 0 0 0-.08V20h-.06zm-1.61 1.16h.05a.08.08 0 0 0 0-.08v-.11h-.06v.23z"/></clipPath></defs><g id="Слой_2" data-name="Слой 2"><g id="Слой_1-2" data-name="Слой 1"><path class="cls-2" d="M0 0h56.69v42.52H0z"/><path d="M28.35 17.51a6.88 6.88 0 0 1 2.47.41 10.08 10.08 0 0 0 3.57 1.17C35.72 19.11 47 19 47 19l7.16-.16a8.87 8.87 0 0 1 1.16.06c.11 0 .07.11.07.11a3.73 3.73 0 0 1-1.8.59c-1.31.18-3.07.25-3.07.25a3.58 3.58 0 0 1-2.07.78 30.57 30.57 0 0 1-3.75.19 2.87 2.87 0 0 1-1.56.64c-1.11.18-3.35.25-3.35.25l-3.94.18a4 4 0 0 0-2.28.71 11.78 11.78 0 0 1-2.86 1.91 6.94 6.94 0 0 1-2.2.38h-.2a6.94 6.94 0 0 1-2.2-.38 11.78 11.78 0 0 1-2.86-1.91 4 4 0 0 0-2.28-.71L17 21.73s-2.24-.07-3.35-.25a2.87 2.87 0 0 1-1.65-.63 30.57 30.57 0 0 1-3.75-.19 3.59 3.59 0 0 1-2.07-.78s-1.76-.07-3.07-.25A3.73 3.73 0 0 1 1.36 19s0-.07.07-.11a8.87 8.87 0 0 1 1.16-.06l7.15.17s11.24.07 12.56.05a10.08 10.08 0 0 0 3.57-1.17 6.88 6.88 0 0 1 2.47-.41z" fill="#fff"/><path class="cls-5" d="M33.29 20.2s9.82-.09 11.58-.14l4.51-.14s.86-.07.39-.07-7.09.09-8.51.09-7.38.09-7.38.09a.7.7 0 0 0-.26 0l-.33.13zM33.49 21.12c.14 0 4.06-.14 5.56-.16l5-.08s.24-.13-.85-.1-9.16.16-9.16.16-.72.16-.57.18z"/><path d="M24 21c0-1.61 2-2.91 4.36-2.91s4.34 1.3 4.34 2.91-2 2.91-4.36 2.91S24 22.6 24 21z" fill="#081311"/><g clip-path="url(#clip-path-2)"><path class="cls-8" transform="rotate(-1 28.442 23.74)" d="M24.3 23.48h8.1v.09h-8.1z"/><path class="cls-8" transform="rotate(-1 28.447 23.168)" d="M24.29 23.38h8.1v.09h-8.1z"/><path transform="rotate(-1 28.447 23.168)" fill="#df9e54" d="M24.29 23.28h8.1v.09h-8.1z"/><path transform="rotate(-1 28.447 23.168)" fill="#e09f54" d="M24.29 23.19h8.1v.09h-8.1z"/><path transform="rotate(-1 28.447 23.168)" fill="#e0a054" d="M24.29 23.09h8.1v.09h-8.1z"/><path transform="rotate(-1 28.447 23.168)" fill="#e1a054" d="M24.29 22.99h8.1v.09h-8.1z"/><path transform="rotate(-1 28.447 23.168)" fill="#e1a154" d="M24.29 22.89h8.1v.09h-8.1z"/><path transform="rotate(-1 28.452 22.595)" fill="#e1a254" d="M24.28 22.79h8.1v.09h-8.1z"/><path class="cls-15" transform="rotate(-1 28.452 22.595)" d="M24.28 22.7h8.1v.09h-8.1zM24.28 22.6h8.1v.09h-8.1z"/><path transform="rotate(-1 28.452 22.595)" fill="#e2a454" d="M24.28 22.5h8.1v.09h-8.1z"/><path transform="rotate(-1 28.452 22.595)" fill="#e3a554" d="M24.28 22.4h8.1v.09h-8.1z"/><path transform="rotate(-1 28.452 22.595)" fill="#e3a654" d="M24.28 22.31h8.1v.09h-8.1z"/><path class="cls-19" transform="rotate(-1 28.457 22.022)" d="M24.27 22.21h8.1v.09h-8.1zM24.27 22.11h8.1v.09h-8.1z"/><path transform="rotate(-1 28.457 22.022)" fill="#e4a854" d="M24.27 22.01h8.1v.09h-8.1z"/><path transform="rotate(-1 28.457 22.022)" fill="#e5a954" d="M24.27 21.91h8.1V22h-8.1z"/><path transform="rotate(-1 28.457 22.022)" fill="#e5aa54" d="M24.27 21.82h8.1v.09h-8.1z"/><path class="cls-23" transform="rotate(-1 28.457 22.022)" d="M24.26 21.72h8.1v.09h-8.1z"/><path class="cls-23" transform="rotate(-1 28.462 21.449)" d="M24.26 21.62h8.1v.09h-8.1z"/><path transform="rotate(-1 28.462 21.449)" fill="#e6ac54" d="M24.26 21.52h8.1v.09h-8.1z"/><path transform="rotate(-1 28.462 21.449)" fill="#e7ad53" d="M24.26 21.42h8.1v.09h-8.1z"/><path transform="rotate(-1 28.462 21.449)" fill="#e7ae53" d="M24.26 21.33h8.1v.09h-8.1z"/><path class="cls-27" transform="rotate(-1 28.462 21.449)" d="M24.26 21.23h8.1v.09h-8.1zM24.25 21.13h8.1v.09h-8.1z"/><path transform="rotate(-1 28.467 20.876)" fill="#e8b053" d="M24.25 21.03h8.1v.09h-8.1z"/><path transform="rotate(-1 28.467 20.876)" fill="#e9b153" d="M24.25 20.94h8.1v.09h-8.1z"/><path transform="rotate(-1 28.467 20.876)" fill="#e9b253" d="M24.25 20.84h8.1v.09h-8.1z"/><path class="cls-31" transform="translate(-.36 .5)" d="M24.25 20.74h8.1v.09h-8.1zM24.25 20.64h8.1v.09h-8.1z"/><path transform="rotate(-1 28.467 20.876)" fill="#eab453" d="M24.24 20.54h8.1v.09h-8.1z"/><path transform="rotate(-1 28.472 20.303)" fill="#ebb553" d="M24.24 20.45h8.1v.09h-8.1z"/><path transform="rotate(-1 28.472 20.303)" fill="#ebb653" d="M24.24 20.35h8.1v.09h-8.1z"/><path class="cls-35" transform="rotate(-1 28.472 20.303)" d="M24.24 20.25h8.1v.09h-8.1zM24.24 20.15h8.1v.09h-8.1z"/><path transform="translate(-.35 .5)" fill="#ecb853" d="M24.24 20.05h8.1v.09h-8.1z"/><path transform="translate(-.34 .5)" fill="#edb953" d="M24.23 19.96h8.1v.09h-8.1z"/><path transform="translate(-.34 .5)" fill="#edba53" d="M24.23 19.86h8.1v.09h-8.1z"/><path transform="rotate(-1 28.477 19.73)" fill="#edbb53" d="M24.23 19.76h8.1v.09h-8.1z"/><path transform="rotate(-1 28.477 19.73)" fill="#eebb53" d="M24.23 19.66h8.1v.09h-8.1z"/><path transform="rotate(-1 28.477 19.73)" fill="#eebc53" d="M24.23 19.57h8.1v.09h-8.1z"/><path transform="rotate(-1 28.477 19.73)" fill="#efbd53" d="M24.23 19.47h8.1v.09h-8.1z"/><path transform="rotate(-1 28.482 19.157)" fill="#efbe53" d="M24.22 19.37h8.1v.09h-8.1z"/><path transform="translate(-.33 .5)" fill="#efbf53" d="M24.22 19.27h8.1v.09h-8.1z"/><path transform="rotate(-1 28.482 19.157)" fill="#f0bf53" d="M24.22 19.17h8.1v.09h-8.1z"/><path transform="rotate(-1 28.482 19.157)" fill="#f0c053" d="M24.22 19.08h8.1v.09h-8.1z"/><path transform="rotate(-1 28.482 19.157)" fill="#f1c153" d="M24.22 18.98h8.1v.09h-8.1z"/><path transform="rotate(-1 28.482 19.157)" fill="#f1c253" d="M24.22 18.88h8.1v.09h-8.1z"/><path class="cls-49" transform="rotate(-1 28.487 18.584)" d="M24.21 18.78h8.1v.09h-8.1z"/><path class="cls-49" transform="rotate(-1 28.487 18.584)" d="M24.2 18.35h8.11v.48H24.2z"/></g><path class="cls-5" d="M23.4 20.2s-9.82-.09-11.58-.14l-4.51-.14s-.86-.07-.39-.07 7.09.09 8.51.09 7.38.09 7.38.09a.7.7 0 0 1 .26 0l.33.13zM23.2 21.12c-.14 0-4.06-.14-5.56-.16l-5-.08s-.24-.13.85-.1 9.16.16 9.16.16.72.16.57.18z"/><path d="M53.49 19.63c-1.19.16-2.74.24-3 .25a3.67 3.67 0 0 1-2.07.77 28.17 28.17 0 0 1-3.36.19h-.4a2.87 2.87 0 0 1-1.56.64c-1.11.18-3.35.25-3.35.25l-3.94.18a4 4 0 0 0-2.28.71 11.78 11.78 0 0 1-2.86 1.91 6.94 6.94 0 0 1-2.2.38h-.2a6.94 6.94 0 0 1-2.2-.38 11.78 11.78 0 0 1-2.86-1.91 4 4 0 0 0-2.28-.71L17 21.73s-2.24-.07-3.35-.25a2.87 2.87 0 0 1-1.65-.63h-.4a28.17 28.17 0 0 1-3.36-.19 3.67 3.67 0 0 1-2.07-.77c-.29 0-1.84-.09-3-.25A3.73 3.73 0 0 1 1.41 19a5.19 5.19 0 0 0 1.43.26l3.63.13 4 .07h12.97c.19 0 .09.09.09.09l-.21.16a.73.73 0 0 1-.47.11h-5.77l-6.51-.08H6.43c-.11 0-.17 0-.19.08a1.49 1.49 0 0 0 .94.33c.72 0 4.27.13 4.27.13l4.33.07h7.49s.21 0 .06.15-.28.19-.28.19a.72.72 0 0 1-.33.07c-.23 0-4.74-.08-5.67-.08s-3.81-.08-4.37-.05c-.39 0-.57 0-.65.09a8.39 8.39 0 0 0 2.34.24s7.43.23 8.19.27a2.33 2.33 0 0 1 1.58 1A5.55 5.55 0 0 0 26 23.65a7 7 0 0 0 4.72 0 5.55 5.55 0 0 0 1.83-1.35 2.33 2.33 0 0 1 1.58-1c.75 0 8.19-.27 8.19-.27a8.39 8.39 0 0 0 2.34-.24c-.07-.06-.26-.07-.65-.09-.56 0-3.44.05-4.37.05s-5.44.09-5.67.08a.72.72 0 0 1-.33-.07s-.13-.08-.28-.19.06-.15.06-.15h7.49l4.33-.07s3.55-.09 4.27-.13a1.49 1.49 0 0 0 .94-.33s-.07-.07-.19-.08h-4.14l-6.51.08h-5.77a.73.73 0 0 1-.47-.11c-.23-.15-.21-.16-.21-.16s-.1-.09.09-.09h12.97l4-.07 3.63-.13a5.18 5.18 0 0 0 1.44-.33 3.73 3.73 0 0 1-1.8.59z" fill="#647c82"/><path class="cls-5" d="M55 18.9a32.84 32.84 0 0 1-4.69.26c-4.77.09-13 .13-13 .13h-3.07a6.27 6.27 0 0 1-2-.39 7.78 7.78 0 0 0-3.81-1.14 7.8 7.8 0 0 0-3.83 1.14 6.27 6.27 0 0 1-2 .39h-3.07s-8.27 0-13-.13a32.84 32.84 0 0 1-4.69-.26h.9l7 .1s11.24.07 12.56.05a10.08 10.08 0 0 0 3.57-1.17 7.6 7.6 0 0 1 4.94 0 10.08 10.08 0 0 0 3.57 1.17C35.72 19.11 47 19 47 19l7.16-.16h.9z"/><g clip-path="url(#clip-path-3)"><path class="cls-52" transform="rotate(-1 28.442 23.74)" d="M24.35 23.42h7.98v.1h-7.98z"/><path transform="rotate(-1 28.447 23.168)" fill="#eeae4f" d="M24.35 23.33h7.98v.1h-7.98z"/><path transform="rotate(-1 28.447 23.168)" fill="#eeaf4e" d="M24.35 23.24h7.98v.1h-7.98z"/><path transform="rotate(-1 28.447 23.168)" fill="#efb04d" d="M24.35 23.15h7.98v.1h-7.98z"/><path transform="rotate(-1 28.447 23.168)" fill="#efb14c" d="M24.34 23.06h7.98v.1h-7.98z"/><path transform="rotate(-1 28.447 23.168)" fill="#efb24b" d="M24.34 22.97h7.98v.1h-7.98z"/><path transform="rotate(-1 28.447 23.168)" fill="#f0b349" d="M24.34 22.88h7.98v.1h-7.98z"/><path class="cls-59" transform="rotate(-1 28.452 22.595)" d="M24.34 22.79h7.98v.1h-7.98z"/><path class="cls-60" transform="rotate(-1 28.452 22.595)" d="M24.34 22.7h7.98v.1h-7.98z"/><path class="cls-61" transform="rotate(-1 28.452 22.595)" d="M24.34 22.61h7.98v.1h-7.98z"/></g><g clip-path="url(#clip-path-4)"><path class="cls-59" transform="rotate(-1 28.452 22.595)" d="M24.34 22.79h7.98v.1h-7.98z"/><path class="cls-60" transform="rotate(-1 28.452 22.595)" d="M24.34 22.7h7.98v.1h-7.98z"/><path class="cls-61" transform="rotate(-1 28.452 22.595)" d="M24.34 22.61h7.98v.1h-7.98z"/><path transform="rotate(-1 28.452 22.595)" fill="#f2b744" d="M24.34 22.52h7.98v.1h-7.98z"/><path transform="rotate(-1 28.452 22.595)" fill="#f2b843" d="M24.33 22.43h7.98v.1h-7.98z"/><path transform="rotate(-1 28.452 22.595)" fill="#f3b841" d="M24.33 22.35h7.98v.1h-7.98z"/><path transform="rotate(-1 28.457 22.022)" fill="#f3b940" d="M24.33 22.26h7.98v.1h-7.98z"/><path transform="rotate(-1 28.457 22.022)" fill="#f4ba3f" d="M24.33 22.17h7.98v.1h-7.98z"/><path transform="rotate(-1 28.457 22.022)" fill="#f4bb3d" d="M24.33 22.08h7.98v.1h-7.98z"/><path transform="rotate(-1 28.457 22.022)" fill="#f5bc3c" d="M24.33 21.99h7.98v.1h-7.98z"/><path transform="rotate(-1 28.457 22.022)" fill="#f5bd3a" d="M24.32 21.9h7.98v.1h-7.98z"/><path transform="rotate(-1 28.457 22.022)" fill="#f6be39" d="M24.32 21.81h7.98v.1h-7.98z"/><path transform="rotate(-1 28.457 22.022)" fill="#f6bf37" d="M24.32 21.72h7.98v.1h-7.98z"/><path transform="rotate(-1 28.462 21.449)" fill="#f7c035" d="M24.32 21.63h7.98v.1h-7.98z"/><path transform="rotate(-1 28.462 21.449)" fill="#f7c134" d="M24.32 21.54h7.98v.1h-7.98z"/><path transform="rotate(-1 28.462 21.449)" fill="#f8c232" d="M24.32 21.45h7.98v.1h-7.98z"/><path class="cls-76" transform="rotate(-1 28.462 21.449)" d="M24.32 21.36h7.98v.1h-7.98z"/><path transform="rotate(-1 28.462 21.449)" fill="#f9c42e" d="M24.31 21.27h7.98v.1h-7.98z"/><path transform="rotate(-1 28.462 21.449)" fill="#f9c52c" d="M24.31 21.18h7.98v.1h-7.98z"/><path transform="rotate(-1 28.467 20.876)" fill="#fac62a" d="M24.31 21.1h7.98v.1h-7.98z"/><path transform="rotate(-1 28.467 20.876)" fill="#fac727" d="M24.31 21.01h7.98v.1h-7.98z"/><path transform="rotate(-1 28.467 20.876)" fill="#fbc825" d="M24.31 20.92h7.98v.1h-7.98z"/><path transform="rotate(-1 28.467 20.876)" fill="#fcc922" d="M24.31 20.83h7.98v.1h-7.98z"/><path transform="rotate(-1 28.467 20.876)" fill="#fcca20" d="M24.3 20.74h7.98v.1H24.3z"/><path transform="rotate(-1 28.467 20.876)" fill="#fdcb1d" d="M24.3 20.65h7.98v.1H24.3z"/><path transform="rotate(-1 28.467 20.876)" fill="#fdcc19" d="M24.3 20.56h7.98v.1H24.3z"/><path transform="rotate(-1 28.472 20.303)" fill="#fecd16" d="M24.3 20.47h7.98v.1H24.3z"/><path transform="rotate(-1 28.472 20.303)" fill="#ffce12" d="M24.3 20.38h7.98v.1H24.3z"/><path transform="rotate(-1 28.472 20.303)" fill="#ffcf0d" d="M24.3 20.29h7.98v.1H24.3z"/><path transform="rotate(-1 28.472 20.303)" fill="#ffd008" d="M24.29 20.2h7.98v.1h-7.98z"/><path transform="rotate(-1 28.472 20.303)" fill="#ffd102" d="M24.29 20.11h7.98v.1h-7.98z"/><path class="cls-91" transform="rotate(-1 28.472 20.303)" d="M24.29 20.02h7.98v.1h-7.98z"/><path class="cls-91" transform="rotate(-1 28.472 20.303)" d="M24.29 19.98h7.98v.1h-7.98z"/><path transform="rotate(-1 28.477 19.73)" fill="#ffd420" d="M24.29 19.89h7.98v.1h-7.98z"/><path transform="rotate(-1 28.477 19.73)" fill="#ffd535" d="M24.29 19.8h7.98v.1h-7.98z"/><path transform="rotate(-1 28.477 19.73)" fill="#ffd747" d="M24.29 19.71h7.98v.1h-7.98z"/><path transform="rotate(-1 28.477 19.73)" fill="#ffd957" d="M24.28 19.62h7.98v.1h-7.98z"/><path transform="rotate(-1 28.477 19.73)" fill="#ffda66" d="M24.28 19.53h7.98v.1h-7.98z"/><path transform="rotate(-1 28.477 19.73)" fill="#fedc73" d="M24.28 19.44h7.98v.1h-7.98z"/><path transform="rotate(-1 28.482 19.157)" fill="#fdde7f" d="M24.28 19.35h7.98v.1h-7.98z"/><path transform="rotate(-1 28.482 19.157)" fill="#fde08b" d="M24.28 19.25h7.98v.1h-7.98z"/><path transform="rotate(-1 28.482 19.157)" fill="#fce296" d="M24.28 19.16h7.98v.1h-7.98z"/><path transform="rotate(-1 28.482 19.157)" fill="#fbe4a1" d="M24.28 19.07h7.98v.1h-7.98z"/><path transform="rotate(-1 28.482 19.157)" fill="#fae5ad" d="M24.27 18.98h7.98v.1h-7.98z"/><path transform="rotate(-1 28.482 19.157)" fill="#fae7b8" d="M24.27 18.89h7.98v.1h-7.98z"/><path class="cls-104" transform="rotate(-1 28.487 18.584)" d="M24.27 18.8h7.98v.1h-7.98z"/><path class="cls-104" transform="rotate(-1 28.487 18.584)" d="M24.28 18.43h7.96v.42h-7.96z"/></g><g clip-path="url(#clip-path-5)"><path transform="rotate(-42 27.07 19.568)" fill="#eda95c" d="M25.13 19.53h3.89v.08h-3.89z"/><path transform="rotate(-42 27.134 19.637)" fill="#eca75b" d="M25.19 19.6h3.89v.08h-3.89z"/><path transform="rotate(-42 27.197 19.706)" fill="#eaa55a" d="M25.25 19.67h3.89v.08h-3.89z"/><path transform="rotate(-42.3 27.101 19.815)" fill="#e8a359" d="M25.31 19.73h3.89v.08h-3.89z"/><path transform="rotate(-42 27.31 19.839)" fill="#e6a258" d="M25.37 19.8h3.89v.08h-3.89z"/><path transform="rotate(-42 27.374 19.908)" fill="#e4a057" d="M25.43 19.86h3.89v.08h-3.89z"/><path transform="rotate(-42 27.424 19.972)" fill="#e29e56" d="M25.48 19.93h3.89v.08h-3.89z"/><path transform="rotate(-42 27.487 20.041)" fill="#e09c55" d="M25.54 19.99h3.89v.08h-3.89z"/><path transform="rotate(-42 27.555 20.097)" fill="#de9a54" d="M25.6 20.06h3.89v.08H25.6z"/><path transform="rotate(-42 27.605 20.161)" fill="#dc9954" d="M25.66 20.13h3.89v.08h-3.89z"/><path transform="rotate(-42 27.668 20.23)" fill="#da9753" d="M25.72 20.19h3.89v.08h-3.89z"/><path transform="rotate(-42 27.731 20.3)" fill="#d89552" d="M25.78 20.26h3.89v.08h-3.89z"/><path transform="rotate(-42.3 27.632 20.41)" fill="#d79351" d="M25.84 20.32h3.89v.08h-3.89z"/><path transform="rotate(-42 27.845 20.433)" fill="#d59250" d="M25.9 20.39h3.89v.08H25.9z"/><path transform="rotate(-42 27.908 20.502)" fill="#d3904f" d="M25.96 20.46h3.89v.08h-3.89z"/><path transform="rotate(-42 27.958 20.566)" fill="#d18e4f" d="M26.02 20.52h3.89v.08h-3.89z"/><path transform="rotate(-42 28.021 20.635)" fill="#cf8d4e" d="M26.08 20.59h3.89v.08h-3.89z"/><path transform="rotate(-42 28.09 20.69)" fill="#cd8b4d" d="M26.14 20.65h3.89v.08h-3.89z"/><path transform="rotate(-42 28.14 20.755)" fill="#cc894c" d="M26.2 20.72h3.89v.08H26.2z"/><path transform="rotate(-42 28.203 20.824)" fill="#ca884b" d="M26.26 20.79h3.89v.08h-3.89z"/><path transform="rotate(-42 28.266 20.893)" fill="#c8864b" d="M26.32 20.85h3.89v.08h-3.89z"/><path transform="rotate(-42 28.316 20.957)" fill="#c6854a" d="M26.38 20.92h3.89V21h-3.89z"/><path transform="rotate(-42 28.38 21.026)" fill="#c48349" d="M26.44 20.98h3.89v.08h-3.89z"/><path transform="rotate(-42 28.442 21.095)" fill="#c38249" d="M26.49 21.05h3.89v.08h-3.89z"/><path transform="rotate(-42 28.492 21.16)" fill="#c18048" d="M26.55 21.12h3.89v.08h-3.89z"/><path transform="rotate(-42 28.555 21.228)" fill="#bf7f47" d="M26.61 21.18h3.89v.08h-3.89z"/><path transform="rotate(-42 28.624 21.285)" fill="#bd7d47" d="M26.67 21.25h3.89v.08h-3.89z"/><path transform="rotate(-42 28.674 21.349)" fill="#bc7c46" d="M26.73 21.31h3.89v.08h-3.89z"/><path transform="rotate(-42 28.737 21.418)" fill="#ba7a45" d="M26.79 21.38h3.89v.08h-3.89z"/><path transform="rotate(-42 28.8 21.487)" fill="#b87945" d="M26.85 21.45h3.89v.08h-3.89z"/><path transform="rotate(-42 28.85 21.55)" fill="#b67744" d="M26.91 21.51h3.89v.08h-3.89z"/><path transform="rotate(-42 28.913 21.62)" fill="#b57644" d="M26.97 21.58h3.89v.08h-3.89z"/><path transform="rotate(-42 28.977 21.689)" fill="#b37443" d="M27.03 21.64h3.89v.08h-3.89z"/><path transform="rotate(-42 29.027 21.753)" fill="#b17342" d="M27.09 21.71h3.89v.08h-3.89z"/><path transform="rotate(-42 29.09 21.822)" fill="#af7142" d="M27.15 21.78h3.89v.08h-3.89z"/><path transform="rotate(-42 29.158 21.878)" fill="#ae7041" d="M27.21 21.84h3.89v.08h-3.89z"/><path transform="rotate(-42 29.208 21.942)" fill="#ac6f41" d="M27.27 21.91h3.89v.08h-3.89z"/><path transform="rotate(-42 29.271 22.011)" fill="#aa6d40" d="M27.33 21.97h3.89v.08h-3.89z"/><path transform="rotate(-42 29.334 22.08)" fill="#a96c40" d="M27.39 22.04h3.89v.08h-3.89z"/><path transform="rotate(-42 29.385 22.144)" fill="#a76b40" d="M27.44 22.11h3.89v.08h-3.89z"/><path transform="rotate(-42 29.448 22.214)" fill="#a6693f" d="M27.5 22.17h3.89v.08H27.5z"/><path transform="rotate(-42 29.51 22.283)" fill="#a4683f" d="M27.56 22.24h3.89v.08h-3.89z"/><path transform="rotate(-42 29.56 22.347)" fill="#a2663e" d="M27.62 22.3h3.89v.08h-3.89z"/><path transform="rotate(-42 29.624 22.416)" fill="#a1653e" d="M27.68 22.37h3.89v.08h-3.89z"/><path transform="rotate(-42 29.692 22.472)" fill="#9f643d" d="M27.74 22.44h3.89v.08h-3.89z"/><path transform="rotate(-42.3 29.58 22.583)" fill="#9e623d" d="M27.8 22.5h3.89v.08H27.8z"/><path transform="rotate(-42 29.806 22.605)" fill="#9c613c" d="M27.86 22.57h3.89v.08h-3.89z"/><path class="cls-153" transform="rotate(-42 29.869 22.674)" d="M27.92 22.63h3.89v.08h-3.89z"/><path class="cls-153" transform="rotate(-42 29.987 22.794)" d="M28.03 22.62h3.91v.36h-3.91z"/></g><g clip-path="url(#clip-path-6)"><path class="cls-155" transform="rotate(-11 27.966 19.254)" d="M26.28 19.21h3.41v.08h-3.41z"/><path transform="rotate(-11 28.013 19.31)" fill="#fdcf40" d="M26.3 19.3h3.41v.08H26.3z"/><path transform="rotate(-11 28.003 19.415)" fill="#fece3c" d="M26.32 19.38h3.41v.08h-3.41z"/><path transform="rotate(-11 28.045 19.524)" fill="#fecd38" d="M26.34 19.47h3.41v.08h-3.41z"/><path transform="rotate(-11 28.04 19.575)" fill="#fecc33" d="M26.35 19.56h3.41v.08h-3.41z"/><path transform="rotate(-11 28.082 19.684)" fill="#fecb2f" d="M26.37 19.65h3.41v.08h-3.41z"/><path transform="rotate(-11 28.072 19.788)" fill="#feca2a" d="M26.39 19.73h3.41v.08h-3.41z"/><path transform="rotate(-11.5 28.036 20.162)" fill="#ffc925" d="M26.4 19.82h3.41v.08H26.4z"/><path transform="rotate(-11 28.11 19.949)" fill="#ffc820" d="M26.42 19.91h3.41v.08h-3.41z"/><path transform="rotate(-11 28.151 20.058)" fill="#ffc71a" d="M26.44 20h3.41v.08h-3.41z"/><path class="cls-165" transform="rotate(-11 28.146 20.11)" d="M26.46 20.09h3.41v.08h-3.41z"/><path class="cls-165" transform="rotate(-11 28.193 20.167)" d="M26.46 20.13h3.41v.08h-3.41z"/><path transform="rotate(-11 28.183 20.27)" fill="#fec416" d="M26.48 20.22h3.41v.08h-3.41z"/><path transform="rotate(-11 28.225 20.38)" fill="#fdc317" d="M26.5 20.31h3.41v.08H26.5z"/><path transform="rotate(-11 28.22 20.431)" fill="#fbc118" d="M26.52 20.4h3.41v.08h-3.41z"/><path transform="rotate(-11 28.262 20.54)" fill="#fac019" d="M26.53 20.49h3.41v.08h-3.41z"/><path transform="rotate(-11 28.252 20.644)" fill="#f9bf19" d="M26.55 20.58h3.41v.08h-3.41z"/><path transform="rotate(-11 28.299 20.701)" fill="#f8be1a" d="M26.57 20.67h3.41v.08h-3.41z"/><path transform="rotate(-11 28.289 20.805)" fill="#f7bc1b" d="M26.59 20.76H30v.08h-3.41z"/><path transform="rotate(-11 28.33 20.914)" fill="#f6bb1b" d="M26.6 20.85h3.41v.08H26.6z"/><path transform="rotate(-11 28.326 20.966)" fill="#f5ba1c" d="M26.62 20.94h3.41v.08h-3.41z"/><path transform="rotate(-11 28.368 21.074)" fill="#f5b91c" d="M26.64 21.03h3.41v.08h-3.41z"/><path transform="rotate(-11 28.358 21.178)" fill="#f4b71d" d="M26.66 21.12h3.41v.08h-3.41z"/><path transform="rotate(-11 28.405 21.235)" fill="#f3b61d" d="M26.67 21.21h3.41v.08h-3.41z"/><path transform="rotate(-11 28.395 21.34)" fill="#f2b51e" d="M26.69 21.29h3.41v.08h-3.41z"/><path transform="rotate(-11 28.385 21.443)" fill="#f1b41e" d="M26.71 21.38h3.41v.08h-3.41z"/><path transform="rotate(-11.5 28.334 21.825)" fill="#f1b21f" d="M26.73 21.47h3.41v.08h-3.41z"/><path transform="rotate(-11 28.422 21.604)" fill="#f0b11f" d="M26.74 21.56h3.41v.08h-3.41z"/><path transform="rotate(-11 28.463 21.713)" fill="#efb01f" d="M26.76 21.65h3.41v.08h-3.41z"/><path transform="rotate(-11 28.458 21.764)" fill="#eeaf20" d="M26.78 21.74h3.41v.08h-3.41z"/><path transform="rotate(-11 28.5 21.873)" fill="#edae20" d="M26.79 21.83h3.41v.08h-3.41z"/><path transform="rotate(-11 28.49 21.977)" fill="#edac21" d="M26.81 21.92h3.41V22h-3.41z"/><path transform="rotate(-11 28.537 22.034)" fill="#ecab21" d="M26.83 22.01h3.41v.08h-3.41z"/><path transform="rotate(-11 28.527 22.138)" fill="#ebaa21" d="M26.85 22.1h3.41v.08h-3.41z"/><path transform="rotate(-11 28.57 22.247)" fill="#eaa922" d="M26.86 22.19h3.41v.08h-3.41z"/><path class="cls-189" transform="rotate(-11 28.564 22.299)" d="M26.88 22.28h3.41v.08h-3.41z"/><path class="cls-190" transform="rotate(-11 28.606 22.408)" d="M26.9 22.37h3.41v.08H26.9z"/><path class="cls-190" transform="rotate(-11 28.601 22.46)" d="M26.91 22.39h3.4v.17h-3.4z"/></g><path d="M30 21.34v.06c-.08.12-.21.18-.26.3a.84.84 0 0 1-.38.4 1.75 1.75 0 0 0-.3.24l-.12.08a.54.54 0 0 1-.55.07.66.66 0 0 0-.23 0h-.27a.35.35 0 0 1-.21-.07h-.05a1.9 1.9 0 0 0-.21-.21 1.8 1.8 0 0 0-.46-.3c-.22-.09-.23-.41-.19-.58a10.46 10.46 0 0 0 .08-1.08.31.31 0 0 1 .14-.27 1.82 1.82 0 0 0 .57-.48.69.69 0 0 1 .59-.2 2.6 2.6 0 0 0 .42 0 .7.7 0 0 1 .4.07c.14.09.39.19.63.31a.38.38 0 0 1 .16.24 1.57 1.57 0 0 1 .06.32 1.08 1.08 0 0 0 .11.34l.16.31a.48.48 0 0 1 0 .27 1.8 1.8 0 0 1-.07.21z" stroke-width=".07" stroke-miterlimit="3.86" stroke="#eeae49" fill="none"/><g clip-path="url(#clip-path-7)"><path transform="rotate(-12 28.007 19.537)" fill="#ffdb00" d="M26.63 19.5h2.77v.09h-2.77z"/><path transform="rotate(-12 28.045 19.637)" fill="#ffd900" d="M26.65 19.59h2.77v.09h-2.77z"/><path transform="rotate(-12 28.035 19.733)" fill="gold" d="M26.67 19.67h2.77v.09h-2.77z"/><path transform="rotate(-12 28.078 19.785)" fill="#ffd500" d="M26.69 19.76h2.77v.09h-2.77z"/><path transform="rotate(-12 28.068 19.88)" fill="#fed301" d="M26.71 19.85h2.77v.09h-2.77z"/><path transform="rotate(-12 28.105 19.98)" fill="#fdd104" d="M26.72 19.93h2.77v.09h-2.77z"/><path transform="rotate(-12 28.143 20.08)" fill="#fccf08" d="M26.74 20.02h2.77v.09h-2.77z"/><path transform="rotate(-12 28.133 20.176)" fill="#fbcd0b" d="M26.76 20.11h2.77v.09h-2.77z"/><path transform="rotate(-12 28.175 20.228)" fill="#facc0d" d="M26.78 20.19h2.77v.09h-2.77z"/><path transform="rotate(-12 28.165 20.323)" fill="#f9ca0f" d="M26.8 20.28h2.77v.09H26.8z"/><path transform="rotate(-12 28.203 20.424)" fill="#f8c811" d="M26.82 20.37h2.77v.09h-2.77z"/><path transform="rotate(-12 28.193 20.519)" fill="#f7c613" d="M26.83 20.45h2.77v.09h-2.77z"/><path transform="rotate(-12 28.235 20.571)" fill="#f6c415" d="M26.85 20.54h2.77v.09h-2.77z"/><path transform="rotate(-12 28.273 20.671)" fill="#f5c216" d="M26.87 20.63h2.77v.09h-2.77z"/><path transform="rotate(-12 28.263 20.767)" fill="#f4c017" d="M26.89 20.72h2.77v.09h-2.77z"/><path transform="rotate(-12 28.3 20.867)" fill="#f3be18" d="M26.91 20.8h2.77v.09h-2.77z"/><path transform="rotate(-12 28.296 20.914)" fill="#f2bd19" d="M26.93 20.89h2.77v.09h-2.77z"/><path transform="rotate(-12 28.333 21.014)" fill="#f2bb1a" d="M26.95 20.98h2.77v.09h-2.77z"/><path transform="rotate(-12 28.323 21.11)" fill="#f1b91b" d="M26.96 21.06h2.77v.09h-2.77z"/><path transform="rotate(-12 28.36 21.21)" fill="#f0b71c" d="M26.98 21.15h2.77v.09h-2.77z"/><path transform="rotate(-12 28.403 21.262)" fill="#efb51d" d="M27 21.24h2.77v.09H27z"/><path transform="rotate(-12 28.393 21.357)" fill="#eeb31e" d="M27.02 21.32h2.77v.09h-2.77z"/><path transform="rotate(-11.5 28.382 20.989)" fill="#eeb11f" d="M27.04 21.41h2.77v.09h-2.77z"/><path transform="rotate(-12 28.42 21.553)" fill="#edb01f" d="M27.06 21.5h2.77v.09h-2.77z"/><path transform="rotate(-12 28.458 21.653)" fill="#ecae20" d="M27.07 21.58h2.77v.09h-2.77z"/><path transform="rotate(-12 28.501 21.705)" fill="#ebac21" d="M27.09 21.67h2.77v.09h-2.77z"/><path transform="rotate(-12 28.491 21.8)" fill="#eaaa21" d="M27.11 21.76h2.77v.09h-2.77z"/><path class="cls-189" transform="rotate(-12 28.529 21.9)" d="M27.13 21.84h2.77v.09h-2.77z"/><path class="cls-190" transform="rotate(-12 28.519 21.996)" d="M27.15 21.93h2.77v.09h-2.77z"/><path class="cls-190" transform="rotate(-12 28.556 22.096)" d="M27.17 21.97h2.78v.24h-2.78z"/></g><path d="M26.93 20.87a1.39 1.39 0 1 1 1.4 1.35 1.37 1.37 0 0 1-1.4-1.35zm.14 0a1.25 1.25 0 1 1 1.26 1.21 1.23 1.23 0 0 1-1.26-1.21z" fill-rule="evenodd" fill="#ffdb00"/><path class="cls-8" d="M28 22.05a.52.52 0 0 0 .09.12h.06l-.09-.08zm.06.14S28 22.07 28 22s.06 0 .09 0l.08.08a.12.12 0 0 1 0 .05.09.09 0 0 1-.1 0z"/><path class="cls-8" d="M27.9 22a.52.52 0 0 0 .07.13h.06L28 22zm0 .15s-.1-.14-.07-.17.06 0 .09 0L28 22l.07.08a.12.12 0 0 1 0 .06H28a.09.09 0 0 1-.09-.05zM27.77 22a.52.52 0 0 0 .06.14h.06l-.07-.1zm0 .15s-.08-.14-.06-.18.07 0 .09 0v.06l.06.09a.12.12 0 0 1 0 .06h-.07a.09.09 0 0 1-.09-.06z"/><path class="cls-8" d="M27.69 22l-.05-.1a.5.5 0 0 0 0 .14zm0 0s-.07-.15 0-.18.07 0 .09 0v.06l.05.1a.12.12 0 0 1 0 .06h-.08a.09.09 0 0 1-.08-.07z"/><path class="cls-8" d="M27.56 22v.05-.11a.49.49 0 0 0 0 .15zm0 0v-.19c0-.03.07 0 .09 0v.16a.12.12 0 0 1 0 .07h-.08a.09.09 0 0 1-.07-.08z"/><path class="cls-8" d="M27.44 21.87v.06a1 1 0 0 1 0-.16.48.48 0 0 0 0 .15zm0 0v-.19c0-.03.07 0 .09 0a1 1 0 0 0 0 .17.12.12 0 0 1 0 .07h-.08a.09.09 0 0 1-.06-.09z"/><path class="cls-8" d="M27.33 21.77v.06a1 1 0 0 1 0-.16.48.48 0 0 0 0 .15zm0 0v-.19h.07a1 1 0 0 0 0 .17.12.12 0 0 1 0 .07h-.05a.09.09 0 0 1-.05-.09z"/><path class="cls-8" d="M27.23 21.65v.07a1 1 0 0 1 0-.16.48.48 0 0 0 0 .15zm0 0c0-.05 0-.23.1-.17a1 1 0 0 0 0 .17.12.12 0 0 1 0 .07.09.09 0 0 1 0-.1z"/><path class="cls-8" d="M27.15 21.53v.07a1 1 0 0 1 0-.16.48.48 0 0 0 0 .15zm0 0c0-.05 0-.23.11-.16a1 1 0 0 0 0 .17.12.12 0 0 1 0 .07.09.09 0 0 1 0-.1z"/><path class="cls-8" d="M27.08 21.39v.07a1 1 0 0 1 0-.16.48.48 0 0 0-.06.14zm0 0s.05-.22.13-.14a1 1 0 0 0 0 .17.12.12 0 0 1 0 .06.09.09 0 0 1 0-.1zM27.09 21.12a.52.52 0 0 0-.07.13v.07a1 1 0 0 1 .06-.16zm-.11.12s.07-.18.13-.15a1 1 0 0 0-.06.16.12.12 0 0 1 0 .06.09.09 0 0 1 0-.11z"/><path class="cls-8" d="M27.07 21a.52.52 0 0 0-.09.12v.07-.11zm-.12.11s.08-.15.12-.14v.16a.12.12 0 0 1 0 .06.09.09 0 0 1 0-.1z"/><path class="cls-8" d="M27.06 20.84A.53.53 0 0 0 27 21v.07l.06-.1zm-.13.09s.1-.14.14-.13 0 .05 0 .08v.05L27 21a.12.12 0 0 1 0 .05.09.09 0 0 1 0-.1z"/><path class="cls-8" d="M27.07 20.71a.53.53 0 0 0-.11.1v.07l.07-.09zm-.14.08s.11-.13.15-.11 0 .06 0 .08l-.07.09a.09.09 0 0 1 0-.1z"/><path class="cls-8" d="M27.09 20.57a.53.53 0 0 0-.12.09v.06l.08-.08zm-.15.06s.12-.11.16-.09 0 .06 0 .08l-.08.08a.12.12 0 0 1-.05 0 .09.09 0 0 1 0-.1z"/><path class="cls-8" d="M27.13 20.44a.53.53 0 0 0-.13.07v.06l.09-.07zm-.15 0s.14-.1.17-.07 0 .06 0 .09h-.05l-.1.14a.12.12 0 0 1-.06 0 .1.1 0 0 1 0-.05.09.09 0 0 1 .05-.09z"/><path class="cls-8" d="M27.19 20.31a.53.53 0 0 0-.14.06v.05l.1-.06zm-.16 0s.15-.08.18-.05 0 .06 0 .09h-.06l-.09.06H27a.1.1 0 0 1 0-.05.09.09 0 0 1 .06-.08z"/><path class="cls-8" d="M27.11 20.23l.1-.05a.52.52 0 0 0-.15 0zm0 0s.16-.07.19 0 0 .07 0 .09h-.22a.1.1 0 0 1 0-.05s0-.06.07-.08z"/><path class="cls-8" d="M27.19 20.1h-.06.11a.51.51 0 0 0-.15 0zm0 0h.19c.03 0 0 .07 0 .09H27.1a.1.1 0 0 1 0-.05.09.09 0 0 1 .08-.07zM27.29 20h-.06.16a.5.5 0 0 0-.15 0zm0 0h.19-.26a.1.1 0 0 1 0-.05.09.09 0 0 1 .09-.06z"/><path class="cls-8" d="M27.39 19.87h-.06.17a.5.5 0 0 0-.15 0zm0 0h.19v.06h-.27a.1.1 0 0 1 0-.05.09.09 0 0 1 .09 0z"/><path class="cls-8" d="M27.51 19.77h-.07.21a.5.5 0 0 0-.15 0zm0 0c.05 0 .23 0 .17.1h-.28a.09.09 0 0 1 .1 0z"/><path class="cls-8" d="M27.64 19.69h-.07.17a.5.5 0 0 0-.15 0zm0 0c.05 0 .23 0 .16.11H27.56a.09.09 0 0 1 .1 0z"/><path class="cls-8" d="M27.77 19.62h-.07.16a.49.49 0 0 0-.14-.06zm0 0c.05 0 .23.05.15.13h-.23a.09.09 0 0 1 .11 0z"/><path class="cls-8" d="M28 19.64a.53.53 0 0 0-.13-.07h-.07l.16.05zm-.12-.1s.18.07.15.12l-.17-.06h-.06a.09.09 0 0 1 .11 0z"/><path class="cls-8" d="M28.18 19.62a.53.53 0 0 0-.13-.09h-.07.11zm-.11-.12s.15.08.14.12h-.16a.12.12 0 0 1-.06 0 .09.09 0 0 1 .11 0z"/><path class="cls-8" d="M28.33 19.61a.53.53 0 0 0-.11-.1h-.07l.1.06zm-.09-.13s.14.1.13.14-.05 0-.08 0h-.05l-.1-.06a.12.12 0 0 1-.05 0 .09.09 0 0 1 .1 0z"/><path class="cls-8" d="M28.47 19.62a.53.53 0 0 0-.1-.11h-.07l.09.07zm-.08-.14s.13.11.11.15-.06 0-.08 0l-.09-.07a.09.09 0 0 1 .1 0z"/><path class="cls-8" d="M28.61 19.65a.52.52 0 0 0-.09-.12h-.06l.08.08zm-.06-.15s.11.12.09.16-.06 0-.09 0l-.08-.08a.12.12 0 0 1 0-.05h.05a.09.09 0 0 1 .1 0z"/><path class="cls-8" d="M28.74 19.69a.52.52 0 0 0-.07-.13h-.06l.08.09zm0-.15s.1.14.07.17-.06 0-.09 0v-.05l-.07-.08a.12.12 0 0 1 0-.06h.07a.09.09 0 0 1 .09.05z"/><path class="cls-8" d="M28.87 19.74a.52.52 0 0 0-.06-.14h-.05l.06.1zm0-.16s.08.15.05.18-.07 0-.09 0v-.06l-.06-.09a.12.12 0 0 1 0-.06h.07a.09.09 0 0 1 .09.06z"/><path class="cls-8" d="M29 19.67l.05.1a.5.5 0 0 0 0-.14zm0 0s.06.16 0 .18-.07 0-.09 0v-.16a.12.12 0 0 1 0-.06h.08a.09.09 0 0 1 .08.07z"/><path class="cls-8" d="M29.08 19.75v-.05.11a.49.49 0 0 0 0-.15zm0 0v.19c0 .03-.07 0-.09 0v-.16a.12.12 0 0 1 0-.07H29a.09.09 0 0 1 .07.08zM29.2 19.84v-.06a1 1 0 0 1 0 .16.48.48 0 0 0 0-.15zm0 0v.19h-.09a1 1 0 0 0 0-.17.12.12 0 0 1 0-.07h.08a.09.09 0 0 1 .06.09z"/><path class="cls-8" d="M29.31 19.94v-.06a1 1 0 0 1 0 .16v-.1zm0 0s0 .19-.05.19h-.06a1 1 0 0 0 0-.17.12.12 0 0 1 0-.07h.05a.09.09 0 0 1 0 .09z"/><path class="cls-8" d="M29.41 20.06v-.07a1 1 0 0 1 0 .16.48.48 0 0 0 0-.15zm0 0c0 .05 0 .23-.1.17a1 1 0 0 0 0-.17.12.12 0 0 1 0-.07.09.09 0 0 1 0 .1z"/><path class="cls-8" d="M29.49 20.19v-.07a1 1 0 0 1 0 .16.48.48 0 0 0 0-.14zm0 0c0 .05 0 .23-.12.15a1 1 0 0 0 0-.17.12.12 0 0 1 0-.06.09.09 0 0 1 0 .1z"/><path class="cls-8" d="M29.56 20.32v-.07a1 1 0 0 1 0 .16.48.48 0 0 0 .06-.14zm0 0s-.06.22-.13.14a1 1 0 0 0 0-.17.12.12 0 0 1 0-.06.09.09 0 0 1 0 .1zM29.54 20.59a.52.52 0 0 0 .07-.13v-.07a1 1 0 0 1-.06.16zm.11-.12s-.07.18-.13.15a1 1 0 0 0 .06-.16.12.12 0 0 1 0-.06.09.09 0 0 1 0 .11z"/><path class="cls-8" d="M29.55 20.73a.52.52 0 0 0 .09-.12v-.07l-.05.1zm.12-.1s-.08.15-.13.14V20.62a.12.12 0 0 1 0-.06.09.09 0 0 1 0 .1z"/><path class="cls-8" d="M29.56 20.87a.53.53 0 0 0 .1-.11v-.07l-.06.1zm.13-.09s-.1.14-.14.13 0-.05 0-.08v-.05l.06-.09a.12.12 0 0 1 0-.05.09.09 0 0 1 0 .1z"/><path class="cls-8" d="M29.55 21a.53.53 0 0 0 .12-.1v-.06l-.07.09zm.14-.07s-.12.12-.16.11 0-.06 0-.08l.07-.09a.09.09 0 0 1 0 .1zM29.53 21.15a.53.53 0 0 0 .12-.09V21l-.08.08zm.15-.06s-.13.11-.17.09 0-.06 0-.08l.08-.08a.12.12 0 0 1 .05 0 .09.09 0 0 1 0 .1zM29.48 21.28a.53.53 0 0 0 .14-.07v-.06l-.09.07zm.15 0s-.14.09-.18.07 0-.06 0-.09h.05l.09-.07a.12.12 0 0 1 .06 0 .1.1 0 0 1 0 .05.09.09 0 0 1-.06.09z"/><path class="cls-8" d="M29.43 21.41a.53.53 0 0 0 .14-.06v-.05l-.1.06zm.16 0s-.15.08-.18.05 0-.06 0-.09h.06l.09-.06h.06a.1.1 0 0 1 0 .05.09.09 0 0 1-.06.08z"/><path class="cls-8" d="M29.5 21.49h.05l-.11.05a.52.52 0 0 0 .15 0zm0 0s-.16.06-.19 0 0-.07 0-.09h.22a.1.1 0 0 1 0 .05s0 .06-.07.08z"/><path class="cls-8" d="M29.42 21.62h.06-.11a.51.51 0 0 0 .15 0zm0 0h-.19c-.03 0 0-.07 0-.09h.26a.1.1 0 0 1 0 .05.09.09 0 0 1-.08.07zM29.33 21.73h.06-.16a.5.5 0 0 0 .15 0zm0 0h-.19.26a.1.1 0 0 1 0 .05.09.09 0 0 1-.09.06z"/><path class="cls-8" d="M29.22 21.84h.06-.17.15zm0 0h-.19v-.06h.26a.1.1 0 0 1 0 .05.09.09 0 0 1-.1 0z"/><path class="cls-8" d="M29.1 21.94h.07H29a.5.5 0 0 0 .15 0zm0 0c-.05 0-.23 0-.17-.1h.27a.09.09 0 0 1-.1 0z"/><path class="cls-8" d="M29 22h.07-.17a.5.5 0 0 0 .1 0zm0 0c-.05 0-.23 0-.16-.11H29.08a.09.09 0 0 1-.1 0z"/><path class="cls-8" d="M28.83 22.08h.07-.16a.49.49 0 0 0 .14.06zm0 0s-.23-.06-.14-.13h.17L29 22a.09.09 0 0 1-.11 0z"/><path class="cls-8" d="M28.56 22.06a.53.53 0 0 0 .13.08h.07-.11zm.11.11s-.18-.07-.15-.13h.22a.09.09 0 0 1-.11 0z"/><path class="cls-8" d="M28.42 22.07a.53.53 0 0 0 .12.09h.07l-.11-.05zm.1.12s-.15-.08-.14-.13.05 0 .07-.05h.16a.12.12 0 0 1 .06 0 .09.09 0 0 1-.11 0z"/><path class="cls-8" d="M28.28 22.08a.53.53 0 0 0 .11.1h.07l-.1-.06zm.09.13s-.14-.1-.12-.14.06 0 .08 0h.05l.09.06a.12.12 0 0 1 .05 0 .09.09 0 0 1-.1 0z"/><path class="cls-8" d="M28.17 22.07a.52.52 0 0 0 .09.12h.06l-.09-.08zm.06.14s-.12-.12-.1-.16.06 0 .09 0l.08.08a.12.12 0 0 1 0 .05.09.09 0 0 1-.1 0z"/><g clip-path="url(#clip-path-8)"><path class="cls-222" d="M27.37 19.91h1.87v1.93h-1.87v-1.93z"/><path class="cls-222" d="M27.19 20.88a1.12 1.12 0 1 1 1.12 1 1.07 1.07 0 0 1-1.12-1z"/><path d="M27.3 20.88a1 1 0 1 1 1 .91 1 1 0 0 1-1-.91z" fill="#b6292f"/><path d="M27.42 20.88a.89.89 0 1 1 .88.81.85.85 0 0 1-.88-.81z" fill="#d1232a"/><path class="cls-225" d="M27.53 20.88a.77.77 0 1 1 .77.7.74.74 0 0 1-.77-.7z"/><path class="cls-225" d="M27.92 20.88a.39.39 0 1 1 .38.35.37.37 0 0 1-.38-.35z"/></g><path class="cls-226" d="M27.37 20.88a.93.93 0 1 1 .93 1 .95.95 0 0 1-.93-1"/><path class="cls-8" d="M28.24 22a.06.06 0 1 1 .06-.06.06.06 0 0 1-.06.06z"/><path class="cls-155" d="M28.24 21.95v-.08.08z"/><path d="M28.24 22a.06.06 0 1 1 .06-.06.06.06 0 0 1-.06.06z" stroke-width=".07" stroke="#df9d53" stroke-miterlimit="3.86" fill="none"/><path class="cls-8" d="M28.13 21.94a.06.06 0 0 1 0-.07.06.06 0 0 1 .06-.05.06.06 0 0 1 0 .07.06.06 0 0 1-.06.05z"/><path class="cls-155" d="M28.14 21.93z"/><path d="M28.13 21.94a.06.06 0 0 1 0-.07.06.06 0 0 1 .06-.05.06.06 0 0 1 0 .07.06.06 0 0 1-.06.05z" stroke-width=".07" stroke="#df9d53" stroke-miterlimit="3.86" fill="none"/><path class="cls-8" d="M28 21.92a.06.06 0 0 1 0-.07.06.06 0 0 1 .07 0 .06.06 0 0 1 0 .07.06.06 0 0 1-.07 0z"/><path class="cls-155" d="M28 21.9z"/><path d="M28 21.92a.06.06 0 0 1 0-.07.06.06 0 0 1 .07 0 .06.06 0 0 1 0 .07.06.06 0 0 1-.07 0z" stroke-width=".07" stroke="#df9d53" stroke-miterlimit="3.86" fill="none"/><path class="cls-8" d="M27.93 21.88a.06.06 0 0 1 0-.08.06.06 0 0 1 .07 0 .06.06 0 0 1 0 .08.06.06 0 0 1-.07 0z"/><path class="cls-155" d="M27.93 21.87h.05v-.05h-.05v.05z"/><path d="M27.93 21.88a.06.06 0 0 1 0-.08.06.06 0 0 1 .07 0 .06.06 0 0 1 0 .08.06.06 0 0 1-.07 0z" stroke-width=".07" stroke="#df9d53" stroke-miterlimit="3.86" fill="none"/><path class="cls-8" d="M27.83 21.84a.06.06 0 0 1 0-.08.06.06 0 0 1 .07 0 .06.06 0 0 1 0 .08.06.06 0 0 1-.07 0z"/><path class="cls-155" d="M27.83 21.82h.05v-.05h-.05v.05z"/><path d="M27.83 21.84a.06.06 0 0 1 0-.08.06.06 0 0 1 .07 0 .06.06 0 0 1 0 .08.06.06 0 0 1-.07 0z" stroke-width=".07" stroke="#df9d53" stroke-miterlimit="3.86" fill="none"/><path class="cls-8" d="M27.74 21.78a.06.06 0 0 1 0-.08.06.06 0 0 1 .08 0 .06.06 0 0 1 0 .08.06.06 0 0 1-.08 0z"/><path class="cls-155" d="M27.75 21.77h.05v-.05h-.05v.05z"/><path d="M27.74 21.78a.06.06 0 0 1 0-.08.06.06 0 0 1 .08 0 .06.06 0 0 1 0 .08.06.06 0 0 1-.08 0z" stroke-width=".07" stroke="#df9d53" stroke-miterlimit="3.86" fill="none"/><path class="cls-8" d="M27.65 21.71a.06.06 0 0 1 0-.08.06.06 0 0 1 .08 0 .06.06 0 0 1 0 .08.06.06 0 0 1-.08 0z"/><path class="cls-155" d="M27.66 21.7h.05v-.06h-.05v.06z"/><path d="M27.65 21.71a.06.06 0 0 1 0-.08.06.06 0 0 1 .08 0 .06.06 0 0 1 0 .08.06.06 0 0 1-.08 0z" stroke-width=".07" stroke="#df9d53" stroke-miterlimit="3.86" fill="none"/><path class="cls-8" d="M27.57 21.64a.06.06 0 0 1 0-.08.06.06 0 0 1 .08 0 .06.06 0 0 1 0 .08.06.06 0 0 1-.08 0z"/><path class="cls-155" d="M27.58 21.62h.05v-.06h-.05v.06z"/><path d="M27.57 21.64a.06.06 0 0 1 0-.08.06.06 0 0 1 .08 0 .06.06 0 0 1 0 .08.06.06 0 0 1-.08 0z" stroke-width=".07" stroke="#df9d53" stroke-miterlimit="3.86" fill="none"/><path class="cls-8" d="M27.5 21.56a.06.06 0 0 1 0-.08.06.06 0 0 1 .08 0 .06.06 0 0 1 0 .08.06.06 0 0 1-.08 0z"/><path class="cls-155" d="M27.51 21.54h.05v-.06h-.05v.06z"/><path d="M27.5 21.56a.06.06 0 0 1 0-.08.06.06 0 0 1 .08 0 .06.06 0 0 1 0 .08.06.06 0 0 1-.08 0z" stroke-width=".07" stroke="#df9d53" stroke-miterlimit="3.86" fill="none"/><path class="cls-8" d="M27.44 21.46a.06.06 0 0 1 0-.08.06.06 0 0 1 .08 0 .06.06 0 0 1 0 .08.06.06 0 0 1-.08 0z"/><path class="cls-155" d="M27.45 21.46h.05v-.05h-.05v.05z"/><path d="M27.44 21.46a.06.06 0 0 1 0-.08.06.06 0 0 1 .08 0 .06.06 0 0 1 0 .08.06.06 0 0 1-.08 0z" stroke-width=".07" stroke="#df9d53" stroke-miterlimit="3.86" fill="none"/><path class="cls-8" d="M27.39 21.37a.06.06 0 0 1 0-.07.06.06 0 0 1 .08 0 .06.06 0 0 1 0 .07.06.06 0 0 1-.08 0z"/><path class="cls-155" d="M27.4 21.36h.05v-.05h-.05v.05z"/><path d="M27.39 21.37a.06.06 0 0 1 0-.07.06.06 0 0 1 .08 0 .06.06 0 0 1 0 .07.06.06 0 0 1-.08 0z" stroke-width=".07" stroke="#df9d53" stroke-miterlimit="3.86" fill="none"/><path class="cls-8" d="M27.34 21.27a.06.06 0 0 1 0-.07.06.06 0 0 1 .07 0 .06.06 0 0 1 0 .07.06.06 0 0 1-.07 0z"/><path class="cls-155" d="M27.36 21.26v-.05.05z"/><path d="M27.34 21.27a.06.06 0 0 1 0-.07.06.06 0 0 1 .07 0 .06.06 0 0 1 0 .07.06.06 0 0 1-.07 0z" stroke-width=".07" stroke="#df9d53" stroke-miterlimit="3.86" fill="none"/><path class="cls-8" d="M27.31 21.17a.06.06 0 0 1 0-.07.06.06 0 0 1 .07 0 .06.06 0 0 1 0 .07.06.06 0 0 1-.07 0z"/><path class="cls-155" d="M27.33 21.16z"/><path d="M27.31 21.17a.06.06 0 0 1 0-.07.06.06 0 0 1 .07 0 .06.06 0 0 1 0 .07.06.06 0 0 1-.07 0z" stroke-width=".07" stroke="#df9d53" stroke-miterlimit="3.86" fill="none"/><path class="cls-8" d="M27.29 21.06a.06.06 0 0 1 .05-.06.06.06 0 0 1 .07 0 .06.06 0 0 1-.05.06.06.06 0 0 1-.07 0z"/><path class="cls-155" d="M27.3 21.05z"/><path d="M27.29 21.06a.06.06 0 0 1 .05-.06.06.06 0 0 1 .07 0 .06.06 0 0 1-.05.06.06.06 0 0 1-.07 0z" stroke-width=".07" stroke="#df9d53" stroke-miterlimit="3.86" fill="none"/><path class="cls-8" d="M27.28 21a.06.06 0 1 1 .06 0 .06.06 0 0 1-.06 0z"/><path class="cls-155" d="M27.29 20.95h0z"/><path d="M27.28 21a.06.06 0 1 1 .06 0 .06.06 0 0 1-.06 0z" stroke-width=".07" stroke="#df9d53" stroke-miterlimit="3.86" fill="none"/><path class="cls-8" d="M27.27 20.84a.06.06 0 1 1 .06.05.06.06 0 0 1-.06-.05z"/><path class="cls-155" d="M27.29 20.84h0z"/><path d="M27.27 20.84a.06.06 0 1 1 .06.05.06.06 0 0 1-.06-.05z" stroke-width=".07" stroke="#df9d53" stroke-miterlimit="3.86" fill="none"/><path class="cls-8" d="M27.28 20.73a.06.06 0 0 1 .07 0 .06.06 0 0 1 .05.06.06.06 0 0 1-.07 0 .06.06 0 0 1-.05-.06z"/><path class="cls-155" d="M27.3 20.73z"/><path d="M27.28 20.73a.06.06 0 0 1 .07 0 .06.06 0 0 1 .05.06.06.06 0 0 1-.07 0 .06.06 0 0 1-.05-.06z" stroke-width=".07" stroke="#df9d53" stroke-miterlimit="3.86" fill="none"/><path class="cls-8" d="M27.3 20.62a.06.06 0 0 1 .07 0 .06.06 0 0 1 0 .06.06.06 0 0 1-.07 0 .06.06 0 0 1 0-.06z"/><path class="cls-155" d="M27.32 20.63z"/><path d="M27.3 20.62a.06.06 0 0 1 .07 0 .06.06 0 0 1 0 .06.06.06 0 0 1-.07 0 .06.06 0 0 1 0-.06z" stroke-width=".07" stroke="#df9d53" stroke-miterlimit="3.86" fill="none"/><path class="cls-8" d="M27.33 20.52a.06.06 0 0 1 .07 0 .06.06 0 0 1 0 .07.06.06 0 0 1-.07 0 .06.06 0 0 1 0-.07z"/><path class="cls-155" d="M27.35 20.52v0z"/><path d="M27.33 20.52a.06.06 0 0 1 .07 0 .06.06 0 0 1 0 .07.06.06 0 0 1-.07 0 .06.06 0 0 1 0-.07z" stroke-width=".07" stroke="#df9d53" stroke-miterlimit="3.86" fill="none"/><path class="cls-8" d="M27.37 20.42a.06.06 0 0 1 .08 0 .06.06 0 0 1 0 .07.06.06 0 0 1-.08 0 .06.06 0 0 1 0-.07z"/><path class="cls-155" d="M27.38 20.42v.05h.05v-.05h-.05z"/><path d="M27.37 20.42a.06.06 0 0 1 .08 0 .06.06 0 0 1 0 .07.06.06 0 0 1-.08 0 .06.06 0 0 1 0-.07z" stroke-width=".07" stroke="#df9d53" stroke-miterlimit="3.86" fill="none"/><path class="cls-8" d="M27.42 20.32a.06.06 0 0 1 .08 0 .06.06 0 0 1 0 .08.06.06 0 0 1-.08 0 .06.06 0 0 1 0-.08z"/><path class="cls-155" d="M27.43 20.33v.05h.05v-.05h-.05z"/><path d="M27.42 20.32a.06.06 0 0 1 .08 0 .06.06 0 0 1 0 .08.06.06 0 0 1-.08 0 .06.06 0 0 1 0-.08z" stroke-width=".07" stroke="#df9d53" stroke-miterlimit="3.86" fill="none"/><path class="cls-8" d="M27.48 20.23a.06.06 0 0 1 .08 0 .06.06 0 0 1 0 .08.06.06 0 0 1-.08 0 .06.06 0 0 1 0-.08z"/><path class="cls-155" d="M27.49 20.24v.06h.05v-.06h-.05z"/><path d="M27.48 20.23a.06.06 0 0 1 .08 0 .06.06 0 0 1 0 .08.06.06 0 0 1-.08 0 .06.06 0 0 1 0-.08z" stroke-width=".07" stroke="#df9d53" stroke-miterlimit="3.86" fill="none"/><path class="cls-8" d="M27.55 20.14a.06.06 0 0 1 .08 0 .06.06 0 0 1 0 .08.06.06 0 0 1-.08 0 .06.06 0 0 1 0-.08z"/><path class="cls-155" d="M27.56 20.15v.06h.05v-.06h-.05z"/><path d="M27.55 20.14a.06.06 0 0 1 .08 0 .06.06 0 0 1 0 .08.06.06 0 0 1-.08 0 .06.06 0 0 1 0-.08z" stroke-width=".07" stroke="#df9d53" stroke-miterlimit="3.86" fill="none"/><path class="cls-8" d="M27.62 20.07a.06.06 0 0 1 .08 0 .06.06 0 0 1 0 .08.06.06 0 0 1-.08 0 .06.06 0 0 1 0-.08z"/><path class="cls-155" d="M27.63 20.08v.06h.05v-.06h-.05z"/><path d="M27.62 20.07a.06.06 0 0 1 .08 0 .06.06 0 0 1 0 .08.06.06 0 0 1-.08 0 .06.06 0 0 1 0-.08z" stroke-width=".07" stroke="#df9d53" stroke-miterlimit="3.86" fill="none"/><path class="cls-8" d="M27.7 20a.06.06 0 0 1 .08 0 .06.06 0 0 1 0 .08.06.06 0 0 1-.08 0 .06.06 0 0 1 0-.08z"/><path class="cls-155" d="M27.71 20v.05h.05V20h-.05z"/><path d="M27.7 20a.06.06 0 0 1 .08 0 .06.06 0 0 1 0 .08.06.06 0 0 1-.08 0 .06.06 0 0 1 0-.08z" stroke-width=".07" stroke="#df9d53" stroke-miterlimit="3.86" fill="none"/><path class="cls-8" d="M27.79 19.93a.06.06 0 0 1 .07 0 .06.06 0 0 1 0 .08.06.06 0 0 1-.07 0 .06.06 0 0 1 0-.08z"/><path class="cls-155" d="M27.8 19.95V20h.05v-.05h-.05z"/><path d="M27.79 19.93a.06.06 0 0 1 .07 0 .06.06 0 0 1 0 .08.06.06 0 0 1-.07 0 .06.06 0 0 1 0-.08z" stroke-width=".07" stroke="#df9d53" stroke-miterlimit="3.86" fill="none"/><path class="cls-8" d="M27.89 19.88a.06.06 0 0 1 .07 0 .06.06 0 0 1 0 .08.06.06 0 0 1-.07 0 .06.06 0 0 1 0-.08z"/><path class="cls-155" d="M27.9 19.9v.05h.05v-.05h-.05z"/><path d="M27.89 19.88a.06.06 0 0 1 .07 0 .06.06 0 0 1 0 .08.06.06 0 0 1-.07 0 .06.06 0 0 1 0-.08z" stroke-width=".07" stroke="#df9d53" stroke-miterlimit="3.86" fill="none"/><path class="cls-8" d="M28 19.84a.06.06 0 0 1 .07 0A.06.06 0 0 1 28 20a.06.06 0 0 1-.07 0 .06.06 0 0 1 0-.07z"/><path class="cls-155" d="M28 19.86z"/><path d="M28 19.84a.06.06 0 0 1 .07 0A.06.06 0 0 1 28 20a.06.06 0 0 1-.07 0 .06.06 0 0 1 0-.07z" stroke-width=".07" stroke="#df9d53" stroke-miterlimit="3.86" fill="none"/><path class="cls-8" d="M28.1 19.81a.06.06 0 0 1 .06 0 .06.06 0 0 1 0 .07.06.06 0 0 1-.06 0 .06.06 0 0 1 0-.07z"/><path class="cls-155" d="M28.1 19.83z"/><path d="M28.1 19.81a.06.06 0 0 1 .06 0 .06.06 0 0 1 0 .07.06.06 0 0 1-.06 0 .06.06 0 0 1 0-.07z" stroke-width=".07" stroke="#df9d53" stroke-miterlimit="3.86" fill="none"/><path class="cls-8" d="M28.2 19.8a.06.06 0 1 1 0 .07.06.06 0 0 1 0-.07z"/><path class="cls-155" d="M28.21 19.81v0z"/><path d="M28.2 19.8a.06.06 0 1 1 0 .07.06.06 0 0 1 0-.07z" stroke-width=".07" stroke="#df9d53" stroke-miterlimit="3.86" fill="none"/><path class="cls-8" d="M28.31 19.79a.06.06 0 1 1-.05.06.06.06 0 0 1 .05-.06z"/><path class="cls-155" d="M28.31 19.81v0z"/><path d="M28.31 19.79a.06.06 0 1 1-.05.06.06.06 0 0 1 .05-.06z" stroke-width=".07" stroke="#df9d53" stroke-miterlimit="3.86" fill="none"/><path class="cls-8" d="M28.42 19.8a.06.06 0 0 1 0 .07.06.06 0 0 1-.06.05.06.06 0 0 1 0-.12z"/><path class="cls-155" d="M28.41 19.82v0z"/><path d="M28.42 19.8a.06.06 0 0 1 0 .07.06.06 0 0 1-.06.05.06.06 0 0 1 0-.12z" stroke-width=".07" stroke="#df9d53" stroke-miterlimit="3.86" fill="none"/><path class="cls-8" d="M28.53 19.82a.06.06 0 0 1 0 .07.06.06 0 0 1-.06 0 .06.06 0 0 1 0-.07.06.06 0 0 1 .06 0z"/><path class="cls-155" d="M28.52 19.83z"/><path d="M28.53 19.82a.06.06 0 0 1 0 .07.06.06 0 0 1-.06 0 .06.06 0 0 1 0-.07.06.06 0 0 1 .06 0z" stroke-width=".07" stroke="#df9d53" stroke-miterlimit="3.86" fill="none"/><path class="cls-8" d="M28.63 19.85a.06.06 0 0 1 0 .07.06.06 0 0 1-.07 0 .06.06 0 0 1 0-.07.06.06 0 0 1 .07 0z"/><path class="cls-155" d="M28.63 19.86z"/><path d="M28.63 19.85a.06.06 0 0 1 0 .07.06.06 0 0 1-.07 0 .06.06 0 0 1 0-.07.06.06 0 0 1 .07 0z" stroke-width=".07" stroke="#df9d53" stroke-miterlimit="3.86" fill="none"/><path class="cls-8" d="M28.73 19.89a.06.06 0 0 1 0 .08.06.06 0 0 1-.07 0 .06.06 0 0 1 0-.08.06.06 0 0 1 .07 0z"/><path class="cls-155" d="M28.73 19.9h-.05v.05h.05v-.05z"/><path d="M28.73 19.89a.06.06 0 0 1 0 .08.06.06 0 0 1-.07 0 .06.06 0 0 1 0-.08.06.06 0 0 1 .07 0z" stroke-width=".07" stroke="#df9d53" stroke-miterlimit="3.86" fill="none"/><path class="cls-8" d="M28.83 19.94a.06.06 0 0 1 0 .08.06.06 0 0 1-.08 0 .06.06 0 0 1 0-.08.06.06 0 0 1 .08 0z"/><path class="cls-155" d="M28.82 20h-.05v.05h.05V20z"/><path d="M28.83 19.94a.06.06 0 0 1 0 .08.06.06 0 0 1-.08 0 .06.06 0 0 1 0-.08.06.06 0 0 1 .08 0z" stroke-width=".07" stroke="#df9d53" stroke-miterlimit="3.86" fill="none"/><path class="cls-8" d="M28.92 20a.06.06 0 0 1 0 .08.06.06 0 0 1-.08 0 .06.06 0 0 1 0-.08.06.06 0 0 1 .08 0z"/><path class="cls-155" d="M28.91 20h-.05v.06h.05V20z"/><path d="M28.92 20a.06.06 0 0 1 0 .08.06.06 0 0 1-.08 0 .06.06 0 0 1 0-.08.06.06 0 0 1 .08 0z" stroke-width=".07" stroke="#df9d53" stroke-miterlimit="3.86" fill="none"/><path class="cls-8" d="M29 20.07a.06.06 0 0 1 0 .08.06.06 0 0 1-.08 0 .06.06 0 0 1 0-.08.06.06 0 0 1 .08 0z"/><path class="cls-155" d="M29 20.08h-.05v.06H29v-.06z"/><path d="M29 20.07a.06.06 0 0 1 0 .08.06.06 0 0 1-.08 0 .06.06 0 0 1 0-.08.06.06 0 0 1 .08 0z" stroke-width=".07" stroke="#df9d53" stroke-miterlimit="3.86" fill="none"/><path class="cls-8" d="M29.08 20.15a.06.06 0 0 1 0 .08.06.06 0 0 1-.08 0 .06.06 0 0 1 0-.08.06.06 0 0 1 .08 0z"/><path class="cls-155" d="M29.06 20.16h-.05v.06h.05v-.06z"/><path d="M29.08 20.15a.06.06 0 0 1 0 .08.06.06 0 0 1-.08 0 .06.06 0 0 1 0-.08.06.06 0 0 1 .08 0z" stroke-width=".07" stroke="#df9d53" stroke-miterlimit="3.86" fill="none"/><path class="cls-8" d="M29.14 20.24a.06.06 0 0 1 0 .08.06.06 0 0 1-.08 0 .06.06 0 0 1 0-.08.06.06 0 0 1 .08 0z"/><path class="cls-155" d="M29.13 20.25h-.05v.06h.05v-.06z"/><path d="M29.14 20.24a.06.06 0 0 1 0 .08.06.06 0 0 1-.08 0 .06.06 0 0 1 0-.08.06.06 0 0 1 .08 0z" stroke-width=".07" stroke="#df9d53" stroke-miterlimit="3.86" fill="none"/><path class="cls-8" d="M29.2 20.33a.06.06 0 0 1 0 .08.06.06 0 0 1-.08 0 .06.06 0 0 1 0-.08.06.06 0 0 1 .08 0z"/><path class="cls-155" d="M29.19 20.34h-.05v.05h.05v-.05z"/><path d="M29.2 20.33a.06.06 0 0 1 0 .08.06.06 0 0 1-.08 0 .06.06 0 0 1 0-.08.06.06 0 0 1 .08 0z" stroke-width=".07" stroke="#df9d53" stroke-miterlimit="3.86" fill="none"/><path class="cls-8" d="M29.25 20.43a.06.06 0 0 1 0 .07.06.06 0 0 1-.08 0 .06.06 0 0 1 0-.07.06.06 0 0 1 .08 0z"/><path class="cls-155" d="M29.23 20.43h-.05v.05h.05v-.05z"/><path d="M29.25 20.43a.06.06 0 0 1 0 .07.06.06 0 0 1-.08 0 .06.06 0 0 1 0-.07.06.06 0 0 1 .08 0z" stroke-width=".07" stroke="#df9d53" stroke-miterlimit="3.86" fill="none"/><path class="cls-8" d="M29.29 20.53a.06.06 0 0 1 0 .07.06.06 0 0 1-.07 0 .06.06 0 0 1 0-.07.06.06 0 0 1 .07 0z"/><path class="cls-155" d="M29.27 20.54z"/><path d="M29.29 20.53a.06.06 0 0 1 0 .07.06.06 0 0 1-.07 0 .06.06 0 0 1 0-.07.06.06 0 0 1 .07 0z" stroke-width=".07" stroke="#df9d53" stroke-miterlimit="3.86" fill="none"/><path class="cls-8" d="M29.32 20.63a.06.06 0 0 1 0 .06.06.06 0 0 1-.07 0 .06.06 0 0 1 0-.06.06.06 0 0 1 .07 0z"/><path class="cls-155" d="M29.3 20.64z"/><path d="M29.32 20.63a.06.06 0 0 1 0 .06.06.06 0 0 1-.07 0 .06.06 0 0 1 0-.06.06.06 0 0 1 .07 0z" stroke-width=".07" stroke="#df9d53" stroke-miterlimit="3.86" fill="none"/><path class="cls-8" d="M29.33 20.74a.06.06 0 1 1-.06 0 .06.06 0 0 1 .06 0z"/><path class="cls-155" d="M29.32 20.75h-.08.08z"/><path d="M29.33 20.74a.06.06 0 1 1-.06 0 .06.06 0 0 1 .06 0z" stroke-width=".07" stroke="#df9d53" stroke-miterlimit="3.86" fill="none"/><path class="cls-8" d="M29.34 20.85a.06.06 0 1 1-.06-.05.06.06 0 0 1 .06.05z"/><path class="cls-155" d="M29.32 20.85h-.08.08z"/><path d="M29.34 20.85a.06.06 0 1 1-.06-.05.06.06 0 0 1 .06.05z" stroke-width=".07" stroke="#df9d53" stroke-miterlimit="3.86" fill="none"/><path class="cls-8" d="M29.34 21a.06.06 0 1 1-.05-.06.06.06 0 0 1 .05.06z"/><path class="cls-155" d="M29.32 21h-.08.08z"/><path d="M29.34 21a.06.06 0 1 1-.05-.06.06.06 0 0 1 .05.06z" stroke-width=".07" stroke="#df9d53" stroke-miterlimit="3.86" fill="none"/><path class="cls-8" d="M29.33 21.07a.06.06 0 0 1-.07 0 .06.06 0 0 1 0-.06.06.06 0 0 1 .07 0 .06.06 0 0 1 0 .06z"/><path class="cls-155" d="M29.31 21.07z"/><path d="M29.33 21.07a.06.06 0 0 1-.07 0 .06.06 0 0 1 0-.06.06.06 0 0 1 .07 0 .06.06 0 0 1 0 .06z" stroke-width=".07" stroke="#df9d53" stroke-miterlimit="3.86" fill="none"/><path class="cls-8" d="M29.3 21.18a.06.06 0 0 1-.07 0 .06.06 0 0 1 0-.07.06.06 0 0 1 .07 0 .06.06 0 0 1 0 .07z"/><path class="cls-155" d="M29.29 21.17z"/><path d="M29.3 21.18a.06.06 0 0 1-.07 0 .06.06 0 0 1 0-.07.06.06 0 0 1 .07 0 .06.06 0 0 1 0 .07z" stroke-width=".07" stroke="#df9d53" stroke-miterlimit="3.86" fill="none"/><path class="cls-8" d="M29.27 21.28a.06.06 0 0 1-.07 0 .06.06 0 0 1 0-.07.06.06 0 0 1 .07 0 .06.06 0 0 1 0 .07z"/><path class="cls-155" d="M29.25 21.27v-.05h-.05v.05h.05z"/><path d="M29.27 21.28a.06.06 0 0 1-.07 0 .06.06 0 0 1 0-.07.06.06 0 0 1 .07 0 .06.06 0 0 1 0 .07z" stroke-width=".07" stroke="#df9d53" stroke-miterlimit="3.86" fill="none"/><path class="cls-8" d="M29.22 21.38a.06.06 0 0 1-.08 0 .06.06 0 0 1 0-.07.06.06 0 0 1 .08 0 .06.06 0 0 1 0 .07z"/><path class="cls-155" d="M29.21 21.37v-.05h-.05v.05h.05z"/><path d="M29.22 21.38a.06.06 0 0 1-.08 0 .06.06 0 0 1 0-.07.06.06 0 0 1 .08 0 .06.06 0 0 1 0 .07z" stroke-width=".07" stroke="#df9d53" stroke-miterlimit="3.86" fill="none"/><path class="cls-8" d="M29.17 21.47a.06.06 0 0 1-.08 0 .06.06 0 0 1 0-.08.06.06 0 0 1 .08 0 .06.06 0 0 1 0 .08z"/><path class="cls-155" d="M29.16 21.46v-.05h-.05v.05h.05z"/><path d="M29.17 21.47a.06.06 0 0 1-.08 0 .06.06 0 0 1 0-.08.06.06 0 0 1 .08 0 .06.06 0 0 1 0 .08z" stroke-width=".07" stroke="#df9d53" stroke-miterlimit="3.86" fill="none"/><path class="cls-8" d="M29.11 21.56a.06.06 0 0 1-.08 0 .06.06 0 0 1 0-.08.06.06 0 0 1 .08 0 .06.06 0 0 1 0 .08z"/><path class="cls-155" d="M29.09 21.55v-.06h-.05v.06h.05z"/><path d="M29.11 21.56a.06.06 0 0 1-.08 0 .06.06 0 0 1 0-.08.06.06 0 0 1 .08 0 .06.06 0 0 1 0 .08z" stroke-width=".07" stroke="#df9d53" stroke-miterlimit="3.86" fill="none"/><path class="cls-8" d="M29 21.65a.06.06 0 0 1-.08 0 .06.06 0 0 1 0-.08.06.06 0 0 1 .08 0 .06.06 0 0 1 0 .08z"/><path class="cls-155" d="M29 21.63v-.06h-.05v.06H29z"/><path d="M29 21.65a.06.06 0 0 1-.08 0 .06.06 0 0 1 0-.08.06.06 0 0 1 .08 0 .06.06 0 0 1 0 .08z" stroke-width=".07" stroke="#df9d53" stroke-miterlimit="3.86" fill="none"/><path class="cls-8" d="M29 21.72a.06.06 0 0 1-.08 0 .06.06 0 0 1 0-.08.06.06 0 0 1 .08 0 .06.06 0 0 1 0 .08z"/><path class="cls-155" d="M28.95 21.71v-.06h-.05v.06h.05z"/><path d="M29 21.72a.06.06 0 0 1-.08 0 .06.06 0 0 1 0-.08.06.06 0 0 1 .08 0 .06.06 0 0 1 0 .08z" stroke-width=".07" stroke="#df9d53" stroke-miterlimit="3.86" fill="none"/><path class="cls-8" d="M28.87 21.78a.06.06 0 0 1-.08 0 .06.06 0 0 1 0-.08.06.06 0 0 1 .08 0 .06.06 0 0 1 0 .08z"/><path class="cls-155" d="M28.86 21.77v-.05h-.05v.05h.05z"/><path d="M28.87 21.78a.06.06 0 0 1-.08 0 .06.06 0 0 1 0-.08.06.06 0 0 1 .08 0 .06.06 0 0 1 0 .08z" stroke-width=".07" stroke="#df9d53" stroke-miterlimit="3.86" fill="none"/><path class="cls-8" d="M28.78 21.84a.06.06 0 0 1-.07 0 .06.06 0 0 1 0-.08.06.06 0 0 1 .07 0 .06.06 0 0 1 0 .08z"/><path class="cls-155" d="M28.77 21.83v-.05h-.05v.05h.05z"/><path d="M28.78 21.84a.06.06 0 0 1-.07 0 .06.06 0 0 1 0-.08.06.06 0 0 1 .07 0 .06.06 0 0 1 0 .08z" stroke-width=".07" stroke="#df9d53" stroke-miterlimit="3.86" fill="none"/><path class="cls-8" d="M28.68 21.89a.06.06 0 0 1-.07 0 .06.06 0 0 1 0-.08.06.06 0 0 1 .07 0 .06.06 0 0 1 0 .08z"/><path class="cls-155" d="M28.67 21.87v-.05h-.05v.05h.05z"/><path d="M28.68 21.89a.06.06 0 0 1-.07 0 .06.06 0 0 1 0-.08.06.06 0 0 1 .07 0 .06.06 0 0 1 0 .08z" stroke-width=".07" stroke="#df9d53" stroke-miterlimit="3.86" fill="none"/><path class="cls-8" d="M28.58 21.92a.06.06 0 0 1-.07 0 .06.06 0 0 1 0-.07.06.06 0 0 1 .07 0 .06.06 0 0 1 0 .07z"/><path class="cls-155" d="M28.57 21.91z"/><path d="M28.58 21.92a.06.06 0 0 1-.07 0 .06.06 0 0 1 0-.07.06.06 0 0 1 .07 0 .06.06 0 0 1 0 .07z" stroke-width=".07" stroke="#df9d53" stroke-miterlimit="3.86" fill="none"/><path class="cls-8" d="M28.47 21.95a.06.06 0 0 1-.06-.05.06.06 0 0 1 0-.07.06.06 0 0 1 .06.05.06.06 0 0 1 0 .07z"/><path class="cls-155" d="M28.47 21.93z"/><path d="M28.47 21.95a.06.06 0 0 1-.06-.05.06.06 0 0 1 0-.07.06.06 0 0 1 .06.05.06.06 0 0 1 0 .07z" stroke-width=".07" stroke="#df9d53" stroke-miterlimit="3.86" fill="none"/><path class="cls-8" d="M28.36 22a.06.06 0 1 1 0-.06.06.06 0 0 1 0 .06z"/><path class="cls-155" d="M28.36 21.94v-.08.08z"/><path d="M28.36 22a.06.06 0 1 1 0-.06.06.06 0 0 1 0 .06z" stroke-width=".07" stroke="#df9d53" stroke-miterlimit="3.86" fill="none"/><g clip-path="url(#clip-path-9)"><path transform="rotate(-41 27.163 19.606)" fill="#ffe298" d="M25.28 19.56h3.77v.08h-3.77z"/><path transform="rotate(-41 27.215 19.671)" fill="#ffe297" d="M25.33 19.63h3.77v.08h-3.77z"/><path transform="rotate(-41 27.28 19.742)" fill="#ffe295" d="M25.39 19.7h3.77v.08h-3.77z"/><path transform="rotate(-41 27.332 19.807)" fill="#ffe194" d="M25.45 19.77h3.77v.08h-3.77z"/><path transform="rotate(-41.4 27.105 19.843)" fill="#ffe193" d="M25.51 19.83h3.77v.08h-3.77z"/><path transform="rotate(-41 27.45 19.942)" fill="#ffe091" d="M25.57 19.9h3.77v.08h-3.77z"/><path transform="rotate(-41 27.515 20.012)" fill="#ffe090" d="M25.63 19.97h3.77v.08h-3.77z"/><path transform="rotate(-41 27.58 20.082)" fill="#ffe08f" d="M25.69 20.04h3.77v.08h-3.77z"/><path transform="rotate(-41 27.632 20.147)" fill="#ffdf8d" d="M25.75 20.11h3.77v.08h-3.77z"/><path transform="rotate(-41 27.697 20.217)" fill="#ffdf8c" d="M25.81 20.17h3.77v.08h-3.77z"/><path transform="rotate(-41 27.749 20.283)" fill="#ffdf8a" d="M25.87 20.24h3.77v.08h-3.77z"/><path transform="rotate(-41 27.814 20.353)" fill="#ffde89" d="M25.92 20.31h3.77v.08h-3.77z"/><path transform="rotate(-41 27.866 20.418)" fill="#ffde88" d="M25.98 20.38h3.77v.08h-3.77z"/><path transform="rotate(-41 27.931 20.488)" fill="#ffde86" d="M26.04 20.45h3.77v.08h-3.77z"/><path transform="rotate(-41 27.983 20.553)" fill="#ffdd85" d="M26.1 20.51h3.77v.08H26.1z"/><path transform="rotate(-41 28.048 20.623)" fill="#ffdd84" d="M26.16 20.58h3.77v.08h-3.77z"/><path transform="rotate(-41 28.1 20.688)" fill="#ffdd82" d="M26.22 20.65h3.77v.08h-3.77z"/><path transform="rotate(-41 28.165 20.758)" fill="#ffdc81" d="M26.28 20.72h3.77v.08h-3.77z"/><path transform="rotate(-41 28.217 20.823)" fill="#ffdc7f" d="M26.34 20.79h3.77v.08h-3.77z"/><path transform="rotate(-41 28.283 20.894)" fill="#ffdc7e" d="M26.4 20.85h3.77v.08H26.4z"/><path transform="rotate(-41.4 28.043 20.926)" fill="#ffdb7d" d="M26.46 20.92h3.77V21h-3.77z"/><path transform="rotate(-41 28.4 21.029)" fill="#ffdb7b" d="M26.51 20.99h3.77v.08h-3.77z"/><path transform="rotate(-41 28.465 21.099)" fill="#ffdb7a" d="M26.57 21.06h3.77v.08h-3.77z"/><path transform="rotate(-41.4 28.21 21.125)" fill="#ffda78" d="M26.63 21.12h3.77v.08h-3.77z"/><path transform="rotate(-41.4 28.275 21.195)" fill="#ffda77" d="M26.69 21.19h3.77v.08h-3.77z"/><path transform="rotate(-41 28.634 21.3)" fill="#ffda75" d="M26.75 21.26h3.77v.08h-3.77z"/><path transform="rotate(-41 28.7 21.37)" fill="#ffd974" d="M26.81 21.33h3.77v.08h-3.77z"/><path transform="rotate(-41 28.75 21.435)" fill="#ffd972" d="M26.87 21.4h3.77v.08h-3.77z"/><path transform="rotate(-41 28.816 21.505)" fill="#ffd971" d="M26.93 21.46h3.77v.08h-3.77z"/><path transform="rotate(-41 28.868 21.57)" fill="#ffd86f" d="M26.99 21.53h3.77v.08h-3.77z"/><path transform="rotate(-41 28.933 21.64)" fill="#ffd86e" d="M27.05 21.6h3.77v.08h-3.77z"/><path transform="rotate(-41 28.985 21.705)" fill="#ffd86c" d="M27.1 21.67h3.77v.08H27.1z"/><path transform="rotate(-41.4 28.737 21.734)" fill="#ffd76b" d="M27.16 21.74h3.77v.08h-3.77z"/><path transform="rotate(-41.4 28.788 21.799)" fill="#ffd769" d="M27.22 21.8h3.77v.08h-3.77z"/><path transform="rotate(-41 29.167 21.91)" fill="#ffd767" d="M27.28 21.87h3.77v.08h-3.77z"/><path transform="rotate(-41 29.233 21.98)" fill="#ffd666" d="M27.34 21.94h3.77v.08h-3.77z"/><path transform="rotate(-41 29.285 22.046)" fill="#ffd664" d="M27.4 22.01h3.77v.08H27.4z"/><path transform="rotate(-41 29.35 22.116)" fill="#fed662" d="M27.46 22.07h3.77v.08h-3.77z"/><path transform="rotate(-41.4 29.084 22.138)" fill="#fed560" d="M27.52 22.14h3.77v.08h-3.77z"/><path transform="rotate(-41 29.467 22.251)" fill="#fed55f" d="M27.58 22.21h3.77v.08h-3.77z"/><path transform="rotate(-41 29.519 22.316)" fill="#fed55d" d="M27.64 22.28h3.77v.08h-3.77z"/><path transform="rotate(-41 29.584 22.386)" fill="#fed45b" d="M27.69 22.35h3.77v.08h-3.77z"/><path transform="rotate(-41 29.636 22.451)" fill="#fed459" d="M27.75 22.41h3.77v.08h-3.77z"/><path transform="rotate(-41 29.701 22.521)" fill="#fed458" d="M27.81 22.48h3.77v.08h-3.77z"/><path transform="rotate(-41 29.753 22.587)" fill="#fed356" d="M27.87 22.55h3.77v.08h-3.77z"/><path transform="rotate(-41 29.818 22.657)" fill="#fed354" d="M27.93 22.62h3.77v.08h-3.77z"/><path transform="rotate(-41 29.87 22.722)" fill="#fed352" d="M27.99 22.69h3.77v.08h-3.77z"/><path transform="rotate(-41 29.935 22.792)" fill="#fed250" d="M28.05 22.75h3.77v.08h-3.77z"/><path transform="rotate(-41 30 22.862)" fill="#fed24e" d="M28.11 22.82h3.77v.08h-3.77z"/></g><path class="cls-226" d="M29.54 23.28s-.06-.06-.58-.68a.68.68 0 0 1-.69.1 1.24 1.24 0 0 0-.45 0 .48.48 0 0 1-.39-.19 1.88 1.88 0 0 0-.59-.44c-.33-.14-.31-.58-.28-.74a10.21 10.21 0 0 0 .08-1 .44.44 0 0 1 .22-.4 1.69 1.69 0 0 0 .52-.44.83.83 0 0 1 .71-.25 2.5 2.5 0 0 0 .4 0 .84.84 0 0 1 .48.1c.14.09.39.18.63.31s.28.5.29.67a2 2 0 0 0 .25.6c.1.18-.07.6-.07.6l.18.13-.37 1.31-.19-.13-.16.53zm.36-2.7l-2.58 1.54h.05a1.91 1.91 0 0 1 .21.21h.05a.35.35 0 0 0 .21.07h.27a.66.66 0 0 1 .23 0 .54.54 0 0 0 .55-.07l.12-.08a1.75 1.75 0 0 1 .3-.24.84.84 0 0 0 .38-.4c.05-.13.18-.18.26-.3v-.06a1.8 1.8 0 0 0 .07-.21.48.48 0 0 0 0-.27l-.15-.3zm-3.17.67l2.78-1.61c-.22-.11-.44-.2-.58-.28a.7.7 0 0 0-.4-.07 2.6 2.6 0 0 1-.42 0 .69.69 0 0 0-.59.2 1.82 1.82 0 0 1-.57.48.31.31 0 0 0-.14.27c0 .21 0 .83-.08 1z"/><path class="cls-338" d="M26.7 21.41a.58.58 0 0 0 .14.42 2.25 2.25 0 0 0 .26.22l2.76-1.59s-.06-.6-.25-.72l-2.91 1.67zM29.75 22l-.29.92-.34-.37a.48.48 0 0 1 .18-.26c.13-.07.38-.13.46-.28zM29.94 21.83l-.12-.09s.08-.11.11-.12.17-.08.1.3a3.5 3.5 0 0 1-.19.65l-.08-.07.18-.67z"/><path class="cls-339" d="M28.3 21.62l.16-.14.02.1.38-.31.03.05.09-.05-.1.16-.06-.05-.4.33-.01-.1-.11.01zM27.61 20.52l.12-.19.05.07.38-.32.05.11.14-.09-.17.19-.05-.1-.39.33-.03-.06-.1.06z"/><g clip-path="url(#clip-path-10)"><path class="cls-52" transform="rotate(-29 28.459 21.16)" d="M26.88 21.12h3.17v.09h-3.17z"/><path class="cls-60" transform="rotate(-29 28.416 21.086)" d="M26.84 21.04h3.17v.09h-3.17z"/><path class="cls-341" transform="rotate(-29 28.373 21.013)" d="M26.79 20.96h3.17v.09h-3.17z"/><path class="cls-76" transform="rotate(-29 28.33 20.94)" d="M26.75 20.89h3.17v.09h-3.17z"/><path class="cls-342" transform="rotate(-29 28.292 20.848)" d="M26.71 20.81h3.17v.09h-3.17z"/><path class="cls-91" transform="rotate(-29 28.249 20.775)" d="M26.67 20.74h3.17v.09h-3.17z"/><path class="cls-91" transform="rotate(-29 28.254 20.755)" d="M26.66 20.74h3.17v.04h-3.17z"/><path class="cls-343" transform="rotate(-29 28.22 20.726)" d="M26.64 20.7h3.17v.04h-3.17z"/><path class="cls-344" transform="rotate(-29 28.21 20.682)" d="M26.62 20.67h3.17v.04h-3.17z"/><path class="cls-345" transform="rotate(-29 28.177 20.653)" d="M26.6 20.63h3.17v.04H26.6z"/><path class="cls-346" transform="rotate(-29 28.168 20.61)" d="M26.58 20.59h3.17v.04h-3.17z"/></g><g clip-path="url(#clip-path-11)"><path class="cls-52" transform="rotate(-29 28.459 21.16)" d="M26.88 21.12h3.17v.09h-3.17z"/><path class="cls-60" transform="rotate(-29 28.416 21.086)" d="M26.84 21.04h3.17v.09h-3.17z"/><path class="cls-341" transform="rotate(-29 28.373 21.013)" d="M26.79 20.96h3.17v.09h-3.17z"/><path class="cls-76" transform="rotate(-29 28.33 20.94)" d="M26.75 20.89h3.17v.09h-3.17z"/><path class="cls-342" transform="rotate(-29 28.292 20.848)" d="M26.71 20.81h3.17v.09h-3.17z"/><path class="cls-91" transform="rotate(-29 28.249 20.775)" d="M26.67 20.74h3.17v.09h-3.17z"/><path class="cls-91" transform="rotate(-29 28.254 20.755)" d="M26.66 20.74h3.17v.04h-3.17z"/><path class="cls-343" transform="rotate(-29 28.22 20.726)" d="M26.64 20.7h3.17v.04h-3.17z"/><path class="cls-344" transform="rotate(-29 28.21 20.682)" d="M26.62 20.67h3.17v.04h-3.17z"/><path class="cls-345" transform="rotate(-29 28.177 20.653)" d="M26.6 20.63h3.17v.04H26.6z"/><path class="cls-346" transform="rotate(-29 28.168 20.61)" d="M26.58 20.59h3.17v.04h-3.17z"/></g></g></g></svg>