<svg xmlns="http://www.w3.org/2000/svg" xmlns:xlink="http://www.w3.org/1999/xlink" width="20mm" height="15mm" viewBox="0 0 56.69 42.52"><defs><style>.cls-2{fill:#231f20}.cls-7{fill:#414042}</style><linearGradient id="linear-gradient" x1="28.35" y1="31.14" x2="28.35" y2="16.79" gradientUnits="userSpaceOnUse"><stop offset="0" stop-color="#d1d3d4"/><stop offset=".16" stop-color="#f1f2f2"/><stop offset=".16" stop-color="#f0f1f1"/><stop offset=".26" stop-color="#e8e9ea"/><stop offset=".44" stop-color="#e6e7e8"/><stop offset=".56" stop-color="#cfd0d1"/><stop offset=".81" stop-color="#949596"/><stop offset="1" stop-color="#636466"/></linearGradient><linearGradient id="linear-gradient-2" x1="30.93" y1="18.78" x2="26.07" y2="14.69" gradientUnits="userSpaceOnUse"><stop offset="0" stop-color="#e6e7e8"/><stop offset=".44" stop-color="#e6e7e8"/><stop offset=".56" stop-color="#cfd0d1"/><stop offset=".81" stop-color="#949596"/><stop offset="1" stop-color="#636466"/></linearGradient><linearGradient id="linear-gradient-3" x1="31.4" y1="25.49" x2="24.36" y2="21.42" xlink:href="#linear-gradient-2"/><linearGradient id="linear-gradient-4" x1="28.35" y1="20.2" x2="28.35" y2="12.43" xlink:href="#linear-gradient-2"/><linearGradient id="linear-gradient-5" x1="28.35" y1="8.62" x2="28.35" y2="33.8" gradientUnits="userSpaceOnUse"><stop offset="0" stop-color="#c7c8ca"/><stop offset=".04" stop-color="#d4d5d6"/><stop offset=".12" stop-color="#e6e7e8"/><stop offset=".12" stop-color="#e8e9ea"/><stop offset=".15" stop-color="#eff0f0"/><stop offset=".21" stop-color="#f1f2f2"/><stop offset=".55" stop-color="#f1f2f2"/><stop offset=".61" stop-color="#cdcece"/><stop offset=".69" stop-color="#a7a8a9"/><stop offset=".77" stop-color="#898a8c"/><stop offset=".85" stop-color="#747577"/><stop offset=".93" stop-color="#67686a"/><stop offset="1" stop-color="#636466"/></linearGradient><linearGradient id="linear-gradient-6" x1="28.35" y1="8.62" x2="28.35" y2="33.8" xlink:href="#linear-gradient-5"/><linearGradient id="linear-gradient-7" x1="28.35" y1="8.63" x2="28.35" y2="33.8" xlink:href="#linear-gradient-5"/><linearGradient id="linear-gradient-8" x1="28.35" y1="13.85" x2="28.35" y2="21.02" gradientUnits="userSpaceOnUse"><stop offset=".01" stop-color="#e6e7e8"/><stop offset="1" stop-color="#6d6e71"/></linearGradient><linearGradient id="linear-gradient-9" x1="30.83" y1="8.62" x2="30.83" y2="20.95" xlink:href="#linear-gradient-2"/><linearGradient id="linear-gradient-10" x1="25.86" y1="8.62" x2="25.86" y2="20.95" xlink:href="#linear-gradient-2"/><linearGradient id="linear-gradient-11" x1="25.71" y1="8.62" x2="25.71" y2="29.01" xlink:href="#linear-gradient-2"/><linearGradient id="linear-gradient-12" x1="30.98" y1="8.62" x2="30.98" y2="29.01" xlink:href="#linear-gradient-2"/></defs><g id="Слой_2" data-name="Слой 2"><g id="Слой_1-2" data-name="Слой 1"><path fill="none" d="M0 0h56.69v42.52H0z"/><path class="cls-2" d="M7.94 21.21c0 7 9.16 12.69 20.41 12.69s20.41-5.69 20.41-12.69S39.6 8.53 28.35 8.53 7.94 14.22 7.94 21.21zm.2 0c0-6.89 9.07-12.49 20.21-12.49s20.21 5.6 20.21 12.49-9.07 12.5-20.21 12.5S8.13 28.1 8.13 21.21z"/><path class="cls-2" d="M26.41 10.87c-4.67.29-8.18 1.54-8.74 3.12a1.37 1.37 0 0 0-.08.46 1.43 1.43 0 0 0 .21.73c.64 1.08 2.66 2 5.56 2.48h.1v-.1c.5-3 1.59-5.39 3-6.53l.24-.2zM18 15.07a1.23 1.23 0 0 1-.18-.63 1.16 1.16 0 0 1 .07-.39c.51-1.45 3.91-2.65 8.29-3-1.33 1.21-2.36 3.49-2.85 6.35-2.78-.4-4.77-1.32-5.33-2.33zM17.67 14zM25.73 17.84v.11h.11c.82.06 1.67.09 2.53.09s1.7 0 2.53-.09h.1v-.11c-.45-2.52-1.45-4.09-2.62-4.09s-2.2 1.56-2.65 4.09zm2.62-3.89c1 0 2 1.46 2.4 3.82-.78.06-1.59.09-2.4.09s-1.62 0-2.4-.09c.44-2.36 1.35-3.83 2.4-3.83zM30.21 11c1.41 1.13 2.51 3.51 3 6.53v.1h.1c2.9-.49 4.92-1.4 5.56-2.48A1.36 1.36 0 0 0 39 14c-.56-1.58-4.07-2.83-8.74-3.12h-.31zm.33 0c4.38.31 7.77 1.51 8.29 3a1.17 1.17 0 0 1 .07.39 1.23 1.23 0 0 1-.18.63c-.59 1-2.58 1.89-5.33 2.37-.48-2.81-1.51-5.09-2.84-6.3zM14.55 15.32a8 8 0 0 0-3.24 6.08c0 5.22 6.42 9.64 14.93 10.27h.3l-.23-.2c-1.94-1.66-3.14-5.56-3.14-10.18v-.9h-.08c-4.7-.84-7.91-2.77-8.4-5v-.16zm-3 6.08a7.74 7.74 0 0 1 3.05-5.82c.61 2.25 3.81 4.16 8.43 5v.74c0 4.5 1.14 8.33 3 10.12-8.32-.7-14.52-4.98-14.52-10.04zM25.47 20.83v.11c0 4 1.26 7.22 2.87 7.22s2.87-3.17 2.87-7.22v-.22h-.11c-.9.08-1.83.12-2.76.12s-1.86 0-2.76-.12h-.11zm.2.11c.87.07 1.77.11 2.68.11s1.8 0 2.68-.11c0 3.94-1.18 7-2.68 7s-2.68-3.06-2.68-6.99zM42 15.38c-.49 2.26-3.7 4.18-8.4 5h-.1v.9c0 4.62-1.2 8.52-3.14 10.18l-.23.2h.3C39 31 45.38 26.62 45.38 21.4a8 8 0 0 0-3.24-6.08l-.14-.1zm.15.2a7.74 7.74 0 0 1 3.05 5.82c0 5.06-6.2 9.34-14.47 10 1.85-1.79 3-5.62 3-10.12v-.74c4.59-.8 7.79-2.71 8.4-4.96z"/><path d="M42 13.7c0 .08.06.16.08.25a2.41 2.41 0 0 1-.08 1.39 8 8 0 0 1 3.27 6.06c0 5.66-7.58 10.25-16.94 10.25S11.41 27.06 11.41 21.4a8 8 0 0 1 3.27-6.06 2.42 2.42 0 0 1-.06-1.39 1.53 1.53 0 0 1 .1-.26c-2.81 2-4.51 4.62-4.51 7.49 0 6.27 8.12 11.36 18.14 11.36s18.14-5.08 18.14-11.36c-.01-2.86-1.7-5.48-4.49-7.48z" fill="url(#linear-gradient)"/><path d="M25.83 17.86l-.52.38c.43-3.25 1.63-5.34 3-5.34s2.61 2.08 3 5.33l-.52-.38c-.44-2.47-1.4-4-2.52-4s-2.08 1.54-2.52 4z" fill="url(#linear-gradient-2)"/><path d="M31.55 20.06l-.43.77v.11c0 4.05-1.24 7.12-2.77 7.12s-2.78-3.06-2.78-7.11v-.13l-.43-.75v.88c0 4.59 1.44 8.07 3.22 8.07s3.22-3.48 3.22-8.07c-.02-.31-.02-.6-.03-.89z" fill="url(#linear-gradient-3)"/><path d="M30.87 17.86c-.8.06-1.64.09-2.52.09s-1.72 0-2.52-.09l-.52.38c1 .09 2 .13 3 .13s2.08 0 3-.13l-.52-.38zm9.26-4c-.64-2.1-5.88-3.65-11.78-3.65s-11.15 1.56-11.79 3.67C16 15.7 19 17.39 23.79 18.06l-.41-.5c-3.85-.66-6.14-2.05-5.61-3.54.64-1.8 5.29-3.11 10.58-3.11s9.94 1.31 10.58 3.09c.53 1.49-1.76 2.88-5.61 3.54l-.41.5c4.75-.65 7.77-2.34 7.22-4.16z" fill="url(#linear-gradient-4)"/><path class="cls-7" d="M42 15.34a10.47 10.47 0 0 1 2 2.11 7.27 7.27 0 0 0-1.39-3.3L42 13.7c0 .08.06.16.08.25a2.41 2.41 0 0 1-.08 1.39zM14.68 15.34a2.42 2.42 0 0 1-.06-1.39 1.53 1.53 0 0 1 .1-.26l-.62.47a7.27 7.27 0 0 0-1.39 3.3 10.47 10.47 0 0 1 1.97-2.12z"/><path d="M8 21.21c0-7 9.09-12.59 20.31-12.59s20.31 5.64 20.31 12.59S39.56 33.8 28.35 33.8 8 28.17 8 21.21zm20.35 11.33c10 0 18.14-5.08 18.14-11.36S38.36 9.83 28.35 9.83s-18.14 5.08-18.14 11.35 8.12 11.36 18.14 11.36z" fill="url(#linear-gradient-5)"/><path d="M10.09 21.18c0 6.33 8.19 11.47 18.26 11.47S46.6 27.51 46.6 21.18 38.41 9.71 28.35 9.71s-18.26 5.15-18.26 11.47zm.24 0c0-6.2 8.08-11.24 18-11.24s18 5 18 11.24-8.08 11.24-18 11.24-18-5.04-18-11.24z" fill="#fff"/><path d="M23.58 21.32c0-6.06 2.14-11.1 4.77-11.1s4.77 5 4.77 11.1-2.12 11.1-4.77 11.1-4.77-4.97-4.77-11.1zM28.35 29c1.78 0 3.22-3.48 3.22-8.07 0-4.76-1.44-8-3.22-8s-3.22 3.28-3.22 8c0 4.6 1.44 8.07 3.22 8.07z" fill="url(#linear-gradient-6)"/><path d="M14.62 13.95c.52-2.07 6.85-5.09 13.72-5.09s13 2.16 13.72 5.09c.83 3.29-5.27 6.26-13.72 6.26s-14.55-2.97-13.72-6.26zm13.72-3.72c-5.9 0-11.15 1.55-11.78 3.65-.71 2.36 4.52 4.49 11.78 4.49s12.5-2.13 11.78-4.49c-.63-2.11-5.88-3.65-11.77-3.65z" fill="url(#linear-gradient-7)"/><path d="M25.14 20.06l.44.77c.89.08 1.81.12 2.76.12s1.88 0 2.77-.12l.42-.77c-1 .1-2.09.15-3.2.15s-2.17-.05-3.19-.15zm17-5.4c-.14 2.34-3.72 4.43-9.07 5.22l.52.62c5.24-.94 8.67-3.24 8.55-5.84zm-27.59 0c-.12 2.6 3.31 4.9 8.54 5.84l.52-.62c-5.34-.79-8.95-2.88-9.06-5.22z" fill="url(#linear-gradient-8)"/><path d="M32.9 18.06l.41-.5c-.72-4.39-2.68-7.33-5-7.33 2.18 0 3.99 3.33 4.59 7.83z" fill="url(#linear-gradient-9)"/><path d="M23.79 18.06c.6-4.51 2.42-7.83 4.56-7.83-2.3 0-4.25 2.95-5 7.33l.41.5z" fill="url(#linear-gradient-10)"/><path d="M23.58 21.32v-1.44l-.52.62v.82c0 6.49 2.31 11.1 5.27 11.1-2.62 0-4.75-4.97-4.75-11.1z" fill="url(#linear-gradient-11)"/><path d="M33.6 20.5l-.52-.62v1.44c0 6.13-2.14 11.1-4.77 11.1 3 0 5.27-4.61 5.27-11.1.03-.32.03-.55.02-.82z" fill="url(#linear-gradient-12)"/></g></g></svg>