<svg xmlns="http://www.w3.org/2000/svg" xmlns:xlink="http://www.w3.org/1999/xlink" width="20mm" height="15mm" viewBox="0 0 56.69 42.52"><defs><radialGradient id="d" data-name="Безымянный градиент 4" cx="-104.91" cy="98.49" r=".14" gradientTransform="matrix(647.66 0 0 -631.53 67974.42 62298.77)" gradientUnits="userSpaceOnUse"><stop offset="0" stop-color="#080c11"/><stop offset=".7" stop-color="#0c1626"/><stop offset=".9" stop-color="#20407e"/><stop offset=".95" stop-color="#51a8de"/><stop offset="1" stop-color="#51a8de"/></radialGradient><linearGradient id="a" data-name="Безымянный градиент 24" x1="-104.61" y1="97.91" x2="-104.47" y2="97.91" gradientTransform="matrix(0 -114.32 -114.32 0 11221.59 -11929.9)" gradientUnits="userSpaceOnUse"><stop offset="0" stop-color="#0b162f"/><stop offset=".81" stop-color="#23356c"/><stop offset="1" stop-color="#0d6aaa"/></linearGradient><linearGradient id="e" x1="-104.61" y1="97.93" x2="-104.47" y2="97.93" gradientTransform="matrix(0 -114.33 -114.33 0 11224.46 -11930.98)" xlink:href="#a"/><linearGradient id="f" x1="-104.7" y1="98.26" x2="-104.56" y2="98.26" gradientTransform="matrix(0 -79.21 -79.21 0 7815.45 -8267.06)" xlink:href="#a"/><linearGradient id="g" x1="-104.7" y1="98.62" x2="-104.56" y2="98.62" gradientTransform="matrix(0 -80.27 -80.27 0 7952.51 -8377.46)" xlink:href="#a"/><linearGradient id="h" x1="-104.72" y1="98.76" x2="-104.58" y2="98.76" gradientTransform="matrix(0 -73.53 -73.53 0 7298.8 -7673.87)" xlink:href="#a"/><linearGradient id="i" x1="-104.72" y1="98.22" x2="-104.58" y2="98.22" gradientTransform="matrix(0 -76 -76 0 7496.6 -7932.53)" xlink:href="#a"/><linearGradient id="j" x1="-104.7" y1="98.54" x2="-104.56" y2="98.54" gradientTransform="matrix(0 -80.14 -80.14 0 7932.37 -8363.96)" xlink:href="#a"/><linearGradient id="k" x1="-104.7" y1="97.8" x2="-104.56" y2="97.8" gradientTransform="matrix(0 -80.12 -80.12 0 7861.37 -8362.19)" xlink:href="#a"/><linearGradient id="l" x1="-104.7" y1="98.17" x2="-104.56" y2="98.17" gradientTransform="matrix(0 -79.57 -79.57 0 7842.46 -8304.76)" xlink:href="#a"/><linearGradient id="m" x1="-104.7" y1="98.62" x2="-104.56" y2="98.62" gradientTransform="matrix(0 -80.15 -80.15 0 7941.82 -8365.88)" xlink:href="#a"/><linearGradient id="n" x1="-104.7" y1="98.33" x2="-104.56" y2="98.33" gradientTransform="matrix(0 -80.21 -80.21 0 7919.62 -8371.2)" xlink:href="#a"/><linearGradient id="o" x1="-104.7" y1="98.8" x2="-104.56" y2="98.8" gradientTransform="matrix(0 -80.14 -80.14 0 7956.43 -8363.83)" xlink:href="#a"/><linearGradient id="p" x1="-104.71" y1="97.98" x2="-104.57" y2="97.98" gradientTransform="matrix(0 -78.29 -78.29 0 7698.27 -8170.74)" xlink:href="#a"/><linearGradient id="q" x1="-104.7" y1="97.84" x2="-104.56" y2="97.84" gradientTransform="matrix(0 -79.6 -79.6 0 7813.85 -8307.33)" xlink:href="#a"/><linearGradient id="r" x1="-104.7" y1="97.19" x2="-104.56" y2="97.19" gradientTransform="matrix(0 -80.13 -80.13 0 7805.75 -8363.46)" xlink:href="#a"/><linearGradient id="s" x1="-104.7" y1="97.57" x2="-104.56" y2="97.57" gradientTransform="matrix(0 -80.11 -80.11 0 7839.94 -8361.67)" xlink:href="#a"/><linearGradient id="t" x1="-104.7" y1="97.46" x2="-104.56" y2="97.46" gradientTransform="matrix(0 -80.13 -80.13 0 7831.44 -8363.75)" xlink:href="#a"/><linearGradient id="u" x1="-104.7" y1="97.48" x2="-104.56" y2="97.48" gradientTransform="matrix(0 -80.17 -80.17 0 7837.27 -8367.94)" xlink:href="#a"/><linearGradient id="v" x1="-104.71" y1="98.47" x2="-104.58" y2="98.47" gradientTransform="matrix(0 -78.43 -78.43 0 7757.24 -8186.54)" xlink:href="#a"/><linearGradient id="w" x1="-104.7" y1="98.07" x2="-104.56" y2="98.07" gradientTransform="matrix(0 -80.13 -80.13 0 7887 -8362.82)" xlink:href="#a"/><linearGradient id="x" x1="-104.72" y1="97.85" x2="-104.58" y2="97.85" gradientTransform="matrix(0 -75.7 -75.7 0 7433.67 -7901.46)" xlink:href="#a"/><linearGradient id="y" x1="-104.7" y1="97.87" x2="-104.56" y2="97.87" gradientTransform="matrix(0 -80.13 -80.13 0 7869.63 -8363.73)" xlink:href="#a"/><linearGradient id="z" x1="-104.7" y1="97.4" x2="-104.56" y2="97.4" gradientTransform="matrix(0 -80.14 -80.14 0 7825.99 -8364.04)" xlink:href="#a"/><linearGradient id="b" data-name="Безымянный градиент 26" x1="-104.52" y1="97.58" x2="-104.38" y2="97.58" gradientTransform="scale(-133.9 133.9) rotate(-74.999 -115.776 -19.078)" gradientUnits="userSpaceOnUse"><stop offset="0" stop-color="#b3b2b2"/><stop offset=".35" stop-color="#dfddde"/><stop offset=".65" stop-color="#dfddde"/><stop offset="1" stop-color="#b3b2b2"/></linearGradient><linearGradient id="A" x1="-104.81" y1="98.26" x2="-104.67" y2="98.26" gradientTransform="matrix(-34.5 -128.74 -128.74 34.5 9071.93 -16860.05)" xlink:href="#b"/><linearGradient id="B" data-name="Безымянный градиент 27" x1="-104.29" y1="97.59" x2="-104.15" y2="97.59" gradientTransform="matrix(0 114.91 114.91 0 -11185.23 11997.45)" gradientUnits="userSpaceOnUse"><stop offset="0" stop-color="#fff"/><stop offset=".55" stop-color="#fff"/><stop offset=".69" stop-color="#fafafa"/><stop offset=".8" stop-color="#d3d2d2"/><stop offset="1" stop-color="#bdbcbc"/></linearGradient><linearGradient id="c" data-name="Безымянный градиент 29" x1="-104.25" y1="97.06" x2="-104.11" y2="97.06" gradientTransform="matrix(0 56.99 56.99 0 -5499.92 5959.19)" gradientUnits="userSpaceOnUse"><stop offset="0" stop-color="#fff"/><stop offset=".55" stop-color="#fff"/><stop offset=".69" stop-color="#f0eeee"/><stop offset=".8" stop-color="#e9e9e9"/><stop offset="1" stop-color="#d3d2d2"/></linearGradient><linearGradient id="C" x1="-104.19" y1="97.75" x2="-104.05" y2="97.75" gradientTransform="matrix(0 79.05 79.05 0 -7702.09 8251.73)" xlink:href="#c"/></defs><g data-name="Слой 2"><g data-name="Слой 1"><path d="M7.81 21.21c0 4.15 9.19 7.5 20.54 7.5s20.54-3.36 20.54-7.5c0-4.15-9.19-7.51-20.54-7.51S7.81 17.06 7.81 21.21" fill="url(#d)"/><path d="M9.35 21.21a2.22 2.22 0 0 0 .17.83 2.13 2.13 0 0 1-.07-.54c0-3.44 8.5-6.22 19-6.22 9.65 0 17.62 2.36 18.83 5.41-.81-3.21-9-5.73-18.93-5.73-10.49 0-19 2.8-19 6.26" fill="url(#a)"/><path d="M48 21.21c0 3.78-8.81 6.85-19.68 6.85-9.67 0-17.72-2.43-19.37-5.63H9c1.26 3.33 9.52 5.91 19.51 5.91 10.87 0 19.68-3 19.68-6.79a2.55 2.55 0 0 0-.27-1.12 2.49 2.49 0 0 1 .13.78" fill="url(#e)"/><path d="M32 21.88a1 1 0 0 0-.18 1.32.54.54 0 0 0 .35.15 1 1 0 0 1 0-1.08.63.63 0 0 1 0-.36v-.06" fill="url(#f)"/><path d="M36.56 22.85v.3l.07-.14v-.05s-.09-.05-.1-.09z" fill="url(#g)"/><path d="M37.1 21.35a.79.79 0 0 1 .25.47c0 .07.06.08.11 0V21.7a3.94 3.94 0 0 0-.37-.37z" fill="url(#h)"/><path d="M31 21.06a1.1 1.1 0 0 1 .17.69c0 .08.05.07.09 0l.06-.08a1.94 1.94 0 0 0-.32-.61z" fill="url(#i)"/><path d="M35.06 22.61a2.51 2.51 0 0 0-.64 1.52.53.53 0 0 0 .22.48l.16.05a.87.87 0 0 1 0-.2 2.33 2.33 0 0 1 .57-1.54c.5-.61 1-.92 1.39-.75a.4.4 0 0 0-.24-.32.5.5 0 0 0-.22 0 1.85 1.85 0 0 0-1.2.81" fill="url(#j)"/><path d="M26.81 21.53a3.3 3.3 0 0 0-1.51 1.06 1.54 1.54 0 0 0-.3 1.71.68.68 0 0 0 .25.21 1.9 1.9 0 0 1 .33-1.64 2.79 2.79 0 0 1 1.31-.93.09.09 0 0 0 .06-.12c0-.1-.09-.34-.11-.4a.09.09 0 0 1-.06.12" fill="url(#k)"/><path d="M31 23.1c-.52.79-1 1.56-1.52 2.37a.12.12 0 0 1-.1.06h-1a.07.07 0 0 1-.07 0l.09.4a.07.07 0 0 0 .07.05h1.16a.13.13 0 0 0 .1-.06c.47-.73 1-1.53 1.45-2.27a1.29 1.29 0 0 0 .35.72.88.88 0 0 0 .65.23 2 2 0 0 0 .78-.22 1.77 1.77 0 0 0 .28-.15 2.23 2.23 0 0 1 0-.4s0-.1-.09-.05a2.21 2.21 0 0 1-.52.28 1.48 1.48 0 0 1-.63.13.9.9 0 0 1-.78-.44 1.32 1.32 0 0 1-.17-.6" fill="url(#l)"/><path d="M39.93 23.51a10.23 10.23 0 0 1-1.57 1.58c-.82.63-1.63.79-2 .39a.88.88 0 0 1-.24-.55c0-.1-.06-.1-.1-.06a1.93 1.93 0 0 1-2.08.63 1.27 1.27 0 0 1-.67-.93 3.43 3.43 0 0 0 .24.93 1.14 1.14 0 0 0 .4.41 2.19 2.19 0 0 0 2.26-.64l.07.26a1 1 0 0 0 .17.33c.42.48 1.33.26 2.26-.46A9.11 9.11 0 0 0 40 24v-.11c0-.12-.07-.34-.09-.45a.08.08 0 0 1 0 .05m-6.71 1z" fill="url(#m)"/><path d="M33.47 21.84a.92.92 0 0 1-.49.71.63.63 0 0 1-.7-.08.56.56 0 0 1-.13-.19 1.65 1.65 0 0 0 .15.49.6.6 0 0 0 .84.16.89.89 0 0 0 .44-.89 1.6 1.6 0 0 0-.19-.67.77.77 0 0 1 .08.48" fill="url(#n)"/><path d="M40.6 19c-.16.27-3.21 4.93-3.41 5.41a.36.36 0 0 0 0 .35.3.3 0 0 0 .26.11 1 1 0 0 1 .06-.19c.19-.48 3.05-4.83 3.21-5.11a.1.1 0 0 0 0-.07l-.11-.55" fill="url(#o)"/><path d="M27.92 21.14a2 2 0 0 1 .29 1.06c0 .08 0 .09.09 0l.11-.12a3.27 3.27 0 0 0-.22-.59 1.88 1.88 0 0 0-.27-.35z" fill="url(#p)"/><path d="M29.48 22.06A9.07 9.07 0 0 0 28 23.68a9.81 9.81 0 0 1-.75 1 2.37 2.37 0 0 1-2.45.87 1.47 1.47 0 0 1-.95-1c0-.09-.08-.12-.13-.06a3.55 3.55 0 0 1-.67.59.15.15 0 0 1-.15 0 1.52 1.52 0 0 1-.26-.35 1.18 1.18 0 0 0 .15.49 1.23 1.23 0 0 0 .21.28.15.15 0 0 0 .14 0 2.87 2.87 0 0 0 .71-.57h.11a2.21 2.21 0 0 0 .27.54 1.15 1.15 0 0 0 .66.47 2.06 2.06 0 0 0 1.38-.08 3.62 3.62 0 0 0 1.28-.91 9.36 9.36 0 0 0 .75-1 10 10 0 0 1 1.33-1.48c.21-.18.45-.3.6-.24.09-.23 0-.35 0-.41a.2.2 0 0 0-.11 0 1.1 1.1 0 0 0-.56.26" fill="url(#q)"/><path d="M18.51 21.43a2.35 2.35 0 0 0-1 1 1.17 1.17 0 0 0 .06 1.21l.07.1a1.48 1.48 0 0 1 .15-1 2 2 0 0 1 .83-.84c.13-.08.19-.16.11-.38 0-.06 0-.17-.06-.27a.22.22 0 0 1-.13.22" fill="url(#r)"/><path d="M21.31 17c-1.07.4-1.54 1.25-1.31 1.82a.54.54 0 0 0 .2.25 1.76 1.76 0 0 1 1.35-1.72 7.9 7.9 0 0 1 4.06.09c.17-.11.32-.18.46-.26.07 0 0-.08 0-.08a16.12 16.12 0 0 0-2.94-.4 5.08 5.08 0 0 0-1.78.3" fill="url(#s)"/><path d="M25.8 20.17c-.48 0-1.24.1-1.75.17-.12 0-.14 0-.17.08a21.46 21.46 0 0 1-2.65 3.77 3.7 3.7 0 0 1-2.79 1.32 2.15 2.15 0 0 1-2.21-1.63 2.86 2.86 0 0 0 .94 1.59 2.32 2.32 0 0 0 1.38.42 4 4 0 0 0 3-1.42 20.48 20.48 0 0 0 2.61-3.68s.06-.07.19-.09c.51-.06 1-.09 1.43-.14h.29a2.68 2.68 0 0 0 .48.39.3.3 0 0 1 .2.06.25.25 0 0 0 .13-.07.19.19 0 0 0 .05-.18 2.14 2.14 0 0 0-.09-.4.16.16 0 0 1 0 .17.21.21 0 0 1-.16.08.34.34 0 0 1-.17-.06 1.59 1.59 0 0 1-.47-.38.11.11 0 0 0-.11-.05h-.13" fill="url(#t)"/><path d="M21.37 21a.24.24 0 0 1-.37 0 .22.22 0 0 1 0-.12 1.11 1.11 0 0 0 .12.52.27.27 0 0 0 .38 0 2.18 2.18 0 0 1 .91-.42l.27-.37a2.12 2.12 0 0 0-1.26.44" fill="url(#u)"/><path d="M34.4 16.7z" fill="url(#v)"/><path d="M34.45 16.9c0 .3-.25.59-.82.9a4.16 4.16 0 0 1-2 .47 22.65 22.65 0 0 1-5-1v.2a7.82 7.82 0 0 0-2.29 2.32h.43a6.56 6.56 0 0 1 1.87-1.85c.06 0 .12-.08.1-.25a19.78 19.78 0 0 0 5 1 4.54 4.54 0 0 0 2-.5c.56-.33.7-.58.72-.84a1.09 1.09 0 0 0 0-.26c0-.09 0-.2-.06-.28a.35.35 0 0 1 0 .11" fill="url(#w)"/><path d="M26.48 18.91l-.07.06a.69.69 0 0 0-.19.56c0 .07 0 .08.07.08h.09a.41.41 0 0 1 .15-.27.28.28 0 0 1 .23-.08c.06-.13.08-.28 0-.34a.18.18 0 0 0-.12 0 .3.3 0 0 0-.17.06" fill="url(#x)"/><path d="M27.14 19.5a1.1 1.1 0 0 1-.66.54s-.05 0 0 .06c0 .05.18.17.29.24a.86.86 0 0 0 .46-.45 1 1 0 0 0 .09-.61 1.48 1.48 0 0 0-.12-.49.83.83 0 0 1-.05.72" fill="url(#y)"/><path d="M22.57 18.09a.43.43 0 0 1 0 .33 2.88 2.88 0 0 1-2.37 1.94 1.36 1.36 0 0 1-1.33-.79 2.17 2.17 0 0 0 .79.86 1.46 1.46 0 0 0 .83.21 2.6 2.6 0 0 0 2.2-1.71 1 1 0 0 0 0-.58 1.55 1.55 0 0 0-.07-.28z" fill="url(#z)"/><path d="M7.55 21.21a2.94 2.94 0 0 0 .07.61 3 3 0 0 1-.05-.52 3.86 3.86 0 0 1 1.27-2.73c3-3 10.84-5.07 19.48-5.1 1.2 0 2.37 0 3.51.1-1.13-.07-2.29-.11-3.48-.11-11.53 0-20.8 3.46-20.8 7.76" fill="url(#b)"/><path d="M49.13 21.13a3.87 3.87 0 0 1-1.29 2.71c-3 3-10.82 5.08-19.46 5.11-1.22 0-2.42 0-3.58-.1 1.15.07 2.34.11 3.55.11 11.47 0 20.8-3.5 20.8-7.75a3 3 0 0 0 0-.48 2.89 2.89 0 0 1 0 .4" fill="url(#A)"/><path d="M8.66 21.21c0 3.78 8.81 6.85 19.68 6.85C39.22 28.06 48 25 48 21.21c0-3.78-8.81-6.85-19.68-6.85S8.64 17.43 8.64 21.21m.69 0c0-3.46 8.5-6.26 19-6.26 10.49 0 19 2.8 19 6.26s-8.5 6.26-19 6.26c-10.49 0-19-2.8-19-6.26" fill="url(#B)"/><path d="M39.49 18.89c-.08 0-.12 0-.15.08-.12.23-1.59 2.44-1.87 2.87 0 .07-.1.06-.11 0a.92.92 0 0 0-.59-.69A1.51 1.51 0 0 0 36 21a2.81 2.81 0 0 0-1.3.61c-.57.43-1.07 1-1.7 1.41-.35.23-.82.42-1.14.13a1 1 0 0 1 .14-1.27h.09a.58.58 0 0 0 .17.56.63.63 0 0 0 .7.08.92.92 0 0 0 .49-.71.8.8 0 0 0-.74-.91 1.47 1.47 0 0 0-1.06.38 2 2 0 0 0-.42.46c0 .05-.09.06-.09 0 0-.6-.23-.94-.73-.95a1.85 1.85 0 0 0-1.12.46 10.32 10.32 0 0 0-1 1h-.09a2 2 0 0 0-.29-1.06.24.24 0 0 0-.32-.08 2.26 2.26 0 0 0-.37.22.21.21 0 0 0-.06.24 2.77 2.77 0 0 1-.1 1.84 2 2 0 0 1-1.16 1.15.76.76 0 0 1-.9-.26 1.54 1.54 0 0 1 .26-1.7 3.3 3.3 0 0 1 1.51-1.06.09.09 0 0 0 .06-.12l-.1-.27c-.05-.14-.19-.16-.37-.14a3.15 3.15 0 0 0-1.13.38 3.87 3.87 0 0 0-1.63 2 2 2 0 0 1-.3.55 5.41 5.41 0 0 1-.68.66.12.12 0 0 0 0 .14 1.52 1.52 0 0 0 .26.35.15.15 0 0 0 .15 0 3.55 3.55 0 0 0 .67-.59c0-.06.1 0 .13.06a1.47 1.47 0 0 0 .95 1 2.37 2.37 0 0 0 2.45-.87 9.81 9.81 0 0 0 .75-1 9.07 9.07 0 0 1 1.49-1.62c.24-.18.53-.33.67-.23.12.07.15.25 0 .59-.67 1.23-1.66 2.67-1.84 3 0 .06 0 .11.06.11h1a.12.12 0 0 0 .1-.06c.52-.81 1-1.58 1.52-2.37s.06 0 .06 0a1.32 1.32 0 0 0 .17.6.9.9 0 0 0 .78.44 1.48 1.48 0 0 0 .63-.13 2.21 2.21 0 0 0 .52-.28c.08-.05.09 0 .09.05a1.52 1.52 0 0 0 .67 1.72 1.93 1.93 0 0 0 2.1-.63s.1 0 .1.06a.88.88 0 0 0 .24.55c.4.41 1.22.24 2-.39a10.24 10.24 0 0 0 1.57-1.58.07.07 0 0 0 0-.1l-.26-.24a.09.09 0 0 0-.11 0 13.15 13.15 0 0 1-1.63 1.49c-.22.16-.58.28-.74.07a.36.36 0 0 1 0-.35c.19-.48 3.25-5.13 3.41-5.41s0-.08-.06-.08h-1.04m-4.84 5.7a.53.53 0 0 1-.22-.48 2.51 2.51 0 0 1 .64-1.52c.5-.62 1.06-.94 1.42-.76.38.18.26.62.09 1a.1.1 0 0 0 0 .07s.05.07.1.09 0 0 0 .05a4.48 4.48 0 0 1-.41.68 2.54 2.54 0 0 1-.52.57 1.48 1.48 0 0 1-.84.41.53.53 0 0 1-.25-.06" fill="url(#c)"/><path d="M23.25 16.07h-.88c-1.88.16-3.66 1.22-3.67 2.82a1.38 1.38 0 0 0 1.47 1.44 2.88 2.88 0 0 0 2.37-1.94c.17-.4-.15-.57-.3-.34a2.68 2.68 0 0 1-1.06.95c-.5.24-1 .18-1.19-.23-.23-.57.24-1.42 1.31-1.82 1.55-.57 3.17-.19 4.72.1s.11 0 0 .08a4.55 4.55 0 0 0-1 .64 8.2 8.2 0 0 0-1 1c-.31.38-.53.71-.82 1.08a.11.11 0 0 1-.09.05 4.65 4.65 0 0 0-2 .64.28.28 0 0 0-.11.46.24.24 0 0 0 .35 0 2.12 2.12 0 0 1 1.26-.44 18.65 18.65 0 0 1-1.39 1.78 10.27 10.27 0 0 1-.82.84c-1.19 1.1-2.46 1.08-2.92.39a1.17 1.17 0 0 1-.06-1.21 2.35 2.35 0 0 1 1-1 .25.25 0 0 0 0-.41.53.53 0 0 0-.46-.09 2.53 2.53 0 0 0-1.4.9 2.46 2.46 0 0 0-.51 1.77 2.13 2.13 0 0 0 2.26 1.92 3.7 3.7 0 0 0 2.79-1.32 21.46 21.46 0 0 0 2.65-3.77s0-.07.17-.08c.51-.06 1.27-.14 1.75-.17h.17a1.59 1.59 0 0 0 .47.38.34.34 0 0 0 .17.06.21.21 0 0 0 .16-.08.16.16 0 0 0 0-.18s-.37-.24-.38-.31 0-.06 0-.06a1.1 1.1 0 0 0 .66-.54.72.72 0 0 0-.1-.91.71.71 0 0 0-.92.11 1.11 1.11 0 0 0-.35 1c0 .06 0 .08-.07.08-.45 0-.88 0-1.36.07a7.82 7.82 0 0 1 2.29-2.32c.06 0 0-.13 0-.2a22.65 22.65 0 0 0 5 1 4.16 4.16 0 0 0 2-.47c.57-.31.8-.6.82-.9a.26.26 0 0 0-.33-.29 14.46 14.46 0 0 1-5.1.18 48.26 48.26 0 0 0-5.77-.72m3 3.46a.69.69 0 0 1 .23-.6.24.24 0 0 1 .31 0c.09.08 0 .27 0 .41a.75.75 0 0 1-.43.31l-.06-.08" fill="url(#C)"/><path fill="none" d="M0 0h56.69v42.52H0z"/></g></g></svg>