<svg xmlns="http://www.w3.org/2000/svg" xmlns:xlink="http://www.w3.org/1999/xlink" width="20mm" height="15mm" viewBox="0 0 56.69 42.52"><defs><style>.cls-5{fill:none;stroke:#231f20;stroke-width:.01px}</style><linearGradient id="linear-gradient" x1="21.75" y1="21.9" x2="18.39" y2="19.79" gradientUnits="userSpaceOnUse"><stop offset="0" stop-color="#e8e8e8"/><stop offset="1" stop-color="#4a5254"/></linearGradient><linearGradient id="linear-gradient-2" x1="35.73" y1="14.42" x2="34.87" y2="26.9" gradientUnits="userSpaceOnUse"><stop offset=".03" stop-color="#e8e8e8"/><stop offset=".09" stop-color="#d7d8d8"/><stop offset=".3" stop-color="#a5a9a9"/><stop offset=".49" stop-color="#7e8384"/><stop offset=".66" stop-color="#61686a"/><stop offset=".82" stop-color="#50585a"/><stop offset=".93" stop-color="#4a5254"/></linearGradient><linearGradient id="linear-gradient-3" x1="28.34" y1="15.14" x2="28.34" y2="13.44" gradientUnits="userSpaceOnUse"><stop offset="0" stop-color="#e8e8e8"/><stop offset=".12" stop-color="#cacbcc"/><stop offset=".32" stop-color="#9ca0a1"/><stop offset=".52" stop-color="#797e80"/><stop offset=".7" stop-color="#5f6668"/><stop offset=".87" stop-color="#4f5759"/><stop offset="1" stop-color="#4a5254"/></linearGradient><linearGradient id="linear-gradient-4" x1="22.89" y1="14.73" x2="21.05" y2="15.55" gradientUnits="userSpaceOnUse"><stop offset="0" stop-color="#fff"/><stop offset="1" stop-color="#4a5254"/></linearGradient><linearGradient id="linear-gradient-5" x1="17.07" y1="22.37" x2="8.82" y2="8.61" gradientUnits="userSpaceOnUse"><stop offset="0" stop-color="#4a5254"/><stop offset=".36" stop-color="#e8e8e8"/><stop offset=".42" stop-color="#ddddde"/><stop offset=".54" stop-color="#bfc1c2"/><stop offset=".7" stop-color="#8f9495"/><stop offset=".89" stop-color="#4d5557"/><stop offset=".9" stop-color="#4a5254"/></linearGradient><linearGradient id="linear-gradient-6" x1="16.34" y1="22.88" x2="13.03" y2="15.14" xlink:href="#linear-gradient-3"/><linearGradient id="linear-gradient-7" x1="14.63" y1="27.85" x2="19.82" y2="27.9" xlink:href="#linear-gradient-3"/><linearGradient id="linear-gradient-8" x1="29.27" y1="15.58" x2="17.04" y2="29.25" gradientUnits="userSpaceOnUse"><stop offset="0" stop-color="#4a5254"/><stop offset=".05" stop-color="#73797a"/><stop offset=".09" stop-color="#959899"/><stop offset=".14" stop-color="#afb1b2"/><stop offset=".19" stop-color="#c2c3c3"/><stop offset=".24" stop-color="#cdcece"/><stop offset=".3" stop-color="#d1d1d1"/><stop offset=".63" stop-color="#898e8f"/><stop offset=".88" stop-color="#5c6364"/><stop offset="1" stop-color="#4a5254"/></linearGradient><linearGradient id="linear-gradient-9" x1="274.81" y1="15.58" x2="262.58" y2="29.25" gradientTransform="matrix(-1 0 0 1 302.23 0)" gradientUnits="userSpaceOnUse"><stop offset="0"/><stop offset=".02" stop-color="#202020"/><stop offset=".06" stop-color="#515151"/><stop offset=".1" stop-color="#7b7b7b"/><stop offset=".13" stop-color="#9d9d9d"/><stop offset=".17" stop-color="#b7b7b7"/><stop offset=".21" stop-color="#cacaca"/><stop offset=".25" stop-color="#d5d5d5"/><stop offset=".3" stop-color="#d9d9d9"/><stop offset=".32" stop-color="#d3d3d3"/><stop offset=".65" stop-color="#898e8f"/><stop offset=".88" stop-color="#5c6364"/><stop offset="1" stop-color="#4a5254"/></linearGradient><linearGradient id="linear-gradient-10" x1="260.18" y1="27.85" x2="265.37" y2="27.9" gradientTransform="matrix(-1 0 0 1 302.23 0)" gradientUnits="userSpaceOnUse"><stop offset="0" stop-color="#e8e8e8"/><stop offset=".01" stop-color="#e4e4e4"/><stop offset=".09" stop-color="#bbbebe"/><stop offset=".17" stop-color="#989c9d"/><stop offset=".26" stop-color="#7c8183"/><stop offset=".35" stop-color="#666c6e"/><stop offset=".45" stop-color="#565d5f"/><stop offset=".57" stop-color="#4d5557"/><stop offset=".73" stop-color="#4a5254"/></linearGradient><linearGradient id="linear-gradient-11" x1="295.81" y1="14.73" x2="293.97" y2="15.55" gradientTransform="matrix(-1 0 0 1 329.61 0)" xlink:href="#linear-gradient-4"/><linearGradient id="linear-gradient-12" x1="289.99" y1="22.37" x2="281.74" y2="8.61" gradientTransform="matrix(-1 0 0 1 329.61 0)" xlink:href="#linear-gradient-5"/><linearGradient id="linear-gradient-13" x1="289.26" y1="22.88" x2="285.94" y2="15.14" gradientTransform="matrix(-1 0 0 1 329.61 0)" gradientUnits="userSpaceOnUse"><stop offset="0" stop-color="#e8e8e8"/><stop offset=".1" stop-color="#c2c4c4"/><stop offset=".22" stop-color="#979b9c"/><stop offset=".34" stop-color="#767b7d"/><stop offset=".46" stop-color="#5e6566"/><stop offset=".56" stop-color="#4f5759"/><stop offset=".65" stop-color="#4a5254"/></linearGradient><linearGradient id="linear-gradient-14" x1="33.22" y1="25.22" x2="32.51" y2="25.61" gradientUnits="userSpaceOnUse"><stop offset="0" stop-color="#e8e8e8"/><stop offset=".06" stop-color="#d7d8d8"/><stop offset=".27" stop-color="#a5a9a9"/><stop offset=".47" stop-color="#7e8384"/><stop offset=".65" stop-color="#61686a"/><stop offset=".81" stop-color="#50585a"/><stop offset=".93" stop-color="#4a5254"/></linearGradient><linearGradient id="linear-gradient-15" x1="26.37" y1="25.14" x2="26.13" y2="22.68" xlink:href="#linear-gradient-3"/><linearGradient id="linear-gradient-16" x1="26.92" y1="22.66" x2="27.03" y2="25.47" xlink:href="#linear-gradient-14"/></defs><g id="Слой_2" data-name="Слой 2"><g id="Слой_1-2" data-name="Слой 1"><path fill="none" d="M0 0h56.69v42.52H0z"/><path fill="url(#linear-gradient)" d="M28.34 15.03L18.02 27.29l-3.45 1.15 12.16-14.45 1.61 1.04z"/><path fill="url(#linear-gradient-2)" d="M28.34 15.03l10.33 12.26 3.44 1.15-12.15-14.45-1.62 1.04z"/><path fill="url(#linear-gradient-3)" d="M28.34 15.03l1.62-1.04h-3.23l1.61 1.04z"/><path fill="url(#linear-gradient-4)" d="M20.82 16.48l1.65-2.38-1.65 1.3v1.08z"/><path d="M19.22 24.94l-2.45.89c-11.71-1.77-10.9-5.55-10.9-5.55 0-4.88 16.61-6.18 16.61-6.18l-1.64 1.3s-13.57 2-13.18 4.86 11.56 4.68 11.56 4.68z" fill="url(#linear-gradient-5)"/><path d="M20.83 15.4v1.08s-11.37.85-11.37 3.72 9 3.6 9 3.6l.73 1.15s-11.55-1.41-11.55-4.7 13.19-4.85 13.19-4.85z" fill="url(#linear-gradient-6)"/><path fill="url(#linear-gradient-7)" d="M14.57 28.44h4.62l-1.17-1.15-3.45 1.15z"/><path fill="url(#linear-gradient-8)" d="M28.34 15.03v2.25l-9.15 11.15-1.17-1.14 10.32-12.26z"/><path fill="url(#linear-gradient-9)" d="M28.35 15.03v2.25l9.15 11.15 1.17-1.14-10.32-12.26z"/><path fill="url(#linear-gradient-10)" d="M42.12 28.44H37.5l1.17-1.15 3.45 1.15z"/><path fill="url(#linear-gradient-11)" d="M35.87 16.48l-1.64-2.38 1.64 1.3v1.08z"/><path d="M37.48 24.94l2.45.89c11.71-1.77 10.9-5.55 10.9-5.55 0-4.88-16.61-6.18-16.61-6.18l1.64 1.3s13.57 2 13.18 4.86-11.56 4.68-11.56 4.68z" fill="url(#linear-gradient-12)"/><path d="M35.86 15.4v1.08s11.37.85 11.37 3.72-9 3.6-9 3.6l-.73 1.15s11.58-1.41 11.58-4.69-13.22-4.86-13.22-4.86z" fill="url(#linear-gradient-13)"/><path fill="url(#linear-gradient-14)" d="M32 24.38l1.57 2.16-1.34-1.14-.23-1.02z"/><path d="M20.52 25.11l2.09-.85s7.82.33 9.39.12l.23 1S29 26 20.52 25.11z" fill="url(#linear-gradient-15)"/><path d="M32.23 25.4l1.34 1.14a80.36 80.36 0 0 1-12.68-.18l-.37-1.25a86.22 86.22 0 0 0 11.71.29z" fill="url(#linear-gradient-16)"/></g></g></svg>