<svg xmlns="http://www.w3.org/2000/svg" xmlns:xlink="http://www.w3.org/1999/xlink" width="20mm" height="15mm" viewBox="0 0 56.69 42.52"><defs><style>.cls-1{isolation:isolate}.cls-4{fill:none}.cls-26{clip-path:url(#clip-path-12)}</style><linearGradient id="Degradado_sin_nombre_33" data-name="Degradado sin nombre 33" x1="-348.64" y1="319.59" x2="-347.98" y2="319.59" gradientTransform="matrix(0 -24.39 -24.39 0 7824.16 -8466.77)" gradientUnits="userSpaceOnUse"><stop offset="0" stop-color="#fff"/><stop offset=".85" stop-color="#fff"/><stop offset=".87" stop-color="#fafafa"/><stop offset=".89" stop-color="#ebebeb"/><stop offset=".91" stop-color="#d2d2d2"/><stop offset=".93" stop-color="#afafaf"/><stop offset=".95" stop-color="#828282"/><stop offset=".97" stop-color="#4b4b4b"/><stop offset="1" stop-color="#0c0c0c"/><stop offset="1"/></linearGradient><clipPath id="clip-path"><path class="cls-4" transform="rotate(-65.72 26.14 25.343)" d="M21.46 21.64h9.36v7.42h-9.36z"/></clipPath><linearGradient id="Degradado_sin_nombre_27" data-name="Degradado sin nombre 27" x1="-331" y1="335.8" x2="-330.33" y2="335.8" gradientTransform="matrix(0 -12.41 -12.41 0 4194.44 -4079.79)" gradientUnits="userSpaceOnUse"><stop offset="0" stop-color="#ccc"/><stop offset=".01" stop-color="#ccc"/><stop offset=".11"/><stop offset="1"/></linearGradient><clipPath id="clip-path-2"><path class="cls-4" d="M30.27 21.34a2.46 2.46 0 1 0 2.46-2.46 2.46 2.46 0 0 0-2.46 2.46"/></clipPath><radialGradient id="Degradado_sin_nombre_21" data-name="Degradado sin nombre 21" cx="-379.23" cy="253.91" r=".43" gradientTransform="matrix(5.74 0 0 -5.74 2208.89 1478.38)" gradientUnits="userSpaceOnUse"><stop offset="0" stop-color="#fff"/><stop offset=".17" stop-color="#fff"/><stop offset=".27" stop-color="#c4c4c4"/><stop offset=".37" stop-color="#909090"/><stop offset=".48" stop-color="#646464"/><stop offset=".58" stop-color="#404040"/><stop offset=".68" stop-color="#242424"/><stop offset=".79" stop-color="#101010"/><stop offset=".89" stop-color="#040404"/><stop offset="1"/></radialGradient><radialGradient id="Degradado_sin_nombre_20" data-name="Degradado sin nombre 20" cx="-350.93" cy="293.79" r=".43" gradientTransform="matrix(19.25 0 0 -19.25 6786.41 5675.36)" gradientUnits="userSpaceOnUse"><stop offset="0" stop-color="#fff"/><stop offset=".19" stop-color="#a2a2a2"/><stop offset=".39" stop-color="#4b4b4b"/><stop offset=".52" stop-color="#151515"/><stop offset=".59"/><stop offset="1"/></radialGradient><clipPath id="clip-path-3"><path class="cls-4" d="M28.14 28.27c-1.21-2.32-2-3.91-3.16-6.48a1.39 1.39 0 0 1-.17-.59 1.43 1.43 0 0 1 .17-.58c1.14-2.56 2-4.16 3.16-6.48.07-.13.13-.22.2-.22.08 0 .14.09.21.22 1.2 2.32 2 3.91 3.16 6.48a1.38 1.38 0 0 1 .17.59 1.36 1.36 0 0 1-.17.58c-1.14 2.56-2 4.16-3.16 6.48-.07.13-.13.22-.2.22s-.13-.09-.2-.22M25.07 6.88a.49.49 0 0 0-.4.25c-.26.39-2.95 4.8-4.65 7.91-1.21 2.2-2.41 4.54-2.92 5.62a1.34 1.34 0 0 0-.16.56 1.37 1.37 0 0 0 .16.56c.51 1.08 1.71 3.41 2.92 5.62 1.71 3.11 4.38 7.53 4.66 7.91l.12.14a.42.42 0 0 0 .18.12 1 1 0 0 0 .32 0h3.05c1.39 0 3 0 3.26-.06a.56.56 0 0 0 .17 0c.06 0 .1-.07.22-.23.28-.38 2.94-4.78 4.65-7.89 1.21-2.2 2.41-4.54 2.92-5.62a1.47 1.47 0 0 0 .16-.6 1.23 1.23 0 0 0-.16-.53c-.51-1.08-1.71-3.41-2.92-5.62C35 11.93 32.3 7.51 32 7.13a1 1 0 0 0-.2-.22l-.11-.05a1.14 1.14 0 0 0-.33 0h-3.04c-1.39 0-3.06 0-3.28.06"/></clipPath><linearGradient id="Degradado_sin_nombre_65" data-name="Degradado sin nombre 65" x1="-344.4" y1="315.75" x2="-343.74" y2="315.75" gradientTransform="matrix(0 -43.28 -43.28 0 13693.21 -14869.29)" gradientUnits="userSpaceOnUse"><stop offset="0" stop-color="#e5e5e8"/><stop offset=".69" stop-color="#fff"/><stop offset=".99" stop-color="#a5a8af"/><stop offset="1" stop-color="#a2a5ac"/></linearGradient><filter id="luminosity-invert-noclip" x="16.94" y="6.82" width="22.81" height="28.8" filterUnits="userSpaceOnUse" color-interpolation-filters="sRGB"><feColorMatrix values="-1 0 0 0 1 0 -1 0 0 1 0 0 -1 0 1 0 0 0 1 0" result="invert"/><feFlood flood-color="#fff" result="bg"/><feBlend in="invert" in2="bg"/></filter><mask id="mask" x="16.94" y="6.82" width="22.81" height="28.8" maskUnits="userSpaceOnUse"><g filter="url(#luminosity-invert-noclip)"><path d="M16.94 6.82h22.81v28.8H16.94z"/><path fill="url(#Degradado_sin_nombre_33)" d="M16.94 21.44h22.81v14.18H16.94z"/></g></mask><clipPath id="clip-path-4"><path class="cls-4" d="M16.94 6.82h22.81v28.8H16.94z"/></clipPath><clipPath id="clip-path-5"><path class="cls-4" d="M28.35 13.93c.08 0 .14.09.21.22 1.2 2.32 2 3.91 3.16 6.48a1.38 1.38 0 0 1 .17.59 1.36 1.36 0 0 1-.17.58c-1.14 2.56-2 4.16-3.16 6.48-.07.13-.13.22-.2.22s-.13-.09-.2-.22c-1.21-2.32-2-3.91-3.16-6.48a1.39 1.39 0 0 1-.17-.59 1.43 1.43 0 0 1 .17-.58c1.14-2.56 2-4.16 3.16-6.48.07-.13.13-.22.2-.22zm-3.28-7.05a.49.49 0 0 0-.2.05.5.5 0 0 0-.2.19c-.26.39-2.95 4.8-4.65 7.91-1.21 2.2-2.41 4.54-2.92 5.62a1.34 1.34 0 0 0-.16.56 1.37 1.37 0 0 0 .16.56c.51 1.08 1.71 3.41 2.92 5.62 1.71 3.11 4.38 7.53 4.66 7.91l.12.14a.42.42 0 0 0 .18.12 1 1 0 0 0 .31 0h3.01c1.39 0 3 0 3.26-.06a.58.58 0 0 0 .17 0c.06 0 .1-.07.22-.23.28-.38 2.94-4.78 4.65-7.89 1.21-2.2 2.41-4.54 2.92-5.62a1.47 1.47 0 0 0 .16-.6 1.23 1.23 0 0 0-.16-.53c-.51-1.08-1.71-3.41-2.92-5.62-1.6-3.08-4.3-7.5-4.6-7.88a1 1 0 0 0-.2-.22l-.11-.05a1.14 1.14 0 0 0-.33 0h-3.04c-1.39 0-3.06 0-3.28.06"/></clipPath><radialGradient id="Degradado_sin_nombre_64" data-name="Degradado sin nombre 64" cx="-345.56" cy="300.76" r=".43" gradientTransform="matrix(33.45 0 0 -33.57 11584.82 10111.14)" gradientUnits="userSpaceOnUse"><stop offset="0" stop-color="#fff"/><stop offset=".4" stop-color="#fff"/><stop offset=".98" stop-color="#a5a8af"/><stop offset="1" stop-color="#a2a5ac"/></radialGradient><clipPath id="clip-path-6"><path class="cls-4" d="M23.68 21.21a.94.94 0 0 1-.69.18H17.9c-.22 0-.52 0-.52.34a4.34 4.34 0 0 0 .55 1.35c2 3.95 4.26 7.89 6.66 11.74 0 0 .37.59.4.64a.19.19 0 0 0 .17.07 63.75 63.75 0 0 0 2.75-5.83c-1.37-2.53-2.63-5-3.81-7.53a3.62 3.62 0 0 1-.35-.88.48.48 0 0 1 0-.08l-.06.05"/></clipPath><linearGradient id="Degradado_sin_nombre_63" data-name="Degradado sin nombre 63" x1="-350.09" y1="320.77" x2="-349.43" y2="320.77" gradientTransform="matrix(0 -21.32 -21.32 0 6861.02 -7428.11)" gradientUnits="userSpaceOnUse"><stop offset="0" stop-color="#e5e5e8"/><stop offset=".01" stop-color="#e5e5e8"/><stop offset=".34" stop-color="#b1b5bb"/><stop offset=".54" stop-color="#7f8288"/><stop offset=".69" stop-color="#55585e"/><stop offset=".85" stop-color="#3c3e42"/><stop offset=".9" stop-color="#313337"/><stop offset=".95" stop-color="#242529"/><stop offset=".96" stop-color="#27292d"/><stop offset=".97" stop-color="#323438"/><stop offset=".98" stop-color="#44464b"/><stop offset=".99" stop-color="#5d6065"/><stop offset="1" stop-color="#7d8187"/><stop offset="1" stop-color="#81858b"/></linearGradient><clipPath id="clip-path-7"><path class="cls-4" d="M25.17 35.51zm0 0z"/></clipPath><clipPath id="clip-path-8"><path class="cls-4" d="M25.17 35.51z"/></clipPath><linearGradient id="Degradado_sin_nombre_63-2" x1="25.17" y1="35.51" x2="25.17" y2="35.51" gradientTransform="matrix(0 0 0 0 240.08 -203.39)" xlink:href="#Degradado_sin_nombre_63"/><clipPath id="clip-path-9"><path class="cls-4" d="M39.47 21.25a.79.79 0 0 1-.55.14h-4.19c-1.92 0-1.73-.05-2.22 1-.22.45-.45 1-.68 1.42-1.68 3.51-5.77 10.57-6.32 11.44-.21.33-.24.35-.09.35 0 0 1.39.05 2.93.05 2.41 0 3.28-.07 3.28-.07 1.4-2.18 4.74-7.7 7.12-12.49a6.23 6.23 0 0 0 .8-1.82h-.05"/></clipPath><linearGradient id="Degradado_sin_nombre_62" data-name="Degradado sin nombre 62" x1="-350.08" y1="320.99" x2="-349.42" y2="320.99" gradientTransform="matrix(0 -21.34 -21.34 0 6881.54 -7434.43)" gradientUnits="userSpaceOnUse"><stop offset="0" stop-color="#e5e5e8"/><stop offset=".01" stop-color="#e5e5e8"/><stop offset=".34" stop-color="#b1b5bb"/><stop offset=".54" stop-color="#7f8288"/><stop offset=".69" stop-color="#55585e"/><stop offset=".85" stop-color="#3c3e42"/><stop offset=".9" stop-color="#313337"/><stop offset=".95" stop-color="#242529"/><stop offset=".96" stop-color="#27292d"/><stop offset=".97" stop-color="#323438"/><stop offset=".98" stop-color="#44464b"/><stop offset=".99" stop-color="#5d6065"/><stop offset="1" stop-color="#7d8187"/><stop offset="1" stop-color="#81858b"/></linearGradient><clipPath id="clip-path-10"><path class="cls-4" d="M31.5 6.92c-.1 0-.17.08-.31.29C30 9 25.92 16.75 24.25 20.34a2.31 2.31 0 0 0-.31.87h.87a1.43 1.43 0 0 1 .17-.58c1.14-2.56 2-4.16 3.16-6.48.07-.13.13-.22.2-.22l.34-1c1.18-2.94 2.83-6 2.83-6"/></clipPath><linearGradient id="Degradado_sin_nombre_61" data-name="Degradado sin nombre 61" x1="-350.35" y1="320.81" x2="-349.68" y2="320.81" gradientTransform="matrix(0 -21.48 -21.48 0 6917.78 -7503.25)" gradientUnits="userSpaceOnUse"><stop offset="0" stop-color="#55585e"/><stop offset=".01" stop-color="#494b50"/><stop offset=".02" stop-color="#3f4146"/><stop offset=".04" stop-color="#3c3e42"/><stop offset=".11" stop-color="#3a3c3f"/><stop offset=".16" stop-color="#323337"/><stop offset=".19" stop-color="#242528"/><stop offset=".23" stop-color="#111213"/><stop offset=".25"/><stop offset="1"/></linearGradient><clipPath id="clip-path-11"><path class="cls-4" d="M28.34 13.93c.08 0 .14.09.21.22 1.2 2.32 2 3.91 3.16 6.48a1.38 1.38 0 0 1 .17.59h.87a2.24 2.24 0 0 0-.3-.86c-1.15-2.45-2.36-4.84-3.76-7.41z"/></clipPath><linearGradient id="Degradado_sin_nombre_60" data-name="Degradado sin nombre 60" x1="-358.68" y1="328.24" x2="-358.01" y2="328.24" gradientTransform="matrix(0 -12.43 -12.43 0 4111.55 -4438.16)" gradientUnits="userSpaceOnUse"><stop offset="0" stop-color="#8b8e94"/><stop offset=".16" stop-color="#86898f"/><stop offset=".35" stop-color="#797b81"/><stop offset=".55" stop-color="#626569"/><stop offset=".76" stop-color="#434549"/><stop offset=".8" stop-color="#3c3e42"/><stop offset=".83" stop-color="#383a3e"/><stop offset=".86" stop-color="#2d2e31"/><stop offset=".89" stop-color="#1a1b1d"/><stop offset=".92"/><stop offset="1"/></linearGradient><clipPath id="clip-path-12"><path class="cls-4" d="M24.25 22.08c1.15 2.45 2.36 4.83 3.75 7.41l.35-1c-.08 0-.13-.09-.2-.22-1.21-2.32-2-3.91-3.16-6.48a1.39 1.39 0 0 1-.17-.59h-.87a2.19 2.19 0 0 0 .3.87"/></clipPath><linearGradient id="Degradado_sin_nombre_59" data-name="Degradado sin nombre 59" x1="-358.33" y1="328.06" x2="-357.67" y2="328.06" gradientTransform="matrix(0 -12.44 -12.44 0 4106.89 -4427.85)" gradientUnits="userSpaceOnUse"><stop offset="0" stop-color="#c6c8cc"/><stop offset=".36" stop-color="#c6c8cc"/><stop offset=".49" stop-color="#c1c3c8"/><stop offset=".65" stop-color="#b4b6bb"/><stop offset=".81" stop-color="#9da0a5"/><stop offset=".96" stop-color="#81858b"/><stop offset="1" stop-color="#55585e"/></linearGradient><mask id="mask-2" x="16.5" y="15.58" width="19.29" height="19.53" maskUnits="userSpaceOnUse"><g clip-path="url(#clip-path)"><path transform="rotate(-65.72 26.14 25.343)" fill="url(#Degradado_sin_nombre_27)" d="M18.68 18.13H33.6v14.43H18.68z"/></g></mask><linearGradient id="Degradado_sin_nombre_58" data-name="Degradado sin nombre 58" x1="-331" y1="335.81" x2="-330.33" y2="335.81" gradientTransform="matrix(0 -12.41 -12.41 0 4194.5 -4079.8)" gradientUnits="userSpaceOnUse"><stop offset="0" stop-color="#f1f2f1"/><stop offset=".01" stop-color="#f1f2f1"/><stop offset=".11" stop-color="#eeedee"/><stop offset="1" stop-color="#eeedee"/></linearGradient><clipPath id="clip-path-14"><path class="cls-4" d="M31.88 21.22a1.36 1.36 0 0 1-.17.58c-1.14 2.56-2 4.16-3.16 6.48-.07.13-.13.22-.2.22l-.35 1a63.19 63.19 0 0 1-2.83 6c.1 0 .21-.11.34-.31l.14-.23c.89-1.52 5.19-9.46 6.78-12.88a2.36 2.36 0 0 0 .31-.87h-.87"/></clipPath><linearGradient id="Degradado_sin_nombre_57" data-name="Degradado sin nombre 57" x1="-350.01" y1="320.84" x2="-349.34" y2="320.84" gradientTransform="matrix(0 -21.48 -21.48 0 6920.91 -7483.14)" gradientUnits="userSpaceOnUse"><stop offset="0" stop-color="#fff"/><stop offset=".23" stop-color="#f9f9fa"/><stop offset=".55" stop-color="#e8e9ea"/><stop offset=".91" stop-color="#ccced1"/><stop offset=".97" stop-color="#c6c8cc"/><stop offset=".99" stop-color="#8b8e94"/><stop offset="1" stop-color="#8b8e94"/></linearGradient><clipPath id="clip-path-15"><path class="cls-4" d="M16.38 21.21a1.88 1.88 0 0 0 .21.8c.4.86 1.51 3.06 2.93 5.65 1.56 2.83 4.38 7.54 4.7 8a1.32 1.32 0 0 0 .35.35l.23-.54-.12-.14c-.28-.38-3-4.8-4.66-7.91-1.21-2.2-2.41-4.54-2.92-5.62a1.37 1.37 0 0 1-.16-.56z"/></clipPath><linearGradient id="Degradado_sin_nombre_56" data-name="Degradado sin nombre 56" x1="-349.64" y1="320.32" x2="-348.97" y2="320.32" gradientTransform="matrix(0 -22.2 -22.2 0 7131.41 -7725.58)" gradientUnits="userSpaceOnUse"><stop offset="0" stop-color="#81858b"/><stop offset=".12" stop-color="#7d8086"/><stop offset=".56" stop-color="#707379"/><stop offset=".97" stop-color="#6c6f75"/><stop offset=".99" stop-color="#8e9197"/><stop offset="1" stop-color="#9ea2a8"/></linearGradient><clipPath id="clip-path-16"><path class="cls-4" d="M24.56 36a.93.93 0 0 0 .46.12c.42 0 2.26.07 3.32.07s3 0 3.32-.07A1.12 1.12 0 0 0 32 36l-.22-.53a.56.56 0 0 1-.17 0c-.24 0-1.87.06-3.26.06H25.3a1 1 0 0 1-.32 0 .42.42 0 0 1-.18-.12z"/></clipPath><linearGradient id="Degradado_sin_nombre_55" data-name="Degradado sin nombre 55" x1="-345.65" y1="278.87" x2="-344.98" y2="278.87" gradientTransform="matrix(0 9.87 9.87 0 -2724.55 3444.61)" gradientUnits="userSpaceOnUse"><stop offset="0" stop-color="#81858b"/><stop offset=".02" stop-color="#81858b"/><stop offset=".04" stop-color="#6e7277"/><stop offset=".06" stop-color="#595c61"/><stop offset=".08" stop-color="#4c4f54"/><stop offset=".1" stop-color="#484a4f"/><stop offset="1" stop-color="#484a4f"/></linearGradient><clipPath id="clip-path-17"><path class="cls-4" d="M31.82 6.91a1 1 0 0 1 .2.22c.28.38 2.95 4.8 4.66 7.91 1.21 2.2 2.41 4.54 2.92 5.62a1.23 1.23 0 0 1 .16.53h.56a1.9 1.9 0 0 0-.21-.8c-.43-.89-1.79-3.57-2.93-5.65-1.54-2.78-4.37-7.53-4.7-8A1.13 1.13 0 0 0 32 6.4z"/></clipPath><linearGradient id="Degradado_sin_nombre_54" data-name="Degradado sin nombre 54" x1="-342.11" y1="295.71" x2="-341.44" y2="295.71" gradientTransform="matrix(0 21.6 21.6 0 -6352.14 7397.23)" gradientUnits="userSpaceOnUse"><stop offset="0" stop-color="#787a80"/><stop offset="1" stop-color="#8b8e94"/></linearGradient><clipPath id="clip-path-18"><path class="cls-4" d="M25 6.32a1.14 1.14 0 0 0-.35.08l.22.53a.49.49 0 0 1 .2-.05c.22 0 1.89-.06 3.28-.06h3.04a1.14 1.14 0 0 1 .33 0l.11.05.17-.47a1.13 1.13 0 0 0-.39-.08c-.44 0-2.32-.07-3.3-.07s-2.88 0-3.35.07"/></clipPath><linearGradient id="Degradado_sin_nombre_53" data-name="Degradado sin nombre 53" x1="-325.8" y1="339.16" x2="-325.13" y2="339.16" gradientTransform="matrix(0 -10.68 -10.68 0 3649.81 -3468.7)" gradientUnits="userSpaceOnUse"><stop offset="0" stop-color="#787a80"/><stop offset=".01" stop-color="#787a80"/><stop offset=".02" stop-color="#85888e"/><stop offset=".04" stop-color="#9da1a7"/><stop offset=".06" stop-color="#acb0b6"/><stop offset=".07" stop-color="#b1b5bb"/><stop offset=".5" stop-color="#c4c8cb"/><stop offset="1" stop-color="#c6c8cc"/></linearGradient><clipPath id="clip-path-19"><path class="cls-4" d="M24.2 6.82c-.33.42-3.16 5.2-4.68 7.95-1.07 1.93-2.77 5.28-2.93 5.65a2 2 0 0 0-.21.8h.56a1.34 1.34 0 0 1 .16-.56c.51-1.09 1.7-3.42 2.9-5.66 1.71-3.11 4.39-7.52 4.65-7.91a.49.49 0 0 1 .2-.19l-.22-.53a1.14 1.14 0 0 0-.45.42"/></clipPath><linearGradient id="Degradado_sin_nombre_52" data-name="Degradado sin nombre 52" x1="-353.39" y1="302.73" x2="-352.73" y2="302.73" gradientTransform="matrix(19.61 0 0 -19.61 6942.65 5949.04)" gradientUnits="userSpaceOnUse"><stop offset="0" stop-color="#9ea2a8"/><stop offset=".99" stop-color="#8b8e94"/><stop offset="1" stop-color="#c6c8cc"/></linearGradient><clipPath id="clip-path-20"><path class="cls-4" d="M39.6 21.779999999999998c-.51 1.08-1.71 3.41-2.92 5.62-1.68 3.1-4.37 7.5-4.68 7.88-.11.16-.16.2-.22.23L32 36a1.11 1.11 0 0 0 .44-.4c.3-.42 3.35-5.51 4.7-8s2.78-5.3 2.93-5.65a1.82 1.82 0 0 0 .21-.8h-.56a1.47 1.47 0 0 1-.16.6"/></clipPath><linearGradient id="Degradado_sin_nombre_51" data-name="Degradado sin nombre 51" x1="-349.58" y1="320.62" x2="-348.91" y2="320.62" gradientTransform="matrix(0 -22.32 -22.32 0 7192.65 -7766.93)" gradientUnits="userSpaceOnUse"><stop offset="0" stop-color="#484a4f"/><stop offset=".02" stop-color="#484a4f"/><stop offset=".24" stop-color="#52555a"/><stop offset=".6" stop-color="#5d6165"/><stop offset=".97" stop-color="#616569"/><stop offset=".99" stop-color="#7a7d82"/><stop offset="1" stop-color="#8b8e94"/></linearGradient><clipPath id="clip-path-21"><path class="cls-4" d="M28.42 14.25c.11.2 1 1.81 1.72 3.39s1.35 2.9 1.42 3.06a1.26 1.26 0 0 1 .15.52 1.2 1.2 0 0 1-.15.5s-.67 1.5-1.43 3.07c-.68 1.4-1.43 2.83-1.71 3.38 0 .05-.05.09-.06.09s0 0-.06-.09v-.08c-.81-1.54-1.36-2.66-1.69-3.32-.73-1.5-1.38-3-1.43-3.06a1.33 1.33 0 0 1-.15-.51 1.33 1.33 0 0 1 .15-.51v-.09c.46-1 .93-2 1.38-3 .66-1.34 1.4-2.78 1.65-3.25a8.27 8.27 0 0 0 4.45 15.22 8.17 8.17 0 0 0 4-1.06l.49-.88c1.31-2.39 2.77-5.27 2.93-5.65a1.85 1.85 0 0 0 .21-.81 1.89 1.89 0 0 0-.21-.81c-.44-.91-1.79-3.57-2.93-5.65l-.28-.5a8.21 8.21 0 0 0-8.47 0"/></clipPath><mask id="mask-3" x="24.45" y="13.08" width="16.53" height="16.53" maskUnits="userSpaceOnUse"><path d="M24.45 13.08h16.52V29.6H24.45z"/><g clip-path="url(#clip-path-2)"><path fill="url(#Degradado_sin_nombre_21)" d="M30.27 18.88h4.93v4.93h-4.93z"/></g></mask><clipPath id="clip-path-22"><path class="cls-4" d="M24.45 13.08h16.52V29.6H24.45z"/></clipPath><clipPath id="clip-path-23"><path class="cls-4" d="M24.45 21.34a8.26 8.26 0 1 0 8.26-8.26 8.26 8.26 0 0 0-8.26 8.26"/></clipPath><mask id="mask-4" x="24.45" y="13.08" width="16.53" height="16.53" maskUnits="userSpaceOnUse"><path fill="url(#Degradado_sin_nombre_20)" d="M24.45 13.08h16.52V29.6H24.45z"/></mask><radialGradient id="Degradado_sin_nombre_19" data-name="Degradado sin nombre 19" cx="-350.9" cy="293.82" r=".43" gradientTransform="matrix(19.25 0 0 -19.25 6785.84 5675.97)" gradientUnits="userSpaceOnUse"><stop offset="0" stop-color="#fff"/><stop offset=".59" stop-color="#fff"/><stop offset="1" stop-color="#fff"/></radialGradient></defs><g id="Слой_2" data-name="Слой 2"><g id="Слой_1-2" data-name="Слой 1"><path class="cls-4" d="M0 0h56.69v42.52H0z"/><g clip-path="url(#clip-path-3)"><path fill="url(#Degradado_sin_nombre_65)" d="M16.94 6.82h22.81v28.8H16.94z"/></g><g clip-path="url(#clip-path-4)" mask="url(#mask)"><g clip-path="url(#clip-path-5)"><path fill="url(#Degradado_sin_nombre_64)" d="M16.94 6.82h22.81v28.8H16.94z"/></g></g><g clip-path="url(#clip-path-6)"><path fill="url(#Degradado_sin_nombre_63)" d="M17.38 21.16h10.54v14.36H17.38z"/></g><g clip-path="url(#clip-path-7)"><g clip-path="url(#clip-path-8)"><path fill="url(#Degradado_sin_nombre_63-2)" d="M25.17 35.51z"/></g></g><g clip-path="url(#clip-path-9)"><path fill="url(#Degradado_sin_nombre_62)" d="M25.26 21.22h14.31v14.39H25.26z"/></g><g clip-path="url(#clip-path-10)"><path fill="url(#Degradado_sin_nombre_61)" d="M23.94 6.92h7.57v14.29h-7.57z"/></g><g clip-path="url(#clip-path-11)"><path fill="url(#Degradado_sin_nombre_60)" d="M28.34 12.95h4.4v8.27h-4.4z"/></g><path fill="url(#Degradado_sin_nombre_59)" d="M23.94 21.21h4.4v8.28h-4.4z"/><g mask="url(#mask-2)"><path transform="rotate(-65.72 26.14 25.343)" fill="url(#Degradado_sin_nombre_58)" d="M21.46 21.64h9.36v7.42h-9.36z"/></g><g clip-path="url(#clip-path-14)"><path fill="url(#Degradado_sin_nombre_57)" d="M25.17 21.22h7.58v14.3h-7.58z"/></g><g clip-path="url(#clip-path-15)"><path fill="url(#Degradado_sin_nombre_56)" d="M16.38 21.21h8.41v14.77h-8.41z"/></g><g clip-path="url(#clip-path-16)"><path transform="matrix(.5 -.87 .87 .5 -16.86 42.41)" fill="url(#Degradado_sin_nombre_55)" d="M26.12 32.39h4.37v6.84h-4.37z"/></g><g clip-path="url(#clip-path-17)"><path transform="rotate(-61.3 36.067 13.802)" fill="url(#Degradado_sin_nombre_54)" d="M27.53 6.52h17.08v14.56H27.53z"/></g><g clip-path="url(#clip-path-18)"><path transform="rotate(-74 28.341 6.595)" fill="url(#Degradado_sin_nombre_53)" d="M27 2.94h2.69v7.29H27z"/></g><g clip-path="url(#clip-path-19)"><path transform="rotate(-21 20.628 13.813)" fill="url(#Degradado_sin_nombre_52)" d="M14 5.37h13.24v16.88H14z"/></g><g clip-path="url(#clip-path-20)"><path fill="url(#Degradado_sin_nombre_51)" d="M31.81 21.18h8.5v14.85h-8.5z"/></g><g clip-path="url(#clip-path-21)"><g clip-path="url(#clip-path-22)" mask="url(#mask-3)"><g mask="url(#mask-4)" clip-path="url(#clip-path-23)"><path fill="url(#Degradado_sin_nombre_19)" d="M24.45 13.08h16.52V29.6H24.45z"/></g></g></g><path d="M31.71 20.63c0-.1-.69-1.55-1.43-3.06s-1.7-3.35-1.73-3.42-.13-.22-.21-.22-.13.08-.21.22-1 1.83-1.74 3.42S25 20.54 25 20.63a1.45 1.45 0 0 0-.17.58 1.49 1.49 0 0 0 .17.59c0 .1.69 1.56 1.43 3.07s1.7 3.34 1.73 3.41.13.22.2.22.14-.09.2-.22.93-1.77 1.73-3.41 1.38-3 1.43-3.07a1.38 1.38 0 0 0 .17-.58 1.4 1.4 0 0 0-.16-.59m-.14 1.09s-.67 1.5-1.43 3.07c-.68 1.4-1.43 2.83-1.71 3.38 0 .05-.05.09-.06.09s0 0-.06-.09v-.08c-.81-1.54-1.36-2.66-1.69-3.32-.73-1.49-1.38-3-1.43-3.06a1.34 1.34 0 0 1-.15-.51 1.33 1.33 0 0 1 .15-.51v-.09c.46-1 .93-2 1.38-3 .8-1.63 1.73-3.4 1.74-3.41s0-.1.06-.1 0 0 .07.1.91 1.73 1.73 3.41c.72 1.48 1.35 2.9 1.42 3.06a1.26 1.26 0 0 1 .15.52 1.22 1.22 0 0 1-.15.5"/><path d="M40.11 20.41c-.43-.91-1.79-3.57-2.93-5.65-1.57-2.85-4.38-7.54-4.7-8a.9.9 0 0 0-.78-.47c-.42 0-2.22-.07-3.31-.07-.93 0-2.9 0-3.35.07a.94.94 0 0 0-.8.5c-.34.44-3.19 5.27-4.68 7.95-1.08 1.94-2.78 5.29-2.94 5.65a2 2 0 0 0-.21.81 1.92 1.92 0 0 0 .21.81c.36.77 1.43 2.92 2.93 5.65s4.4 7.56 4.7 8a.92.92 0 0 0 .81.48c.44 0 2.31.07 3.32.07s3 0 3.32-.07a.93.93 0 0 0 .81-.48c.29-.4 3.33-5.47 4.7-8s2.73-5.26 2.9-5.66a1.85 1.85 0 0 0 .21-.81 1.89 1.89 0 0 0-.21-.81M40 22c-.17.37-1.62 3.24-2.93 5.64s-4.4 7.56-4.69 8a.77.77 0 0 1-.69.41c-.27 0-2.22.07-3.31.07S25.47 36 25 36a.76.76 0 0 1-.69-.41c-.3-.41-3.12-5.11-4.69-8s-2.53-4.87-2.89-5.59a1.77 1.77 0 0 1-.19-.74 1.89 1.89 0 0 1 .19-.74c.16-.36 1.86-3.7 2.93-5.63 1.48-2.68 4.33-7.49 4.66-7.93s.32-.4.68-.43 2.41-.07 3.34-.07c1.08 0 2.87 0 3.29.07.27 0 .4 0 .67.41s3.16 5.06 4.7 7.9c1.14 2.08 2.5 4.73 2.93 5.64a1.74 1.74 0 0 1 .19.73A1.71 1.71 0 0 1 40 22"/></g></g></svg>