<svg xmlns="http://www.w3.org/2000/svg" xmlns:xlink="http://www.w3.org/1999/xlink" width="20mm" height="15mm" viewBox="0 0 56.69 42.52"><defs><style>.cls-6{fill:#fff}</style><linearGradient id="Безымянный_градиент_48" data-name="Безымянный градиент 48" x1="225.95" y1="-449.25" x2="225.95" y2="-473.62" gradientTransform="matrix(1 0 0 -1 -197.6 -442.56)" gradientUnits="userSpaceOnUse"><stop offset=".19" stop-color="#fff"/><stop offset=".21" stop-color="#f7f8f8"/><stop offset=".37" stop-color="#afafaf"/><stop offset=".51" stop-color="#717171"/><stop offset=".65" stop-color="#414141"/><stop offset=".76" stop-color="#1d1d1d"/><stop offset=".86" stop-color="#0a0a0a"/><stop offset=".92" stop-color="#010101"/></linearGradient><radialGradient id="Безымянный_градиент_47" data-name="Безымянный градиент 47" cx="216.13" cy="-442.78" r="24.38" gradientTransform="matrix(1 0 0 -1 -197.6 -442.56)" gradientUnits="userSpaceOnUse"><stop offset=".2" stop-color="#fff"/><stop offset=".38" stop-color="#fff"/><stop offset=".49" stop-color="#f4f4f4"/><stop offset=".57" stop-color="#e6e6e5"/><stop offset=".65" stop-color="#d2d3d3"/><stop offset=".69" stop-color="#c4c4c4"/><stop offset="1" stop-color="#333"/></radialGradient><radialGradient id="Безымянный_градиент_46" data-name="Безымянный градиент 46" cx="275.14" cy="-481.84" r="50.78" gradientTransform="matrix(1 0 0 -1 -197.6 -442.56)" gradientUnits="userSpaceOnUse"><stop offset=".2" stop-color="#fff"/><stop offset=".37" stop-color="#e4e4e4"/><stop offset=".59" stop-color="#c4c4c4"/><stop offset="1" stop-color="#333"/></radialGradient><radialGradient id="Безымянный_градиент_46-2" cx="221.99" cy="-470.63" r="15.59" xlink:href="#Безымянный_градиент_46"/><radialGradient id="Безымянный_градиент_46-3" cx="234.57" cy="-486.58" r="29.58" xlink:href="#Безымянный_градиент_46"/><radialGradient id="Безымянный_градиент_45" data-name="Безымянный градиент 45" cx="225.71" cy="-451.89" r="23.51" gradientTransform="matrix(1 0 0 -1 -197.6 -442.56)" gradientUnits="userSpaceOnUse"><stop offset=".2" stop-color="#fff"/><stop offset=".4" stop-color="#fff"/><stop offset=".51" stop-color="#f4f4f4"/><stop offset=".6" stop-color="#e6e6e5"/><stop offset=".68" stop-color="#d2d3d3"/><stop offset=".73" stop-color="#c4c4c4"/><stop offset="1" stop-color="#4e4e4e"/></radialGradient><radialGradient id="Безымянный_градиент_44" data-name="Безымянный градиент 44" cx="226.26" cy="-454.24" r="15.83" gradientTransform="matrix(1 0 0 -1 -197.6 -442.56)" gradientUnits="userSpaceOnUse"><stop offset=".11" stop-color="#4e4e4e"/><stop offset=".25" stop-color="#4a4a4a"/><stop offset=".35" stop-color="#414141"/><stop offset=".45" stop-color="#302f2f"/><stop offset=".54" stop-color="#191918"/><stop offset=".61" stop-color="#010101"/></radialGradient></defs><g id="Слой_2" data-name="Слой 2"><g id="Слой_1-2" data-name="Слой 1"><path fill="none" d="M0 0h56.69v42.52H0z"/><path d="M44.62 17.6a9.77 9.77 0 0 0-1.43-.23c-3.15-.14-10.89-.44-14.84-.44s-11.7.3-14.84.44a9.77 9.77 0 0 0-1.43.23c-1 .23-1.21.58-1.21 1.29v4.84c0 .7.75 1.19 1.28 1.28a12.24 12.24 0 0 0 1.4.19c2.8.17 9.32.54 14.81.54s12-.37 14.81-.54a12.24 12.24 0 0 0 1.4-.19c.52-.09 1.28-.58 1.28-1.28v-4.84c-.02-.72-.23-1.07-1.23-1.29z" fill="url(#Безымянный_градиент_48)"/><path d="M15.76 17.79a13.24 13.24 0 0 1 25.27 0 .06.06 0 0 0 0 .05 18.68 18.68 0 0 0 2.26-.4.11.11 0 0 1 0-.07 15.53 15.53 0 0 0-29.78 0 16.69 16.69 0 0 0 2.25.42z" fill="url(#Безымянный_градиент_47)"/><path d="M41 24.82a.71.71 0 0 0 0 .12 13.24 13.24 0 0 1-25.14-.12c-1 .17-1.31.24-2.27.37a15.54 15.54 0 0 0 29.72 0c-.91-.11-1.4-.19-2.31-.37z" fill="url(#Безымянный_градиент_46)"/><path d="M16.09 17.77a8.61 8.61 0 0 1 1.29-.56 11.9 11.9 0 0 1 22 0c.3.1 1.14.44 1.4.56H41v-.05a13.24 13.24 0 0 0-25.27 0 1.11 1.11 0 0 0 .36.05z" fill="url(#Безымянный_градиент_46-2)"/><path class="cls-6" d="M28.31 8.84a13 13 0 0 1 12.52 8.9v.05H41v-.05a13.24 13.24 0 0 0-25.27 0h.31a12.92 12.92 0 0 1 12.27-8.9z"/><path d="M40.67 24.83a8.56 8.56 0 0 1-1.31.58v.09a11.92 11.92 0 0 1-21.89-.07 8.12 8.12 0 0 1-1.47-.58.66.66 0 0 1-.21 0 13.23 13.23 0 0 0 25.21.07.4.4 0 0 1 0-.07.85.85 0 0 0-.33-.02z" fill="url(#Безымянный_градиент_46-3)"/><path d="M44.34 17.94c-.84-.1-1.4-.09-3.43-.16a1.5 1.5 0 0 1-.28 0c-3.67-.12-9.18-.3-12.29-.3s-8.64.17-12.29.3a1.5 1.5 0 0 0-.28 0c-2 .07-2.59.05-3.43.16s-1.49.45-1.49 1.08v4.49c0 .61.79 1.12 1.49 1.12 0 0 8.86.54 16 .56s16-.56 16-.56c.7 0 1.49-.51 1.49-1.12V19c0-.6-.65-1-1.49-1.06z" fill="url(#Безымянный_градиент_45)"/><path class="cls-6" d="M40.67 24.83a13 13 0 0 1-24.64 0 .85.85 0 0 1-.21 0 13.24 13.24 0 0 0 25.18 0z"/><path d="M40.67 24.83a9.56 9.56 0 0 1-1.33.58v.09A11.58 11.58 0 0 1 37 29.07a12.59 12.59 0 0 0 3.67-4.24z" fill="#8c8c8c"/><path d="M20.16 29.38a11.47 11.47 0 0 1-2.71-4 8.12 8.12 0 0 1-1.45-.55 11.2 11.2 0 0 0 1 1.66 13.29 13.29 0 0 0 2.76 2.66z" fill="#4e4e4e"/><path d="M15.81 24.82c-1 .17-1.31.24-2.27.37a7.45 7.45 0 0 0 .26.82z" fill="#252525"/><path id="NISSAN" d="M35.45 19.92c-.3-.65-.19-.58-.82-.59a1.93 1.93 0 0 0-.38 0 2.59 2.59 0 0 0-.38 0c-.59 0-.49 0-.7.4 0 0-1 2.31-1.47 3.27-.09.17 0 .17.1.17h.93a.13.13 0 0 0 .12-.07s.14-.3.31-.7h2.26c.17.4.3.68.3.7a.12.12 0 0 0 .12.07h1c.14 0 .17 0 .12-.1-.17-.42-1.29-2.82-1.45-3.18zm-2 1.7c.3-.68.58-1.35.58-1.36a.11.11 0 0 1 .1-.05h.22a.09.09 0 0 1 .09.07c.07.19.33.77.56 1.35h-1.51zm-12.32-2.35c.09 0 .1 0 .1.1v3.67c0 .09 0 .12-.12.12h-.89c-.1 0-.12 0-.12-.12v-3.66c0-.07 0-.1.09-.1zm-1.91 0c.1 0 .12 0 .12.12v3.65c0 .1 0 .12-.12.12h-1c-.61 0-.66 0-.87-.35-.42-.66-1.71-2.64-1.71-2.64v2.87c0 .1 0 .12-.12.12h-.77c-.1 0-.12 0-.12-.12v-3.61c0-.09 0-.12.12-.12h.89c.66 0 .75 0 1 .33s1.75 2.71 1.75 2.71v-2.92c0-.09 0-.12.12-.12zm22.9 0c.1 0 .12 0 .12.12v3.65c0 .1 0 .12-.12.12h-1c-.61 0-.66 0-.87-.35l-1.71-2.64v2.87c0 .1 0 .12-.12.12h-.82c-.1 0-.12 0-.12-.12v-3.61c0-.09 0-.12.12-.12h.89c.66 0 .75 0 1 .33s1.75 2.71 1.75 2.71v-2.92c0-.09 0-.12.12-.12zm-17.06 1.52c.68.07 1.19.19 1.33.84v.42a1.77 1.77 0 0 1 0 .42c-.12.61-.58.73-1.31.73h-2.91c-.1 0-.12 0-.12-.12v-.61c0-.1 0-.12.12-.12h2.92c.12 0 .16 0 .17-.12V22c0-.07 0-.17-.19-.19-.33 0-1.29-.1-1.94-.17-.84-.09-1-.44-1.08-.75a2.46 2.46 0 0 1 0-.37 3 3 0 0 1 0-.38c.12-.54.52-.8 1.26-.8h2.8c.1 0 .14 0 .14.1V20c0 .09 0 .12-.14.1h-2.75c-.12 0-.17.05-.19.17v.16c0 .09.05.16.17.17.31.05 1.33.12 1.71.16zm4.95 0c.68.07 1.19.19 1.33.84v.42a1.77 1.77 0 0 1 0 .42c-.12.61-.58.73-1.31.73h-2.89c-.1 0-.12 0-.12-.12v-.61c0-.1 0-.12.12-.12h2.92c.12 0 .16 0 .17-.12V22a.22.22 0 0 0-.19-.19c-.33 0-1.29-.1-1.94-.17-.84-.09-1-.44-1.08-.75a2.46 2.46 0 0 1 0-.37 3 3 0 0 1 0-.38c.12-.54.52-.8 1.26-.8h2.8c.1 0 .14 0 .14.1V20c0 .09 0 .12-.14.1h-2.75c-.12 0-.17.05-.19.17v.16c0 .09 0 .16.17.17.31.05 1.33.12 1.7.16z" fill="url(#Безымянный_градиент_44)"/></g></g></svg>