<svg xmlns="http://www.w3.org/2000/svg" xmlns:xlink="http://www.w3.org/1999/xlink" width="20mm" height="15mm" viewBox="0 0 56.69 42.52"><defs><radialGradient id="b" cx="17.96" cy="18.35" r="30.34" gradientUnits="userSpaceOnUse"><stop offset="0" stop-color="#fff"/><stop offset=".01" stop-color="#fefefe"/><stop offset=".06" stop-color="#f9f9f7"/><stop offset=".22" stop-color="#f8f8f5"/><stop offset=".37" stop-color="#b9b9b6"/><stop offset=".5" stop-color="#888886"/><stop offset=".59" stop-color="#6a6a68"/><stop offset=".65" stop-color="#5f5f5d"/><stop offset=".73" stop-color="#565553"/><stop offset=".87" stop-color="#3c3a37"/><stop offset="1" stop-color="#221e1a"/></radialGradient><linearGradient id="c" data-name="GradientFill 2" x1="22.61" y1="19.28" x2="33.49" y2="23.03" gradientUnits="userSpaceOnUse"><stop offset="0" stop-color="#dddcd4"/><stop offset="1" stop-color="#fff"/></linearGradient><radialGradient id="d" cx="36.98" cy="30.58" r="33.3" gradientUnits="userSpaceOnUse"><stop offset="0" stop-color="#bdbdb8"/><stop offset="1" stop-color="#818179"/></radialGradient><radialGradient id="e" cx="33.58" cy="26.5" r="23.38" gradientUnits="userSpaceOnUse"><stop offset="0" stop-color="#fff"/><stop offset=".16" stop-color="#f2f3f3"/><stop offset=".3" stop-color="#e4e5e6"/><stop offset=".3" stop-color="#e2e3e4"/><stop offset=".37" stop-color="#bdbebd"/><stop offset=".44" stop-color="#9fa09f"/><stop offset=".51" stop-color="#8a8b89"/><stop offset=".58" stop-color="#7d7e7b"/><stop offset=".64" stop-color="#797a77"/><stop offset=".74" stop-color="#585753"/><stop offset=".85" stop-color="#3a3834"/><stop offset=".94" stop-color="#282521"/><stop offset="1" stop-color="#221e1a"/></radialGradient><linearGradient id="a" x1="15.13" y1="24.8" x2="15.13" y2="24.72" gradientUnits="userSpaceOnUse"><stop offset="0" stop-color="#fff"/><stop offset=".16" stop-color="#f9f9f6"/><stop offset=".17" stop-color="#f8f8f5"/><stop offset=".43" stop-color="#b2b3ad"/><stop offset=".5" stop-color="#92938d"/><stop offset=".61" stop-color="#6c6c66"/><stop offset=".71" stop-color="#4e4d48"/><stop offset=".81" stop-color="#393832"/><stop offset=".91" stop-color="#2c2a25"/><stop offset="1" stop-color="#282621"/></linearGradient><linearGradient id="f" x1="17.18" y1="24.49" x2="17.18" y2="24.46" xlink:href="#a"/><linearGradient id="g" x1="17.18" y1="24.56" x2="17.18" y2="24.53" xlink:href="#a"/><linearGradient id="h" x1="15.82" y1="24.8" x2="15.82" y2="24.72" xlink:href="#a"/><linearGradient id="i" x1="17.54" y1="24.63" x2="17.54" y2="24.57" xlink:href="#a"/><linearGradient id="j" x1="17.14" y1="26.09" x2="17.14" y2="25.04" xlink:href="#a"/><linearGradient id="k" x1="17.54" y1="24.52" x2="17.54" y2="24.48" xlink:href="#a"/><linearGradient id="l" x1="-111.75" y1="26.09" x2="-111.75" y2="25.04" gradientTransform="matrix(-1 0 0 1 -72.19 0)" xlink:href="#a"/><radialGradient id="m" cx="14.73" cy="18.35" r="18.88" gradientUnits="userSpaceOnUse"><stop offset="0" stop-color="#0072bc"/><stop offset=".03" stop-color="#006fb7"/><stop offset=".14" stop-color="#06a"/><stop offset=".24" stop-color="#0063a5"/><stop offset=".48" stop-color="#005894"/><stop offset=".84" stop-color="#004274"/><stop offset=".96" stop-color="#004073"/><stop offset="1" stop-color="#003b70"/></radialGradient><linearGradient id="n" x1="42.34" y1="14.35" x2="34.99" y2="6.99" gradientUnits="userSpaceOnUse"><stop offset=".01" stop-color="#222003"/><stop offset=".65" stop-color="#43423f"/><stop offset=".65" stop-color="#474643"/><stop offset=".66" stop-color="#54534f"/><stop offset=".66" stop-color="#686764"/><stop offset=".67" stop-color="#858480"/><stop offset=".67" stop-color="#aaaaa5"/><stop offset=".68" stop-color="#d7d7d2"/><stop offset=".68" stop-color="#fbfbf5"/><stop offset=".68" stop-color="#f8f8f2"/><stop offset=".68" stop-color="#f0f0ea"/><stop offset=".69" stop-color="#e1e1db"/><stop offset=".69" stop-color="#ccccc6"/><stop offset=".69" stop-color="#b1b2ab"/><stop offset=".69" stop-color="#90918a"/><stop offset=".69" stop-color="#6d6e67"/><stop offset=".71" stop-color="#5a5a55"/><stop offset=".73" stop-color="#464442"/><stop offset=".76" stop-color="#363332"/><stop offset=".8" stop-color="#2b2828"/><stop offset=".85" stop-color="#252122"/><stop offset="1" stop-color="#231f20"/></linearGradient><radialGradient id="o" cx="41.74" cy="7.48" r="7.89" gradientUnits="userSpaceOnUse"><stop offset="0" stop-color="#565651"/><stop offset="1" stop-color="#51514c"/></radialGradient><linearGradient id="p" x1="36.07" y1="6.66" x2="42.97" y2="6.66" gradientUnits="userSpaceOnUse"><stop offset="0" stop-color="#5c5d60"/><stop offset=".09" stop-color="#505051"/><stop offset=".26" stop-color="#3e3e3c"/><stop offset=".45" stop-color="#32302d"/><stop offset=".67" stop-color="#2a2824"/><stop offset="1" stop-color="#282621"/></linearGradient><linearGradient id="q" x1="42.9" y1="13.54" x2="42.9" y2="6.59" gradientUnits="userSpaceOnUse"><stop offset="0" stop-color="#5c5d60"/><stop offset=".11" stop-color="#545456"/><stop offset=".46" stop-color="#3c3b39"/><stop offset=".77" stop-color="#2d2c27"/><stop offset="1" stop-color="#282621"/></linearGradient><linearGradient id="r" x1="17.38" y1="15.21" x2="21.79" y2="21.18" gradientUnits="userSpaceOnUse"><stop offset="0" stop-color="#fff"/><stop offset=".11" stop-color="#d8eaf5"/><stop offset=".34" stop-color="#8cc0e1"/><stop offset=".54" stop-color="#509ed1"/><stop offset=".71" stop-color="#2586c6"/><stop offset=".85" stop-color="#0a77bf"/><stop offset=".93" stop-color="#0072bc"/><stop offset=".93" stop-color="#0272bc"/><stop offset=".95" stop-color="#247bc1"/><stop offset=".97" stop-color="#3c82c4"/><stop offset=".99" stop-color="#4b86c6"/><stop offset="1" stop-color="#5087c7"/></linearGradient></defs><g data-name="Слой 2"><g data-name="Слой 1"><path fill="none" d="M0 0h56.69v42.52H0z"/><path d="M28.35 11.73a9.52 9.52 0 0 1 9.49 9.54A9.31 9.31 0 0 1 35 28a9.42 9.42 0 0 1-6.7 2.79A9.62 9.62 0 0 1 21.6 28a9.51 9.51 0 0 1-2.79-6.7 9.52 9.52 0 0 1 9.54-9.54zm0 .15A9.44 9.44 0 0 0 19 21.26a9.44 9.44 0 0 0 9.39 9.34 9.35 9.35 0 0 0 9.34-9.34 9.35 9.35 0 0 0-9.34-9.39z" fill-rule="evenodd" fill="#bdbdb7"/><path d="M28.35 6.69a14.62 14.62 0 0 1 8.85 3l1.61-1.61 2.84 2.84L40 12.56a14.54 14.54 0 1 1-11.65-5.87zm0 3.42a11.1 11.1 0 1 0 11.1 11.1 11.13 11.13 0 0 0-11.1-11.1z" fill="url(#b)" fill-rule="evenodd"/><path d="M28.35 10.06a11.19 11.19 0 0 1 11.2 11.2 11.19 11.19 0 0 1-11.2 11.2 11.19 11.19 0 0 1-11.2-11.2 11.16 11.16 0 0 1 3.28-7.92 11 11 0 0 1 7.92-3.28zm0 .15a11.06 11.06 0 0 0-7.83 3.23 11 11 0 0 0-3.23 7.83 11.06 11.06 0 0 0 3.23 7.83 11.27 11.27 0 0 0 7.83 3.23 11.27 11.27 0 0 0 7.83-3.23 11.06 11.06 0 0 0 3.23-7.83 11 11 0 0 0-11.06-11.06z" fill="url(#c)" fill-rule="evenodd"/><path d="M28.35 6.59a14.5 14.5 0 0 1 8.9 3 14.58 14.58 0 1 0 5.67 11.54A14.45 14.45 0 0 0 40 12.56a14.53 14.53 0 0 1 3 8.65 14.64 14.64 0 0 1-4.3 10.37 14.48 14.48 0 0 1-10.32 4.26A14.57 14.57 0 0 1 18 31.58a14.73 14.73 0 0 1-4.3-10.37A14.7 14.7 0 0 1 28.35 6.59z" fill="url(#d)" fill-rule="evenodd"/><path d="M28.35 10.16a11.1 11.1 0 1 1-11.1 11.1 11.09 11.09 0 0 1 11.1-11.1zm0 1.57a9.51 9.51 0 1 0 9.49 9.54 9.51 9.51 0 0 0-9.49-9.54z" fill="url(#e)" fill-rule="evenodd"/><path d="M15.07 24.74v-.11h-.08a.07.07 0 0 0 .08.11z" style="mix-blend-mode:multiply" fill="url(#a)" opacity=".67" fill-rule="evenodd"/><path style="mix-blend-mode:multiply" fill="url(#f)" opacity=".67" d="M17.14 24.43h.07v.06h-.07z"/><path style="mix-blend-mode:multiply" fill="url(#g)" opacity=".67" d="M17.14 24.5h.07v.06h-.07z"/><path d="M15.76 24.74v-.11h-.08a.07.07 0 0 0 .08.11z" style="mix-blend-mode:multiply" fill="url(#h)" opacity=".67" fill-rule="evenodd"/><path style="mix-blend-mode:multiply" fill="url(#i)" opacity=".67" d="M17.44 24.53h.19v.09h-.19z"/><path d="M19.34 24.22h-5.2a14.36 14.36 0 0 0 .5 1.78h5.5a9.44 9.44 0 0 1-.8-1.78zm-2.22.11v.06h.06v.06h-.06v.08h-.07v.07h.05-.1v.06h.08-.13V24.64h.16v-.06H17h.09v-.07H17h.09v-.01H17h.11v-.06h-.07.08v-.1zm-2.12.48h-.1v-.33.38h.1zm.26 0h-.05a.09.09 0 0 1 0-.07.21.21 0 0 1 .11 0h-.08.11v.15a.08.08 0 0 1-.12-.09zm.23 0h-.05v-.15h-.06v.16-.2.05a.11.11 0 0 1 0 .06v.15zm.19 0a.12.12 0 0 1 0-.06v-.16a.11.11 0 0 0 0-.05v.26h.06a.11.11 0 0 1-.08-.01zm.26 0h-.05a.09.09 0 0 1 0-.07.21.21 0 0 1 .11 0h-.08.11v.15a.08.08 0 0 1-.11-.09zm.22-.2v.18-.19.08-.06zm.51.12v.09a.07.07 0 0 1 0 .07l-.06-.05h.05v-.08h-.18.2V24.64h-.16.21zm.18-.14a.28.28 0 0 1-.14-.17v0a.4.4 0 0 1-.19.19.43.43 0 0 0 .16-.19h-.15.19v-.08h.13-.17a.22.22 0 0 0 .17.14zm.46.25h-.22l-.09-.05a.29.29 0 0 1-.08.09.3.3 0 0 0 .08-.1.45.45 0 0 1 0-.12v.1a.73.73 0 0 0 0-.16h-.05l.06-.13h-.11.1l-.06.13a.77.77 0 0 1 0 .16h.32zm.44 0h-.09l-.07-.07a.34.34 0 0 1 0-.12h-.06v.18l.1-.05a.4.4 0 0 0-.11.1v-.36-.06h.09a.18.18 0 0 0 0-.08h.13v.19h-.12a.33.33 0 0 0 0 .1.4.4 0 0 0 .11-.09l-.11.05a.2.2 0 0 0 .08.06h.09z" style="mix-blend-mode:multiply" fill="url(#j)" opacity=".67" fill-rule="evenodd"/><path style="mix-blend-mode:multiply" fill="url(#k)" opacity=".67" d="M17.44 24.44h.19v.08h-.19z"/><path d="M37.36 24.22h5.2a14.38 14.38 0 0 1-.5 1.78h-5.5a9.44 9.44 0 0 0 .8-1.78z" style="mix-blend-mode:multiply" opacity=".86" fill="url(#l)" fill-rule="evenodd"/><path d="M42.82 17.55a13 13 0 0 1 .49 3.67 16.3 16.3 0 0 1-.49 3.78h-28.9 28.86a14.06 14.06 0 0 0 .49-3.81 14.39 14.39 0 0 0-.45-3.64z" fill="#231f20" fill-rule="evenodd"/><path d="M13.87 17.5h29a15.07 15.07 0 0 1 .44 3.67 14.06 14.06 0 0 1-.53 3.83H13.92a14.09 14.09 0 0 1-.54-3.81 15.07 15.07 0 0 1 .49-3.69z" fill="url(#m)" fill-rule="evenodd"/><path fill="url(#n)" fill-rule="evenodd" d="M39.4 7.08l3.23 3.23-2.4 2.39.15.2-1.71 1.37-.54.19 3.52-3.57-2.84-2.83-3.52 3.52.15-.49 3.96-4.01z"/><path d="M36.17 6.74a16.86 16.86 0 0 1 6.7 6.65V6.74z" fill="url(#o)" fill-rule="evenodd"/><path d="M36.17 6.74a16.86 16.86 0 0 1 6.7 6.65" stroke-linecap="round" stroke="#a8a89d" stroke-width=".48" fill-rule="evenodd" fill="none"/><path d="M36.17 6.74a16.74 16.74 0 0 1 6.65 6.65" stroke="#c3c3ba" stroke-width=".33" stroke-linecap="round" fill-rule="evenodd" fill="none"/><path d="M36.12 6.74a16.67 16.67 0 0 1 6.7 6.7" stroke="#e1e0d9" stroke-width=".19" stroke-linecap="round" fill-rule="evenodd" fill="none"/><path d="M36.12 6.74a16.86 16.86 0 0 1 6.65 6.7" stroke="#fff" stroke-width=".04" stroke-linecap="round" fill-rule="evenodd" fill="none"/><path d="M42.87 6.59s.1 0 .1.15h-6.9c0-.1 0-.15.1-.15z" fill="url(#p)" fill-rule="evenodd"/><path d="M43 13.39c0 .1 0 .15-.1.15V6.59s.1 0 .1.15z" fill="url(#q)" fill-rule="evenodd"/><g><path d="M38.81 23.07c-1.32 0-2.39-.81-2.39-1.8s1.07-1.8 2.39-1.8 2.44.81 2.44 1.8-1.09 1.8-2.44 1.8zm0-3c-.46 0-.79.52-.79 1.23s.34 1.18.79 1.18.79-.54.79-1.18-.35-1.3-.79-1.3zm-14.87 3c-1.32 0-2.39-.81-2.39-1.8s1.09-1.75 2.39-1.75 2.44.79 2.44 1.75-1.09 1.8-2.44 1.8zm0-3c-.45 0-.79.51-.79 1.18s.34 1.18.79 1.18.79-.54.79-1.18-.36-1.17-.79-1.17zM32.65 23l-1.55-2.89h-.75v-.48h3.37v.48h-.87l1.21 1.94 1-2-.55.06v-.48h2.34v.48h-.82L34.49 23zm-6.11 0v-.58h.83v-2.26h-.74v-.48h3.12v.48h-.82v2.26h.79a1 1 0 0 0 1-.94h.53v1.6zm-8.76 0l-1.55-2.86h-.75v-.48h3.37v.48h-.87l1.21 1.94 1-2-.6.06v-.48h2.34v.48h-.83L19.62 23z" fill="#fff" fill-rule="evenodd"/><path d="M38.81 19.5c1.32 0 2.4.78 2.4 1.76S40.13 23 38.81 23s-2.35-.78-2.35-1.76 1.08-1.76 2.35-1.76m0 3c.44 0 .83-.54.83-1.22S39.25 20 38.81 20s-.83.54-.83 1.27.34 1.22.83 1.22m-14.87-2.94c1.32 0 2.4.78 2.4 1.71S25.27 23 23.94 23s-2.35-.78-2.35-1.76 1.08-1.71 2.35-1.71m0 2.93c.44 0 .83-.54.83-1.22S24.38 20 23.94 20s-.83.54-.83 1.22.34 1.22.83 1.22m12.81-2.84v.44H36l-1.52 2.84h-1.83l-1.52-2.84h-.78v-.44h3.33v.44h-.83l1.17 2 1-2h-.59v-.44h2.3m-7.14 0v.44h-.78v2.3h.83a1 1 0 0 0 1-1h.49v1.52h-4.59v-.54h.78v-2.3h-.78v-.44h3.08m-7.73 0v.44h-.78l-1.52 2.84h-1.81l-1.52-2.84h-.78v-.44h3.33v.44H18l1.17 2 1.08-2h-.64v-.44h2.3m16.92-.23a2.2 2.2 0 0 0-2.43 1.85 2.2 2.2 0 0 0 2.43 1.85c1.37 0 2.48-.83 2.48-1.85s-1.11-1.85-2.48-1.85zm0 3c-.43 0-.75-.49-.75-1.14s.31-1.19.75-1.19.75.53.75 1.19-.34 1.14-.75 1.14zm-14.89-2.88c-1.32 0-2.43.82-2.43 1.8a2.2 2.2 0 0 0 2.43 1.85c1.37 0 2.48-.83 2.48-1.85s-1.11-1.8-2.48-1.8zm0 2.93c-.43 0-.75-.49-.75-1.14s.32-1.14.75-1.14.75.52.75 1.14-.34 1.14-.75 1.14zm12.9-2.84h-2.46v.61h.53L34 21.92l-1-1.74h.77v-.61h-3.5v.61h.82L32.58 23h1.91L36 20.17h.82v-.61zm-7.14 0h-3.25v.61h.78v2.13h-.78v.7h4.82v-1.68h-.65v.08a.94.94 0 0 1-.94.9h-.75v-2.13h.78v-.61zm-7.73 0h-2.46v.61h.58l-.94 1.75-1-1.75h.77v-.61H15.4v.61h.82L17.71 23h1.91l1.49-2.79H22v-.61z" fill="#363639"/></g><path d="M13.92 17.55a15.08 15.08 0 0 0-.49 3.67v.83l.08.94V21.3a14.73 14.73 0 0 1 .49-3.62h10.25l4.42-.08z" fill="url(#r)"/></g></g></svg>