<svg xmlns="http://www.w3.org/2000/svg" xmlns:xlink="http://www.w3.org/1999/xlink" width="20mm" height="15mm" viewBox="0 0 56.69 42.52"><defs><style>.cls-1{fill:none}.cls-7{fill:#abadb0}.cls-10{fill:#fff}</style><linearGradient id="linear-gradient" x1="28.35" y1="30.5" x2="28.35" y2="7.92" gradientUnits="userSpaceOnUse"><stop offset="0" stop-color="#666"/><stop offset=".5" stop-color="#8c8c8c"/><stop offset="1" stop-color="#e6e6e6"/></linearGradient><linearGradient id="linear-gradient-2" x1="47.01" y1="20.01" x2="9.69" y2="20.01" gradientUnits="userSpaceOnUse"><stop offset="0"/><stop offset=".35"/><stop offset=".6" stop-color="#ededed"/><stop offset="1" stop-color="#ededed"/></linearGradient><linearGradient id="linear-gradient-3" x1="9.1" y1="30.34" x2="9.1" y2="30.14" gradientUnits="userSpaceOnUse"><stop offset="0"/><stop offset="1" stop-color="#666"/></linearGradient><linearGradient id="linear-gradient-4" x1="8.1" y1="19.21" x2="48.59" y2="19.21" gradientUnits="userSpaceOnUse"><stop offset="0"/><stop offset=".15"/><stop offset=".5" stop-color="#ededed"/><stop offset="1" stop-color="#ededed"/></linearGradient><linearGradient id="linear-gradient-5" x1="47.6" y1="30.34" x2="47.6" y2="30.14" gradientUnits="userSpaceOnUse"><stop offset="0"/><stop offset="1" stop-color="gray"/></linearGradient><linearGradient id="linear-gradient-6" x1="13.14" y1="31.15" x2="20.63" y2="23.65" gradientUnits="userSpaceOnUse"><stop offset="0" stop-color="#666"/><stop offset="1" stop-color="#e6e6e6"/></linearGradient><linearGradient id="linear-gradient-7" x1="20.41" y1="30.34" x2="20.41" y2="30.14" gradientUnits="userSpaceOnUse"><stop offset="0"/><stop offset="1" stop-color="#4d4d4d"/></linearGradient><linearGradient id="linear-gradient-8" x1="14.61" y1="25.7" x2="16.88" y2="25.7" gradientUnits="userSpaceOnUse"><stop offset="0" stop-color="#ededed"/><stop offset="1" stop-color="#ccc"/></linearGradient><linearGradient id="linear-gradient-9" x1="18.05" y1="25.77" x2="17.9" y2="25.62" gradientUnits="userSpaceOnUse"><stop offset="0" stop-color="#4d4d4d"/><stop offset="1"/></linearGradient><linearGradient id="linear-gradient-10" x1="21.74" y1="24.46" x2="21.74" y2="30.34" gradientUnits="userSpaceOnUse"><stop offset="0" stop-color="#ededed"/><stop offset="1" stop-color="#d9d9d9"/></linearGradient><linearGradient id="linear-gradient-11" x1="18.1" y1="28.51" x2="17.96" y2="28.37" xlink:href="#linear-gradient-7"/><linearGradient id="linear-gradient-12" x1="15.67" y1="28.51" x2="15.81" y2="28.37" xlink:href="#linear-gradient-7"/><linearGradient id="linear-gradient-13" x1="14.7" y1="27.15" x2="14.7" y2="30.34" gradientUnits="userSpaceOnUse"><stop offset="0"/><stop offset="1" stop-color="#ededed"/></linearGradient><linearGradient id="linear-gradient-14" x1="13.36" y1="30.34" x2="13.36" y2="30.14" xlink:href="#linear-gradient-7"/><linearGradient id="linear-gradient-15" x1="11.92" y1="27.4" x2="12.13" y2="27.4" xlink:href="#linear-gradient-7"/><linearGradient id="linear-gradient-16" x1="28.35" y1="30.14" x2="28.35" y2="24.66" gradientUnits="userSpaceOnUse"><stop offset="0" stop-color="#bfbfbf"/><stop offset="1" stop-color="#e6e6e6"/></linearGradient><linearGradient id="linear-gradient-17" x1="28.35" y1="27.28" x2="26.74" y2="27.28" xlink:href="#linear-gradient-13"/><linearGradient id="linear-gradient-18" x1="24.82" y1="27.4" x2="25" y2="27.51" xlink:href="#linear-gradient-7"/><linearGradient id="linear-gradient-19" x1="26.74" y1="28.42" x2="29.96" y2="28.42" xlink:href="#linear-gradient-10"/><linearGradient id="linear-gradient-20" x1="28.35" y1="27.28" x2="29.96" y2="27.28" xlink:href="#linear-gradient-7"/><linearGradient id="linear-gradient-21" x1="24.36" y1="30.34" x2="24.36" y2="30.14" xlink:href="#linear-gradient-7"/><linearGradient id="linear-gradient-22" x1="25.91" y1="29.84" x2="26.08" y2="29.95" xlink:href="#linear-gradient-9"/><linearGradient id="linear-gradient-23" x1="28.35" y1="29.65" x2="28.35" y2="29.44" xlink:href="#linear-gradient-7"/><linearGradient id="linear-gradient-24" x1="30.63" y1="29.95" x2="30.8" y2="29.84" xlink:href="#linear-gradient-7"/><linearGradient id="linear-gradient-25" x1="32.34" y1="30.34" x2="32.34" y2="30.14" xlink:href="#linear-gradient-7"/><linearGradient id="linear-gradient-26" x1="29.86" y1="27.4" x2="33.8" y2="27.4" xlink:href="#linear-gradient-10"/><linearGradient id="linear-gradient-27" x1="44.51" y1="27.4" x2="35.04" y2="27.4" xlink:href="#linear-gradient-6"/><linearGradient id="linear-gradient-28" x1="34.84" y1="27.4" x2="35.04" y2="27.4" xlink:href="#linear-gradient-7"/><linearGradient id="linear-gradient-29" x1="37.73" y1="26.16" x2="42.04" y2="26.16" gradientUnits="userSpaceOnUse"><stop offset="0" stop-color="#ededed"/><stop offset="1" stop-color="#bfbfbf"/></linearGradient><linearGradient id="linear-gradient-30" x1="41.84" y1="26.16" x2="42.04" y2="26.16" xlink:href="#linear-gradient-7"/><linearGradient id="linear-gradient-31" x1="44.51" y1="27.4" x2="44.71" y2="27.4" xlink:href="#linear-gradient-10"/><linearGradient id="linear-gradient-32" x1="43.22" y1="30.34" x2="43.22" y2="30.14" xlink:href="#linear-gradient-7"/><linearGradient id="linear-gradient-33" x1="39.56" y1="28.74" x2="39.68" y2="28.57" xlink:href="#linear-gradient-7"/><linearGradient id="linear-gradient-34" x1="37.61" y1="26.97" x2="37.61" y2="30.34" xlink:href="#linear-gradient-13"/><linearGradient id="linear-gradient-35" x1="36.28" y1="30.34" x2="36.28" y2="30.14" xlink:href="#linear-gradient-7"/></defs><g id="Слой_2" data-name="Слой 2"><g id="Слой_1-2" data-name="Слой 1"><path class="cls-1" d="M0 0h56.69v42.52H0z"/><path d="M10.18 30.5a18.5 18.5 0 0 1-.13-2.17 18.29 18.29 0 1 1 36.59 0 18.49 18.49 0 0 1-.13 2.17h2.13a20.71 20.71 0 0 0 .11-2.17 20.41 20.41 0 1 0-40.82 0 20.79 20.79 0 0 0 .11 2.17z" fill="url(#linear-gradient)"/><path class="cls-1" d="M8.38 30.14c-.05-.59-.08-1.2-.08-1.8a20 20 0 0 1 40.09 0c0 .61 0 1.21-.08 1.8h-1.39q.09-.89.09-1.8a18.66 18.66 0 0 0-37.32 0q0 .91.09 1.8z"/><path d="M10 30.34a18.68 18.68 0 0 1-.11-2 18.45 18.45 0 1 1 36.8 2l.23-.2q.09-.89.09-1.8a18.66 18.66 0 0 0-37.32 0q0 .91.09 1.8l.23.2z" fill="url(#linear-gradient-2)"/><path fill="url(#linear-gradient-3)" d="M8.2 30.34l.18-.2h1.39l.23.2H8.2z"/><path d="M48.5 30.34c.06-.66.1-1.33.1-2a20.25 20.25 0 1 0-40.49 0c0 .68 0 1.35.1 2l.19-.2c-.05-.59-.08-1.2-.08-1.8a20 20 0 0 1 40.09 0c0 .61 0 1.21-.08 1.8l.19.2z" fill="url(#linear-gradient-4)"/><path fill="url(#linear-gradient-5)" d="M46.7 30.34l.22-.2h1.39l.19.2h-1.8z"/><path class="cls-7" d="M16.88 26.41L19 24.3h3.01v6.2H18.8v-2.46l-1.92 1.92-1.92-1.92v2.46h-3.2v-6.2h3l2.12 2.11z"/><path fill="url(#linear-gradient-6)" d="M16.88 26.93l-2.27-2.27h-2.48v5.48h2.46v-2.99l2.29 2.29 2.29-2.29v2.99h2.47v-5.48h-2.48l-2.28 2.27z"/><path fill="url(#linear-gradient-7)" d="M18.97 30.34l.2-.2h2.47l.2.2h-2.87z"/><path class="cls-10" d="M11.92 24.46l.21.2h2.48l.09-.2h-2.78z"/><path fill="url(#linear-gradient-8)" d="M14.7 24.46l-.09.2 2.27 2.27v-.29l-2.18-2.18z"/><path fill="url(#linear-gradient-9)" d="M16.88 26.64v.29l2.28-2.27-.09-.2-2.19 2.18z"/><path class="cls-10" d="M21.84 24.46l-.2.2h-2.48l-.09-.2h2.77z"/><path fill="url(#linear-gradient-10)" d="M21.84 24.46l-.2.2v5.48l.2.2v-5.88z"/><path d="M18.97 30.34l.2-.2v-2.99l-.2.5v2.69z"/><path fill="url(#linear-gradient-11)" d="M16.88 29.73v-.29l2.29-2.29-.2.5-2.09 2.08z"/><path fill="url(#linear-gradient-12)" d="M16.88 29.73v-.29l-2.29-2.29.21.5 2.08 2.08z"/><path fill="url(#linear-gradient-13)" d="M14.8 30.34l-.21-.2v-2.99l.21.5v2.69z"/><path fill="url(#linear-gradient-14)" d="M14.8 30.34l-.21-.2h-2.46l-.21.2h2.88z"/><path fill="url(#linear-gradient-15)" d="M11.92 24.46l.21.2v5.48l-.21.2v-5.88z"/><path d="M30.05 24.29l4 6.21h-3.3l-.45-.7h-4l-.45.7h-3.3l4-6.21zm-.76 3.87l-.94-1.45-.94 1.45z" fill-rule="evenodd" fill="#abadb0"/><path d="M26.85 24.66l-3.57 5.48h2.43l.45-.7h4.38l.45.7h2.43l-3.57-5.48zm1.5 1.34L30 28.53h-3.26L28.35 26z" fill="url(#linear-gradient-16)"/><path fill="url(#linear-gradient-17)" d="M28.35 26.04v.38l-1.23 1.9-.37.21 1.6-2.49z"/><path fill="url(#linear-gradient-18)" d="M26.74 24.45l.11.21-3.57 5.48-.37.2 3.83-5.89z"/><path fill="url(#linear-gradient-19)" d="M29.96 28.53l-.37-.21h-2.47l-.37.21h3.21z"/><path fill="url(#linear-gradient-20)" d="M29.96 28.53l-.37-.21-1.24-1.9v-.38l1.61 2.49z"/><path fill="url(#linear-gradient-21)" d="M25.82 30.34l-.11-.2h-2.43l-.37.2h2.91z"/><path fill="url(#linear-gradient-22)" d="M25.82 30.34l-.11-.2.45-.7.11.21-.45.69z"/><path fill="url(#linear-gradient-23)" d="M30.43 29.65l.11-.21h-4.38l.11.21h4.16z"/><path fill="url(#linear-gradient-24)" d="M30.43 29.65l.11-.21.45.7-.11.2-.45-.69z"/><path fill="url(#linear-gradient-25)" d="M33.8 30.34l-.38-.2h-2.43l-.11.2h2.92z"/><path fill="url(#linear-gradient-26)" d="M33.8 30.34l-.38-.2-3.56-5.48.11-.21 3.83 5.89z"/><path class="cls-10" d="M26.74 24.45l.11.21h3.01l.11-.21h-3.23z"/><g><path class="cls-7" d="M41.67 24.3h3.21v6.2h-3.21l-3.79-2.8v2.8h-3.2v-6.2h3.17l3.82 2.83V24.3z"/><path fill="url(#linear-gradient-27)" d="M42.04 24.66v3.2l-4.31-3.2h-2.69v5.48h2.47v-3.17l4.29 3.17h2.71v-5.48h-2.47z"/><path fill="url(#linear-gradient-28)" d="M34.84 24.46l.2.2v5.48l-.2.2v-5.88z"/><path class="cls-10" d="M34.84 24.46l.2.2h2.69l.07-.2h-2.96z"/><path fill="url(#linear-gradient-29)" d="M41.84 27.45l.2.41-4.31-3.2.07-.2 4.04 2.99z"/><path fill="url(#linear-gradient-30)" d="M41.84 27.45l.2.41v-3.2l-.2-.2v2.99z"/><path class="cls-10" d="M44.71 24.46l-.2.2h-2.47l-.2-.2h2.87z"/><path fill="url(#linear-gradient-31)" d="M44.71 24.46l-.2.2v5.48l.2.2v-5.88z"/><path fill="url(#linear-gradient-32)" d="M41.73 30.34l.07-.2h2.71l.2.2h-2.98z"/><path fill="url(#linear-gradient-33)" d="M41.73 30.34l.07-.2-4.29-3.17.21.4 4.01 2.97z"/><path fill="url(#linear-gradient-34)" d="M37.72 30.34l-.21-.2v-3.17l.21.4v2.97z"/><path fill="url(#linear-gradient-35)" d="M37.72 30.34l-.21-.2h-2.47l-.2.2h2.88z"/></g></g></g></svg>