<svg xmlns="http://www.w3.org/2000/svg" xmlns:xlink="http://www.w3.org/1999/xlink" width="20mm" height="15mm" viewBox="0 0 56.69 42.52"><defs><style>.cls-25{fill:none}</style><filter id="luminosity-noclip" x="27" y="-8212.75" width="11.97" height="32766" filterUnits="userSpaceOnUse" color-interpolation-filters="sRGB"><feFlood flood-color="#fff" result="bg"/><feBlend in="SourceGraphic" in2="bg"/></filter><linearGradient id="linear-gradient" x1="32.23" y1="30.68" x2="34.12" y2="23.3" gradientUnits="userSpaceOnUse"><stop offset="0" stop-color="#fff"/><stop offset=".63" stop-color="#fff"/><stop offset=".73" stop-color="#aeaeae"/><stop offset=".86" stop-color="#515151"/><stop offset=".96" stop-color="#171717"/><stop offset="1"/></linearGradient><filter id="luminosity-noclip-2" x="26.09" y="-8212.75" width="7.21" height="32766" filterUnits="userSpaceOnUse" color-interpolation-filters="sRGB"><feFlood flood-color="#fff" result="bg"/><feBlend in="SourceGraphic" in2="bg"/></filter><linearGradient id="linear-gradient-2" x1="31.06" y1="27.42" x2="28.48" y2="30.95" gradientUnits="userSpaceOnUse"><stop offset="0"/><stop offset=".51" stop-color="#fff"/><stop offset=".57" stop-color="#fbfbfb"/><stop offset=".64" stop-color="#efefef"/><stop offset=".7" stop-color="#dadada"/><stop offset=".76" stop-color="#bebebe"/><stop offset=".82" stop-color="#999"/><stop offset=".88" stop-color="#6b6b6b"/><stop offset=".94" stop-color="#373737"/><stop offset="1"/></linearGradient><filter id="luminosity-noclip-3" x="12.77" y="-8212.75" width="3.04" height="32766" filterUnits="userSpaceOnUse" color-interpolation-filters="sRGB"><feFlood flood-color="#fff" result="bg"/><feBlend in="SourceGraphic" in2="bg"/></filter><linearGradient id="linear-gradient-3" x1="14.75" y1="26.55" x2="13.31" y2="27.62" gradientUnits="userSpaceOnUse"><stop offset="0"/><stop offset=".1" stop-color="#4a4a4a"/><stop offset=".19" stop-color="#8a8a8a"/><stop offset=".28" stop-color="#bdbdbd"/><stop offset=".35" stop-color="#e1e1e1"/><stop offset=".42" stop-color="#f7f7f7"/><stop offset=".45" stop-color="#fff"/><stop offset=".63" stop-color="#fff"/><stop offset=".64" stop-color="#fff"/><stop offset=".69" stop-color="#fbfbfb"/><stop offset=".74" stop-color="#f0f0f0"/><stop offset=".78" stop-color="#dedede"/><stop offset=".83" stop-color="#c4c4c4"/><stop offset=".87" stop-color="#a2a2a2"/><stop offset=".91" stop-color="#797979"/><stop offset=".95" stop-color="#494949"/><stop offset=".99" stop-color="#121212"/><stop offset="1"/></linearGradient><filter id="luminosity-noclip-4" x="20.43" y="-8212.75" width="4.18" height="32766" filterUnits="userSpaceOnUse" color-interpolation-filters="sRGB"><feFlood flood-color="#fff" result="bg"/><feBlend in="SourceGraphic" in2="bg"/></filter><linearGradient id="linear-gradient-4" x1="22.42" y1="12.26" x2="22.89" y2="13.18" gradientUnits="userSpaceOnUse"><stop offset="0" stop-color="#545454"/><stop offset=".07" stop-color="#585858"/><stop offset=".14" stop-color="#656565"/><stop offset=".22" stop-color="#797979"/><stop offset=".29" stop-color="#969696"/><stop offset=".36" stop-color="#bbb"/><stop offset=".44" stop-color="#e8e8e8"/><stop offset=".47" stop-color="#fff"/><stop offset=".57" stop-color="#fff"/><stop offset=".61" stop-color="#dbdbdb"/><stop offset=".72" stop-color="#7e7e7e"/><stop offset=".81" stop-color="#3a3a3a"/><stop offset=".88" stop-color="#101010"/><stop offset=".91"/></linearGradient><filter id="luminosity-noclip-5" x="21.69" y="-8212.75" width="7.35" height="32766" filterUnits="userSpaceOnUse" color-interpolation-filters="sRGB"><feFlood flood-color="#fff" result="bg"/><feBlend in="SourceGraphic" in2="bg"/></filter><linearGradient id="linear-gradient-5" x1="23.1" y1="17.93" x2="26.9" y2="21.36" gradientUnits="userSpaceOnUse"><stop offset=".07"/><stop offset=".1" stop-color="#252525"/><stop offset=".14" stop-color="#585858"/><stop offset=".18" stop-color="#848484"/><stop offset=".23" stop-color="#aaa"/><stop offset=".27" stop-color="#c9c9c9"/><stop offset=".32" stop-color="#e1e1e1"/><stop offset=".37" stop-color="#f2f2f2"/><stop offset=".43" stop-color="#fcfcfc"/><stop offset=".5" stop-color="#fff"/><stop offset=".57" stop-color="#fcfcfc"/><stop offset=".63" stop-color="#f2f2f2"/><stop offset=".68" stop-color="#e1e1e1"/><stop offset=".73" stop-color="#c9c9c9"/><stop offset=".78" stop-color="#aaa"/><stop offset=".82" stop-color="#848484"/><stop offset=".87" stop-color="#585858"/><stop offset=".91" stop-color="#252525"/><stop offset=".94"/></linearGradient><filter id="luminosity-noclip-6" x="26.18" y="-8212.75" width="8.85" height="32766" filterUnits="userSpaceOnUse" color-interpolation-filters="sRGB"><feFlood flood-color="#fff" result="bg"/><feBlend in="SourceGraphic" in2="bg"/></filter><linearGradient id="linear-gradient-6" x1="32.63" y1="25.26" x2="29.12" y2="20.77" gradientUnits="userSpaceOnUse"><stop offset="0"/><stop offset=".12" stop-color="#fff"/><stop offset=".44" stop-color="#fff"/><stop offset=".71" stop-color="#fff"/><stop offset="1"/></linearGradient><filter id="luminosity-noclip-7" x="38.62" y="-8212.75" width="2.67" height="32766" filterUnits="userSpaceOnUse" color-interpolation-filters="sRGB"><feFlood flood-color="#fff" result="bg"/><feBlend in="SourceGraphic" in2="bg"/></filter><linearGradient id="linear-gradient-7" x1="39.93" y1="13.85" x2="40" y2="14.46" gradientUnits="userSpaceOnUse"><stop offset="0"/><stop offset=".05" stop-color="#3b3b3b"/><stop offset=".1" stop-color="#6f6f6f"/><stop offset=".16" stop-color="#9b9b9b"/><stop offset=".21" stop-color="#bfbfbf"/><stop offset=".26" stop-color="#dbdbdb"/><stop offset=".32" stop-color="#efefef"/><stop offset=".37" stop-color="#fbfbfb"/><stop offset=".42" stop-color="#fff"/><stop offset=".58" stop-color="#fff"/><stop offset=".61" stop-color="#f7f7f7"/><stop offset=".67" stop-color="#e0e0e0"/><stop offset=".74" stop-color="#bcbcbc"/><stop offset=".82" stop-color="#888"/><stop offset=".91" stop-color="#484848"/><stop offset="1"/></linearGradient><filter id="luminosity-noclip-8" x="32" y="-8212.75" width="2.9" height="32766" filterUnits="userSpaceOnUse" color-interpolation-filters="sRGB"><feFlood flood-color="#fff" result="bg"/><feBlend in="SourceGraphic" in2="bg"/></filter><linearGradient id="linear-gradient-8" x1="33.17" y1="21.93" x2="33.81" y2="22.81" gradientUnits="userSpaceOnUse"><stop offset="0"/><stop offset=".07" stop-color="#0f0f0f"/><stop offset=".16" stop-color="#1c1c1c"/><stop offset=".27" stop-color="#242424"/><stop offset=".52" stop-color="#262626"/><stop offset=".73" stop-color="#242424"/><stop offset=".84" stop-color="#1b1b1b"/><stop offset=".94" stop-color="#0e0e0e"/><stop offset="1"/></linearGradient><filter id="luminosity-noclip-9" x="32.11" y="-8212.75" width="4.16" height="32766" filterUnits="userSpaceOnUse" color-interpolation-filters="sRGB"><feFlood flood-color="#fff" result="bg"/><feBlend in="SourceGraphic" in2="bg"/></filter><linearGradient id="linear-gradient-9" x1="33.94" y1="29.47" x2="34.32" y2="30.25" gradientUnits="userSpaceOnUse"><stop offset="0" stop-color="#333"/><stop offset=".08" stop-color="#6f6f6f"/><stop offset=".16" stop-color="#a2a2a2"/><stop offset=".23" stop-color="#cacaca"/><stop offset=".29" stop-color="#e7e7e7"/><stop offset=".35" stop-color="#f9f9f9"/><stop offset=".39" stop-color="#fff"/><stop offset=".44" stop-color="#fbfbfb"/><stop offset=".49" stop-color="#efefef"/><stop offset=".53" stop-color="#dbdbdb"/><stop offset=".58" stop-color="#bfbfbf"/><stop offset=".62" stop-color="#9b9b9b"/><stop offset=".67" stop-color="#6e6e6e"/><stop offset=".72" stop-color="#3b3b3b"/><stop offset=".76"/></linearGradient><filter id="luminosity-noclip-10" x="15.43" y="-8212.75" width="2.76" height="32766" filterUnits="userSpaceOnUse" color-interpolation-filters="sRGB"><feFlood flood-color="#fff" result="bg"/><feBlend in="SourceGraphic" in2="bg"/></filter><linearGradient id="linear-gradient-10" x1="16.74" y1="27.82" x2="16.87" y2="29" gradientUnits="userSpaceOnUse"><stop offset="0"/><stop offset=".06"/><stop offset=".15" stop-color="#565656"/><stop offset=".24" stop-color="#9f9f9f"/><stop offset=".31" stop-color="#d3d3d3"/><stop offset=".37" stop-color="#f3f3f3"/><stop offset=".4" stop-color="#fff"/><stop offset=".5" stop-color="#fff"/><stop offset=".53" stop-color="#eee"/><stop offset=".58" stop-color="#c3c3c3"/><stop offset=".66" stop-color="#7d7d7d"/><stop offset=".76" stop-color="#1e1e1e"/><stop offset=".79"/><stop offset="1"/></linearGradient><filter id="luminosity-noclip-11" x="41.16" y="-8212.75" width="2.59" height="32766" filterUnits="userSpaceOnUse" color-interpolation-filters="sRGB"><feFlood flood-color="#fff" result="bg"/><feBlend in="SourceGraphic" in2="bg"/></filter><linearGradient id="linear-gradient-11" x1="42.1" y1="15.49" x2="42.92" y2="14.97" gradientUnits="userSpaceOnUse"><stop offset="0"/><stop offset=".04" stop-color="#1e1e1e"/><stop offset=".18" stop-color="#7d7d7d"/><stop offset=".29" stop-color="#c3c3c3"/><stop offset=".38" stop-color="#eee"/><stop offset=".42" stop-color="#fff"/><stop offset=".52" stop-color="#fff"/><stop offset=".57" stop-color="#fafafa"/><stop offset=".63" stop-color="#ebebeb"/><stop offset=".69" stop-color="#d2d2d2"/><stop offset=".76" stop-color="#b0b0b0"/><stop offset=".83" stop-color="#848484"/><stop offset=".91" stop-color="#4e4e4e"/><stop offset=".98" stop-color="#0f0f0f"/><stop offset="1"/></linearGradient><filter id="luminosity-noclip-12" x="24.36" y="-8212.75" width="3.32" height="32766" filterUnits="userSpaceOnUse" color-interpolation-filters="sRGB"><feFlood flood-color="#fff" result="bg"/><feBlend in="SourceGraphic" in2="bg"/></filter><linearGradient id="linear-gradient-12" x1="26.62" y1="11.86" x2="25.36" y2="13.21" gradientUnits="userSpaceOnUse"><stop offset="0"/><stop offset=".03" stop-color="#1e1e1e"/><stop offset=".11" stop-color="#616161"/><stop offset=".19" stop-color="#999"/><stop offset=".25" stop-color="#c5c5c5"/><stop offset=".32" stop-color="#e5e5e5"/><stop offset=".37" stop-color="#f8f8f8"/><stop offset=".4" stop-color="#fff"/><stop offset=".46" stop-color="#f1f1f1"/><stop offset=".56" stop-color="#ccc"/><stop offset=".7" stop-color="#909090"/><stop offset=".88" stop-color="#3f3f3f"/><stop offset="1"/></linearGradient><radialGradient id="radial-gradient" cx="54.99" cy="38.57" r="20.1" gradientTransform="matrix(.98 0 0 .98 -24.11 -23.19)" gradientUnits="userSpaceOnUse"><stop offset="0" stop-color="#969ca0"/><stop offset="1" stop-color="#7c8183"/></radialGradient><radialGradient id="radial-gradient-2" cx="60.33" cy="32.14" r="24.93" gradientTransform="matrix(.98 0 0 .98 -30.5 -20.78)" gradientUnits="userSpaceOnUse"><stop offset="0" stop-color="#a0a6aa"/><stop offset=".61" stop-color="#85898d"/><stop offset="1" stop-color="#55595c"/></radialGradient><radialGradient id="radial-gradient-3" cx="45.85" cy="37.72" r="20.61" gradientTransform="matrix(.98 0 0 .98 -24.11 -23.19)" gradientUnits="userSpaceOnUse"><stop offset="0" stop-color="#a0a6aa"/><stop offset=".46" stop-color="#8c9296"/><stop offset="1" stop-color="#c8d0d3"/></radialGradient><radialGradient id="radial-gradient-4" cx="54.74" cy="47.55" r="11.46" gradientTransform="matrix(.98 0 0 .98 -24.11 -23.19)" gradientUnits="userSpaceOnUse"><stop offset="0" stop-color="#a0a6aa"/><stop offset=".61" stop-color="#8c9296"/><stop offset="1" stop-color="#7c8183"/></radialGradient><radialGradient id="radial-gradient-5" cx="68.93" cy="42.42" r="16.5" xlink:href="#radial-gradient-4"/><clipPath id="clip-path"><path class="cls-25" d="M28.35 31.74C39.74 31.74 49 27 49 21.22s-9.26-10.53-20.65-10.53S7.73 15.4 7.73 21.22 17 31.74 28.35 31.74zm3.88-5.16c-.34.79-.93 2.49-2.29 3.17a3.45 3.45 0 0 1-1.38.31h-.2a36.24 36.24 0 0 1-10.15-1.37c-.22-.06-.69-.18-.69-.47a.46.46 0 0 1 .17-.33l.19-.16a23.87 23.87 0 0 1 6.63-3.54 32.72 32.72 0 0 1 4.85-1.54c1.04-.23 4.92-.82 2.87 3.93zM42.65 16a.4.4 0 0 1 .34-.25.65.65 0 0 1 .43.14c2.42 1.49 3.86 3.34 3.86 5.35 0 3.63-4.68 6.75-11.37 8.12-.43.08-.71.08-.81 0a.26.26 0 0 1 0-.33 1.36 1.36 0 0 1 .17-.24c3.65-4.29 6.43-10.6 7.21-12.44a3.27 3.27 0 0 1 .17-.35zm-18.12-.14c.34-.79.93-2.49 2.29-3.17a3.51 3.51 0 0 1 1.37-.31h.21a35.88 35.88 0 0 1 10.16 1.39c.21.06.68.15.68.45a.46.46 0 0 1-.17.34 1.33 1.33 0 0 1-.19.16 23.85 23.85 0 0 1-6.62 3.54 31.65 31.65 0 0 1-4.85 1.55c-1.05.19-4.93.77-2.88-3.98zM20.8 13.1c.43-.09.76-.09.86 0a.25.25 0 0 1 0 .32 2.25 2.25 0 0 1-.18.25c-3.64 4.33-6.41 10.64-7.2 12.46l-.17.34a.44.44 0 0 1-.35.24.83.83 0 0 1-.43-.14c-2.42-1.49-3.91-3.34-3.91-5.35 0-3.64 4.69-6.76 11.38-8.12z"/></clipPath><clipPath id="clip-path-2"><path class="cls-25" d="M28.35 31.53c-11.25 0-20.41-4.63-20.41-10.32S17.09 10.9 28.35 10.9s20.41 4.63 20.41 10.32-9.16 10.31-20.41 10.31zm2.31-9.25a6.72 6.72 0 0 0-1.35.15A32.68 32.68 0 0 0 24.46 24a23.64 23.64 0 0 0-6.69 3.58l-.09.08-.11.1a.67.67 0 0 0-.23.48c0 .43.52.58.79.66a36.55 36.55 0 0 0 10.21 1.38h.22a3.64 3.64 0 0 0 1.44-.34 5.55 5.55 0 0 0 2.3-3l.09-.23c.69-1.59.79-2.78.3-3.52a2.3 2.3 0 0 0-2.04-.91zM43 15.51a.59.59 0 0 0-.5.36 3.24 3.24 0 0 0-.17.33c-1.27 3-3.89 8.51-7.18 12.39a1.48 1.48 0 0 0-.2.28.47.47 0 0 0 0 .57.59.59 0 0 0 .46.16 3 3 0 0 0 .54-.06c7-1.43 11.54-4.7 11.54-8.32 0-2-1.37-3.94-4-5.53a.93.93 0 0 0-.49-.18zm-21.67-2.68a2.92 2.92 0 0 0-.57.07c-7 1.42-11.55 4.69-11.55 8.32 0 2 1.39 3.91 4 5.53a1.05 1.05 0 0 0 .54.17.65.65 0 0 0 .53-.34l.14-.28v-.07a50.6 50.6 0 0 1 7.18-12.38 2.35 2.35 0 0 0 .2-.28.45.45 0 0 0 0-.58.62.62 0 0 0-.47-.16zm6.86-.69a3.69 3.69 0 0 0-1.46.34 5.53 5.53 0 0 0-2.29 3l-.11.25c-.69 1.59-.79 2.78-.3 3.52a2.3 2.3 0 0 0 2.07.86 6.72 6.72 0 0 0 1.35-.11 31.78 31.78 0 0 0 4.89-1.56A23.76 23.76 0 0 0 39 14.85a1.5 1.5 0 0 0 .21-.19.65.65 0 0 0 .23-.48c0-.43-.49-.56-.75-.63h-.08a36.2 36.2 0 0 0-10.22-1.4h-.22z"/></clipPath><clipPath id="clip-path-3"><path class="cls-25" d="M28.35 31.52C17.11 31.52 8 26.9 8 21.21s9.15-10.3 20.39-10.3 20.39 4.62 20.39 10.3-9.19 10.31-20.43 10.31zm2.3-9.24a6.7 6.7 0 0 0-1.35.15A32.65 32.65 0 0 0 24.46 24a23.65 23.65 0 0 0-6.68 3.57l-.09.08-.11.1a.67.67 0 0 0-.23.48c0 .43.52.58.79.66a36.51 36.51 0 0 0 10.19 1.38h.22a3.63 3.63 0 0 0 1.45-.34 5.54 5.54 0 0 0 2.29-3l.09-.23c.69-1.59.79-2.77.3-3.52a2.3 2.3 0 0 0-2.03-.9zM43 15.52h-.07a.59.59 0 0 0-.5.36 3.25 3.25 0 0 0-.17.33c-1.27 3-3.88 8.5-7.17 12.37a1.55 1.55 0 0 0-.2.28.47.47 0 0 0 0 .57.59.59 0 0 0 .46.16 3 3 0 0 0 .54-.06c7-1.43 11.53-4.69 11.53-8.31 0-2-1.37-3.93-4-5.52a.93.93 0 0 0-.42-.18zm-21.66-2.68a2.89 2.89 0 0 0-.57.07c-7 1.42-11.53 4.68-11.53 8.31 0 2 1.39 3.91 4 5.52a1.06 1.06 0 0 0 .54.17.65.65 0 0 0 .53-.34l.14-.28v-.07a50.5 50.5 0 0 1 7.17-12.37 2.45 2.45 0 0 0 .2-.27.45.45 0 0 0 0-.58.62.62 0 0 0-.48-.16zm6.85-.69a3.67 3.67 0 0 0-1.46.33 5.52 5.52 0 0 0-2.29 3l-.1.25c-.69 1.59-.79 2.77-.3 3.52a2.3 2.3 0 0 0 2.07.86 6.7 6.7 0 0 0 1.35-.11 31.73 31.73 0 0 0 4.88-1.56A23.7 23.7 0 0 0 39 14.86a1.46 1.46 0 0 0 .21-.19.65.65 0 0 0 .23-.47c0-.43-.49-.56-.75-.63h-.08a36.15 36.15 0 0 0-10.21-1.39h-.22z"/></clipPath><linearGradient id="linear-gradient-13" x1="27.84" y1="11.56" x2="28.86" y2="31.01" gradientUnits="userSpaceOnUse"><stop offset="0" stop-color="#fff"/><stop offset=".4" stop-color="#fff"/><stop offset=".57" stop-color="#adb2b6"/><stop offset=".62" stop-color="#9ba0a4"/><stop offset=".66" stop-color="#93989c"/><stop offset=".75" stop-color="#a0a6aa"/><stop offset=".81" stop-color="#fff"/></linearGradient><filter id="luminosity-noclip-13" x="27" y="21.46" width="11.97" height="9.93" filterUnits="userSpaceOnUse" color-interpolation-filters="sRGB"><feFlood flood-color="#fff" result="bg"/><feBlend in="SourceGraphic" in2="bg"/></filter><mask id="mask-13" x="27" y="21.46" width="11.97" height="9.93" maskUnits="userSpaceOnUse"><g mask="url(#mask)" filter="url(#luminosity-noclip-13)"><path d="M34.42 28.76a50.93 50.93 0 0 0 4.58-7.3l-5.31 1.79a8.45 8.45 0 0 1-3.2 6.94 10.49 10.49 0 0 1-3 .35l-.49.78a35.51 35.51 0 0 0 10.16-.9l.47-1.08c-1.43.57-4.98 1.58-3.21-.58z" style="mix-blend-mode:multiply" fill="url(#linear-gradient)"/></g></mask><linearGradient id="linear-gradient-14" x1="32.23" y1="30.68" x2="34.12" y2="23.3" gradientUnits="userSpaceOnUse"><stop offset="0" stop-color="#fff"/><stop offset=".63" stop-color="#fff"/><stop offset=".64" stop-color="#fbfbfb"/><stop offset=".88" stop-color="#c1c6c9"/><stop offset="1" stop-color="#aab1b6"/></linearGradient><linearGradient id="linear-gradient-15" x1="26.37" y1="20.51" x2="22.57" y2="13.74" gradientUnits="userSpaceOnUse"><stop offset="0" stop-color="#e7edf0"/><stop offset=".33" stop-color="#d0d6da"/><stop offset=".55" stop-color="#bfc4c9"/><stop offset="1" stop-color="#aab1b6"/></linearGradient><linearGradient id="linear-gradient-16" x1="29.68" y1="14.19" x2="32.89" y2="18.79" xlink:href="#linear-gradient-15"/><linearGradient id="linear-gradient-17" x1="16.53" y1="24.96" x2="16.53" y2="14.48" gradientUnits="userSpaceOnUse"><stop offset="0" stop-color="#fff"/><stop offset=".07" stop-color="#f6f7f7"/><stop offset=".17" stop-color="#dfe0e1"/><stop offset=".3" stop-color="#b9bcbd"/><stop offset=".45" stop-color="#858a8c"/><stop offset=".53" stop-color="#686e71"/><stop offset=".77" stop-color="#55595c"/><stop offset="1" stop-color="#4a4d50"/></linearGradient><linearGradient id="linear-gradient-18" x1="34.26" y1="27.19" x2="22.68" y2="24.23" gradientUnits="userSpaceOnUse"><stop offset="0" stop-color="#969ca0"/><stop offset=".18" stop-color="#85898d"/><stop offset=".34" stop-color="#6f7276"/><stop offset=".57" stop-color="#4a4d50"/><stop offset="1" stop-color="#3e4042"/></linearGradient><linearGradient id="linear-gradient-19" x1="15.45" y1="29.63" x2="31.45" y2="29.63" gradientUnits="userSpaceOnUse"><stop offset="0" stop-color="#fff"/><stop offset=".93" stop-color="#fff"/><stop offset="1" stop-color="#fff"/></linearGradient><linearGradient id="linear-gradient-20" x1="42.14" y1="16.09" x2="33.85" y2="28.91" gradientUnits="userSpaceOnUse"><stop offset="0" stop-color="#b5bbbf"/><stop offset=".38" stop-color="#7c8183"/><stop offset=".42" stop-color="#626668"/><stop offset=".45" stop-color="#505356"/><stop offset=".47" stop-color="#4a4d50"/><stop offset="1" stop-color="#3e4042"/></linearGradient><linearGradient id="linear-gradient-21" x1="39.34" y1="13.54" x2="26.84" y2="11.86" gradientUnits="userSpaceOnUse"><stop offset="0" stop-color="#55595c"/><stop offset=".12" stop-color="#4c4f52"/><stop offset=".39" stop-color="#3c3d3f"/><stop offset=".68" stop-color="#323235"/><stop offset="1" stop-color="#2f2f31"/></linearGradient><linearGradient id="linear-gradient-22" x1="43.25" y1="14.02" x2="47.21" y2="20.6" gradientUnits="userSpaceOnUse"><stop offset="0" stop-color="#2f2f31"/><stop offset=".07" stop-color="#363739"/><stop offset=".33" stop-color="#4a4d50"/><stop offset=".43" stop-color="#53575a"/><stop offset=".69" stop-color="#686e71"/><stop offset=".74" stop-color="#6f7578"/><stop offset=".82" stop-color="#83898c"/><stop offset=".87" stop-color="#969ca0"/><stop offset="1" stop-color="#aab1b6"/></linearGradient><linearGradient id="linear-gradient-23" x1="35.43" y1="30.62" x2="47.8" y2="22.9" gradientUnits="userSpaceOnUse"><stop offset="0" stop-color="#fff"/><stop offset=".77" stop-color="#fff"/><stop offset=".84" stop-color="#e8ecee"/><stop offset=".9" stop-color="#d2d9dd"/><stop offset=".96" stop-color="#b9c0c5"/><stop offset="1" stop-color="#aab1b6"/></linearGradient><filter id="luminosity-noclip-14" x="38.62" y="13.14" width="2.67" height="2.01" filterUnits="userSpaceOnUse" color-interpolation-filters="sRGB"><feFlood flood-color="#fff" result="bg"/><feBlend in="SourceGraphic" in2="bg"/></filter><mask id="mask-14" x="38.62" y="13.14" width="2.67" height="2.01" maskUnits="userSpaceOnUse"><g mask="url(#mask-7)" filter="url(#luminosity-noclip-14)"><path d="M41.29 14c0-.11-.15-.19-.3-.27-.48-.2-1-.38-1.49-.55l-.88.61H38.83c.27.09.4.21.42.35a.46.46 0 0 1-.17.34l-.19.16-.18.15 1.75.31a3.59 3.59 0 0 0 .82-1.07.2.2 0 0 0 .01-.03z" style="mix-blend-mode:multiply" fill="url(#linear-gradient-7)"/></g></mask><linearGradient id="linear-gradient-24" x1="39.93" y1="13.85" x2="40" y2="14.46" gradientUnits="userSpaceOnUse"><stop offset="0" stop-color="#55595c"/><stop offset=".08" stop-color="#777c7f"/><stop offset=".17" stop-color="#92979b"/><stop offset=".25" stop-color="#a6abaf"/><stop offset=".34" stop-color="#b1b7bb"/><stop offset=".42" stop-color="#b5bbbf"/><stop offset=".58" stop-color="#b5bbbf"/><stop offset=".92" stop-color="#adb4b8"/><stop offset="1" stop-color="#aab1b6"/></linearGradient><filter id="luminosity-noclip-15" x="15.43" y="27.15" width="2.76" height="2.1" filterUnits="userSpaceOnUse" color-interpolation-filters="sRGB"><feFlood flood-color="#fff" result="bg"/><feBlend in="SourceGraphic" in2="bg"/></filter><mask id="mask-15" x="15.43" y="27.15" width="2.76" height="2.1" maskUnits="userSpaceOnUse"><g mask="url(#mask-10)" filter="url(#luminosity-noclip-15)"><path d="M18 28.64c-.18-.07-.47-.15-.52-.37a.25.25 0 0 1 0-.05.46.46 0 0 1 .17-.33l.19-.16.22-.18-1.68-.4a3.85 3.85 0 0 0-1 1.2.2.2 0 0 0 0 .16.57.57 0 0 0 .29.23q.67.27 1.38.52l1.07-.57z" style="mix-blend-mode:multiply" fill="url(#linear-gradient-10)"/></g></mask><linearGradient id="linear-gradient-25" x1="16.74" y1="27.82" x2="16.87" y2="29" gradientUnits="userSpaceOnUse"><stop offset="0" stop-color="#3e4042"/><stop offset=".01" stop-color="#525557"/><stop offset=".04" stop-color="#707577"/><stop offset=".06" stop-color="#7c8183"/><stop offset=".23" stop-color="#8b9194"/><stop offset=".4" stop-color="#969ca0"/><stop offset=".48" stop-color="#a5acb0"/><stop offset=".5" stop-color="#aab1b6"/><stop offset=".79" stop-color="#b5bbbf"/><stop offset=".86" stop-color="#ccd0d3"/><stop offset="1" stop-color="#fff"/></linearGradient><filter id="luminosity-noclip-16" x="41.16" y="14.15" width="2.59" height="2.32" filterUnits="userSpaceOnUse" color-interpolation-filters="sRGB"><feFlood flood-color="#fff" result="bg"/><feBlend in="SourceGraphic" in2="bg"/></filter><mask id="mask-16" x="41.16" y="14.15" width="2.59" height="2.32" maskUnits="userSpaceOnUse"><g mask="url(#mask-11)" filter="url(#luminosity-noclip-16)"><path d="M42.6 14.43l-.49-.24a.35.35 0 0 0-.28 0 .24.24 0 0 0-.14.13l-.53 1.12 1.24 1 .07-.18a3.37 3.37 0 0 1 .17-.32.43.43 0 0 1 .24-.23h.1a.65.65 0 0 1 .43.14l.23.15.1-.94q-.53-.32-1.14-.63z" style="mix-blend-mode:multiply" fill="url(#linear-gradient-11)"/></g></mask><linearGradient id="linear-gradient-26" x1="42.1" y1="15.49" x2="42.92" y2="14.97" gradientUnits="userSpaceOnUse"><stop offset="0" stop-color="#b5bbbf"/><stop offset=".42" stop-color="#aab1b6"/><stop offset=".52" stop-color="#aab1b6"/><stop offset=".59" stop-color="#a5acb1"/><stop offset=".68" stop-color="#989da2"/><stop offset=".77" stop-color="#818589"/><stop offset=".87" stop-color="#616467"/><stop offset=".98" stop-color="#39393c"/><stop offset="1" stop-color="#2f2f31"/></linearGradient><filter id="luminosity-noclip-17" x="24.36" y="11.45" width="3.32" height="2.27" filterUnits="userSpaceOnUse" color-interpolation-filters="sRGB"><feFlood flood-color="#fff" result="bg"/><feBlend in="SourceGraphic" in2="bg"/></filter><mask id="mask-17" x="24.36" y="11.45" width="3.32" height="2.27" maskUnits="userSpaceOnUse"><g mask="url(#mask-12)" filter="url(#luminosity-noclip-17)"><path d="M26.16 11.51a2.17 2.17 0 0 0-.89.19.7.7 0 0 0-.21.17c-.25.32-.48.65-.7 1l1.25.88a3.63 3.63 0 0 1 1-.93l.24-.14a3.11 3.11 0 0 1 .86-.26v-1z" style="mix-blend-mode:multiply" fill="url(#linear-gradient-12)"/></g></mask><linearGradient id="linear-gradient-27" x1="26.62" y1="11.86" x2="25.36" y2="13.21" gradientUnits="userSpaceOnUse"><stop offset="0" stop-color="#2f2f31"/><stop offset=".03" stop-color="#38393b"/><stop offset=".14" stop-color="#616467"/><stop offset=".25" stop-color="#7e8286"/><stop offset=".34" stop-color="#909599"/><stop offset=".4" stop-color="#969ca0"/><stop offset=".81" stop-color="#a3a9ae"/><stop offset="1" stop-color="#aab1b6"/></linearGradient><filter id="luminosity-noclip-18" x="26.09" y="27.21" width="7.21" height="3.77" filterUnits="userSpaceOnUse" color-interpolation-filters="sRGB"><feFlood flood-color="#fff" result="bg"/><feBlend in="SourceGraphic" in2="bg"/></filter><mask id="mask-18" x="26.09" y="27.21" width="7.21" height="3.77" maskUnits="userSpaceOnUse"><g mask="url(#mask-2)" filter="url(#luminosity-noclip-18)"><path d="M30 29.72h-.05a3.44 3.44 0 0 1-1.38.31h-.2c-.71 0-1.4 0-2.09-.06l-.17.92q1.12.06 2.27.07t2.2-.06a2.2 2.2 0 0 0 .89-.19.71.71 0 0 0 .21-.16 18.38 18.38 0 0 0 1.52-2.35l.1-.2-1.3-.79a4.94 4.94 0 0 1-2 2.51z" style="mix-blend-mode:multiply" fill="url(#linear-gradient-2)"/></g></mask><linearGradient id="linear-gradient-28" x1="31.06" y1="27.42" x2="28.48" y2="30.95" gradientUnits="userSpaceOnUse"><stop offset="0" stop-color="#8c9296"/><stop offset=".51" stop-color="#f4fbfe"/><stop offset=".81" stop-color="#f8fcfe"/><stop offset="1" stop-color="#fff"/></linearGradient><linearGradient id="linear-gradient-29" x1="16.02" y1="26.87" x2="20.93" y2="15.28" gradientUnits="userSpaceOnUse"><stop offset="0" stop-color="#71777b"/><stop offset=".53" stop-color="#8c9296"/><stop offset="1" stop-color="#bac3c8"/></linearGradient><filter id="luminosity-noclip-19" x="12.77" y="25.61" width="3.04" height="2.67" filterUnits="userSpaceOnUse" color-interpolation-filters="sRGB"><feFlood flood-color="#fff" result="bg"/><feBlend in="SourceGraphic" in2="bg"/></filter><mask id="mask-19" x="12.77" y="25.61" width="3.04" height="2.67" maskUnits="userSpaceOnUse"><g mask="url(#mask-3)" filter="url(#luminosity-noclip-19)"><path d="M14.5 25.61l-.22.52-.17.34a.51.51 0 0 1-.21.21h-.13a.84.84 0 0 1-.43-.14l-.57-.37.08 1.09q.59.37 1.27.71l.49.24a.35.35 0 0 0 .28 0 .24.24 0 0 0 .14-.13l.79-1.66z" style="mix-blend-mode:multiply" fill="url(#linear-gradient-3)"/></g></mask><linearGradient id="linear-gradient-30" x1="14.75" y1="26.55" x2="13.31" y2="27.62" gradientUnits="userSpaceOnUse"><stop offset="0" stop-color="#71777b"/><stop offset=".06" stop-color="#8b9093"/><stop offset=".19" stop-color="#bdc0c1"/><stop offset=".3" stop-color="#e1e2e3"/><stop offset=".4" stop-color="#f7f7f8"/><stop offset=".45" stop-color="#fff"/><stop offset=".63" stop-color="#fff"/><stop offset=".64" stop-color="#fff"/><stop offset=".98" stop-color="#fff"/><stop offset="1" stop-color="#fff"/></linearGradient><filter id="luminosity-noclip-20" x="20.43" y="11.64" width="4.18" height="2.14" filterUnits="userSpaceOnUse" color-interpolation-filters="sRGB"><feFlood flood-color="#fff" result="bg"/><feBlend in="SourceGraphic" in2="bg"/></filter><mask id="mask-20" x="20.43" y="11.64" width="4.18" height="2.14" maskUnits="userSpaceOnUse"><g mask="url(#mask-4)" filter="url(#luminosity-noclip-20)"><path d="M24.61 11.72c0-.05-.09-.08-.19-.08-1.12.11-2.21.27-3.26.48l-.72 1.07.37-.08c.43-.09.76-.09.86 0a.27.27 0 0 1 0 .27 2.33 2.33 0 0 1-.17.25l-.06.08h1.82c.45-.63.9-1.26 1.32-1.91a.16.16 0 0 0 .03-.08z" style="mix-blend-mode:multiply" fill="url(#linear-gradient-4)"/></g></mask><linearGradient id="linear-gradient-31" x1="22.42" y1="12.26" x2="22.89" y2="13.18" gradientUnits="userSpaceOnUse"><stop offset="0" stop-color="#4a4d50"/><stop offset=".16" stop-color="#4e5154"/><stop offset=".33" stop-color="#595d60"/><stop offset=".47" stop-color="#686e71"/><stop offset=".52" stop-color="#7c8286"/><stop offset=".57" stop-color="#8c9296"/><stop offset=".78" stop-color="#abb3b8"/><stop offset=".91" stop-color="#bac3c8"/></linearGradient><linearGradient id="linear-gradient-32" x1="27.64" y1="11.49" x2="29.12" y2="31.84" gradientUnits="userSpaceOnUse"><stop offset="0" stop-color="#fff"/><stop offset=".08" stop-color="#f8fafb"/><stop offset=".2" stop-color="#e6ebef"/><stop offset=".26" stop-color="#d9e1e7"/><stop offset=".3" stop-color="#cfd7dd"/><stop offset=".35" stop-color="#b5bcc1"/><stop offset=".42" stop-color="#8b9095"/><stop offset=".5" stop-color="#55595c"/><stop offset=".69" stop-color="#484c50"/><stop offset=".74" stop-color="#3a3d41"/><stop offset=".82" stop-color="#1b1d21"/><stop offset="1" stop-color="#1b1d21"/></linearGradient><filter id="luminosity-noclip-21" x="21.69" y="17.6" width="7.35" height="4.11" filterUnits="userSpaceOnUse" color-interpolation-filters="sRGB"><feFlood flood-color="#fff" result="bg"/><feBlend in="SourceGraphic" in2="bg"/></filter><mask id="mask-21" x="21.69" y="17.6" width="7.35" height="4.11" maskUnits="userSpaceOnUse"><g mask="url(#mask-5)" filter="url(#luminosity-noclip-21)"><path d="M27.78 19.69l-.37.08a4.11 4.11 0 0 1-2.78-.21 1.81 1.81 0 0 1-.65-2l-2.14.77a6 6 0 0 0-.13.79A2 2 0 0 0 23 21.5l.27.07c.66.16 1.93.29 4.78-.48l.94-.27.01-1.46c-.37.12-.79.23-1.22.33z" style="mix-blend-mode:multiply" fill="url(#linear-gradient-5)"/></g></mask><linearGradient id="linear-gradient-33" x1="23.1" y1="17.93" x2="26.9" y2="21.36" gradientUnits="userSpaceOnUse"><stop offset=".07" stop-color="#bfc4c9"/><stop offset=".1" stop-color="#c9cdd2"/><stop offset=".19" stop-color="#e1e3e6"/><stop offset=".28" stop-color="#f2f3f4"/><stop offset=".38" stop-color="#fcfcfc"/><stop offset=".5" stop-color="#fff"/><stop offset=".62" stop-color="#fcfcfc"/><stop offset=".71" stop-color="#f2f3f4"/><stop offset=".8" stop-color="#e1e3e5"/><stop offset=".88" stop-color="#c9ced1"/><stop offset=".94" stop-color="#b5bbbf"/></linearGradient><filter id="luminosity-noclip-22" x="26.18" y="20.73" width="8.85" height="5.09" filterUnits="userSpaceOnUse" color-interpolation-filters="sRGB"><feFlood flood-color="#fff" result="bg"/><feBlend in="SourceGraphic" in2="bg"/></filter><mask id="mask-22" x="26.18" y="20.73" width="8.85" height="5.09" maskUnits="userSpaceOnUse"><g mask="url(#mask-6)" filter="url(#luminosity-noclip-22)"><path d="M35 23.27a2 2 0 0 0-1.28-2.35c-.7-.21-2.31-.63-7.55 1.18l.16 1.4a24.52 24.52 0 0 1 3-.87c1-.21 4.49-.74 3.17 3.18l1.94-.39a9 9 0 0 0 .56-2.15z" style="mix-blend-mode:multiply" fill="url(#linear-gradient-6)"/></g></mask><linearGradient id="linear-gradient-34" x1="32.63" y1="25.26" x2="29.12" y2="20.77" gradientUnits="userSpaceOnUse"><stop offset="0" stop-color="#8c9296"/><stop offset=".12" stop-color="#85898d"/><stop offset=".17" stop-color="#777a7e"/><stop offset=".27" stop-color="#5e6265"/><stop offset=".37" stop-color="#4f5255"/><stop offset=".44" stop-color="#4a4d50"/><stop offset=".71" stop-color="#4a4d50"/><stop offset="1" stop-color="#3e4042"/></linearGradient><filter id="luminosity-noclip-23" x="32" y="21.14" width="2.9" height="2.49" filterUnits="userSpaceOnUse" color-interpolation-filters="sRGB"><feFlood flood-color="#fff" result="bg"/><feBlend in="SourceGraphic" in2="bg"/></filter><mask id="mask-23" x="32" y="21.14" width="2.9" height="2.49" maskUnits="userSpaceOnUse"><g mask="url(#mask-8)" filter="url(#luminosity-noclip-23)"><path d="M34.22 21.14L32 22.78a1.44 1.44 0 0 1 .72.86L34.9 22a1.61 1.61 0 0 0-.68-.86z" style="mix-blend-mode:multiply" fill="url(#linear-gradient-8)"/></g></mask><linearGradient id="linear-gradient-35" x1="33.17" y1="21.93" x2="33.81" y2="22.81" gradientUnits="userSpaceOnUse"><stop offset="0" stop-color="#484c50"/><stop offset=".01" stop-color="#55595d"/><stop offset=".04" stop-color="#7d8083"/><stop offset=".08" stop-color="#a0a2a4"/><stop offset=".12" stop-color="#bebfc1"/><stop offset=".17" stop-color="#d6d7d8"/><stop offset=".22" stop-color="#e8e9e9"/><stop offset=".28" stop-color="#f5f5f6"/><stop offset=".35" stop-color="#fdfdfd"/><stop offset=".52" stop-color="#fff"/><stop offset=".66" stop-color="#fdfdfd"/><stop offset=".74" stop-color="#f4f5f5"/><stop offset=".8" stop-color="#e7e7e8"/><stop offset=".86" stop-color="#d3d4d5"/><stop offset=".91" stop-color="#b9bcbd"/><stop offset=".95" stop-color="#9a9ea0"/><stop offset="1" stop-color="#767b7e"/><stop offset="1" stop-color="#73787b"/></linearGradient><filter id="luminosity-noclip-24" x="32.11" y="28.01" width="4.16" height="2.78" filterUnits="userSpaceOnUse" color-interpolation-filters="sRGB"><feFlood flood-color="#fff" result="bg"/><feBlend in="SourceGraphic" in2="bg"/></filter><mask id="mask-24" x="32.11" y="28.01" width="4.16" height="2.78" maskUnits="userSpaceOnUse"><g mask="url(#mask-9)" filter="url(#luminosity-noclip-24)"><path d="M35.9 29.33c-.43.08-.71.08-.81 0a.27.27 0 0 1 0-.3 1.28 1.28 0 0 1 .17-.24l.41-.49-1.75-.3c-.59.85-1.21 1.69-1.78 2.55-.05.08-.05.14 0 .18a.23.23 0 0 0 .17 0 35.45 35.45 0 0 0 4-.62v-.92z" style="mix-blend-mode:multiply" fill="url(#linear-gradient-9)"/></g></mask><linearGradient id="linear-gradient-36" x1="33.94" y1="29.47" x2="34.32" y2="30.25" gradientUnits="userSpaceOnUse"><stop offset="0" stop-color="#3e4042"/><stop offset=".05" stop-color="#5c5e61"/><stop offset=".13" stop-color="#8d9193"/><stop offset=".21" stop-color="#b4b9bb"/><stop offset=".28" stop-color="#d0d5d8"/><stop offset=".35" stop-color="#e1e7ea"/><stop offset=".39" stop-color="#e7edf0"/><stop offset=".54" stop-color="#ebf0f2"/><stop offset=".69" stop-color="#f7f9fa"/><stop offset=".76" stop-color="#fff"/></linearGradient><linearGradient id="linear-gradient-37" x1="31.21" y1="18.83" x2="32.22" y2="11.01" gradientUnits="userSpaceOnUse"><stop offset="0" stop-color="#fff"/><stop offset=".22" stop-color="#f4f6f8"/><stop offset=".56" stop-color="#eaeff2"/><stop offset="1" stop-color="#e7edf0"/></linearGradient><linearGradient id="linear-gradient-38" x1="24.58" y1="11.91" x2="15.71" y2="26.27" gradientUnits="userSpaceOnUse"><stop offset="0" stop-color="#fff"/><stop offset=".14" stop-color="#fcfcfc"/><stop offset=".24" stop-color="#f3f4f4"/><stop offset=".33" stop-color="#e3e5e6"/><stop offset=".41" stop-color="#cdd0d2"/><stop offset=".49" stop-color="#b0b5b8"/><stop offset=".52" stop-color="#a0a6aa"/><stop offset="1" stop-color="#969ca0"/></linearGradient><linearGradient id="linear-gradient-39" x1="41.53" y1="15.15" x2="32.8" y2="29.97" gradientUnits="userSpaceOnUse"><stop offset="0" stop-color="#dde3e7"/><stop offset=".03" stop-color="#cfd5da"/><stop offset=".09" stop-color="#bec5ca"/><stop offset=".17" stop-color="#b3b9be"/><stop offset=".27" stop-color="#acb3b8"/><stop offset=".55" stop-color="#aab1b6"/><stop offset=".94" stop-color="#aab1b6"/><stop offset="1" stop-color="#aab1b6"/></linearGradient><linearGradient id="linear-gradient-40" x1="15.37" y1="25.86" x2="34.25" y2="25.86" gradientUnits="userSpaceOnUse"><stop offset="0" stop-color="#969ca0"/><stop offset=".24" stop-color="#969ca0"/><stop offset=".35" stop-color="#909599"/><stop offset=".52" stop-color="#7e8387"/><stop offset=".6" stop-color="#73787b"/><stop offset="1" stop-color="#aab1b6"/></linearGradient><linearGradient id="linear-gradient-41" x1="17.75" y1="13.05" x2="12.41" y2="26.14" gradientUnits="userSpaceOnUse"><stop offset="0" stop-color="#fff"/><stop offset=".26" stop-color="#f8f9fa"/><stop offset=".64" stop-color="#e6eaed"/><stop offset=".78" stop-color="#dde3e7"/><stop offset="1" stop-color="#969ca0"/></linearGradient><linearGradient id="linear-gradient-42" x1="45.55" y1="16.45" x2="37.88" y2="30.88" gradientUnits="userSpaceOnUse"><stop offset="0" stop-color="#dde3e7"/><stop offset=".18" stop-color="#d6dde1"/><stop offset=".26" stop-color="#d2d9dd"/><stop offset="1" stop-color="#aab1b6"/></linearGradient></defs><g id="Слой_2" data-name="Слой 2"><g id="Слой_1-2" data-name="Слой 1"><path d="M26.11 20.07a6.68 6.68 0 0 0 1.34-.15 31.68 31.68 0 0 0 4.88-1.55A23.68 23.68 0 0 0 39 14.81l.2-.17a.61.61 0 0 0 .22-.44c0-.38-.44-.5-.71-.57h-.08a36.15 36.15 0 0 0-10.2-1.39h-.22a3.63 3.63 0 0 0-1.44.33 5.47 5.47 0 0 0-2.26 3l-.11.25c-.68 1.57-.78 2.74-.31 3.46a2.25 2.25 0 0 0 2.02.79zm-1.44-4.18l.11-.25a5.24 5.24 0 0 1 2.12-2.84 3.34 3.34 0 0 1 1.31-.3h.21a35.83 35.83 0 0 1 10.12 1.38h.09c.18.05.49.13.49.29s0 .14-.13.24l-.17.15a23.37 23.37 0 0 1-6.58 3.51 31.39 31.39 0 0 1-4.83 1.54 6.36 6.36 0 0 1-1.28.14 2 2 0 0 1-1.77-.7c-.44-.61-.36-1.69.31-3.16z" fill="url(#radial-gradient)"/><path d="M28.35 10.51c-11.47 0-20.8 4.8-20.8 10.7s9.33 10.7 20.8 10.7 20.8-4.8 20.8-10.7-9.34-10.7-20.8-10.7zm0 21.08c-11.29 0-20.47-4.66-20.47-10.38s9.18-10.38 20.47-10.38 20.47 4.66 20.47 10.38-9.18 10.38-20.47 10.38z" fill="url(#radial-gradient-2)"/><path d="M21.79 13.53a.39.39 0 0 0 0-.5c-.14-.16-.48-.18-1-.08-7 1.42-11.5 4.66-11.5 8.26 0 2 1.38 3.87 4 5.48a1 1 0 0 0 .51.16.58.58 0 0 0 .47-.32l.13-.27v-.08a50.59 50.59 0 0 1 7.19-12.4 2.32 2.32 0 0 0 .2-.25zm-.25-.15a2.31 2.31 0 0 1-.16.23 50.86 50.86 0 0 0-7.23 12.46v.07l-.12.24c-.08.12-.14.17-.23.17a.71.71 0 0 1-.35-.12c-2.51-1.55-3.84-3.35-3.84-5.22 0-3.45 4.42-6.58 11.26-8a2.59 2.59 0 0 1 .5-.06h.23c.01 0-.02.16-.06.23z" fill="url(#radial-gradient-3)"/><path d="M30.65 22.34a6.64 6.64 0 0 0-1.34.15A32.77 32.77 0 0 0 24.48 24a23.59 23.59 0 0 0-6.68 3.57l-.09.08-.1.09a.61.61 0 0 0-.21.44c0 .38.49.52.75.6a36.49 36.49 0 0 0 10.19 1.38h.2a3.61 3.61 0 0 0 1.46-.28 5.5 5.5 0 0 0 2.27-3l.09-.23c.68-1.57.78-2.74.31-3.46a2.24 2.24 0 0 0-2.02-.85zm1.43 4.18l-.1.23a5.26 5.26 0 0 1-2.12 2.86 3.24 3.24 0 0 1-1.52.3 36.2 36.2 0 0 1-10.1-1.36h-.05c-.16 0-.53-.15-.53-.31a.31.31 0 0 1 .12-.23l.09-.08.09-.08a23.3 23.3 0 0 1 6.59-3.52 32.49 32.49 0 0 1 4.79-1.52 6.34 6.34 0 0 1 1.28-.14 2 2 0 0 1 1.77.7c.45.63.34 1.63-.3 3.15z" fill="url(#radial-gradient-4)"/><path d="M43.5 15.74a.88.88 0 0 0-.46-.16H43a.53.53 0 0 0-.46.32 3 3 0 0 0-.18.34c-1.27 3-3.89 8.52-7.19 12.4a1.37 1.37 0 0 0-.19.26.41.41 0 0 0 0 .5.53.53 0 0 0 .42.14 2.93 2.93 0 0 0 .53-.06c7-1.42 11.49-4.67 11.49-8.26.01-2.01-1.35-3.9-3.92-5.48zm-7.62 13.44a2.64 2.64 0 0 1-.47.06h-.2v-.16a1.11 1.11 0 0 1 .16-.22c3.33-3.91 6-9.49 7.23-12.47a3.18 3.18 0 0 1 .17-.32.26.26 0 0 1 .23-.17.63.63 0 0 1 .3.12c2.48 1.52 3.79 3.33 3.79 5.22.04 3.42-4.38 6.55-11.21 7.94z" fill="url(#radial-gradient-5)"/><g clip-path="url(#clip-path)"><g clip-path="url(#clip-path-2)"><g clip-path="url(#clip-path-3)"><path d="M28.35 31.73c11.38 0 20.6-4.71 20.6-10.51S39.72 10.7 28.35 10.7s-20.6 4.71-20.6 10.51S17 31.73 28.35 31.73zm3.87-5.15c-.34.79-.93 2.49-2.29 3.16a3.43 3.43 0 0 1-1.38.31h-.2A36.08 36.08 0 0 1 18 28.63h-.09c-.29-.09-.44-.22-.44-.38a.46.46 0 0 1 .17-.33l.19-.16a23.79 23.79 0 0 1 6.62-3.54 32.56 32.56 0 0 1 4.84-1.54c1.11-.26 4.98-.85 2.93 3.9zM42.63 16a.4.4 0 0 1 .34-.25.65.65 0 0 1 .42.14c2.42 1.49 3.85 3.33 3.85 5.34 0 3.63-4.67 6.74-11.36 8.11-.43.08-.71.08-.81 0a.26.26 0 0 1 0-.33 1.35 1.35 0 0 1 .18-.24c3.64-4.28 6.42-10.59 7.2-12.42a3.36 3.36 0 0 1 .18-.35zm-18.1-.14c.34-.79.93-2.49 2.29-3.16a3.52 3.52 0 0 1 1.37-.31h.21a35.69 35.69 0 0 1 10.3 1.4h.11c.28.09.41.22.42.37a.47.47 0 0 1-.17.34l-.19.16a23.81 23.81 0 0 1-6.62 3.53 31.67 31.67 0 0 1-4.85 1.55c-1.04.26-4.91.84-2.86-3.9zm-3.73-2.72c.43-.09.76-.09.86 0a.25.25 0 0 1 0 .32 2.25 2.25 0 0 1-.17.25C17.85 18 15.08 24.3 14.3 26.12l-.17.34a.44.44 0 0 1-.35.24.84.84 0 0 1-.43-.14c-2.41-1.48-3.91-3.34-3.91-5.34.01-3.63 4.69-6.75 11.37-8.11z" fill="#fff"/><path d="M28.35 31.73c11.38 0 20.6-4.71 20.6-10.51S39.72 10.7 28.35 10.7s-20.6 4.71-20.6 10.51S17 31.73 28.35 31.73zm3.87-5.15c-.34.79-.93 2.49-2.29 3.16a3.43 3.43 0 0 1-1.38.31h-.2A36.08 36.08 0 0 1 18 28.63h-.09c-.29-.09-.44-.22-.44-.38a.46.46 0 0 1 .17-.33l.19-.16a23.79 23.79 0 0 1 6.62-3.54 32.56 32.56 0 0 1 4.84-1.54c1.11-.26 4.98-.85 2.93 3.9zM42.63 16a.4.4 0 0 1 .34-.25.65.65 0 0 1 .42.14c2.42 1.49 3.85 3.33 3.85 5.34 0 3.63-4.67 6.74-11.36 8.11-.43.08-.71.08-.81 0a.26.26 0 0 1 0-.33 1.35 1.35 0 0 1 .18-.24c3.64-4.28 6.42-10.59 7.2-12.42a3.36 3.36 0 0 1 .18-.35zm-18.1-.14c.34-.79.93-2.49 2.29-3.16a3.52 3.52 0 0 1 1.37-.31h.21a35.69 35.69 0 0 1 10.3 1.4h.11c.28.09.41.22.42.37a.47.47 0 0 1-.17.34l-.19.16a23.81 23.81 0 0 1-6.62 3.53 31.67 31.67 0 0 1-4.85 1.55c-1.04.26-4.91.84-2.86-3.9zm-3.73-2.72c.43-.09.76-.09.86 0a.25.25 0 0 1 0 .32 2.25 2.25 0 0 1-.17.25C17.85 18 15.08 24.3 14.3 26.12l-.17.34a.44.44 0 0 1-.35.24.84.84 0 0 1-.43-.14c-2.41-1.48-3.91-3.34-3.91-5.34.01-3.63 4.69-6.75 11.37-8.11z" fill="url(#linear-gradient-13)"/><path class="cls-25" d="M28.35 31.73c11.38 0 20.6-4.71 20.6-10.51S39.72 10.7 28.35 10.7s-20.6 4.71-20.6 10.51S17 31.73 28.35 31.73zm3.87-5.15c-.34.79-.93 2.49-2.29 3.16a3.44 3.44 0 0 1-1.38.31h-.2a36.23 36.23 0 0 1-10.13-1.37c-.22-.06-.69-.18-.69-.47a.46.46 0 0 1 .17-.33l.19-.16a23.82 23.82 0 0 1 6.62-3.54 32.61 32.61 0 0 1 4.84-1.54c1.05-.22 4.92-.81 2.87 3.94zM42.63 16a.4.4 0 0 1 .34-.25.65.65 0 0 1 .42.14c2.42 1.49 3.86 3.33 3.86 5.34 0 3.63-4.67 6.74-11.36 8.11-.43.08-.71.08-.81 0a.26.26 0 0 1 0-.33 1.4 1.4 0 0 1 .18-.24c3.64-4.28 6.42-10.59 7.2-12.42a3.36 3.36 0 0 1 .17-.35zm-18.1-.14c.34-.79.93-2.49 2.29-3.16a3.52 3.52 0 0 1 1.37-.31h.21a35.84 35.84 0 0 1 10.15 1.38c.21.06.68.15.68.45a.46.46 0 0 1-.17.33l-.19.16a23.81 23.81 0 0 1-6.62 3.53 31.58 31.58 0 0 1-4.85 1.55c-1.04.21-4.91.79-2.86-3.95zm-3.73-2.73c.43-.09.76-.09.86 0a.25.25 0 0 1 0 .32 2.16 2.16 0 0 1-.17.25c-3.64 4.3-6.41 10.6-7.19 12.42l-.17.34a.44.44 0 0 1-.35.24.82.82 0 0 1-.43-.14c-2.41-1.48-3.91-3.34-3.91-5.34.01-3.63 4.69-6.75 11.37-8.11z"/></g></g><g mask="url(#mask-13)"><path d="M34.42 28.76a50.93 50.93 0 0 0 4.58-7.3l-5.31 1.79a8.45 8.45 0 0 1-3.2 6.94 10.49 10.49 0 0 1-3 .35l-.49.78a35.51 35.51 0 0 0 10.16-.9l.47-1.08c-1.43.57-4.98 1.58-3.21-.58z" fill="url(#linear-gradient-14)"/></g><path d="M27.78 19.69l-.37.08a4.1 4.1 0 0 1-2.78-.21c-.73-.48-1.05-1.53-.1-3.74a6.3 6.3 0 0 1 2.05-3l-1.31-1.1a.7.7 0 0 0-.21.17 18.37 18.37 0 0 0-1.52 2.35 18.72 18.72 0 0 0-1.13 2.39 10.19 10.19 0 0 0-.7 2.55A2 2 0 0 0 23 21.5l.27.07c.66.16 1.93.29 4.78-.48z" fill="url(#linear-gradient-15)"/><path d="M41.29 14l-2 .21a.46.46 0 0 1-.17.34l-.19.16a23.88 23.88 0 0 1-6.62 3.54c-.94.37-2 .78-3.22 1.13-.41.12-.83.24-1.26.34l-.37.08a4.44 4.44 0 0 1-2.61-.11L23 21.51l.23.06c.66.16 1.93.29 4.78-.48a48 48 0 0 0 5-1.68c3.49-1.36 7.57-3.7 8.28-5.33a.2.2 0 0 0 0-.08z" fill="url(#linear-gradient-16)"/><path d="M13.76 26.71a.84.84 0 0 1-.43-.14c-2.42-1.49-3.91-3.34-3.91-5.35 0-3.63 4.69-6.76 11.38-8.11.43-.09.76-.09.86 0l2.91-1.46c0-.05-.09-.08-.19-.08a29.52 29.52 0 0 0-10.3 2.79c-3.65 1.85-5.66 4.26-5.66 6.78s2 4.93 5.66 6.78l.49.24a.35.35 0 0 0 .28 0l-1-1.58z" fill="url(#linear-gradient-17)"/><path d="M33.73 20.92c-.8-.24-2.78-.75-10 2.09-3.49 1.36-7.57 3.7-8.28 5.33a.2.2 0 0 0 0 .16l2.07-.24a.25.25 0 0 1 0-.05.46.46 0 0 1 .17-.33l.19-.16a23.85 23.85 0 0 1 6.63-3.54 32.69 32.69 0 0 1 4.85-1.54c1.05-.22 4.93-.81 2.88 3.94-.33.78-.92 2.44-2.24 3.13l1.46 1a.71.71 0 0 0 .21-.16 18.38 18.38 0 0 0 1.52-2.35 19.22 19.22 0 0 0 1.13-2.39 10.22 10.22 0 0 0 .7-2.55 2 2 0 0 0-1.29-2.34z" fill="url(#linear-gradient-18)"/><path d="M29.94 29.75a3.44 3.44 0 0 1-1.38.31h-.2A36.12 36.12 0 0 1 18 28.64h-.09c-.26-.08-.4-.19-.43-.33l-2.07.24a.57.57 0 0 0 .29.23A33.93 33.93 0 0 0 28.36 31q1.11 0 2.2-.06a2.2 2.2 0 0 0 .89-.19l-1.46-1z" fill="url(#linear-gradient-19)"/><path d="M35.09 29a1.28 1.28 0 0 1 .17-.24c3.65-4.29 6.43-10.61 7.21-12.44a3.37 3.37 0 0 1 .17-.32.43.43 0 0 1 .24-.23l-1.06-1.57a.24.24 0 0 0-.14.13 92.48 92.48 0 0 1-7.41 13.19c-.7 1-1.46 2-2.14 3.08-.05.08-.05.14 0 .18l2.94-1.47a.27.27 0 0 1 .02-.31z" fill="url(#linear-gradient-20)"/><path d="M26.82 12.66a3.51 3.51 0 0 1 1.37-.31h.21a35.75 35.75 0 0 1 10.31 1.43h.11c.27.09.4.21.42.35l2-.21c0-.11-.15-.19-.3-.27a33.93 33.93 0 0 0-12.62-2.25q-1.11 0-2.2.06a2.17 2.17 0 0 0-.89.19l1.31 1.1z" fill="url(#linear-gradient-21)"/><path d="M48.25 21.21c0-2.52-2-4.93-5.65-6.78l-.49-.24a.35.35 0 0 0-.28 0l1.06 1.57h.1a.65.65 0 0 1 .43.14c2.42 1.49 3.86 3.34 3.86 5.35v.21h1c-.03-.11-.03-.18-.03-.25z" fill="url(#linear-gradient-22)"/><path d="M47.27 21.41c-.18 3.54-4.8 6.58-11.37 7.92-.43.08-.71.08-.81 0l-2.94 1.47a.23.23 0 0 0 .17 0A29.51 29.51 0 0 0 42.6 28c3.55-1.8 5.54-4.14 5.65-6.59z" fill="url(#linear-gradient-23)"/><g mask="url(#mask-14)"><path d="M41.29 14c0-.11-.15-.19-.3-.27-.48-.2-1-.38-1.49-.55l-.88.61H38.83c.27.09.4.21.42.35a.46.46 0 0 1-.17.34l-.19.16-.18.15 1.75.31a3.59 3.59 0 0 0 .82-1.07.2.2 0 0 0 .01-.03z" fill="url(#linear-gradient-24)"/></g><g mask="url(#mask-15)"><path d="M18 28.64c-.18-.07-.47-.15-.52-.37a.25.25 0 0 1 0-.05.46.46 0 0 1 .17-.33l.19-.16.22-.18-1.68-.4a3.85 3.85 0 0 0-1 1.2.2.2 0 0 0 0 .16.57.57 0 0 0 .29.23q.67.27 1.38.52l1.07-.57z" fill="url(#linear-gradient-25)"/></g><g mask="url(#mask-16)"><path d="M42.6 14.43l-.49-.24a.35.35 0 0 0-.28 0 .24.24 0 0 0-.14.13l-.53 1.12 1.24 1 .07-.18a3.37 3.37 0 0 1 .17-.32.43.43 0 0 1 .24-.23h.1a.65.65 0 0 1 .43.14l.23.15.1-.94q-.53-.32-1.14-.63z" fill="url(#linear-gradient-26)"/></g><g mask="url(#mask-17)"><path d="M26.16 11.51a2.17 2.17 0 0 0-.89.19.7.7 0 0 0-.21.17c-.25.32-.48.65-.7 1l1.25.88a3.63 3.63 0 0 1 1-.93l.24-.14a3.11 3.11 0 0 1 .86-.26v-1z" fill="url(#linear-gradient-27)"/></g><g mask="url(#mask-18)"><path d="M30 29.72h-.05a3.44 3.44 0 0 1-1.38.31h-.2c-.71 0-1.4 0-2.09-.06l-.17.92q1.12.06 2.27.07t2.2-.06a2.2 2.2 0 0 0 .89-.19.71.71 0 0 0 .21-.16 18.38 18.38 0 0 0 1.52-2.35l.1-.2-1.3-.79a4.94 4.94 0 0 1-2 2.51z" fill="url(#linear-gradient-28)"/></g><path d="M21.7 13.18a.27.27 0 0 1 0 .27 2.33 2.33 0 0 1-.17.25c-3.69 4.3-6.46 10.61-7.25 12.43l-.17.34a.51.51 0 0 1-.21.21l1 1.58a.24.24 0 0 0 .14-.13 92.66 92.66 0 0 1 7.41-13.19c.7-1 1.46-2 2.14-3.08a.16.16 0 0 0 0-.15z" fill="url(#linear-gradient-29)"/><g mask="url(#mask-19)"><path d="M14.5 25.61l-.22.52-.17.34a.51.51 0 0 1-.21.21h-.13a.84.84 0 0 1-.43-.14l-.57-.37.08 1.09q.59.37 1.27.71l.49.24a.35.35 0 0 0 .28 0 .24.24 0 0 0 .14-.13l.79-1.66z" fill="url(#linear-gradient-30)"/></g><g mask="url(#mask-20)"><path d="M24.61 11.72c0-.05-.09-.08-.19-.08-1.12.11-2.21.27-3.26.48l-.72 1.07.37-.08c.43-.09.76-.09.86 0a.27.27 0 0 1 0 .27 2.33 2.33 0 0 1-.17.25l-.06.08h1.82c.45-.63.9-1.26 1.32-1.91a.16.16 0 0 0 .03-.08z" fill="url(#linear-gradient-31)"/></g><path d="M28.35 10.69C17 10.69 7.73 15.4 7.73 21.21S17 31.74 28.35 31.74 49 27 49 21.21s-9.26-10.52-20.65-10.52zM42.62 28a32.09 32.09 0 0 1-14.26 3 32.1 32.1 0 0 1-14.26-3c-3.65-1.86-5.66-4.29-5.66-6.83s2-5 5.66-6.83a32.1 32.1 0 0 1 14.26-3 32.09 32.09 0 0 1 14.26 3c3.65 1.86 5.66 4.29 5.66 6.83s-2.01 5.01-5.66 6.83z" fill="url(#linear-gradient-32)"/><g mask="url(#mask-21)"><path d="M27.78 19.69l-.37.08a4.11 4.11 0 0 1-2.78-.21 1.81 1.81 0 0 1-.65-2l-2.14.77a6 6 0 0 0-.13.79A2 2 0 0 0 23 21.5l.27.07c.66.16 1.93.29 4.78-.48l.94-.27.01-1.46c-.37.12-.79.23-1.22.33z" fill="url(#linear-gradient-33)"/></g><g mask="url(#mask-22)"><path d="M35 23.27a2 2 0 0 0-1.28-2.35c-.7-.21-2.31-.63-7.55 1.18l.16 1.4a24.52 24.52 0 0 1 3-.87c1-.21 4.49-.74 3.17 3.18l1.94-.39a9 9 0 0 0 .56-2.15z" fill="url(#linear-gradient-34)"/></g><g mask="url(#mask-23)"><path d="M34.22 21.14L32 22.78a1.44 1.44 0 0 1 .72.86L34.9 22a1.61 1.61 0 0 0-.68-.86z" fill="url(#linear-gradient-35)"/></g><g mask="url(#mask-24)"><path d="M35.9 29.33c-.43.08-.71.08-.81 0a.27.27 0 0 1 0-.3 1.28 1.28 0 0 1 .17-.24l.41-.49-1.75-.3c-.59.85-1.21 1.69-1.78 2.55-.05.08-.05.14 0 .18a.23.23 0 0 0 .17 0 35.45 35.45 0 0 0 4-.62v-.92z" fill="url(#linear-gradient-36)"/></g><path class="cls-25" d="M20.8 13.1c-6.69 1.36-11.38 4.48-11.38 8.11 0 2 1.5 3.86 3.91 5.35a.84.84 0 0 0 .43.14.44.44 0 0 0 .35-.24l.17-.34c.79-1.82 3.56-8.14 7.21-12.43a2.33 2.33 0 0 0 .17-.25.25.25 0 0 0 0-.32c-.09-.12-.42-.12-.86-.02zM38.83 13.82h-.11a35.75 35.75 0 0 0-10.31-1.43h-.21a3.51 3.51 0 0 0-1.37.31c-1.36.68-2 2.38-2.29 3.17-2.05 4.75 1.83 4.16 2.88 3.94a31.74 31.74 0 0 0 4.85-1.55 23.88 23.88 0 0 0 6.62-3.54l.19-.16a.46.46 0 0 0 .17-.34c-.01-.22-.14-.31-.42-.4z"/><path d="M24.39 21.76a4.44 4.44 0 0 1-1.42-.2c-1-.3-1.45-1.11-1.32-2.41a10.24 10.24 0 0 1 .71-2.56 19 19 0 0 1 1.13-2.4A18.11 18.11 0 0 1 25 11.82a1.56 1.56 0 0 1 1.15-.38c.74 0 1.48-.06 2.2-.06A33.79 33.79 0 0 1 41 13.64c.11 0 .44.2.32.47-.72 1.66-4.82 4-8.32 5.37-3.86 1.52-6.76 2.28-8.61 2.28zm4-10.26c-.72 0-1.46 0-2.19.06a1.47 1.47 0 0 0-1.06.33 18.09 18.09 0 0 0-1.51 2.35 18.55 18.55 0 0 0-1.13 2.38 10.32 10.32 0 0 0-.7 2.53c-.12 1.23.3 2 1.24 2.29a4.37 4.37 0 0 0 1.38.19c1.84 0 4.72-.77 8.58-2.28 3.47-1.36 7.54-3.67 8.25-5.3 0-.08 0-.18-.26-.31a33.66 33.66 0 0 0-12.63-2.23z" fill="url(#linear-gradient-37)"/><path d="M23.28 13.62c-.3.42-.61.85-.9 1.28a91.5 91.5 0 0 0-7.12 12.59l.11.05A91.26 91.26 0 0 1 22.48 15c.29-.43.6-.86.9-1.28s.59-.84.89-1.26h-.13z" fill="url(#linear-gradient-38)"/><path d="M33.44 28.81c.3-.42.61-.85.9-1.28a91.37 91.37 0 0 0 7.06-12.46h-.13a91.08 91.08 0 0 1-7 12.41c-.29.43-.6.86-.9 1.28l-.81 1.15h.15z" fill="url(#linear-gradient-39)"/><path d="M28.36 31.05a33.81 33.81 0 0 1-12.65-2.25c-.11-.05-.44-.2-.32-.47.72-1.66 4.82-4 8.31-5.37 3.87-1.52 6.77-2.29 8.62-2.29a4.5 4.5 0 0 1 1.42.2c1 .3 1.45 1.12 1.32 2.41a10.22 10.22 0 0 1-.7 2.56 19 19 0 0 1-1.13 2.4 18.24 18.24 0 0 1-1.52 2.36 1.55 1.55 0 0 1-1.15.38c-.73.02-1.47.07-2.2.07zm4-10.26c-1.84 0-4.72.77-8.58 2.28-3.47 1.36-7.54 3.67-8.25 5.3 0 .08 0 .18.26.31a33.67 33.67 0 0 0 12.6 2.24c.73 0 1.47 0 2.19-.06.57 0 .89-.14 1.06-.33a18.1 18.1 0 0 0 1.51-2.35 19 19 0 0 0 1.13-2.38 10.12 10.12 0 0 0 .7-2.53c.12-1.23-.3-2-1.24-2.29a4.38 4.38 0 0 0-1.41-.18z" fill="url(#linear-gradient-40)"/><path d="M24.66 11.68s-.08-.1-.22-.1a29.55 29.55 0 0 0-10.32 2.8c-3.67 1.86-5.69 4.29-5.69 6.84s2 5 5.69 6.84l.49.24a.45.45 0 0 0 .19 0 .32.32 0 0 0 .3-.18l.29-.61-.11-.05-.28.64a.24.24 0 0 1-.34.08l-.49-.24c-3.63-1.84-5.62-4.23-5.62-6.73s2-4.89 5.62-6.73a29.44 29.44 0 0 1 10.26-2.78h.12c.01 0 0 .06 0 .1l-.39.58h.13l.36-.54a.21.21 0 0 0 .01-.16z" fill="url(#linear-gradient-41)"/><path d="M42.63 14.39l-.49-.24a.36.36 0 0 0-.5.14l-.36.77h.13l.35-.73a.2.2 0 0 1 .19-.11.34.34 0 0 1 .14 0l.49.24c3.62 1.84 5.62 4.23 5.62 6.73s-2 4.89-5.62 6.73a29.41 29.41 0 0 1-10.22 2.78c-.1 0-.24 0-.15-.13l.48-.71h-.15l-.44.65a.21.21 0 0 0 0 .22c.06.11.21.1.32.09a29.52 29.52 0 0 0 10.25-2.79c3.67-1.86 5.69-4.29 5.69-6.84s-2.06-4.94-5.73-6.8z" fill="url(#linear-gradient-42)"/></g><path class="cls-25" d="M0 0h56.69v42.52H0z"/></g></g></svg>