<svg xmlns="http://www.w3.org/2000/svg" width="20mm" height="15mm" viewBox="0 0 56.69 42.52"><g data-name="Слой 2"><g data-name="Слой 1"><path fill="none" d="M0 0h56.69v42.52H0z"/><path d="M19.47 28.89c-.8-.5-1.05-1.11-2.25-1.62a8.88 8.88 0 0 1-1.68-5.5 14.5 14.5 0 0 1 .65-4.16L17.4 20a11.73 11.73 0 0 0-.1 1.73c0 8 5.31 9.64 10.92 9.61s10.92-1.59 10.92-9.61a15.27 15.27 0 0 0-.14-2.22l.87-1.79a10.73 10.73 0 0 1 .68 4.07c0 2.37-.82 4.76-2.6 5.89l-.28.43-.31.38-.32.37-.35.34-.37.31-.38.28-.4.27-.42.23-.43.21-.45.2-.45.16-.46.15-.49.14-.49.12-.49.09-.51.08-.51.07H25.6l-.51-.07-.51-.08-.5-.09-.48-.12-.47-.15-.46-.15-.46-.16-.44-.2-.43-.21-.42-.28-.4-.27-.38-.28-.37-.31-.3-.3zm-3.29-14.43L16 14.3a11.33 11.33 0 0 0-2.33 7.48c0 10.11 8.24 11.75 14.52 11.75s14.52-1.64 14.52-11.75a11.33 11.33 0 0 0-2.31-7.48l-.16.16a25.61 25.61 0 0 1-.31 2.66 11.75 11.75 0 0 1 1 4.66c.09 5-2.45 10.29-12.67 10.64-6.42-.06-10.47-2-12.12-6.18A6.35 6.35 0 0 1 14 23v-3l.12-.81.16-.77.18-.72.24-.7.27-.64.3-.6.34-.55.31-.44a5.66 5.66 0 0 0 .53 2.23c3.25 2.73 9 2.38 11.73 7.88 3-6.1 8.28-5.34 11.53-8.06l.3-2.61c-3.79 4.09-8.94 2.7-11.83 8.84-3.11-6-8.19-4.54-12-8.58zm2.55 1.47c1.94-3 5.64-3.77 9.47-3.75s7.39.7 9.38 3.64L39.94 14l.14-.1c-2.95-3.17-7.81-3.9-11.87-3.9s-9.14.72-12 4.09l.08.07a9.44 9.44 0 0 0 2 1.63.41.41 0 0 0 .37 0zm21-2l-1.06.67c-3.13-2.76-6.48-3.44-10.46-3.41s-7.54.68-10.64 3.63l-1.09-.66.3-.32.45-.42.47-.42.5-.36.51-.32.53-.29.55-.27.57-.24.58-.21.59-.2.59-.16.61-.15.61-.13.61-.1.62-.08.61-.07.61-.06h4.82l.62.06.61.07.62.08.61.1.61.13.6.15.6.16.59.2.58.21.57.24.54.27.53.29.52.32.49.36.47.38.45.42.09.09zM28.18 26.74a8.89 8.89 0 0 0-5-5.12l-5.6-1.88-.77-2.14a22.8 22.8 0 0 0 5.35 2.52 10 10 0 0 1 6.08 5.57v1.05zm0 0c1.34-2.89 2.81-4.37 5-5.3l5.55-2 .77-2.07A23.82 23.82 0 0 1 34 20c-3 1.14-4.4 2.73-5.87 5.7v1.05zm9.77-9.06l.35-.18.34-.2.32-.2.31-.22.23-.18.21-1.88-.27.27-.44.31-.38.3-.39.27-.4.24-.39.23-.4.22-.4.2-.81.37-2 .84-.79.36-.38.2-.36.2a4.35 4.35 0 0 0-1.56 2.34L31 21l.38-.28.38-.27.39-.24.39-.22.39-.21.4-.18.39-.17.8-.33c.77-.3 1.55-.58 2.32-.89l.36-.15.37-.16.35-.16zm-6.7 1.84l-.35.28-.35.31-.32.32-.1.1a3.34 3.34 0 0 0-.44 1.69l.27-.3.36-.36.16-.14a4.61 4.61 0 0 1 .82-1.93zm-8.1-1l-.78-.34-2-.81-.81-.36-.4-.2-.4-.2-.4-.23-.39-.24-.39-.27-.39-.28-.38-.31-.42-.28-.27-.27c.06.34.1.66.15 1l.07.33.06.3.07.24.08.17.06.08.29.22.31.23.33.21.33.2.36.18.36.18.37.17.77.32c.81.32 1.63.62 2.44 1l.82.36.42.18.4.21.4.22.4.23.21.14a20.1 20.1 0 0 0-1.69-2.3z" fill="#231f20" fill-rule="evenodd"/></g></g></svg>