<svg xmlns="http://www.w3.org/2000/svg" width="20mm" height="15mm" viewBox="0 0 56.69 42.52"><g data-name="Слой 2"><g data-name="Слой 1"><path fill="none" d="M0 0h56.69v42.52H0z"/><path d="M32.32 11.39h.44l.32.09.33.09.32.1.32.1.32.11.32.11.16.06.16.06.16.06.16.06.16.07.16.06.15.07.16.07.15.07.15.07.15.07.15.07.15.08.15.08.15.08.15.08.15.08.15.09.14.08.15.09.08.07.08.06.08.06.08.05.08.05.08.05.08.05.08.06.09.07.08.07.09.07.09.07.08.07.09.07.09.07.08.07L41 16.07v.8l.1.1.11.19.1.2.1.2.09.2.09.2.08.21.08.21.07.21.07.22.06.22.05.22.05.22v3.96L43 24.5l-.06.22-.07.22V25.36l-.05.14-.05.14-.05.14-.06.14-.06.14-.06.13-.06.13-.07.13-.07.13-.07.13-.08.13L42 27l-.08.13-.08.13-.09.13-.09.13-.09.12-.09.12-.09.12-.1.12-.1.12-.1.12-.1.12-.11.12-.11.11-.11.11-.11.11-.12.11-.12.11h-.05l-.06.08-.06.08h-.43l-.11.07-.11.06-.11.06-.11.06H37.64l-.11.1-.17.08-.17.08-.17.08-.17.08-.16.08-.17.08-.17.07-.17.07-.17.07-.17.07-.17.07-.17.06-.17.06-.17.06-.18.05-.18.05h-9.36l-.32-.05-.32-.06-.35 2.46-.31-.07-.31-.07-.31-.08-.31-.08-.3-.08-.3-.09-.3-.09-.3-.1-.3-.1-.3-.1h-.51l-.1-.06-.1-.06-.1-.07-.1-.06h-.44l-.26-.15-.25-.15-.44-.59-.25-.16-.25-.16-.25-.17-.12-.08-.12-.09-.12-.07-.12-.09-.12-.09-.13-.09-.12-.09-.12-.09-.12-.1-.12-.09-.12-.1-.11-.1-.11-.1-.11-.1-.11-.1-.11-.1-.11-.11-.11-.11-.11-.11-.15-.13-.06-.05-.06-.05-.06-.05-.06-.06V26.9h-.05v-.25l-.05-.05-.1-.19-.09-.19-.08-.2-.08-.2-.08-.2-1.39-.62-.07-.21-.06-.21-.06-.21-.05-.21V20.18l.05-.21.05-.21.06-.21.07-.21.05-.14.05-.14.07-.16.06-.14.06-.14.06-.14.07-.14.07-.14.07-.14.07-.14.08-.14.08-.14.08-.13.09-.13.09-.13.09-.13L15 17l.09-.13.1-.13.1-.13.1-.13.1-.13.1-.13.11-.13.11-.13.11-.13.11-.12.11-.12.12-.12.12-.12.12-.12.12-.12h.23l.07-.05H18.67l.16-.08.16-.08.16-.08.16-.08.16-.07.16-.07.16-.07.16-.06h.2l.19-.09.19-.08.19-.08.2-.08.2-.07.2-.07.2-.07.2-.07.2-.06.21-.06.2-.06.21-.05.21-.05.21-.05.21-.05h8.21zm1.32 1.26l-.23-.08-.23-.08-.23-.07-.23-.07-.24-.07-.24-.07-.24-.04-.24-.06-.24-.05h-.24L31 12h-8.1l-.15.06-.15.06-.15.06-.15.07-.14.07L22 13l-.14.07-.14.07-.14.07-.14.08-.14.08-.14.08-.14.08-.14.08-.14.09-.14.09H19.91l-.1.08-.09.07v.1l-.06.06-.06.07-.06.07-.06.07-.12.14-.12.14-.07.07-.07.07-.07.07-.08.06v.2l-.12.22-.12.21-.12.21-.12.21-.06.1-.06.11-.05.11-.05.11-.05.11v2.69l-.07.25-.06.25-.06.26-.06.26V23.9l.05.22.06.22V25.82l.09.15.08.16V26.99h.2l.37-.75.37-.75.36-.75.37-.75.36-.75.37-.75.36-.75.37-.75.36-.75.37-.75.37-.75.36-.75.37-.75.36-.75.37-.75.36-.75h5.54l.05.05-.05.05-.07.14-.07.14-.07.14-.07.13-.07.13-.07.13-.07.13-.07.13-.07.13-.06.13-.07.13-.06.13-.06.14-.06.13-.06.14-.06.14-.1.17-.09.17-.09.17-.09.17-.08.17-.08.17-.08.17-.08.17-.08.17-.08.17-.08.17-.08.17-.08.17-.08.17-.08.17-.08.17-.1.05-.07.13-.07.13-.07.13-.07.13-.08.13-.08.13-.08.13-.08.13-.08.13-.08.13-.09.13-.09.12-.09.12-.09.12-.09.11-.1.11v.14l-1.37 1.37h-.25l-.09.07-.09.08-.09.08-.08.08-.18.09-.18.09L21.2 26H21l-.18.09-.17.09-.18.09-.18.09-.18.09-.18.09-.18.08-.18.08-.18.08-.18.08-.18.07-.19.07h-.31v.07l6 .05v.34l-.07.16L24 28l-.07.15-.07.15-.07.15-.06.15v.15l-5.01.25V29.17l.05.07.06.07h.28l.09.05.09.05.08.05H19.82l.18.07.18.07h.33l.28.11.29.11.29.1.3.1.3.09.31.08.31.08.31.07.32.07.32.05.33.05H30.86l.32-.05.31-.06.31-.07.3-.07.3-.08.3-.08h.24L33 32h1l.14-.08.15-.08.15-.08.15-.07.16-.07.16-.07.16-.07.16-.06h.34l.08-.06.09-.06.09-.06.17-.64.09-.06.09-.06.08-.06.08-.06H36.93l.2-.18.2-.18.1-.09.1-.09.09-.09.09-.09.09-.09.09-.09.09-.1.09-.1.09-.1.09-.1L39 28l.08-.11V27.58l.15-.21.14-.22.13-.23.12-.23.68-.69.11-.24.1-.25.09-.25.09-.25.08-.26.07-.26.06-.26.06-.27v-3.52l-.06-.26-.07-.26-.07-.26-.08-.26-.09-.25-.1-.25v-.36l-.09-.17-.09-.17L40 18l-.1-.17-.1-.17-.1-.18v-.16h-.11l-.11.21-.11.21-.11.21-.11.21-.11.21-.11.21-.11.21-.11.21-.11.21-.11.21-.11.21-.11.21L38 20l-.11.21-.11.21-.11.21V20.98l-.09.08-.09.08-.09.08-.09.08-.18.18-.18.18-.18.18-.18.18-.89.98-.09.08-.09.08-.09.08H33.72l-.14.06-.14.06-.14.06-.14.06h-.62v.07l4.06.05V24.61h-5.39l-.05-.05.32-.64.32-.64.32-.64.32-.65.32-.64.32-.64.32-.64.32-.64.32-.65.32-.64.32-.64.32-.64.32-.64.32-.65.32-.64.32-.64h2l-.1-.09-.1-.09-.46.89-.09-.08h-.05l-.11-.09-.11-.09-.11-.09-.11-.09-.11-.09-.11-.09-.11-.08-.11-.08-.11-.08-.11-.08-.11-.06-.11-.07-.16-.09-.12-.07-.12-.07-.12-.06-.13-.08-.13-.07-.13-.07-.13-.07-.13-.07-.13-.07-.13-.06-.13-.06-.06-.09h-.13l-.13-.06-.13-.05-.15-.09-.13-.05-.13-.05h-.13zm1.21 3h-4.8l-.35.72-.35.72-.35.72-.35.72-.35.72-.35.72-.35.72-.35.72-.35.72-.35.72-.35.72-.35.72-.35.72-.35.72-.35.72-.35.72v.1h6v-.32l.08-.15.08-.15v-.55h-5l-.1-.1.2-.08.2-.07.19-.08.2-.08H26.85l.09-.05.09-.06h.31l.15-.07.15-.07.14-.08.14-.08.14-.08.14-.08H30l.19-.19.17-.17.16-.16.16-.16.15-.16.15-.16.16-.18.17-.19v-.05l.07-.06.08-.07v-.19l.06-.06.05-.06.05-.06V22.85l.08-.14.08-.14V21.89l.05-.08.05-.08.06-.08.12-.27.12-.27.12-.27.12-.27.12-.27.13-.27.12-.27.12-.27.12-.27.12-.27.12-.27.12-.27.13-.27.12-.27.12-.27z" fill="#1d519f" fill-rule="evenodd"/></g></g></svg>