<svg xmlns="http://www.w3.org/2000/svg" width="20mm" height="15mm" viewBox="0 0 56.69 42.52"><defs><style>.cls-1{fill:#003a80;fill-rule:evenodd}</style></defs><g id="Слой_2" data-name="Слой 2"><g id="Слой_1-2" data-name="Слой 1"><g id="_3_столбик" data-name="3 столбик"><path class="cls-1" d="M44.32 18.82A1.3 1.3 0 0 1 45.56 20v1.21a9.89 9.89 0 0 1 0 1.09 1.33 1.33 0 0 1-1.24 1.24h-1a1.36 1.36 0 0 1-1.24-1.24 9.54 9.54 0 0 1 0-1.06V20a1.34 1.34 0 0 1 1.28-1.17 1.69 1.69 0 0 1 .45 0h.49zm-.38-2.19a15.29 15.29 0 0 1 2 .11 3.64 3.64 0 0 1 3.13 3 11.07 11.07 0 0 1 .11 1.47 10 10 0 0 1-.18 1.46 3.68 3.68 0 0 1-3.13 3c-.57 0-1.24.11-2 .11h-.23c-.75 0-1.4-.08-2-.11a3.64 3.64 0 0 1-3.09-3 10 10 0 0 1-.11-1.47 11.07 11.07 0 0 1 .11-1.47 3.6 3.6 0 0 1 3.09-3 15.72 15.72 0 0 1 2-.11zM30.33 21.2a6.49 6.49 0 0 1 .15-1.47 3.6 3.6 0 0 1 3.09-3 15.29 15.29 0 0 1 2-.11 17.41 17.41 0 0 1 2.11.11.45.45 0 0 1 .38.45v1.36a.43.43 0 0 1-.41.45h-2.33A1.3 1.3 0 0 0 34 20.18a9.22 9.22 0 0 0-.08 1 9.22 9.22 0 0 0 .08 1 1.33 1.33 0 0 0 1.24 1.21c.38 0 .83.08 1.24.08h1.09a.43.43 0 0 1 .41.45v1.36a.45.45 0 0 1-.38.45h-2.11c-.79 0-1.4-.08-2-.11a3.64 3.64 0 0 1-3.09-3 6 6 0 0 1-.15-1.43zM29.31 23.42a.46.46 0 0 1 .45.45v1.36a.44.44 0 0 1-.45.45h-5.39a1.77 1.77 0 0 1-1.77-1.77v-5.35a1.77 1.77 0 0 1 1.77-1.77h5.39a.43.43 0 0 1 .45.41v1.32a.44.44 0 0 1-.45.45H26a.41.41 0 0 0-.45.41v.83h2.83a.49.49 0 0 1 .45.45v1.13a.46.46 0 0 1-.45.45h-2.84V23a.44.44 0 0 0 .45.45zM15.58 25.68a1.79 1.79 0 0 1-1.7-1.24L12 17.31v-.11a.43.43 0 0 1 .45-.41h2.75a.45.45 0 0 1 .45.34l1.43 6a.17.17 0 0 0 .19.15.16.16 0 0 0 .15-.15l1.47-6a.44.44 0 0 1 .41-.34h1.6a.43.43 0 0 1 .45.41v.11l-1.77 7a1.75 1.75 0 0 1-1.73 1.4zM8 16.78h2.68a.43.43 0 0 1 .45.41v8a.44.44 0 0 1-.45.45H8a.46.46 0 0 1-.45-.45v-8a.45.45 0 0 1 .45-.41z"/></g><path fill="none" d="M0 0h56.69v42.52H0z"/></g></g></svg>