<svg xmlns="http://www.w3.org/2000/svg" width="20mm" height="15mm" viewBox="0 0 56.69 42.52"><defs><style>.cls-2{fill:#002e66}.cls-2,.cls-3,.cls-5{fill-rule:evenodd}.cls-3{fill:#dcddde}.cls-5{fill:#ce1141}</style></defs><g id="Слой_2" data-name="Слой 2"><g id="Слой_1-2" data-name="Слой 1"><path fill="none" d="M0 0h56.69v42.52H0z"/><path class="cls-2" d="M43.31 21.21a15 15 0 1 0-15 15 15 15 0 0 0 15-15z"/><path class="cls-3" d="M28.35 7.33a13.88 13.88 0 1 1-13.89 13.88A13.91 13.91 0 0 1 28.35 7.33z"/><path class="cls-2" d="M41.72 21.21a13.37 13.37 0 1 0-13.37 13.38 13.37 13.37 0 0 0 13.37-13.38z"/><path class="cls-3" d="M21.17 15.66a2.13 2.13 0 0 0 1.4.73c.7 0 1.21-.26 1.69-.26a1.42 1.42 0 0 1 1.24.8 1.61 1.61 0 0 0-1-.29c-.38 0-1.05.38-1.63.38a2 2 0 0 1-1.69-1.37z"/><path d="M26 13.14l-1.6-3.7c.67 0 1.34.29 1.34.83a1 1 0 0 1-.19.54.68.68 0 0 1 .48-.22.61.61 0 0 1 .61.64.61.61 0 0 1-.61.61H26a1.25 1.25 0 0 0 1 .38 1.17 1.17 0 0 0 1-.64.56.56 0 0 1-.38.13.61.61 0 0 1-.62-.61.65.65 0 0 1 1-.54.56.56 0 0 1-.22-.45.64.64 0 0 1 1.28 0 .51.51 0 0 1-.19.41.93.93 0 0 1 .29-.06.64.64 0 0 1 .64.64.61.61 0 0 1-.64.61.91.91 0 0 1-.41-.13 1.35 1.35 0 0 0 1.15.7 1.49 1.49 0 0 0 1-.41h-.1a.62.62 0 1 1 0-1.24.67.67 0 0 1 .45.22.86.86 0 0 1-.22-.54c0-.54.67-.83 1.31-.83l-1.53 3.67h-4.6a.4.4 0 0 0-.19 0z" fill="#e6b23a" fill-rule="evenodd"/><path class="cls-3" d="M25.54 13.94c.06-.38.35-.83.67-.83h4.63a3.39 3.39 0 0 1 .29.35 2.41 2.41 0 0 1 .87-.16 3.47 3.47 0 0 1 .41 0s.19 0 .22.1a5 5 0 0 1-.57 1.05 3.64 3.64 0 0 1 1 3.16 4.71 4.71 0 0 0-.93-.38 3.18 3.18 0 0 1 .54 1.85 3.53 3.53 0 0 1-.29 1.37l-.13.35a3.78 3.78 0 0 0-.73-.83 4.57 4.57 0 0 1 .16 1 2.42 2.42 0 0 1-1.15 2.14 5.65 5.65 0 0 0-.8-1.4 5 5 0 0 1-.32 2.33 4.49 4.49 0 0 1-2.74 1.6A10.47 10.47 0 0 0 27 22a4.79 4.79 0 0 0-.64 2 2.84 2.84 0 0 1-1.28-2.2 2.92 2.92 0 0 1 .51-1.53 2.06 2.06 0 0 0-1.09 1.12 4.07 4.07 0 0 1 .5-2.54c-1.15 0-1.47-.7-1.4-1.72a1.64 1.64 0 0 0 1.15.48 2.1 2.1 0 0 0 1.69-1 4.25 4.25 0 0 0-.73-.32 1.52 1.52 0 0 1-.93-.57.74.74 0 0 0-.61-.19 3.24 3.24 0 0 0-1.53.45c.1-1.85 1-2.43 1.69-2.43a2.53 2.53 0 0 1 1.21.38zM21.71 26.35c1.18 0 2.27.19 2.27 1.18h-1.6c0-.41-.29-.48-.67-.48s-.61.1-.61.35.22.38.8.38c1.44 0 2.07.26 2.2.93l.93-2.3h2.07l1 2.46 1-2.46h2l1.15 2.71v-2.7h3.29a.91.91 0 0 1 1 .93.81.81 0 0 1-.77.86.89.89 0 0 1 .89.93 1 1 0 0 1-1 1h-4.38l-.22-.57h-1.82l-.26.57h-1.75l-.23-.6h-1.84l-.26.57h-1.4l.13-.32c-.22.19-.61.41-1.88.41s-2.31-.2-2.34-1.2H21c0 .22.16.48.67.48s.7-.19.7-.35-.16-.41-.93-.41c-1.12 0-1.91-.19-1.91-1.09s1.18-1.24 2.14-1.24zm7.88 2.33h1.12l-.57-1.37-.54 1.37zm-4.08 0h1.12L26 27.31l-.54 1.37zm9.32-.83a.28.28 0 0 0 .26-.29.27.27 0 0 0-.26-.26h-1.19v.54zm-1.18 1.31h1.24a.28.28 0 0 0 .29-.26.26.26 0 0 0-.29-.26h-1.25v.51z"/><path class="cls-5" d="M26.91 14.51a.41.41 0 0 1-.45.32.4.4 0 0 1-.41-.29.4.4 0 0 1-.19 0c0 .45.32.57.64.57a.62.62 0 0 0 .67-.57z"/><path class="cls-5" d="M25.51 14.39a2.63 2.63 0 0 0-1.18-.39c-.77 0-1.09.86-1.21 1.34a3.7 3.7 0 0 1 1.05-.19 1.12 1.12 0 0 1 .93.35.82.82 0 0 0 .61.38c.41.13 1.15.38 1.15.73a.32.32 0 0 1-.1.26 2.53 2.53 0 0 1-2 1.18 2.12 2.12 0 0 1-.7-.13.93.93 0 0 0 1 .54 4.36 4.36 0 0 0 1.09-.16 2.85 2.85 0 0 0-1.18 1.91 2.56 2.56 0 0 1 1.63-.48 3.17 3.17 0 0 0-1.05 2.11 2 2 0 0 0 .54 1.4 4.57 4.57 0 0 1 1.24-2.3 15.6 15.6 0 0 1 0 4.15A3.6 3.6 0 0 0 29 23.86a7.05 7.05 0 0 0 .22-3 4.09 4.09 0 0 1 1.4 1.66 2 2 0 0 0 .6-1.52 4.36 4.36 0 0 0-.45-1.82 2.66 2.66 0 0 1 1.31.8 3.13 3.13 0 0 0 .16-.93 3.32 3.32 0 0 0-1-2.33 4 4 0 0 1 1.44.26 3 3 0 0 0-.8-2.2 4.51 4.51 0 0 1-2.2 1.44c1 .73.67 1.85-.22 3a2.45 2.45 0 0 0-.57-1.22 2.28 2.28 0 0 1-1.34 2.33 4.35 4.35 0 0 0-.13-1.33c-.1.1-.26.22-.41.35a1.34 1.34 0 0 1 0-.51 7 7 0 0 0 .64-.7 6 6 0 0 1 .32 1.4 2.27 2.27 0 0 0 .31-2.54 2.48 2.48 0 0 1 1.28 1.28c.7-1.18 0-1.79-1.12-2.2a4.5 4.5 0 0 0 3.64-2.33 2.57 2.57 0 0 0-2.17 1.18.65.65 0 0 1-.26-.26 3.36 3.36 0 0 1 1.12-1c0-.06-.06-.13-.1-.13h-4.43c-.16 0-.32.29-.38.61a1.56 1.56 0 0 0 .41 0h.51a2.14 2.14 0 0 1 1.09.22.62.62 0 0 1-.16.29c-.06 0-.13 0-.19-.06a1 1 0 0 1-1 .89.91.91 0 0 1-1-1.09z"/></g></g></svg>