<svg xmlns="http://www.w3.org/2000/svg" xmlns:xlink="http://www.w3.org/1999/xlink" width="20mm" height="15mm" viewBox="0 0 56.69 42.52"><defs><style>.cls-4{fill:url(#Безымянный_градиент_18)}.cls-16{isolation:isolate;opacity:.3;fill:url(#Безымянный_градиент_31)}</style><linearGradient id="Безымянный_градиент_37" data-name="Безымянный градиент 37" x1="-155.65" y1="-516.21" x2="-113.55" y2="-543.56" gradientTransform="matrix(.65 0 0 -.65 114.21 -317.77)" gradientUnits="userSpaceOnUse"><stop offset="0" stop-color="#0f1130"/><stop offset=".25" stop-color="#656565"/><stop offset=".42" stop-color="#010101"/><stop offset="1" stop-color="#797979"/></linearGradient><linearGradient id="Безымянный_градиент_28" data-name="Безымянный градиент 28" x1="-50.16" y1="-347.28" x2="-7.15" y2="-346.96" gradientTransform="matrix(.65 0 0 -.65 46.83 -197.84)" gradientUnits="userSpaceOnUse"><stop offset="0" stop-color="#989898"/><stop offset=".22" stop-color="#3d3d3d" stop-opacity=".87"/><stop offset=".52" stop-color="#969696"/><stop offset=".75" stop-color="#838383"/><stop offset="1" stop-color="#5b5b5b"/></linearGradient><linearGradient id="Безымянный_градиент_20" data-name="Безымянный градиент 20" x1="-658.05" y1="-396.93" x2="-658.13" y2="-386.38" gradientTransform="matrix(.65 0 0 -.65 456.27 -226)" gradientUnits="userSpaceOnUse"><stop offset="0" stop-color="#010101"/><stop offset="1" stop-color="#010101" stop-opacity="0"/></linearGradient><linearGradient id="Безымянный_градиент_18" data-name="Безымянный градиент 18" x1="-670.33" y1="-366.67" x2="-639.51" y2="-401.78" gradientTransform="matrix(.65 0 0 -.65 456.65 -225.87)" gradientUnits="userSpaceOnUse"><stop offset="0" stop-color="#5b5b5b"/><stop offset=".27" stop-color="#515151"/><stop offset=".63" stop-color="#676767"/><stop offset=".67" stop-color="#676767"/><stop offset="1" stop-color="#676767"/></linearGradient><linearGradient id="Безымянный_градиент_19" data-name="Безымянный градиент 19" x1="301.8" y1="-82.88" x2="333.34" y2="-96.48" gradientTransform="matrix(.65 0 0 -.65 -181.08 -40.23)" gradientUnits="userSpaceOnUse"><stop offset="0" stop-color="#333332" stop-opacity="0"/><stop offset=".39" stop-color="#333332" stop-opacity=".95"/><stop offset=".47" stop-color="#333332" stop-opacity=".9"/><stop offset=".7" stop-color="#e1e1e1" stop-opacity=".5"/><stop offset="1" stop-color="#c8c8c8" stop-opacity="0"/></linearGradient><linearGradient id="Безымянный_градиент_20-2" x1="-658.51" y1="-391.31" x2="-658.34" y2="-386.16" xlink:href="#Безымянный_градиент_20"/><linearGradient id="Безымянный_градиент_21" data-name="Безымянный градиент 21" x1="307.27" y1="-79.18" x2="311.58" y2="-83.73" gradientTransform="matrix(.65 0 0 -.65 -180.37 -40.94)" gradientUnits="userSpaceOnUse"><stop offset="0" stop-color="#291910"/><stop offset="1" stop-color="#291910" stop-opacity="0"/></linearGradient><linearGradient id="Безымянный_градиент_22" data-name="Безымянный градиент 22" x1="-669.05" y1="-370.61" x2="-670.7" y2="-366.79" gradientTransform="matrix(.61 0 0 -.62 437.47 -217.95)" gradientUnits="userSpaceOnUse"><stop offset="0" stop-color="#b4b4b4" stop-opacity="0"/><stop offset=".16" stop-color="#b4b4b4" stop-opacity=".3"/><stop offset=".34" stop-color="#b4b4b4" stop-opacity=".87"/><stop offset=".41" stop-color="#b4b4b4" stop-opacity=".75"/><stop offset=".66" stop-color="#b4b4b4" stop-opacity="0"/><stop offset="1" stop-color="#b4b4b4" stop-opacity="0"/></linearGradient><linearGradient id="Безымянный_градиент_23" data-name="Безымянный градиент 23" x1="-664.09" y1="-380.76" x2="-666.22" y2="-374.13" gradientTransform="matrix(.61 0 0 -.62 433.17 -212.88)" gradientUnits="userSpaceOnUse"><stop offset="0" stop-color="#b4b4b4" stop-opacity="0"/><stop offset=".12" stop-color="#b4b4b4" stop-opacity=".37"/><stop offset=".29" stop-color="#b4b4b4" stop-opacity=".87"/><stop offset=".38" stop-color="#b4b4b4" stop-opacity=".75"/><stop offset=".52" stop-color="#b4b4b4" stop-opacity=".5"/><stop offset="1" stop-color="#b4b4b4" stop-opacity="0"/></linearGradient><linearGradient id="Безымянный_градиент_13" data-name="Безымянный градиент 13" x1="334.46" y1="-331.58" x2="340.8" y2="-350.52" gradientTransform="matrix(.65 0 0 -.65 -181.08 -204.37)" gradientUnits="userSpaceOnUse"><stop offset="0" stop-color="#010101"/><stop offset=".55" stop-color="#7e7e7e"/><stop offset=".69" stop-color="#969696"/><stop offset=".86" stop-color="#8b8a8a"/><stop offset="1" stop-color="#515151"/></linearGradient><linearGradient id="Безымянный_градиент_25" data-name="Безымянный градиент 25" x1="318.01" y1="-349.61" x2="338.87" y2="-354.54" gradientTransform="matrix(.65 0 0 -.65 -181.08 -204.37)" gradientUnits="userSpaceOnUse"><stop offset="0" stop-color="#333332"/><stop offset=".11" stop-color="#b4b5b7"/><stop offset=".25" stop-color="#b5b5b5"/><stop offset="1" stop-color="#ababab"/></linearGradient><linearGradient id="Безымянный_градиент_12" data-name="Безымянный градиент 12" x1="329.41" y1="-350.46" x2="329.41" y2="-353.93" gradientTransform="matrix(.65 0 0 -.65 -181.08 -204.37)" gradientUnits="userSpaceOnUse"><stop offset="0" stop-color="#515151"/><stop offset="1" stop-color="#fafafa" stop-opacity="0"/></linearGradient><linearGradient id="Безымянный_градиент_9" data-name="Безымянный градиент 9" x1="306.27" y1="-326.46" x2="315.45" y2="-341.12" gradientTransform="matrix(.65 0 0 -.65 -181.37 -204.33)" gradientUnits="userSpaceOnUse"><stop offset="0" stop-color="#8282a9"/><stop offset="1" stop-color="#aaa" stop-opacity="0"/></linearGradient><linearGradient id="Безымянный_градиент_31" data-name="Безымянный градиент 31" x1="-56.93" y1="-510.91" x2="-68.19" y2="-514.77" gradientTransform="matrix(.65 0 0 -.65 73.85 -314.43)" gradientUnits="userSpaceOnUse"><stop offset="0" stop-color="#fafafa"/><stop offset=".25" stop-color="#fafafa" stop-opacity=".9"/><stop offset=".5" stop-color="#e1e1e1" stop-opacity=".5"/><stop offset="1" stop-color="#c8c8c8" stop-opacity="0"/></linearGradient><linearGradient id="Безымянный_градиент_7" data-name="Безымянный градиент 7" x1="321.04" y1="-328.11" x2="320.79" y2="-367.94" gradientTransform="matrix(.65 0 0 -.65 -181.08 -204.37)" gradientUnits="userSpaceOnUse"><stop offset="0" stop-color="#ababab"/><stop offset=".1" stop-color="#bfbebe"/><stop offset=".21" stop-color="#bfbebe"/><stop offset=".55" stop-color="#b5b5b5"/><stop offset=".67" stop-color="#878787"/><stop offset=".78" stop-color="#969696"/><stop offset="1" stop-color="#ababab"/></linearGradient><linearGradient id="Безымянный_градиент_30" data-name="Безымянный градиент 30" x1="304.07" y1="-362.52" x2="313.33" y2="-354.47" gradientTransform="matrix(.65 0 0 -.65 -181.08 -204.37)" gradientUnits="userSpaceOnUse"><stop offset="0" stop-color="#e6e6e5"/><stop offset="1" stop-color="#fafafa" stop-opacity="0"/></linearGradient><linearGradient id="Безымянный_градиент_32" data-name="Безымянный градиент 32" x1="323.9" y1="-341.06" x2="326.2" y2="-342.67" gradientTransform="matrix(.65 0 0 -.65 -181.08 -204.37)" gradientUnits="userSpaceOnUse"><stop offset="0" stop-color="#fafafa"/><stop offset=".25" stop-color="#ededed" stop-opacity=".75"/><stop offset=".5" stop-color="#e1e1e1" stop-opacity=".5"/><stop offset="1" stop-color="#c8c8c8" stop-opacity="0"/></linearGradient><linearGradient id="Безымянный_градиент_33" data-name="Безымянный градиент 33" x1="321.91" y1="-357.33" x2="343.25" y2="-335.26" gradientTransform="matrix(.65 0 0 -.65 -181.08 -204.37)" gradientUnits="userSpaceOnUse"><stop offset="0" stop-color="#969696"/><stop offset=".13" stop-color="#c1bebe"/><stop offset=".5" stop-color="#b5b5b5"/><stop offset="1" stop-color="#bfbebe"/></linearGradient><linearGradient id="Безымянный_градиент_34" data-name="Безымянный градиент 34" x1="329.8" y1="-335.23" x2="334.39" y2="-336.12" gradientTransform="matrix(.65 0 0 -.65 -181.08 -204.37)" gradientUnits="userSpaceOnUse"><stop offset="0" stop-color="#010101" stop-opacity="0"/><stop offset=".11" stop-color="#333332" stop-opacity=".95"/><stop offset=".22" stop-color="#333332" stop-opacity=".9"/><stop offset=".51" stop-color="#e1e1e1" stop-opacity=".5"/><stop offset="1" stop-color="#c8c8c8" stop-opacity="0"/></linearGradient><linearGradient id="Безымянный_градиент_35" data-name="Безымянный градиент 35" x1="-52.57" y1="-525.41" x2="-52.59" y2="-526.81" gradientTransform="matrix(.65 0 0 -.65 73.85 -314.43)" gradientUnits="userSpaceOnUse"><stop offset="0" stop-color="#fafafa"/><stop offset=".5" stop-color="#fafafa" stop-opacity=".9"/><stop offset=".7" stop-color="#e1e1e1" stop-opacity=".5"/><stop offset="1" stop-color="#c8c8c8" stop-opacity="0"/></linearGradient><radialGradient id="Безымянный_градиент_36" data-name="Безымянный градиент 36" cx="-215.96" cy="-867.64" r="13.94" gradientTransform="matrix(.12 .5 .64 -.15 606.45 -5.5)" gradientUnits="userSpaceOnUse"><stop offset="0" stop-color="#dddddc" stop-opacity=".9"/><stop offset=".75" stop-color="#e1e1e1" stop-opacity=".45"/><stop offset="1" stop-color="#c8c8c8" stop-opacity="0"/></radialGradient></defs><g id="Слой_2" data-name="Слой 2"><g id="Слой_1-2" data-name="Слой 1"><g id="_3_столбик" data-name="3 столбик"><g id="layer1"><g id="g3049"><path id="path3051" d="M26.16 32.17a18.74 18.74 0 0 1-6.28-1.79A12.64 12.64 0 0 1 16 27.64a9.82 9.82 0 0 1-2.49-3.82 8.4 8.4 0 0 1 .64-6.5A10.57 10.57 0 0 1 18 13a18.36 18.36 0 0 1 2.8-1.4c.31-.09-.15.09-.68.39l-.83.47a11.59 11.59 0 0 0-1.61 1.16A9.77 9.77 0 0 0 14 19.27a10.18 10.18 0 0 0 0 3 9.93 9.93 0 0 0 4.65 6.33 16.33 16.33 0 0 0 5.25 2.21 15.44 15.44 0 0 0 4.66.48 17.8 17.8 0 0 0 2.9-.13 18.87 18.87 0 0 0 6-1.94 19.15 19.15 0 0 0 1.78-1.05 4 4 0 0 1 .64-.34 2 2 0 0 0 .72-.48c.19-.24.21-.24.7-.24.29 0 .74-.43.74-.38a11.53 11.53 0 0 1-2.04 2.1 12.52 12.52 0 0 1-2.57 1.58 17.22 17.22 0 0 1-5.9 1.73 24.49 24.49 0 0 1-5.35 0z" fill="url(#Безымянный_градиент_37)"/></g><g id="g3124"><path id="path3126" d="M26 31.08a21.56 21.56 0 0 1-4.12-.89 26.1 26.1 0 0 1-2.55-1.12 19.28 19.28 0 0 1-2.06-1.53 7.88 7.88 0 0 1-1.92-2.42 2.54 2.54 0 0 1 .69-.26 1.7 1.7 0 0 1 .24.37 9.56 9.56 0 0 0 2.31 2.64 9.37 9.37 0 0 0 3.94 2 20.57 20.57 0 0 0 11.54-.13A8.83 8.83 0 0 0 37.34 28a3.35 3.35 0 0 1 1.33-.47c.1.1-.16.43-.7.89a14.48 14.48 0 0 1-5.25 2.26 17 17 0 0 1-4.42.45h-2.28z" fill="url(#Безымянный_градиент_28)"/></g><path id="path3068-2" d="M19.25 28.73a4.34 4.34 0 0 1-1.56-.89 8.84 8.84 0 0 1-3.09-4.2 7.25 7.25 0 0 1-.31-2.82 6 6 0 0 1 .23-1.82 8.85 8.85 0 0 1 1.81-3.37c2-2.43 5.8-4.26 9.65-4.68a16.63 16.63 0 0 1 3.36 0 1.37 1.37 0 0 1 .75.83.59.59 0 0 1-.08.57 3.74 3.74 0 0 1-.35.55l-.66.8c-.24.31-.79 1-1.23 1.56s-1.16 1.48-1.59 2.09c-.81 1.13-2.57 3.8-2.92 4.42-.11.19-.3.49-.42.66a6.8 6.8 0 0 0-.48.85 1.57 1.57 0 0 0-.22 1 1.46 1.46 0 0 0 .8 1.33c.86.55.08.51 9.12.51h8.07l.7-.75a4.57 4.57 0 0 0 .94-1.27 10 10 0 0 0 .68-2.1 8.7 8.7 0 0 0-.1-2.55 10.6 10.6 0 0 0-1.35-3.1 12.68 12.68 0 0 0-5-4.32c-.4-.22-1.44-.72-1.42-.73a16.36 16.36 0 0 1 2.35 1 12.4 12.4 0 0 1 4.61 3.7 11.34 11.34 0 0 1 1.78 3.68 8 8 0 0 1 .2 2.11 8 8 0 0 1-1.09 4.05c-.53 1-.65 1.17-1.46 1.6l-.89.32h-8c-8.12.05-8.15 0-8.94-.15-1.69-.33-2.39-.73-2.83-1.65a3.41 3.41 0 0 1-.11-2c.36-1.45 2.86-5.32 6.35-9.84.67-.86 1.24-1.63 1.28-1.7.18-.34 0-.57-.52-.65a14.2 14.2 0 0 0-3 .47 15 15 0 0 0-3.72 1.44A11.44 11.44 0 0 0 17 16.87a8.13 8.13 0 0 0-1.6 3.45 7.24 7.24 0 0 0 .11 3.15 8.69 8.69 0 0 0 3.75 4.94 5.62 5.62 0 0 1 .57.43c0 .06-.25 0-.62-.1z" fill="url(#Безымянный_градиент_20)"/><g id="g3066"><path id="path3992" class="cls-4" d="M19.29 28.74a4.34 4.34 0 0 1-1.56-.89 8.84 8.84 0 0 1-3.09-4.2 7.25 7.25 0 0 1-.31-2.82 6 6 0 0 1 .23-1.83 8.85 8.85 0 0 1 1.81-3.37c2-2.43 5.8-4.26 9.65-4.68a16.63 16.63 0 0 1 3.36 0 1.37 1.37 0 0 1 .75.83.59.59 0 0 1-.08.57 3.74 3.74 0 0 1-.35.55l-.63.81c-.24.31-.79 1-1.23 1.56s-1.16 1.48-1.59 2.09c-.81 1.13-2.57 3.8-2.92 4.42-.11.19-.3.49-.42.66a6.8 6.8 0 0 0-.48.85 1.57 1.57 0 0 0-.22 1 1.46 1.46 0 0 0 .8 1.33c.86.55.08.51 9.12.51h8.07l.7-.75a4.57 4.57 0 0 0 .94-1.27 10 10 0 0 0 .65-2.11 8.7 8.7 0 0 0-.1-2.55 10.32 10.32 0 0 0-1.43-3 11.88 11.88 0 0 0-4.86-4.08c-.4-.22-2.41-1.29-1.42-1.07a16.36 16.36 0 0 1 2.35 1 12.4 12.4 0 0 1 4.56 3.78 11.34 11.34 0 0 1 1.78 3.68 8 8 0 0 1 .2 2.11 8 8 0 0 1-1.09 4.05c-.53 1-.65 1.17-1.46 1.6l-.89.32h-8c-8.12.05-8.15 0-8.94-.15-1.69-.33-2.39-.73-2.83-1.65a3.41 3.41 0 0 1-.11-2c.36-1.45 2.86-5.32 6.35-9.84.67-.86 1.24-1.63 1.28-1.7.18-.34 0-.57-.52-.65a14.2 14.2 0 0 0-3 .47 15 15 0 0 0-3.72 1.44 11.44 11.44 0 0 0-3.54 3.05 8.13 8.13 0 0 0-1.6 3.45 7.24 7.24 0 0 0 .11 3.15 8.69 8.69 0 0 0 3.75 4.94 5.62 5.62 0 0 1 .57.43c0 .06-.25 0-.62-.1z"/><path id="path3068" class="cls-4" d="M19.29 28.74a4.34 4.34 0 0 1-1.56-.89 8.84 8.84 0 0 1-3.09-4.2 7.25 7.25 0 0 1-.31-2.82 6 6 0 0 1 .23-1.83 8.85 8.85 0 0 1 1.81-3.37c2-2.43 5.8-4.26 9.65-4.68a16.63 16.63 0 0 1 3.36 0 1.37 1.37 0 0 1 .75.83.59.59 0 0 1-.08.57 3.74 3.74 0 0 1-.35.55l-.63.81c-.24.31-.79 1-1.23 1.56s-1.16 1.48-1.59 2.09c-.81 1.13-2.57 3.8-2.92 4.42-.11.19-.3.49-.42.66a6.8 6.8 0 0 0-.48.85 1.57 1.57 0 0 0-.22 1 1.46 1.46 0 0 0 .8 1.33c.86.55.08.51 9.12.51h8.07l.7-.75a4.57 4.57 0 0 0 .94-1.27 10 10 0 0 0 .65-2.11 8.7 8.7 0 0 0-.1-2.55 10.6 10.6 0 0 0-1.32-3.06 12.68 12.68 0 0 0-5-4.32c-.4-.22-1.44-.72-1.42-.73a16.36 16.36 0 0 1 2.35 1 12.4 12.4 0 0 1 4.56 3.78 11.34 11.34 0 0 1 1.78 3.68 8 8 0 0 1 .2 2.11 8 8 0 0 1-1.09 4.05c-.53 1-.65 1.17-1.46 1.6l-.89.32h-8c-8.12.05-8.15 0-8.94-.15-1.69-.33-2.39-.73-2.83-1.65a3.41 3.41 0 0 1-.11-2c.36-1.45 2.86-5.32 6.35-9.84.67-.86 1.24-1.63 1.28-1.7.18-.34 0-.57-.52-.65a14.2 14.2 0 0 0-3 .47 15 15 0 0 0-3.72 1.44 11.44 11.44 0 0 0-3.54 3.05 8.13 8.13 0 0 0-1.6 3.45 7.24 7.24 0 0 0 .11 3.15 8.69 8.69 0 0 0 3.75 4.94 5.62 5.62 0 0 1 .57.43c0 .06-.25 0-.62-.1z"/></g><path id="path3305" d="M14.3 20.82a6 6 0 0 1 .22-1.82 8.85 8.85 0 0 1 1.81-3.37c2-2.43 5.8-4.26 9.65-4.68a16.63 16.63 0 0 1 3.36 0 1.37 1.37 0 0 1 .75.83.59.59 0 0 1-.08.57 3.74 3.74 0 0 1-.35.55l-.66.8c-.24.31-.79 1-1.23 1.56s-1.16 1.48-1.59 2.09c-.81 1.13-2.57 3.8-2.92 4.42-.11.19-.3.49-.42.66a6.8 6.8 0 0 0-.48.85 1.57 1.57 0 0 0-.22 1 1.46 1.46 0 0 0 .8 1.33c.86.55.08.51 9.12.51h8.07l.7-.75a4.57 4.57 0 0 0 .94-1.27 10 10 0 0 0 .68-2.1 8.7 8.7 0 0 0-.1-2.55 10.18 10.18 0 0 0-1.45-2.93 12.68 12.68 0 0 0-5-4.32 11.42 11.42 0 0 1-1.29-.86 16.36 16.36 0 0 1 2.35 1A12.4 12.4 0 0 1 41.54 16a11.34 11.34 0 0 1 1.78 3.68 8 8 0 0 1 .2 2.11 8 8 0 0 1-1.09 4.05c-.53 1-.65 1.17-1.46 1.6l-.89.32h-8c-8.12.05-8.15 0-8.94-.15-1.69-.33-2.39-.73-2.83-1.65a3.41 3.41 0 0 1-.11-2c.36-1.45 2.86-5.32 6.35-9.84.67-.86 1.24-1.63 1.28-1.7.18-.34 0-.57-.52-.65a14.2 14.2 0 0 0-3 .47 15 15 0 0 0-3.72 1.44A11.44 11.44 0 0 0 17 16.87a8.13 8.13 0 0 0-1.6 3.45 7.24 7.24 0 0 0 .11 3.15 3 3 0 0 1-1.25-2.64z" fill="url(#Безымянный_градиент_19)"/><path id="path3992-7" d="M14.61 23.64a7.25 7.25 0 0 1-.31-2.82 6 6 0 0 1 .22-1.82 8.85 8.85 0 0 1 1.81-3.37c2-2.43 5.8-4.26 9.65-4.68a16.63 16.63 0 0 1 3.36 0 1.37 1.37 0 0 1 .75.83.59.59 0 0 1-.08.57 3.74 3.74 0 0 1-.35.55l-.66.8c-.24.31-.79 1-1.23 1.56s-1.16 1.48-1.59 2.09c-.81 1.13-2.57 3.8-2.92 4.42-.11.19-.3.49-.42.66a6.8 6.8 0 0 0-.48.85 1.57 1.57 0 0 0-.22 1 1.46 1.46 0 0 0 .8 1.33c.86.55.08.51 9.12.51h8.07l.7-.75a4.57 4.57 0 0 0 .94-1.27 10 10 0 0 0 .68-2.1 8.7 8.7 0 0 0-.1-2.55 10.6 10.6 0 0 0-1.35-3.1 12.68 12.68 0 0 0-5-4.32c-.4-.22-1.44-.72-1.42-.73a16.36 16.36 0 0 1 2.35 1 12.4 12.4 0 0 1 4.61 3.7 11.34 11.34 0 0 1 1.78 3.68 8 8 0 0 1 .2 2.11 8 8 0 0 1-1.09 4.05c-.53 1-.65 1.17-1.46 1.6l-.89.32h-8c-8.12.05-8.15 0-8.94-.15-1.69-.33-2.39-.73-2.83-1.65a3.41 3.41 0 0 1-.11-2c.36-1.45 2.86-5.32 6.35-9.84.67-.86 1.24-1.63 1.28-1.7.18-.34 0-.57-.52-.65a14.2 14.2 0 0 0-3 .47 15 15 0 0 0-3.72 1.44A11.44 11.44 0 0 0 17 16.87a8.13 8.13 0 0 0-1.6 3.45 7.24 7.24 0 0 0 .11 3.15c-.32.19.54 1.5-.95.18z" fill="url(#Безымянный_градиент_20-2)"/><path id="path3274" d="M14.68 23.57a7.25 7.25 0 0 1-.31-2.82 6 6 0 0 1 .22-1.81 8.85 8.85 0 0 1 1.81-3.37c2-2.43 5.8-4.26 9.65-4.68a16.63 16.63 0 0 1 3.36 0 1.37 1.37 0 0 1 .75.83.59.59 0 0 1-.08.57 3.74 3.74 0 0 1-.35.55l-.63.81c-.24.31-.79 1-1.23 1.56s-1.16 1.48-1.59 2.09c-.81 1.13-2.57 3.8-2.92 4.42-.11.19-.3.49-.42.66a6.8 6.8 0 0 0-.48.85 1.57 1.57 0 0 0-.22 1 1.46 1.46 0 0 0 .8 1.33c.86.55.08.51 9.12.51h8.07l.7-.75a4.57 4.57 0 0 0 .94-1.27 10 10 0 0 0 .67-2.18 8.7 8.7 0 0 0-.1-2.55A10.18 10.18 0 0 0 41 16.4a12.68 12.68 0 0 0-5-4.32 11.41 11.41 0 0 1-1.29-.86 16.36 16.36 0 0 1 2.35 1A12.4 12.4 0 0 1 41.62 16a11.34 11.34 0 0 1 1.78 3.68 8 8 0 0 1 .2 2.11 8 8 0 0 1-1.09 4.05c-.53 1-.65 1.17-1.46 1.6l-.89.32h-8c-8.12.05-8.15 0-8.94-.15-1.69-.33-2.39-.73-2.83-1.65a3.41 3.41 0 0 1-.11-2c.36-1.45 2.86-5.32 6.35-9.84.67-.86 1.24-1.63 1.28-1.7.18-.34 0-.57-.52-.65a14.2 14.2 0 0 0-3 .47 15 15 0 0 0-3.72 1.44 11.44 11.44 0 0 0-3.54 3.05 8.13 8.13 0 0 0-1.6 3.45 7.24 7.24 0 0 0 .11 3.15c-.32.19-.25.11-.95.18z" fill="url(#Безымянный_градиент_21)"/><g id="g3066-5-8-6-6" opacity=".8"><path id="path3068-2-3-6-4" d="M26.11 11a15.36 15.36 0 0 1 3.16 0 1.31 1.31 0 0 1 .71.8.57.57 0 0 1-.07.55 3.6 3.6 0 0 1-.33.52l-.59.78c-1.61 1.62-1.31.7-1.09-1.11.17-.33 0-.55-.49-.62-.63-.5 0-.42-1.29-.9z" fill="url(#Безымянный_градиент_22)"/></g><g id="g3066-5-8-6"><path id="path3068-2-3-6" d="M27.37 15.68c-.41.52-1.09 1.42-1.5 2-.76 1.08-2.42 3.64-2.75 4.24-.1.18-.28.47-.4.64a6.55 6.55 0 0 0-.45.81 1.53 1.53 0 0 0-.21 1 1.4 1.4 0 0 0 .75 1.28c.81.53.07.49 8.58.49 1.11.49 9.74 1.31 0 1.62-7.64 0-7.66 0-8.41-.15-1.59-.31-2.25-.7-2.66-1.58a3.32 3.32 0 0 1-.1-1.89c1.89-6.55 8-9.86 7.11-8.46z" fill="url(#Безымянный_градиент_23)"/></g><path id="path3151" d="M25.56 24.85a1.69 1.69 0 0 1 0-1.78 64.07 64.07 0 0 1 6.22-8.7c1.4-1.68 2-2.47 2-2.77a.79.79 0 0 0-.25-.48l-.44-.4.39.12a7.31 7.31 0 0 1 1.16.45c.34.22.28.85-.07 1.46a18.75 18.75 0 0 1-1.41 1.82 72.75 72.75 0 0 0-5.2 7c-.93 1.4-1.22 2-1.12 2.26a3.09 3.09 0 0 1-1 1.16.36.36 0 0 1-.23-.16z" fill="#515151"/><path id="path3120" d="M40.34 25.32a4 4 0 0 1-.52-1.06c0-.06.15-.06.21-.11s.32-.46.51-1.2a7.29 7.29 0 0 0-.54-5.08 9.2 9.2 0 0 0-5.29-4.53c-.32-.11-.42-.14-.49-.22s-.1-.18.09-.6.17-.47.28-.49a4.5 4.5 0 0 1 1.08.44c2.93 1.43 4.85 3.24 5.82 5.47a6.18 6.18 0 0 1 .66 2.78 6.86 6.86 0 0 1-.8 3.69c-.51 1-.77 1.19-1 .92z" fill="url(#Безымянный_градиент_13)"/><path id="path3025" d="M26.43 25.4c-.36 0-.69-.28-.69-.41a4.75 4.75 0 0 1 1-1.2s.06.15.18.21.84.12 6.66.14h6.43l.28.5a1.83 1.83 0 0 1 .28.67c0 .11-4 .17-10.34.16a21.65 21.65 0 0 1-3.83-.1z" fill="url(#Безымянный_градиент_25)"/><path id="path4184" d="M26.43 25.4c-.36 0-.69-.28-.69-.41a4.75 4.75 0 0 1 1-1.2s.06.15.18.21.84.12 6.66.14h6.43l.28.5a1.83 1.83 0 0 1 .28.67c0 .11-4 .17-10.34.16a21.65 21.65 0 0 1-3.83-.1z" style="isolation:isolate" fill="url(#Безымянный_градиент_12)" opacity=".5"/><path id="path3069" d="M26.44 31.49c-6.68-.58-12-4.5-12.82-9.4-.5-3.06.82-6 3.71-8.44A10.13 10.13 0 0 1 19.87 12a17.22 17.22 0 0 1 7.78-1.85 20 20 0 0 1 4.18.26c1.17.2 1.31.25 1.64.58s.29.34.29.54-.33.76-2.07 2.89a76.3 76.3 0 0 0-5 6.72c-1.37 2.05-1.56 2.51-1.34 3.25a1.35 1.35 0 0 0 1.14.89c.63.12 1.34.09 6.12.08h8a.69.69 0 0 0 .48-.22c.49-.64.69-.91 0 .25a1.89 1.89 0 0 1-1.17 1c-.54.11-14.83.06-15.62-.06a3.42 3.42 0 0 1-1.62-.62 1.49 1.49 0 0 1-.61-.67 1.18 1.18 0 0 1-.07-.84 3.45 3.45 0 0 1 .66-1.61c.14-.21.37-.57.5-.8s.67-1.08 1.21-1.9a53.07 53.07 0 0 1 3.91-5.32 14.46 14.46 0 0 0 1.65-2.26 1.17 1.17 0 0 0-.78-1.31 13.76 13.76 0 0 0-3.28 0c-6.07.79-10.65 4.28-11.42 8.73a11.49 11.49 0 0 0 0 3 8.72 8.72 0 0 0 3.77 5.47 18.12 18.12 0 0 0 3.41 1.8 19.94 19.94 0 0 0 14.42-.65 6.1 6.1 0 0 0 2.11-1.43l.56-.57h1c.93 0 1.44 0 1.37.11a13.61 13.61 0 0 1-1.89.8 5.47 5.47 0 0 0-1 .56 19.74 19.74 0 0 1-11.75 2.7z" fill="url(#Безымянный_градиент_9)"/><path id="path3314" class="cls-16" d="M26.51 31.48c-6.68-.58-12-4.5-12.82-9.4-.5-3.06.82-6 3.71-8.44A10.13 10.13 0 0 1 19.95 12a17.22 17.22 0 0 1 7.78-1.85c-1 .49-.46.85-1.78.91-6.07.79-10.65 4.28-11.42 8.73a11.49 11.49 0 0 0 0 3 8.72 8.72 0 0 0 3.77 5.47A18.12 18.12 0 0 0 21.71 30a19.94 19.94 0 0 0 14.42-.65 6.1 6.1 0 0 0 2.11-1.43l.56-.57h1c.93 0 1.44 0 1.37.11a13.61 13.61 0 0 1-1.89.8 5.47 5.47 0 0 0-1 .56 19.74 19.74 0 0 1-11.75 2.7z"/><path id="path3116" d="M26.47 31.49c-6.68-.58-11.87-4.24-12.66-9.13-.5-3.06.82-6 3.71-8.39a13.94 13.94 0 0 1 2.5-1.7 15.09 15.09 0 0 1 7.67-2.11 20 20 0 0 1 4.18.26c1.17.2 1.31.25 1.64.58s.29.34.29.54-.33.76-2.07 2.89a76.3 76.3 0 0 0-5 6.72c-1.37 2.05-1.56 2.51-1.34 3.25a1.35 1.35 0 0 0 1.14.89c.63.12 1.34.09 6.12.08h8a.69.69 0 0 0 .48-.22c.49-.64.69-.91 0 .25a1.89 1.89 0 0 1-1.17 1c-.54.11-14.83.06-15.62-.06a3.42 3.42 0 0 1-1.62-.62 1.49 1.49 0 0 1-.61-.67 1.18 1.18 0 0 1-.15-.84 3.45 3.45 0 0 1 .66-1.61c.14-.21.37-.57.5-.8s.67-1.08 1.21-1.9a53.07 53.07 0 0 1 3.91-5.32 14.46 14.46 0 0 0 1.65-2.26 1.17 1.17 0 0 0-.71-1.32 13.76 13.76 0 0 0-3.28 0c-6.07.79-10.65 4.28-11.42 8.73a11.49 11.49 0 0 0 0 3 8.72 8.72 0 0 0 3.77 5.47 18.12 18.12 0 0 0 3.41 1.8 19.94 19.94 0 0 0 14.42-.65 6.1 6.1 0 0 0 2.11-1.43l.56-.57h1c.93 0 1.44 0 1.37.11a13.61 13.61 0 0 1-1.89.8 5.47 5.47 0 0 0-1 .56 19.74 19.74 0 0 1-11.75 2.7z" fill="url(#Безымянный_градиент_7)"/><path id="path4198" d="M26.44 31.49c-6.68-.58-12-4.5-12.82-9.4-.5-3.06.82-6 3.71-8.44A10.13 10.13 0 0 1 19.87 12a17.22 17.22 0 0 1 7.78-1.85c-.06.66-1.12.91-1.78.91-6.07.79-10.65 4.28-11.42 8.73a11.49 11.49 0 0 0 0 3 8.72 8.72 0 0 0 3.77 5.47A18.12 18.12 0 0 0 21.63 30a19.94 19.94 0 0 0 14.42-.65 6.1 6.1 0 0 0 2.11-1.43l.56-.57h1c.93 0 1.44 0 1.37.11a13.61 13.61 0 0 1-1.89.8 5.47 5.47 0 0 0-1 .56 19.74 19.74 0 0 1-11.75 2.7z" style="isolation:isolate" fill="url(#Безымянный_градиент_30)" opacity=".5"/><path id="path3116-1" class="cls-16" d="M26.51 31.48c-6.68-.58-12-4.5-12.82-9.4-.5-3.06.82-6 3.71-8.44A10.13 10.13 0 0 1 19.95 12a17.22 17.22 0 0 1 7.78-1.85c-1 .49-.46.85-1.78.91-6.07.79-10.65 4.28-11.42 8.73a11.49 11.49 0 0 0 0 3 8.72 8.72 0 0 0 3.77 5.47A18.12 18.12 0 0 0 21.71 30a19.94 19.94 0 0 0 14.42-.65 6.1 6.1 0 0 0 2.11-1.43l.56-.57h1c.93 0 1.44 0 1.37.11a13.61 13.61 0 0 1-1.89.8 5.47 5.47 0 0 0-1 .56 19.74 19.74 0 0 1-11.75 2.7z"/><path id="path4500" d="M27.2 25.69a4.15 4.15 0 0 1-1.49-.75c.58.49 3 .44 7.73.43h7.18l.18-.18a4.15 4.15 0 0 0 .5-.85 7.32 7.32 0 0 0 0-6.57 8.69 8.69 0 0 0-1.69-2.39 11.24 11.24 0 0 0-3.91-2.74c-1.21-.53-1.25-.42-1.2-.75a1.53 1.53 0 0 0-.08-.32c-.16-.57-.09-.44 1.35.31a14.14 14.14 0 0 1 4.19 3 8.33 8.33 0 0 1 1.79 9.66 2.14 2.14 0 0 1-1.21 1.19c-.21.07-1.47.07-6.47.06-3.59 0-4.07 0-6.88-.06z" style="isolation:isolate" fill="url(#Безымянный_градиент_32)" opacity=".3"/><path id="path3155" d="M27.2 25.51a3.16 3.16 0 0 1-1.74-.73c.58.48 3.24.43 8 .42h7.18l.16-.2a4.09 4.09 0 0 0 .5-.84 7.14 7.14 0 0 0 0-6.48 8.58 8.58 0 0 0-1.69-2.36 11.24 11.24 0 0 0-3.91-2.7c-1.21-.53-1.25-.41-1.2-.74a1.49 1.49 0 0 0-.08-.32c-.16-.56 0-.15 1.43.6a12.7 12.7 0 0 1 4 2.78c2.69 2.76 3.5 6.18 1.93 9.38a2.13 2.13 0 0 1-1.21 1.18c-.21.06-1.47.07-6.47.06-3.59 0-4.07 0-6.88-.06z" fill="url(#Безымянный_градиент_33)"/><path id="path3284" d="M41.31 17.77a8.69 8.69 0 0 0-1.69-2.39 11.24 11.24 0 0 0-3.91-2.74c-1.21-.53-1.25-.42-1.2-.75a1.53 1.53 0 0 0-.08-.32c-.16-.57-.18-.26 1.26.49A14.39 14.39 0 0 1 40 14.84c1 1.41.35.66 1.33 2.93z" style="isolation:isolate" fill="url(#Безымянный_градиент_34)" opacity=".5"/><path id="path3300" d="M38.24 27.93l.56-.57h1c.93 0 1.44 0 1.37.11-.65.74-3.53 1.26-2.9.5z" style="isolation:isolate" fill="url(#Безымянный_градиент_35)" opacity=".3"/><path id="path3287" d="M26.47 31.47c-6.68-.58-11.87-4.24-12.66-9.13-.5-3.06.82-6 3.71-8.39a13.94 13.94 0 0 1 2.5-1.7 15.09 15.09 0 0 1 7.67-2.11 20 20 0 0 1 4.18.26c1.17.2 1.31.25 1.64.58s.29.34.29.54-.33.76-2.07 2.89a76.3 76.3 0 0 0-5 6.72c-1.37 2.05-1.56 2.51-1.34 3.25a1.35 1.35 0 0 0 1.14.89c.63.12 1.34.09 6.12.08h8a.69.69 0 0 0 .48-.22c.49-.64.69-.91 0 .25a1.89 1.89 0 0 1-1.17 1c-.54.11-14.83.06-15.62-.06a3.42 3.42 0 0 1-1.62-.62 1.49 1.49 0 0 1-.61-.67 1.18 1.18 0 0 1-.15-.84 3.45 3.45 0 0 1 .66-1.61c.14-.21.37-.57.5-.8s.67-1.08 1.21-1.9a53.07 53.07 0 0 1 3.91-5.32 14.46 14.46 0 0 0 1.65-2.26 1.17 1.17 0 0 0-.71-1.3 13.76 13.76 0 0 0-3.28 0c-6.07.79-10.65 4.28-11.42 8.73a11.49 11.49 0 0 0 0 3 8.72 8.72 0 0 0 3.77 5.47 18.12 18.12 0 0 0 3.41 1.8 19.94 19.94 0 0 0 14.42-.65 6.1 6.1 0 0 0 2.11-1.43l.56-.57h1c.93 0 1.44 0 1.37.11a13.61 13.61 0 0 1-1.89.8 5.47 5.47 0 0 0-1 .56 19.74 19.74 0 0 1-11.75 2.7z" style="isolation:isolate" opacity=".6" fill="url(#Безымянный_градиент_36)"/></g></g><path fill="none" d="M0 0h56.69v42.52H0z"/></g></g></svg>