<svg xmlns="http://www.w3.org/2000/svg" width="20mm" height="15mm" viewBox="0 0 56.69 42.52"><defs><style>.cls-3{fill:#fff}.cls-4{fill:#231f20}.cls-14{fill:#939598}</style><radialGradient id="radial-gradient" cx="27.36" cy="33.18" r="15.15" gradientTransform="rotate(15.49 -17.775 27.055) scale(1 .63)" gradientUnits="userSpaceOnUse"><stop offset=".33" stop-color="#7b7c7f"/><stop offset=".57" stop-color="#949699"/><stop offset=".8" stop-color="#a7a9ac"/><stop offset="1" stop-color="#d1d3d4"/></radialGradient><linearGradient id="linear-gradient" x1="23.66" y1="15.08" x2="42.21" y2="15.08" gradientUnits="userSpaceOnUse"><stop offset="0" stop-color="#4d4d4f"/><stop offset=".33" stop-color="#545557"/><stop offset=".45" stop-color="#58595b"/><stop offset=".48" stop-color="#545557"/><stop offset=".76" stop-color="#312e2f"/><stop offset=".91" stop-color="#231f20"/></linearGradient><linearGradient id="linear-gradient-2" x1="16.06" y1="16.96" x2="14.42" y2="9.63" gradientUnits="userSpaceOnUse"><stop offset="0" stop-color="#939598"/><stop offset=".48" stop-color="#9fa1a4"/><stop offset="1" stop-color="#a7a9ac"/></linearGradient><linearGradient id="linear-gradient-3" x1="15.63" y1="9.36" x2="42.72" y2="9.36" gradientUnits="userSpaceOnUse"><stop offset=".06" stop-color="#bfbfbf"/><stop offset=".28" stop-color="#bcbcbc"/><stop offset=".44" stop-color="#b3b3b3"/><stop offset=".59" stop-color="#a3a3a3"/><stop offset=".72" stop-color="#8c8c8c"/><stop offset=".85" stop-color="#6f6f6f"/><stop offset=".97" stop-color="#4c4c4c"/><stop offset="1" stop-color="#404040"/></linearGradient><linearGradient id="linear-gradient-4" x1="42.33" y1="10.21" x2="42.33" y2="15.45" gradientUnits="userSpaceOnUse"><stop offset=".01" stop-color="#fff"/><stop offset=".12" stop-color="#ccc"/><stop offset=".5" stop-color="#cacaca"/><stop offset=".63" stop-color="#c3c3c3"/><stop offset=".73" stop-color="#b8b8b8"/><stop offset=".81" stop-color="#a7a7a7"/><stop offset=".87" stop-color="#919191"/><stop offset=".93" stop-color="#757575"/><stop offset=".99" stop-color="#565656"/><stop offset="1" stop-color="#4d4d4d"/></linearGradient><radialGradient id="radial-gradient-2" cx="41.94" cy="33.24" r="36.14" gradientUnits="userSpaceOnUse"><stop offset=".14" stop-color="#808285"/><stop offset=".25" stop-color="#919396"/><stop offset=".47" stop-color="#b0b2b4"/><stop offset=".59" stop-color="#bcbec0"/><stop offset=".63" stop-color="#c6c8ca"/><stop offset=".73" stop-color="#d8d9db"/><stop offset=".84" stop-color="#e3e4e5"/><stop offset=".96" stop-color="#e6e7e8"/></radialGradient><radialGradient id="radial-gradient-3" cx="55.26" cy="39.14" r="37.71" gradientUnits="userSpaceOnUse"><stop offset=".14" stop-color="#808285"/><stop offset=".25" stop-color="#919396"/><stop offset=".47" stop-color="#b0b2b4"/><stop offset=".59" stop-color="#bcbec0"/><stop offset=".61" stop-color="#c6c8ca"/><stop offset=".69" stop-color="#dfe0e1"/><stop offset=".77" stop-color="#f1f1f2"/><stop offset=".85" stop-color="#fcfcfc"/><stop offset=".94" stop-color="#fff"/></radialGradient><linearGradient id="linear-gradient-5" x1="14.02" y1="33.36" x2="40.4" y2="33.36" gradientUnits="userSpaceOnUse"><stop offset="0" stop-color="#6d6e71" stop-opacity=".91"/><stop offset=".47" stop-color="#484648" stop-opacity=".96"/><stop offset="1" stop-color="#231f20"/></linearGradient><linearGradient id="linear-gradient-6" x1="41.24" y1="32.78" x2="43.29" y2="25.38" gradientUnits="userSpaceOnUse"><stop offset=".27" stop-color="#58595b"/><stop offset=".39" stop-color="#49494b"/><stop offset=".62" stop-color="#343233"/><stop offset=".82" stop-color="#272425"/><stop offset="1" stop-color="#231f20"/></linearGradient><radialGradient id="radial-gradient-4" cx="54.51" cy="107.04" r="116.86" gradientUnits="userSpaceOnUse"><stop offset="0" stop-color="#77787b"/><stop offset=".25" stop-color="#a6a8aa"/><stop offset=".45" stop-color="#c5c7c8"/><stop offset=".56" stop-color="#d1d3d4"/><stop offset=".62" stop-color="#d9dbdc"/><stop offset=".86" stop-color="#f5f5f5"/><stop offset="1" stop-color="#fff"/></radialGradient><linearGradient id="linear-gradient-7" x1="34.07" y1="25.64" x2="33.45" y2="28.11" gradientUnits="userSpaceOnUse"><stop offset=".06" stop-color="#6d6e71"/><stop offset=".08" stop-color="#757678"/><stop offset=".19" stop-color="#959698"/><stop offset=".3" stop-color="#b0b1b2"/><stop offset=".43" stop-color="#c4c5c7"/><stop offset=".57" stop-color="#d3d4d5"/><stop offset=".73" stop-color="#dbdcdd"/><stop offset="1" stop-color="#dedfe0"/></linearGradient><linearGradient id="linear-gradient-8" x1="13.91" y1="27.51" x2="33.14" y2="27.51" gradientUnits="userSpaceOnUse"><stop offset="0" stop-color="#9c9c9c"/><stop offset=".2" stop-color="#949494"/><stop offset=".5" stop-color="#7e7e7f"/><stop offset=".87" stop-color="#5b5b5c"/><stop offset="1" stop-color="#4d4d4f"/></linearGradient><linearGradient id="linear-gradient-9" x1="25.21" y1="18.06" x2="42.71" y2="18.06" gradientUnits="userSpaceOnUse"><stop offset="0" stop-color="#a7a9ac"/><stop offset=".28" stop-color="#afb1b3"/><stop offset=".72" stop-color="#c5c5c7"/><stop offset="1" stop-color="#d6d6d6"/></linearGradient><linearGradient id="linear-gradient-10" x1="14.17" y1="22.96" x2="32.78" y2="26.19" gradientUnits="userSpaceOnUse"><stop offset="0" stop-color="#808285"/><stop offset=".9" stop-color="#231f20"/></linearGradient><linearGradient id="linear-gradient-11" x1="14.39" y1="22.94" x2="35.88" y2="26.47" gradientUnits="userSpaceOnUse"><stop offset="0" stop-color="#636466"/><stop offset="1" stop-color="#4d4d4f"/></linearGradient><linearGradient id="linear-gradient-12" x1="20.87" y1="17.33" x2="35.59" y2="17.33" gradientUnits="userSpaceOnUse"><stop offset=".22" stop-color="#58595b"/><stop offset=".4" stop-color="#5e5f61"/><stop offset=".64" stop-color="#6e6f71"/><stop offset=".9" stop-color="#888a8c"/><stop offset="1" stop-color="#939598"/></linearGradient><radialGradient id="radial-gradient-5" cx="42.22" cy="32.98" r="36.28" gradientUnits="userSpaceOnUse"><stop offset="0" stop-color="#808285"/><stop offset=".12" stop-color="#919396"/><stop offset=".37" stop-color="#b0b2b4"/><stop offset=".51" stop-color="#bcbec0"/><stop offset=".55" stop-color="#c6c8ca"/><stop offset=".65" stop-color="#dfe0e1"/><stop offset=".76" stop-color="#f1f1f2"/><stop offset=".87" stop-color="#fcfcfc"/><stop offset="1" stop-color="#fff"/></radialGradient><radialGradient id="radial-gradient-6" cx="41.46" cy="33.49" r="12.54" gradientUnits="userSpaceOnUse"><stop offset="0" stop-color="#231f20"/><stop offset=".22" stop-color="#555253"/><stop offset=".63" stop-color="#aeaeaf"/><stop offset=".81" stop-color="#d1d3d4"/><stop offset=".84" stop-color="#d9dbdc"/><stop offset=".94" stop-color="#f5f5f5"/><stop offset="1" stop-color="#fff"/></radialGradient></defs><g style="isolation:isolate"><g id="Слой_2" data-name="Слой 2"><g id="Слой_1-2" data-name="Слой 1"><path fill="none" d="M0 0h56.69v42.52H0z"/><path class="cls-3" d="M43.31 23.3L13.4 18s.08-3.35.14-5.12S14 10 14.71 9.36c1-.9 2.19-1.11 5-1.26a167.79 167.79 0 0 1 21.46.28 2.64 2.64 0 0 1 1.36.34c.37.25.41.53.51 2 .08 1.19.27 5.18.27 5.18s-9.81-.36-14.64-.36h-3.35a2.58 2.58 0 0 0-1.11.18L43.31 19zM13.38 19.13l29.92 5.31s-.08 3.35-.14 5.12-.43 2.85-1.17 3.5c-1 .9-2.19 1.11-5 1.26a167.67 167.67 0 0 1-21.46-.28 2.64 2.64 0 0 1-1.36-.34c-.37-.25-.41-.54-.51-2-.08-1.19-.27-5.18-.27-5.18s9.81.36 14.64.36h3.35a2.57 2.57 0 0 0 1.11-.18l-19.11-3.27z"/><g id="did"><path class="cls-4" d="M43.31 23.3L13.4 18s.08-3.35.14-5.12S14 10 14.71 9.36c1-.9 2.19-1.11 5-1.26a167.79 167.79 0 0 1 21.46.28 2.64 2.64 0 0 1 1.36.34c.37.25.41.53.51 2 .08 1.19.27 5.18.27 5.18s-9.81-.36-14.64-.36h-3.35a2.58 2.58 0 0 0-1.11.18L43.31 19zm-29.93-4.17l29.92 5.31s-.08 3.35-.14 5.12-.43 2.85-1.17 3.5c-1 .9-2.19 1.11-5 1.26a167.67 167.67 0 0 1-21.46-.28 2.64 2.64 0 0 1-1.36-.34c-.37-.25-.41-.54-.51-2-.08-1.19-.27-5.18-.27-5.18s9.81.36 14.64.36h3.35a2.57 2.57 0 0 0 1.11-.18l-19.11-3.27zm.31.38v3.66l19.46 3.31a1.89 1.89 0 0 1-.54.49 3 3 0 0 1-1.24.21h-3.35c-4.27 0-12.53-.28-14.31-.35 0 1 .19 3.86.25 4.83.1 1.47.15 1.61.38 1.77a2.29 2.29 0 0 0 1.21.29c4.8.34 9.12.5 13.22.5 2.76 0 5.45-.07 8.21-.22s3.87-.35 4.81-1.18c.67-.59 1-1.63 1.06-3.28 0-1.46.12-4 .14-4.85zM43 22.93v-3.67L23.54 16a1.89 1.89 0 0 1 .54-.49 3 3 0 0 1 1.24-.21h3.35c4.27 0 12.53.28 14.31.35 0-1-.19-3.86-.25-4.83-.1-1.47-.15-1.61-.38-1.77a2.28 2.28 0 0 0-1.21-.29c-4.8-.34-9.12-.5-13.22-.5-2.76 0-5.45.07-8.21.22s-3.87.35-4.81 1.18c-.67.59-1 1.63-1.06 3.28 0 1.46-.12 4-.14 4.85z"/><path class="cls-3" d="M29.13 28.46H27.9c-4 0-8.23 0-13.43-.31l-.76-1.29h.2l.86 1c4.49.25 8.61.31 13.12.31h3.23c2.28-.07 3-.31 4.53-1.89l.56-.05-.23.24c-1.68 1.74-2.37 1.92-4.86 2h-2.05zM42.97 24.7l-29.28-5.2v.19l.52.26v2.41l-.52.57v.23l.8-.65v-2.68l28.06 4.99.42-.12z"/><path d="M42.24 24.76c0 .49 0 1.1-.06 1.66s0 .89 0 1.28 0 1-.07 1.76c-.07 1.82-.49 2.4-1.28 2.88s-1.64.52-4.32.66-5.63.21-8.65.23h-.69c-3.54 0-6.76-.2-10.81-.51a3.47 3.47 0 0 1-1.36-.24c-.21-.14-.27-.18-.33-1v-.36c0-.33 0-.63-.07-1.07s0-.89-.11-1.86l-.27-.45c.06 1 .09 1.92.11 2.38s0 .69 0 1v.32c.06.87.12 1 .46 1.27a3.49 3.49 0 0 0 1.51.29c4.06.32 7.29.51 10.83.51h.69c3 0 5.93-.1 8.66-.24s3.64-.2 4.46-.7 1.34-1.16 1.42-3.12c0-.7.05-1.22.07-1.73 0-.82.07-1.7.12-2.9z" fill="url(#radial-gradient)"/><path d="M42.26 14.7h-.12c-4.27-.21-8.64-.18-13.55-.18h-1.13a21.89 21.89 0 0 0-2.9.13c-1.3.23-1.23.9-.74 1a1.14 1.14 0 0 1 .26-.19 3 3 0 0 1 1.24-.21h3.35c4.16 0 12.11.27 14.16.34z" fill="url(#linear-gradient)"/><path class="cls-3" d="M41.68 10.29l.17-.24a3.25 3.25 0 0 0-1.41-.29c-3.82-.27-8.07-.43-11.07-.43h-2.46c-2.89 0-5.15 0-6.81.14h-.41c-2.37.13-3.56.19-4.49 1-.63.56-.88 1.32-.94 2.79v.71c0 1.12-.07 1.82-.11 3.32l-.38.18v.24l.68-.28v-.34c0-1.31.07-2.09.11-3.11v-.71c.06-1.39.29-2.09.85-2.59.86-.76 2-.82 4.31-.94h.41c1.66-.09 3.92-.12 6.8-.14h2.4c3 0 7.23.17 11 .43a3.2 3.2 0 0 1 1.27.24z"/><path d="M14.22 14v-.71c.06-1.48.32-2.24.94-2.79a3 3 0 0 1 .43-.32.83.83 0 0 1-.08-.73 2.13 2.13 0 0 1 1.12-.69 3.72 3.72 0 0 0-1.75.85c-.67.59-1 1.63-1.06 3.28 0 1.34-.1 3.6-.13 4.61l.38-.18c.08-1.51.1-2.22.15-3.32z" fill="url(#linear-gradient-2)"/><path d="M42 10.17c.19-.29.48-.3.74.36-.09-1.26-.14-1.4-.36-1.55a2.28 2.28 0 0 0-1.21-.29c-4.8-.34-9.12-.5-13.22-.5-2.76 0-5.45.07-8.21.22a19 19 0 0 0-3.06.33 2.13 2.13 0 0 0-1.12.69.83.83 0 0 0 .08.73c.88-.53 2-.59 4.06-.7h.41c1.66-.09 3.93-.12 6.81-.14h2.41c3 0 7.25.17 11.07.43a3.25 3.25 0 0 1 1.4.25z" fill="url(#linear-gradient-3)"/><path d="M43 15.39l-.58-1c0-.79-.08-2.43-.14-3.11s-.09-.93-.28-1.13l-.16-.15-.17.24c.19.14.21.26.29 1s.17 2.49.18 3.2l.69 1H43z" fill="url(#linear-gradient-4)"/><path class="cls-4" d="M42.71 10.52c-.26-.66-.55-.65-.74-.36.19.21.22.48.28 1.13s.13 2.32.14 3.11l.58 1c-.05-1.13-.18-3.73-.24-4.64"/><path d="M42.14 14.52c-4-.19-8.3-.3-13.56-.3-1.05 0-3.1 0-4 .05-1.59 0-1.87 1-1.88 1.39l19.62 4.55v2.43l.7.28-29.28-5.2.68-.28v-.34s.07-2.09.11-3.11v-.71c.06-1.39.29-2.09.85-2.59.86-.76 2-.82 4.31-.94h.41c1.66-.09 3.92-.12 6.8-.14h2.4c3 0 7.23.17 11 .43a3.2 3.2 0 0 1 1.27.24h.08c.11.12.14.29.2.84v.14c.07.71.17 2.49.18 3.2" style="mix-blend-mode:multiply" fill="url(#radial-gradient-2)"/><path d="M42.14 14.52c-4-.19-8.3-.3-13.56-.3-1.05 0-3.1 0-4 .05-1.59 0-1.87 1-1.88 1.39l19.62 4.55v2.43l.7.28-29.28-5.2.68-.28v-.34s.07-2.09.11-3.11v-.71c.06-1.39.29-2.09.85-2.59.86-.76 2-.82 4.31-.94h.41c1.66-.09 3.92-.12 6.8-.14h2.4c3 0 7.23.17 11 .43a3.2 3.2 0 0 1 1.27.24h.08c.11.12.14.29.2.84v.14c.07.71.17 2.49.18 3.2" style="mix-blend-mode:multiply" fill="url(#radial-gradient-3)"/><path fill="#a7a9ac" d="M13.69 19.69l.52.26v2.41l-.52.57v-3.24z"/><path d="M40 33.69a1 1 0 0 0 .35-.34c.07-.15 0-.29-.12-.44a17.36 17.36 0 0 1-3.77.39c-2.73.14-5.64.21-8.66.24h-.69c-3.54 0-6.77-.2-10.83-.51a3.49 3.49 0 0 1-1.46-.29 1 1 0 0 1-.2-.17l-.11.1c-.26.23-.4.19-.5-.18.07.73.14.85.32 1a2.29 2.29 0 0 0 1.21.29c4.8.34 9.12.5 13.22.5 2.76 0 5.45-.07 8.21-.22a19.09 19.09 0 0 0 3-.33z" fill="url(#linear-gradient-5)"/><path class="cls-14" d="M14.36 31.13v-1c0-.4-.05-1.35-.11-2.38l-.49-.83c0 1 .19 3.86.25 4.83l.06.8c.1.37.24.41.5.18l.11-.1c-.17-.19-.21-.45-.25-1.1z"/><path d="M42.55 24.81c0 1.2-.08 2.08-.12 2.9 0 .51 0 1-.07 1.73-.08 2-.54 2.58-1.42 3.12a3 3 0 0 1-.68.31c.12.16.19.29.12.44a1 1 0 0 1-.35.34 3.72 3.72 0 0 0 1.76-.86c.67-.59 1-1.63 1.06-3.28 0-1.46.12-4 .14-4.85z" fill="url(#linear-gradient-6)"/><path d="M42.14 27.7c0 .52 0 1-.07 1.76-.07 1.82-.49 2.4-1.28 2.88s-1.64.52-4.32.66-5.63.21-8.65.23h-.69c-3.54 0-6.76-.2-10.81-.51a3.47 3.47 0 0 1-1.32-.24c-.21-.14-.27-.18-.33-1v-.36c0-.33 0-.63-.07-1.07s0-.89-.11-1.86c5.2.29 9.46.31 13.43.31h3.28c2.48-.08 3.17-.26 4.86-2l.23-.24-21.8-3.75v-2.68l27.76 4.93c0 .49 0 1.1-.06 1.66s-.03.9-.05 1.28z" fill="url(#radial-gradient-4)"/><path d="M33.14 27.69c0 .1-.15.24-.65.36a4.78 4.78 0 0 0 3.21-1.8l-2.56.23a1.89 1.89 0 0 1-.54.49 2.17 2.17 0 0 1-.7.18 5.22 5.22 0 0 1 .93.27c.17.07.31.19.31.27z" fill="url(#linear-gradient-7)"/><path d="M32.49 28.05c.5-.11.64-.25.65-.36s-.12-.21-.3-.28a5.22 5.22 0 0 0-.93-.27h-3.88c-4.13 0-12-.26-14.11-.34l.86 1c4.49.25 8.61.31 13.12.31h3.23c.55.01.98-.01 1.36-.06z" fill="url(#linear-gradient-8)"/><path d="M42.23 19.88l.48-.67-17.5-3c1.81.59 6.67 1.72 10.38 2.55z" fill="url(#linear-gradient-9)"/><path d="M31.17 25.64c-.48-.09-.85-.17-1.24-.23-.17 0-9.48-1.61-15.69-2.69l-.55.45 19.46 3.31a4.5 4.5 0 0 0-1.98-.84z" fill="url(#linear-gradient-10)"/><path d="M31.17 25.64c-.48-.09-.85-.17-1.24-.23-.17 0-9.49-1.61-15.69-2.69l.25-.2 21.78 3.68-3.12.28a4.34 4.34 0 0 0-1.98-.84z" fill="url(#linear-gradient-11)"/><path class="cls-4" d="M42.14 14.52c-4-.19-8.3-.3-13.56-.3-1.05 0-3.1 0-4 .05a5.2 5.2 0 0 0-4 2l-.16.17 3.24-.56a1.57 1.57 0 0 1 .22-.23c-.49-.09-.55-.76.74-1a21.89 21.89 0 0 1 2.9-.13h1.12c4.92 0 9.28 0 13.55.18h.12z"/><path d="M20.87 16.35l14.72 2.44c-3.71-.84-8.58-2-10.38-2.55l-1.6-.36z" fill="url(#linear-gradient-12)"/><path d="M42.14 27.7c0 .52 0 1-.07 1.76-.07 1.82-.49 2.4-1.28 2.88s-1.64.52-4.32.66-5.63.21-8.65.23h-.69c-3.54 0-6.76-.2-10.81-.51a3.47 3.47 0 0 1-1.32-.24c-.21-.14-.27-.18-.33-1v-.36c0-.33 0-.63-.07-1.07s0-.89-.11-1.86c5.2.29 9.46.31 13.43.31h3.28c2.48-.08 3.17-.26 4.86-2l.23-.24-21.8-3.75v-2.68l27.76 4.93c0 .49 0 1.1-.06 1.66s-.03.9-.05 1.28z" style="mix-blend-mode:multiply" fill="url(#radial-gradient-5)"/><path class="cls-3" d="M20.36 16.44l.52-.09c2.11.36 19.8 3.27 21.35 3.53l.48-.67H43l-.7 1z"/><path d="M40.79 32.34c.79-.48 1.2-1.06 1.28-2.88 0-.71.05-1.24.07-1.76s0-.8 0-1.28 0-1.18.06-1.66l-7.88-1.4a12.59 12.59 0 0 0-3.62 1.9l5.52.93-.23.24c-1.68 1.74-2.37 1.92-4.86 2h-3.05a6.14 6.14 0 0 0-.08 4.8c2.94 0 5.78-.1 8.43-.23s3.57-.2 4.36-.66z" style="mix-blend-mode:multiply" opacity=".1" fill="url(#radial-gradient-6)"/><path class="cls-14" d="M42.29 22.65l.29-.09v-2.72l-.29.37v2.44z"/><path fill="#808285" d="M42.29 22.65l.29-.09.42.21v.16l-.71-.28z"/><path fill="#414042" d="M43 19.26l-.42.58v2.72l.42.21v-3.51z"/></g></g></g></g></svg>