<svg xmlns="http://www.w3.org/2000/svg" xmlns:xlink="http://www.w3.org/1999/xlink" width="20mm" height="15mm" viewBox="0 0 56.69 42.52"><defs><style>.cls-1,.cls-155,.cls-156{fill:none}.cls-2{fill:#022169}.cls-155,.cls-156{stroke:#000;stroke-width:.54px}.cls-156{stroke:#231f20}</style><linearGradient id="linear-gradient" x1="30" y1="31.83" x2="26.14" y2="5.97" gradientUnits="userSpaceOnUse"><stop offset=".01" stop-color="#231f20"/><stop offset=".03" stop-color="#1f242d"/><stop offset=".1" stop-color="#143151"/><stop offset=".17" stop-color="#0b3c6c"/><stop offset=".24" stop-color="#054380"/><stop offset=".31" stop-color="#01488c"/><stop offset=".38" stop-color="#004990"/><stop offset="1" stop-color="#004990"/></linearGradient><linearGradient id="linear-gradient-2" x1="7.94" y1="21.21" x2="48.76" y2="21.21" gradientUnits="userSpaceOnUse"><stop offset=".01" stop-color="gray"/><stop offset=".15" stop-color="#fff"/><stop offset=".2" stop-color="#f4f4f4"/><stop offset=".3" stop-color="#dcdcdc"/><stop offset=".4" stop-color="#cecece"/><stop offset=".48" stop-color="#c9c9c9"/><stop offset=".49" stop-color="silver"/><stop offset=".51" stop-color="#979797"/><stop offset=".54" stop-color="#757575"/><stop offset=".57" stop-color="#5a5a5a"/><stop offset=".59" stop-color="#474747"/><stop offset=".62" stop-color="#3c3c3c"/><stop offset=".65" stop-color="#383838"/><stop offset=".84" stop-color="#383838"/><stop offset="1" stop-color="#7a7a7a"/></linearGradient><linearGradient id="linear-gradient-3" x1="7.94" y1="21.21" x2="48.76" y2="21.21" gradientUnits="userSpaceOnUse"><stop offset=".01" stop-color="#d1d1d1"/><stop offset=".46" stop-color="#4d4d4d"/><stop offset="1" stop-color="#a6a6a6"/></linearGradient><linearGradient id="linear-gradient-4" x1="19.73" y1="12.3" x2="36.42" y2="29.57" gradientUnits="userSpaceOnUse"><stop offset=".01" stop-color="#e6e6e6"/><stop offset=".46" stop-color="#595959"/><stop offset=".84" stop-color="gray"/><stop offset="1" stop-color="#d9d9d9"/></linearGradient><linearGradient id="linear-gradient-5" x1="20.75" y1="16.73" x2="42.58" y2="29.45" gradientUnits="userSpaceOnUse"><stop offset=".01" stop-color="#f2f2f2"/><stop offset=".35" stop-color="#1a1a1a"/><stop offset=".59" stop-color="#3d3d3d"/><stop offset=".69" stop-color="#474747"/><stop offset=".77" stop-color="#525252"/><stop offset="1" stop-color="#bdbdbd"/></linearGradient><linearGradient id="linear-gradient-6" x1="31.54" y1="27.98" x2="36.76" y2="27.98" gradientUnits="userSpaceOnUse"><stop offset=".08" stop-color="#999"/><stop offset=".17" stop-color="#7d7d7d"/><stop offset=".32" stop-color="#525252"/><stop offset=".64" stop-color="#4a4a4a"/><stop offset=".79" stop-color="#b0b0b0"/><stop offset=".89" stop-color="#7a7a7a"/><stop offset="1" stop-color="#9e9e9e"/></linearGradient><linearGradient id="linear-gradient-7" x1="39.2" y1="26.54" x2="39.2" y2="26.81" gradientUnits="userSpaceOnUse"><stop offset=".14" stop-color="#e6e6e6"/><stop offset=".51" stop-color="#ccc"/><stop offset=".91" stop-color="#e0e0e0"/></linearGradient><linearGradient id="linear-gradient-8" x1="33.33" y1="25.57" x2="36.29" y2="25.38" gradientUnits="userSpaceOnUse"><stop offset=".08" stop-color="#999"/><stop offset=".13" stop-color="#a4a4a4"/><stop offset=".32" stop-color="#cfcfcf"/><stop offset=".56" stop-color="#d9d9d9"/><stop offset=".76" stop-color="#e0e0e0"/></linearGradient><linearGradient id="linear-gradient-9" x1="29.66" y1="25.35" x2="31.25" y2="26.91" gradientUnits="userSpaceOnUse"><stop offset=".08" stop-color="#ededed"/><stop offset=".21" stop-color="#bcbcbc"/><stop offset=".32" stop-color="#919191"/><stop offset=".56" stop-color="#8c8c8c"/><stop offset=".76" stop-color="#999"/></linearGradient><linearGradient id="linear-gradient-10" x1="28.17" y1="28.79" x2="31.31" y2="26.21" gradientUnits="userSpaceOnUse"><stop offset=".08" stop-color="#949494"/><stop offset=".16" stop-color="#7d7d7d"/><stop offset=".32" stop-color="#525252"/><stop offset=".56" stop-color="#4a4a4a"/><stop offset=".76" stop-color="#999"/></linearGradient><linearGradient id="linear-gradient-11" x1="26.9" y1="27.8" x2="28.4" y2="30.41" gradientUnits="userSpaceOnUse"><stop offset="0" stop-color="#d9d9d9"/><stop offset=".2" stop-color="#6b6b6b"/><stop offset=".2" stop-color="#6b6b6b"/><stop offset=".45" stop-color="#969696"/><stop offset=".56" stop-color="#969696"/><stop offset=".76" stop-color="#a8a8a8"/></linearGradient><linearGradient id="linear-gradient-12" x1="27.68" y1="29.36" x2="28" y2="29.36" gradientUnits="userSpaceOnUse"><stop offset=".21" stop-color="#969696"/><stop offset=".36" stop-color="#adadad"/><stop offset=".51" stop-color="#c9c9c9"/><stop offset=".74" stop-color="#a3a3a3"/><stop offset=".88" stop-color="#9e9e9e"/></linearGradient><linearGradient id="linear-gradient-13" x1="24.56" y1="26.73" x2="26.49" y2="27.85" gradientUnits="userSpaceOnUse"><stop offset="0" stop-color="#a8a8a8"/><stop offset=".09" stop-color="#6b6b6b"/><stop offset=".37" stop-color="#5e5e5e"/><stop offset=".46" stop-color="#616161"/><stop offset=".54" stop-color="#6c6c6c"/><stop offset=".62" stop-color="#7d7d7d"/><stop offset=".68" stop-color="#959595"/><stop offset=".69" stop-color="#969696"/><stop offset=".85" stop-color="#d9d9d9"/></linearGradient><linearGradient id="linear-gradient-14" x1="23.03" y1="25.39" x2="28.11" y2="25.39" gradientUnits="userSpaceOnUse"><stop offset="0" stop-color="#a8a8a8"/><stop offset="1" stop-color="#fff"/></linearGradient><linearGradient id="linear-gradient-15" x1="27.83" y1="24.53" x2="28.93" y2="26.61" gradientUnits="userSpaceOnUse"><stop offset="0" stop-color="#c7c7c7"/><stop offset=".08" stop-color="#bdbdbd"/><stop offset=".14" stop-color="#8c8c8c"/><stop offset=".21" stop-color="#7e7e7e"/><stop offset=".33" stop-color="#6b6b6b"/><stop offset=".39" stop-color="#595959"/><stop offset=".54" stop-color="#2e2e2e"/><stop offset=".57" stop-color="#323232"/><stop offset=".6" stop-color="#3e3e3e"/><stop offset=".64" stop-color="#535353"/><stop offset=".67" stop-color="#707070"/><stop offset=".7" stop-color="#959595"/><stop offset=".73" stop-color="#c1c1c1"/><stop offset=".75" stop-color="#e0e0e0"/><stop offset=".89" stop-color="#fff"/></linearGradient><linearGradient id="linear-gradient-16" x1="27.74" y1="24.36" x2="27.89" y2="24.36" gradientUnits="userSpaceOnUse"><stop offset="0" stop-color="#fff"/><stop offset=".45" stop-color="#bfbfbf"/><stop offset=".82" stop-color="#c2c2c2"/></linearGradient><linearGradient id="linear-gradient-17" x1="23.79" y1="26.85" x2="23.79" y2="26.57" gradientUnits="userSpaceOnUse"><stop offset="0" stop-color="#a6a6a6"/><stop offset=".45" stop-color="#e6e6e6"/><stop offset=".82" stop-color="#b8b8b8"/></linearGradient><linearGradient id="linear-gradient-18" x1="39.09" y1="26.67" x2="38.05" y2="30.04" gradientUnits="userSpaceOnUse"><stop offset=".01" stop-color="#fff"/><stop offset=".01" stop-color="#fefefe"/><stop offset=".04" stop-color="#ccc"/><stop offset=".06" stop-color="#a2a2a2"/><stop offset=".09" stop-color="#818181"/><stop offset=".12" stop-color="#6a6a6a"/><stop offset=".14" stop-color="#5c5c5c"/><stop offset=".16" stop-color="#575757"/><stop offset=".2" stop-color="#686868"/><stop offset=".28" stop-color="#969696"/><stop offset=".34" stop-color="#bdbdbd"/><stop offset=".45" stop-color="#a1a1a1"/><stop offset=".51" stop-color="#919191"/><stop offset=".86" stop-color="#b8b8b8"/></linearGradient><linearGradient id="linear-gradient-19" x1="36.61" y1="25.01" x2="38.26" y2="26.69" gradientUnits="userSpaceOnUse"><stop offset=".08" stop-color="#dedede"/><stop offset=".24" stop-color="#7d7d7d"/><stop offset=".32" stop-color="#525252"/><stop offset=".56" stop-color="#737373"/><stop offset=".67" stop-color="#a0a0a0"/><stop offset=".82" stop-color="#e6e6e6"/></linearGradient><linearGradient id="linear-gradient-20" x1="36.43" y1="24.73" x2="36.68" y2="24.73" gradientUnits="userSpaceOnUse"><stop offset="0" stop-color="#e3e3e3"/><stop offset=".45" stop-color="#bababa"/><stop offset=".77" stop-color="#dadada"/><stop offset=".82" stop-color="#e0e0e0"/></linearGradient><linearGradient id="linear-gradient-21" x1="40.14" y1="26.6" x2="40.14" y2="26.76" gradientUnits="userSpaceOnUse"><stop offset="0" stop-color="#e6e6e6"/><stop offset=".05" stop-color="#ddd"/><stop offset=".2" stop-color="#cbcbcb"/><stop offset=".36" stop-color="silver"/><stop offset=".54" stop-color="#bdbdbd"/><stop offset=".65" stop-color="#c2c2c2"/><stop offset=".77" stop-color="#d0d0d0"/><stop offset=".91" stop-color="#e8e8e8"/><stop offset="1" stop-color="#fcfcfc"/></linearGradient><linearGradient id="linear-gradient-22" x1="36.39" y1="28.71" x2="36.82" y2="28.71" gradientUnits="userSpaceOnUse"><stop offset=".02" stop-color="#878787"/><stop offset=".06" stop-color="#8a8a8a"/><stop offset=".09" stop-color="#919191"/><stop offset=".43" stop-color="#e0e0e0"/><stop offset=".77" stop-color="#9e9e9e"/><stop offset="1" stop-color="#adadad"/></linearGradient><linearGradient id="linear-gradient-23" x1="35.27" y1="21.68" x2="36.4" y2="22.79" xlink:href="#linear-gradient-9"/><linearGradient id="linear-gradient-24" x1="34.17" y1="24.83" x2="37.33" y2="22.23" xlink:href="#linear-gradient-10"/><linearGradient id="linear-gradient-25" x1="32.9" y1="23.84" x2="34.43" y2="26.48" xlink:href="#linear-gradient-11"/><linearGradient id="linear-gradient-26" x1="33.68" y1="25.42" x2="34.01" y2="25.42" xlink:href="#linear-gradient-12"/><linearGradient id="linear-gradient-27" x1="30.55" y1="22.75" x2="32.49" y2="23.88" xlink:href="#linear-gradient-13"/><linearGradient id="linear-gradient-28" x1="29.02" y1="21.39" x2="34.12" y2="21.39" xlink:href="#linear-gradient-14"/><linearGradient id="linear-gradient-29" x1="33.83" y1="20.52" x2="34.95" y2="22.63" xlink:href="#linear-gradient-15"/><linearGradient id="linear-gradient-30" x1="44.39" y1="23.22" x2="41.68" y2="23.84" gradientUnits="userSpaceOnUse"><stop offset="0" stop-color="#b8b8b8"/><stop offset=".11" stop-color="#a0a0a0"/><stop offset=".32" stop-color="#757575"/><stop offset=".43" stop-color="#767676"/><stop offset=".56" stop-color="#737373"/><stop offset=".63" stop-color="#787878"/><stop offset=".71" stop-color="#868686"/><stop offset=".77" stop-color="#969696"/></linearGradient><linearGradient id="linear-gradient-31" x1="43.85" y1="22.08" x2="44.62" y2="22.85" gradientUnits="userSpaceOnUse"><stop offset="0" stop-color="#e6e6e6"/><stop offset=".1" stop-color="#c9c9c9"/><stop offset=".27" stop-color="#9c9c9c"/><stop offset=".43" stop-color="#a7a7a7"/><stop offset=".75" stop-color="#b7b7b7"/><stop offset="1" stop-color="#bdbdbd"/></linearGradient><linearGradient id="linear-gradient-32" x1="42.01" y1="20.81" x2="42.89" y2="22.83" gradientUnits="userSpaceOnUse"><stop offset=".14" stop-color="#dedede"/><stop offset=".24" stop-color="#a0a0a0"/><stop offset=".31" stop-color="#757575"/><stop offset=".58" stop-color="#737373"/><stop offset=".62" stop-color="#787878"/><stop offset=".66" stop-color="#868686"/><stop offset=".71" stop-color="#9d9d9d"/><stop offset=".77" stop-color="#bebebe"/><stop offset=".82" stop-color="#e6e6e6"/></linearGradient><linearGradient id="linear-gradient-33" x1="36.68" y1="21.54" x2="42.05" y2="21.54" xlink:href="#linear-gradient-8"/><linearGradient id="linear-gradient-34" x1="41.94" y1="20.79" x2="42.16" y2="20.79" gradientUnits="userSpaceOnUse"><stop offset="0" stop-color="#e3e3e3"/><stop offset=".11" stop-color="#dbdbdb"/><stop offset=".28" stop-color="#c5c5c5"/><stop offset=".45" stop-color="#a8a8a8"/><stop offset=".67" stop-color="#c8c8c8"/><stop offset=".82" stop-color="#e0e0e0"/></linearGradient><linearGradient id="linear-gradient-35" x1="41.86" y1="24.4" x2="42.54" y2="24.4" gradientUnits="userSpaceOnUse"><stop offset="0" stop-color="#bababa"/><stop offset=".12" stop-color="#a0a0a0"/><stop offset=".32" stop-color="#757575"/><stop offset=".43" stop-color="#767676"/><stop offset=".56" stop-color="#737373"/><stop offset=".66" stop-color="#787878"/><stop offset=".77" stop-color="#858585"/></linearGradient><linearGradient id="linear-gradient-36" x1="37.09" y1="23.51" x2="41.78" y2="23.51" gradientUnits="userSpaceOnUse"><stop offset=".08" stop-color="#999"/><stop offset=".17" stop-color="#7d7d7d"/><stop offset=".32" stop-color="#525252"/><stop offset=".56" stop-color="#404040"/><stop offset=".75" stop-color="#999"/><stop offset=".87" stop-color="#d1d1d1"/></linearGradient><linearGradient id="linear-gradient-37" x1="42.25" y1="24.78" x2="41.23" y2="23.83" gradientUnits="userSpaceOnUse"><stop offset="0" stop-color="#3b3b3b"/><stop offset=".03" stop-color="#3d3d3d"/><stop offset=".26" stop-color="#4d4d4d"/><stop offset=".44" stop-color="#525252"/><stop offset=".5" stop-color="#585858"/><stop offset=".57" stop-color="#696969"/><stop offset=".63" stop-color="#787878"/><stop offset=".75" stop-color="#999"/><stop offset=".87" stop-color="#d1d1d1"/></linearGradient><linearGradient id="linear-gradient-38" x1="29.82" y1="22.62" x2="29.82" y2="22.89" gradientUnits="userSpaceOnUse"><stop offset="0" stop-color="#bdbdbd"/><stop offset=".45" stop-color="#d9d9d9"/><stop offset=".82" stop-color="#a8a8a8"/></linearGradient><linearGradient id="linear-gradient-39" x1="33.75" y1="20.34" x2="33.9" y2="20.34" xlink:href="#linear-gradient-16"/><linearGradient id="linear-gradient-40" x1="13.53" y1="19.04" x2="22.33" y2="20.39" gradientUnits="userSpaceOnUse"><stop offset="0" stop-color="#a8a8a8"/><stop offset=".09" stop-color="#6b6b6b"/><stop offset=".37" stop-color="#4d4d4d"/><stop offset=".45" stop-color="#505050"/><stop offset=".52" stop-color="#5b5b5b"/><stop offset=".59" stop-color="#6c6c6c"/><stop offset=".65" stop-color="#848484"/><stop offset=".69" stop-color="#969696"/><stop offset=".85" stop-color="#f0f0f0"/></linearGradient><linearGradient id="linear-gradient-41" x1="11.28" y1="15.68" x2="22.94" y2="15.68" gradientUnits="userSpaceOnUse"><stop offset="0" stop-color="#a8a8a8"/><stop offset=".61" stop-color="#f0f0f0"/><stop offset=".74" stop-color="#fff"/><stop offset=".8" stop-color="#fbfbfb"/><stop offset=".87" stop-color="#ededed"/><stop offset=".95" stop-color="#d7d7d7"/><stop offset="1" stop-color="#c2c2c2"/></linearGradient><linearGradient id="linear-gradient-42" x1="22.47" y1="15.41" x2="27.67" y2="15.41" gradientUnits="userSpaceOnUse"><stop offset="0" stop-color="#cfcfcf"/><stop offset=".08" stop-color="#d9d9d9"/><stop offset=".14" stop-color="#6b6b6b"/><stop offset=".19" stop-color="#606060"/><stop offset=".29" stop-color="#4d4d4d"/><stop offset=".3" stop-color="#4f4f4f"/><stop offset=".52" stop-color="#7a7a7a"/><stop offset=".58" stop-color="#7e7e7e"/><stop offset=".64" stop-color="#8a8a8a"/><stop offset=".7" stop-color="#9f9f9f"/><stop offset=".76" stop-color="#bbb"/><stop offset=".82" stop-color="#e0e0e0"/><stop offset=".97" stop-color="#ededed"/></linearGradient><linearGradient id="linear-gradient-43" x1="22.56" y1="13.03" x2="22.86" y2="13.03" gradientUnits="userSpaceOnUse"><stop offset="0" stop-color="#d4d4d4"/><stop offset=".53" stop-color="#9e9e9e"/><stop offset=".82" stop-color="#d9d9d9"/></linearGradient><linearGradient id="linear-gradient-44" x1="38.44" y1="16.42" x2="37.43" y2="18.29" gradientUnits="userSpaceOnUse"><stop offset="0" stop-color="#d1d1d1"/><stop offset=".62" stop-color="#fff"/><stop offset=".8" stop-color="#d6d6d6"/><stop offset="1" stop-color="#ababab"/></linearGradient><linearGradient id="linear-gradient-45" x1="42.42" y1="18.06" x2="42.69" y2="19.63" gradientUnits="userSpaceOnUse"><stop offset=".07" stop-color="#fff"/><stop offset=".26" stop-color="#8c8c8c"/><stop offset=".31" stop-color="#787878"/><stop offset=".41" stop-color="#4d4d4d"/><stop offset=".62" stop-color="#4a4a4a"/><stop offset=".69" stop-color="#474747"/><stop offset="1" stop-color="#ebebeb"/></linearGradient><linearGradient id="linear-gradient-46" x1="40.56" y1="18.92" x2="39.59" y2="22.64" gradientUnits="userSpaceOnUse"><stop offset=".06" stop-color="#e0e0e0"/><stop offset=".26" stop-color="#ebebeb"/><stop offset=".27" stop-color="#e4e4e4"/><stop offset=".41" stop-color="#787878"/><stop offset=".47" stop-color="#4d4d4d"/><stop offset=".67" stop-color="#4d4d4d"/><stop offset=".69" stop-color="#4d4d4d"/><stop offset="1" stop-color="#5e5e5e"/></linearGradient><linearGradient id="linear-gradient-47" x1="24.14" y1="20.79" x2="22.48" y2="26.41" gradientUnits="userSpaceOnUse"><stop offset="0" stop-color="#bdbdbd"/><stop offset=".23" stop-color="#828282"/><stop offset=".26" stop-color="#787878"/><stop offset=".41" stop-color="#4d4d4d"/><stop offset=".48" stop-color="#505050"/><stop offset=".54" stop-color="#5b5b5b"/><stop offset=".6" stop-color="#6c6c6c"/><stop offset=".66" stop-color="#848484"/><stop offset=".69" stop-color="#969696"/><stop offset="1" stop-color="#9c9c9c"/></linearGradient><linearGradient id="linear-gradient-48" x1="21.25" y1="21.35" x2="22.31" y2="26.89" gradientUnits="userSpaceOnUse"><stop offset="0" stop-color="#b5b5b5"/><stop offset=".23" stop-color="#6b6b6b"/><stop offset=".41" stop-color="#4d4d4d"/><stop offset=".48" stop-color="#505050"/><stop offset=".54" stop-color="#5b5b5b"/><stop offset=".6" stop-color="#6c6c6c"/><stop offset=".66" stop-color="#848484"/><stop offset=".69" stop-color="#969696"/><stop offset="1" stop-color="#c2c2c2"/></linearGradient><linearGradient id="linear-gradient-49" x1="22.58" y1="25.57" x2="22.84" y2="25.57" gradientUnits="userSpaceOnUse"><stop offset="0" stop-color="#999"/><stop offset=".45" stop-color="#e6e6e6"/><stop offset=".82" stop-color="#a3a3a3"/></linearGradient><linearGradient id="linear-gradient-50" x1="12.46" y1="18.6" x2="12.46" y2="18.98" gradientUnits="userSpaceOnUse"><stop offset="0" stop-color="#a8a8a8"/><stop offset=".04" stop-color="#b2b2b2"/><stop offset=".26" stop-color="#dcdcdc"/><stop offset=".43" stop-color="#f5f5f5"/><stop offset=".53" stop-color="#fff"/><stop offset=".65" stop-color="#ebebeb"/><stop offset=".89" stop-color="#b8b8b8"/><stop offset="1" stop-color="#9e9e9e"/></linearGradient><linearGradient id="linear-gradient-51" x1="25.11" y1="21.45" x2="32.81" y2="17.87" gradientUnits="userSpaceOnUse"><stop offset="0" stop-color="#bdbdbd"/><stop offset=".26" stop-color="#6b6b6b"/><stop offset=".41" stop-color="#4d4d4d"/><stop offset=".62" stop-color="#4a4a4a"/><stop offset=".69" stop-color="#474747"/><stop offset="1" stop-color="#545454"/></linearGradient><linearGradient id="linear-gradient-52" x1="38.98" y1="19.64" x2="35.84" y2="19.06" gradientUnits="userSpaceOnUse"><stop offset="0" stop-color="#bfbfbf"/><stop offset=".26" stop-color="#737373"/><stop offset=".41" stop-color="#4d4d4d"/><stop offset=".62" stop-color="#4a4a4a"/><stop offset=".69" stop-color="#474747"/><stop offset="1" stop-color="#545454"/></linearGradient><linearGradient id="linear-gradient-53" x1="39.1" y1="19.2" x2="39.7" y2="21.73" gradientUnits="userSpaceOnUse"><stop offset="0" stop-color="#d1d1d1"/><stop offset=".24" stop-color="#9c9c9c"/><stop offset=".33" stop-color="#787878"/><stop offset=".44" stop-color="#4d4d4d"/><stop offset=".63" stop-color="#4a4a4a"/><stop offset=".69" stop-color="#474747"/><stop offset="1" stop-color="#4d4d4d"/></linearGradient><linearGradient id="linear-gradient-54" x1="39.58" y1="21.38" x2="39.88" y2="21.38" gradientUnits="userSpaceOnUse"><stop offset="0" stop-color="#4a4a4a"/><stop offset=".1" stop-color="#4d4d4d"/><stop offset=".19" stop-color="#585858"/><stop offset=".27" stop-color="#696969"/><stop offset=".34" stop-color="#818181"/><stop offset=".41" stop-color="#a0a0a0"/><stop offset=".48" stop-color="#c6c6c6"/><stop offset=".51" stop-color="#d4d4d4"/><stop offset=".55" stop-color="#cacaca"/><stop offset=".62" stop-color="#b0b0b0"/><stop offset=".71" stop-color="#868686"/><stop offset=".75" stop-color="#707070"/><stop offset=".94" stop-color="#4f4f4f"/></linearGradient><linearGradient id="linear-gradient-55" x1="40.52" y1="19.49" x2="43.09" y2="18.89" gradientUnits="userSpaceOnUse"><stop offset="0" stop-color="#e6e6e6"/><stop offset=".23" stop-color="#737373"/><stop offset=".45" stop-color="#4d4d4d"/><stop offset=".63" stop-color="#474747"/><stop offset=".69" stop-color="#666"/><stop offset=".79" stop-color="#929292"/><stop offset=".88" stop-color="#b2b2b2"/><stop offset=".95" stop-color="#c5c5c5"/><stop offset="1" stop-color="#ccc"/></linearGradient><linearGradient id="linear-gradient-56" x1="43.46" y1="18.89" x2="43.46" y2="18.67" gradientUnits="userSpaceOnUse"><stop offset="0" stop-color="#c9c9c9"/><stop offset=".25" stop-color="#c6c6c6"/><stop offset=".46" stop-color="#bbb"/><stop offset=".51" stop-color="#b8b8b8"/><stop offset=".55" stop-color="#aeaeae"/><stop offset=".63" stop-color="#949494"/><stop offset=".73" stop-color="#707070"/><stop offset=".94" stop-color="#4f4f4f"/></linearGradient><linearGradient id="linear-gradient-57" x1="40.85" y1="18.35" x2="40.01" y2="16.38" gradientUnits="userSpaceOnUse"><stop offset="0" stop-color="#fff"/><stop offset=".13" stop-color="#a6a6a6"/><stop offset=".27" stop-color="#787878"/><stop offset=".42" stop-color="#4d4d4d"/><stop offset=".44" stop-color="#4c4c4c"/><stop offset=".73" stop-color="#474747"/><stop offset=".98" stop-color="#515151"/><stop offset="1" stop-color="#525252"/></linearGradient><linearGradient id="linear-gradient-58" x1="39.58" y1="16.46" x2="39.86" y2="16.46" gradientUnits="userSpaceOnUse"><stop offset="0" stop-color="#d4d4d4"/><stop offset=".2" stop-color="#d1d1d1"/><stop offset=".37" stop-color="#c6c6c6"/><stop offset=".51" stop-color="#b8b8b8"/><stop offset=".55" stop-color="#aeaeae"/><stop offset=".61" stop-color="#949494"/><stop offset=".7" stop-color="#6a6a6a"/><stop offset=".73" stop-color="#5e5e5e"/><stop offset=".94" stop-color="#4d4d4d"/></linearGradient><linearGradient id="linear-gradient-59" x1="26.88" y1="17.95" x2="35.47" y2="18.57" gradientUnits="userSpaceOnUse"><stop offset="0" stop-color="#e8e8e8"/><stop offset=".62" stop-color="#fff"/><stop offset=".8" stop-color="#d6d6d6"/><stop offset="1" stop-color="#ababab"/></linearGradient><linearGradient id="linear-gradient-60" x1="41.86" y1="24.85" x2="42.28" y2="24.85" gradientUnits="userSpaceOnUse"><stop offset=".03" stop-color="#4a4a4a"/><stop offset=".09" stop-color="#585858"/><stop offset=".2" stop-color="#7b7b7b"/><stop offset=".36" stop-color="#b3b3b3"/><stop offset=".49" stop-color="#d4d4d4"/><stop offset=".55" stop-color="#c7c7c7"/><stop offset=".66" stop-color="#a6a6a6"/><stop offset=".72" stop-color="#919191"/><stop offset=".87" stop-color="#757575"/></linearGradient><radialGradient id="radial-gradient" cx="21.06" cy="17.59" r="15.33" gradientUnits="userSpaceOnUse"><stop offset=".07" stop-color="#fff"/><stop offset=".07" stop-color="#fdfdfd"/><stop offset=".14" stop-color="#d5d5d5"/><stop offset=".21" stop-color="#b9b9b9"/><stop offset=".26" stop-color="#a7a7a7"/><stop offset=".3" stop-color="#a1a1a1"/><stop offset=".37" stop-color="#909090"/><stop offset=".48" stop-color="#7d7d7d"/><stop offset=".59" stop-color="#727272"/><stop offset=".71" stop-color="#6e6e6e"/><stop offset="1" stop-color="#696969"/></radialGradient><linearGradient id="linear-gradient-61" x1="36.33" y1="21.13" x2="39.81" y2="25.83" gradientUnits="userSpaceOnUse"><stop offset="0" stop-color="#adadad"/><stop offset=".09" stop-color="#999"/><stop offset=".15" stop-color="#919191"/><stop offset=".16" stop-color="#909090"/><stop offset=".34" stop-color="#7d7d7d"/><stop offset=".52" stop-color="#727272"/><stop offset=".71" stop-color="#6e6e6e"/><stop offset="1" stop-color="#8a8a8a"/></linearGradient><linearGradient id="linear-gradient-62" x1="36.21" y1="29.89" x2="34.42" y2="28.56" gradientUnits="userSpaceOnUse"><stop offset="0" stop-color="#e6e6e6"/><stop offset=".25" stop-color="#c6c6c6"/><stop offset=".57" stop-color="#a4a4a4"/><stop offset=".83" stop-color="#8f8f8f"/><stop offset="1" stop-color="#878787"/></linearGradient><linearGradient id="linear-gradient-63" x1="45.11" y1="22.59" x2="45.11" y2="22.85" gradientUnits="userSpaceOnUse"><stop offset="0" stop-color="#c2c2c2"/><stop offset=".12" stop-color="#bababa"/><stop offset=".32" stop-color="#a4a4a4"/><stop offset=".45" stop-color="#919191"/><stop offset=".71" stop-color="#b1b1b1"/><stop offset=".82" stop-color="#bfbfbf"/></linearGradient></defs><g id="Слой_2" data-name="Слой 2"><g id="Слой_1-2" data-name="Слой 1"><path class="cls-1" d="M0 0h56.69v42.52H0z"/><ellipse class="cls-2" cx="28.39" cy="21.24" rx="18.84" ry="9.73"/><path class="cls-2" d="M38.28 18.41c.06 2.32-5.9 7.93-14.69 7.93S9.07 24.66 9.07 19.79 16.21 11.31 25 11c10.9-.45 13.15 2.51 13.28 7.41z"/><path d="M38.18 18.4c.06 2.31-5.87 7.88-14.61 7.88S9.13 24.62 9.13 19.77 16.23 11.34 25 11c10.81-.42 13 2.53 13.18 7.4z" fill="#042269"/><path d="M38.08 18.39c.06 2.3-5.83 7.84-14.53 7.84S9.19 24.57 9.19 19.75s7.06-8.38 15.75-8.75c10.77-.38 13 2.55 13.14 7.39z" fill="#06236a"/><path d="M38 18.39c.06 2.29-5.8 7.8-14.45 7.8s-14.3-1.66-14.3-6.45 7-8.34 15.66-8.67c10.7-.42 12.93 2.5 13.09 7.32z" fill="#08236b"/><path d="M37.87 18.38c.06 2.28-5.77 7.75-14.37 7.75S9.31 24.48 9.31 19.72s7-8.29 15.57-8.62c10.64-.41 12.86 2.49 12.99 7.28z" fill="#0b246b"/><path d="M37.76 18.37c.06 2.27-5.74 7.71-14.29 7.71S9.36 24.44 9.36 19.7s6.94-8.24 15.48-8.57c10.58-.4 12.79 2.48 12.92 7.24z" fill="#0d256c"/><path d="M37.66 18.36C37.72 20.62 32 26 23.46 26s-14-1.63-14-6.34 6.9-8.2 15.39-8.52c10.48-.38 12.68 2.49 12.81 7.22z" fill="#11266d"/><path d="M37.56 18.36C37.62 20.6 31.88 26 23.43 26s-14-1.63-14-6.3 6.86-8.15 15.3-8.47c10.5-.43 12.7 2.42 12.83 7.13z" fill="#12276d"/><path d="M37.45 18.35c.06 2.24-5.64 7.58-14 7.58S9.54 24.31 9.54 19.65s6.82-8.1 15.21-8.42c10.39-.4 12.57 2.44 12.7 7.12z" fill="#14276e"/><path d="M37.35 18.34c.06 2.22-5.61 7.53-14 7.53S9.6 24.26 9.6 19.64s6.78-8.05 15.12-8.37c10.28-.4 12.5 2.42 12.63 7.07z" fill="#16286e"/><path d="M37.24 18.33c.06 2.21-5.58 7.49-13.88 7.49s-13.71-1.6-13.71-6.2 6.74-8 15-8.32c10.3-.4 12.47 2.41 12.59 7.03z" fill="#17296f"/><path d="M37.14 18.33c.06 2.2-5.54 7.44-13.8 7.44S9.71 24.17 9.71 19.6s6.7-8 14.94-8.27c10.2-.39 12.35 2.4 12.49 7z" fill="#192a70"/><path d="M37 18.32c.06 2.19-5.51 7.4-13.71 7.4S9.77 24.13 9.77 19.59s6.66-7.91 14.85-8.22C34.76 11 36.91 13.75 37 18.32z" fill="#1a2a70"/><path d="M36.93 18.31c.06 2.18-5.48 7.36-13.63 7.36s-13.47-1.58-13.47-6.1 6.61-7.86 14.76-8.17c10.07-.4 12.22 2.37 12.34 6.91z" fill="#1b2b71"/><path d="M36.83 18.3c.06 2.17-5.45 7.31-13.55 7.31S9.89 24 9.89 19.55s6.57-7.82 14.67-8.12c10.01-.43 12.15 2.36 12.27 6.87z" fill="#1d2c71"/><path d="M36.73 18.3c.06 2.16-5.42 7.27-13.47 7.27S9.95 24 9.95 19.54s6.53-7.77 14.58-8.07c9.94-.39 12.07 2.34 12.2 6.83z" fill="#1e2c72"/><path d="M36.62 18.29c.06 2.15-5.38 7.23-13.39 7.23S10 24 10 19.52s6.49-7.72 14.49-8c9.89-.4 12.01 2.31 12.13 6.77z" fill="#202e73"/><path d="M36.52 18.28c.06 2.14-5.35 7.18-13.31 7.18s-13.15-1.55-13.15-6 6.45-7.67 14.4-8c9.82-.3 11.94 2.39 12.06 6.82z" fill="#222f74"/><path d="M36.41 18.27c.06 2.13-5.32 7.14-13.22 7.14s-13.07-1.55-13.07-5.92 6.41-7.63 14.31-7.93c9.76-.37 11.86 2.31 11.98 6.71z" fill="#232f74"/><path d="M36.31 18.27c.06 2.12-5.29 7.09-13.14 7.09s-13-1.54-13-5.89 6.37-7.58 14.22-7.88c9.7-.36 11.8 2.3 11.92 6.68z" fill="#243075"/><path d="M36.21 18.26c.06 2.11-5.26 7.05-13.06 7.05s-12.91-1.53-12.91-5.85 6.33-7.53 14.13-7.83c9.63-.37 11.72 2.28 11.84 6.63z" fill="#253175"/><path d="M36.1 18.25c.06 2.1-5.22 7-13 7s-12.8-1.52-12.8-5.81 6.29-7.48 14-7.78c9.6-.36 11.7 2.27 11.8 6.59z" fill="#263276"/><path d="M36 18.24c.05 2.09-5.19 7-12.9 7s-12.74-1.52-12.74-5.78 6.25-7.44 14-7.73c9.45-.39 11.52 2.22 11.64 6.51z" fill="#283276"/><path d="M35.89 18.24c.05 2.08-5.16 6.92-12.82 6.92s-12.66-1.52-12.66-5.76 6.22-7.4 13.87-7.67c9.43-.36 11.5 2.27 11.61 6.51z" fill="#293377"/><path d="M35.79 18.23c.05 2.07-5.13 6.87-12.73 6.87s-12.58-1.5-12.58-5.71 6.16-7.39 13.77-7.63c9.37-.35 11.42 2.24 11.54 6.47z" fill="#2a3478"/><path d="M35.69 18.22c.05 2.06-5.1 6.83-12.65 6.83s-12.5-1.5-12.5-5.68 6.13-7.29 13.68-7.58c9.3-.35 11.35 2.21 11.47 6.43z" fill="#2b3578"/><path d="M35.58 18.21C35.64 20.26 30.52 25 23 25s-12.42-1.49-12.42-5.65 6.09-7.25 13.59-7.53c9.26-.34 11.3 2.18 11.41 6.39z" fill="#2d3679"/><path d="M35.48 18.21c.05 2-5 6.74-12.49 6.74s-12.34-1.48-12.34-5.61 6.05-7.2 13.5-7.48c9.18-.34 11.22 2.19 11.33 6.35z" fill="#2e377a"/><path d="M35.37 18.2c.05 2-5 6.7-12.41 6.7S10.7 23.43 10.7 19.32s6-7.15 13.41-7.43c9.13-.34 11.15 2.18 11.26 6.31z" fill="#2f377a"/><path d="M35.27 18.19c.05 2-5 6.66-12.33 6.66s-12.18-1.47-12.18-5.55 6-7.1 13.32-7.38c9.06-.33 11.08 2.17 11.19 6.27z" fill="#30387b"/><path d="M35.17 18.18c.05 2-4.94 6.61-12.24 6.61s-12.1-1.46-12.1-5.51 5.92-7.05 13.23-7.28c8.94-.38 11 2.11 11.11 6.18z" fill="#31397b"/><path d="M35.06 18.18c.05 2-4.9 6.57-12.16 6.57s-12-1.45-12-5.47S16.77 12.26 24 12c9-.34 11 2.13 11.06 6.18z" fill="#323a7c"/><path d="M35 18.17c.05 2-4.87 6.52-12.08 6.52s-11.94-1.44-11.94-5.44S16.79 12.29 24 12c8.86-.31 10.85 2.15 11 6.17z" fill="#333b7d"/><path d="M34.85 18.16c.05 2-4.84 6.48-12 6.48S11 23.2 11 19.24s5.81-6.91 13-7.18c8.76-.33 10.75 2.11 10.85 6.1z" fill="#343b7d"/><path d="M34.75 18.15c0 2-4.81 6.44-11.92 6.44s-11.78-1.43-11.78-5.37 5.77-6.87 12.87-7.13c8.75-.32 10.72 2.1 10.83 6.06z" fill="#353c7e"/><path d="M34.65 18.15c0 1.95-4.78 6.39-11.83 6.39s-11.7-1.42-11.7-5.33 5.73-6.82 12.78-7.08c8.67-.33 10.64 2.08 10.75 6.02z" fill="#363d7e"/><path d="M34.54 18.14c0 1.94-4.74 6.35-11.75 6.35s-11.62-1.42-11.62-5.3 5.69-6.77 12.69-7c8.61-.35 10.58 2.04 10.68 5.95z" fill="#383e7f"/><path d="M34.44 18.13c0 1.93-4.71 6.3-11.67 6.3S11.23 23 11.23 19.17s5.65-6.72 12.6-7c8.55-.3 10.51 2.08 10.61 5.96z" fill="#393f80"/><path d="M34.33 18.12c0 1.92-4.68 6.26-11.59 6.26S11.29 23 11.29 19.15s5.61-6.68 12.51-6.93c8.48-.31 10.43 2.05 10.53 5.9z" fill="#3a4081"/><path d="M34.23 18.12c0 1.91-4.65 6.22-11.51 6.22s-11.38-1.39-11.38-5.19 5.57-6.63 12.42-6.88c8.43-.32 10.37 2.02 10.47 5.85z" fill="#3b4181"/><path d="M34.13 18.11c0 1.9-4.61 6.17-11.43 6.17s-11.29-1.39-11.29-5.16 5.53-6.58 12.33-6.83C32.09 12 34 14.31 34.13 18.11z" fill="#3c4182"/><path d="M34 18.1c0 1.89-4.58 6.13-11.34 6.13s-11.2-1.38-11.2-5.13 5.54-6.53 12.25-6.78C32 12 33.92 14.33 34 18.1z" fill="#3d4282"/><path d="M33.92 18.09c0 1.88-4.55 6.09-11.26 6.09s-11.13-1.37-11.13-5.09S17 12.6 23.68 12.36c8.22-.31 10.14 1.99 10.24 5.73z" fill="#3e4383"/><path d="M33.81 18.08c0 1.86-4.52 6-11.18 6s-11.05-1.37-11.05-5.05 5.42-6.4 12.07-6.64c8.16-.3 10.07 1.98 10.16 5.69z" fill="#3f4483"/><path d="M33.71 18.08c0 1.85-4.49 6-11.1 6s-11-1.36-11-5 5.37-6.39 12-6.63c8.1-.32 10 1.94 10.1 5.63z" fill="#404584"/><path d="M33.61 18.07c0 1.84-4.45 6-11 6S11.7 22.67 11.7 19s5.3-6.3 11.88-6.54c8.04-.3 9.93 1.95 10.03 5.61z" fill="#414585"/><path d="M33.5 18.06c0 1.83-4.42 5.91-10.94 5.91s-10.81-1.34-10.81-5 5.29-6.29 11.8-6.53c7.97-.24 9.86 1.99 9.95 5.62z" fill="#424685"/><path d="M33.4 18.05c0 1.82-4.39 5.87-10.85 5.87S11.81 22.58 11.81 19s5.24-6.25 11.71-6.48c7.91-.29 9.78 1.93 9.88 5.53z" fill="#444886"/><path d="M33.3 18c0 1.81-4.36 5.82-10.77 5.82S11.87 22.54 11.87 19s5.2-6.2 11.62-6.43c7.84-.3 9.71 1.9 9.81 5.43z" fill="#454887"/><path d="M33.19 18c0 1.8-4.33 5.78-10.69 5.78S11.93 22.5 11.93 19s5.16-6.15 11.53-6.38c7.78-.31 9.64 1.87 9.73 5.38z" fill="#464987"/><path d="M33.09 18c0 1.79-4.29 5.73-10.61 5.73S12 22.45 12 19s5.12-6.1 11.44-6.33c7.7-.33 9.56 1.84 9.65 5.33z" fill="#474a88"/><path d="M33 18c0 1.78-4.26 5.69-10.53 5.69S12 22.41 12 18.94s5.08-6.06 11.35-6.28C31 12.38 32.89 14.53 33 18z" fill="#484b89"/><path d="M32.88 18c0 1.77-4.23 5.65-10.45 5.65S12.1 22.36 12.1 18.92s5-6 11.26-6.23c7.64-.28 9.43 1.86 9.52 5.31z" fill="#494c89"/><path d="M32.78 18c0 1.76-4.2 5.6-10.36 5.6s-10.26-1.28-10.26-4.7 5-6 11.17-6.18c7.53-.27 9.36 1.85 9.45 5.28z" fill="#4a4c8a"/><path d="M32.67 18c0 1.75-4.17 5.56-10.28 5.56s-10.17-1.29-10.17-4.67 5-5.91 11.08-6.13c7.46-.28 9.28 1.83 9.37 5.24z" fill="#4b4d8a"/><path d="M32.57 18c0 1.74-4.13 5.51-10.2 5.51s-10.09-1.28-10.09-4.64 4.92-5.87 11-6.08c7.39-.27 9.2 1.83 9.29 5.21z" fill="#4c4e8b"/><path d="M32.46 18c0 1.73-4.1 5.47-10.12 5.47s-10-1.27-10-4.6 4.88-5.82 10.9-6c7.33-.31 9.14 1.77 9.22 5.13z" fill="#4c4f8b"/><path d="M32.36 18c0 1.72-4.07 5.43-10 5.43s-9.93-1.26-9.93-4.57 4.84-5.77 10.81-6c7.24-.27 9.03 1.8 9.12 5.14z" fill="#4e508d"/><path d="M32.26 18c0 1.71-4 5.38-10 5.38s-9.85-1.26-9.85-4.53 4.8-5.72 10.72-5.93c7.25-.29 9.04 1.76 9.13 5.08z" fill="#4f518d"/><path d="M32.15 18c0 1.7-4 5.34-9.87 5.34s-9.76-1.25-9.76-4.5 4.76-5.68 10.63-5.88c7.14-.3 8.92 1.74 9 5.04z" fill="#50528e"/><path d="M32 18c0 1.68-4 5.3-9.79 5.3s-9.64-1.3-9.64-4.51 4.72-5.63 10.54-5.79c7.08-.3 8.89 1.72 8.89 5z" fill="#51538e"/><path d="M31.94 17.95c0 1.67-3.94 5.25-9.71 5.25s-9.6-1.23-9.6-4.43 4.68-5.58 10.45-5.77c7.02-.26 8.78 1.74 8.86 4.95z" fill="#52548f"/><path d="M31.84 17.94c0 1.66-3.91 5.21-9.63 5.21s-9.52-1.23-9.52-4.39S17.33 13.22 23 13c7-.23 8.76 1.76 8.84 4.94z" fill="#535490"/><path d="M31.74 17.93c0 1.65-3.88 5.16-9.55 5.16s-9.44-1.22-9.44-4.36 4.6-5.49 10.27-5.68c6.89-.24 8.64 1.73 8.72 4.88z" fill="#545590"/><path d="M31.63 17.93c0 1.64-3.85 5.12-9.47 5.12s-9.36-1.21-9.36-4.33 4.56-5.44 10.2-5.63c6.81-.25 8.55 1.71 8.63 4.84z" fill="#555691"/><path d="M31.53 17.92c0 1.63-3.81 5.08-9.38 5.08s-9.28-1.21-9.28-4.29 4.51-5.4 10.13-5.59c6.72-.24 8.45 1.7 8.53 4.8z" fill="#565791"/><path d="M31.42 17.91c0 1.62-3.78 5-9.3 5s-9.2-1.2-9.2-4.26 4.48-5.34 10-5.54c6.7-.19 8.43 1.73 8.5 4.8z" fill="#575892"/><path d="M31.32 17.9c0 1.61-3.75 5-9.22 5S13 21.7 13 18.67s4.44-5.3 9.91-5.49c6.62-.18 8.33 1.68 8.41 4.72z" fill="#585993"/><path d="M31.22 17.9c0 1.6-3.72 4.94-9.14 4.94s-9-1.18-9-4.19 4.4-5.25 9.82-5.44c6.53-.21 8.24 1.67 8.32 4.69z" fill="#595a94"/><path d="M31.11 17.89c0 1.59-3.68 4.9-9.06 4.9s-9-1.18-9-4.15 4.36-5.2 9.73-5.39c6.56-.25 8.22 1.65 8.33 4.64z" fill="#5a5b94"/><path d="M31 17.88c0 1.58-3.65 4.86-9 4.86s-8.88-1.17-8.88-4.12 4.32-5.15 9.64-5.34c6.48-.22 8.17 1.64 8.24 4.6z" fill="#5b5c95"/><path d="M30.9 17.87c0 1.57-3.62 4.81-8.89 4.81s-8.8-1.16-8.8-4.08 4.28-5.11 9.55-5.29c6.38-.21 8.07 1.63 8.14 4.56z" fill="#5c5d95"/><path d="M30.8 17.87c0 1.56-3.59 4.77-8.81 4.77s-8.72-1.16-8.72-4 4.24-5.06 9.46-5.24c6.27-.27 8 1.6 8.07 4.47z" fill="#5d5d96"/><path d="M30.7 17.86c0 1.55-3.56 4.73-8.73 4.73s-8.64-1.15-8.64-4 4.2-5 9.37-5.19c6.3-.23 7.93 1.6 8 4.46z" fill="#5e5e96"/><path d="M30.59 17.85c0 1.54-3.52 4.68-8.65 4.68s-8.56-1.14-8.56-4 4.16-5 9.28-5.14c6.2-.19 7.86 1.61 7.93 4.46z" fill="#5f5f97"/><path d="M30.49 17.84c0 1.53-3.49 4.64-8.57 4.64s-8.48-1.13-8.48-3.94 4.12-4.92 9.19-5.09c6.13-.21 7.79 1.55 7.86 4.39z" fill="#606098"/><path d="M30.38 17.84c0 1.51-3.46 4.59-8.48 4.59s-8.4-1.13-8.4-3.91 4.08-4.87 9.1-5c6.07-.25 7.72 1.48 7.78 4.32z" fill="#616198"/><path d="M30.28 17.83c0 1.5-3.43 4.55-8.4 4.55s-8.32-1.12-8.32-3.87 4-4.82 9-5c6.01-.2 7.65 1.55 7.72 4.32z" fill="#626299"/><path d="M30.18 17.82c0 1.49-3.4 4.51-8.32 4.51s-8.23-1.11-8.23-3.84 4-4.77 8.92-4.94c5.93-.2 7.56 1.53 7.63 4.27z" fill="#63639a"/><path d="M30.07 17.81c0 1.48-3.36 4.46-8.24 4.46s-8.15-1.1-8.15-3.8 4-4.73 8.83-4.89c5.87-.2 7.49 1.52 7.56 4.23z" fill="#64649a"/><path d="M30 17.81c0 1.47-3.33 4.42-8.16 4.42s-8.07-1.1-8.07-3.77 3.92-4.68 8.74-4.84c5.78-.2 7.39 1.5 7.49 4.19z" fill="#65659b"/><path d="M29.86 17.8c0 1.46-3.3 4.37-8.08 4.37s-8-1.09-8-3.73 3.88-4.63 8.65-4.79c5.76-.2 7.37 1.49 7.43 4.15z" fill="#66669c"/><path d="M29.76 17.79c0 1.45-3.27 4.33-8 4.33s-7.91-1.08-7.91-3.7 3.83-4.58 8.56-4.74c5.69-.19 7.29 1.48 7.35 4.11z" fill="#67679c"/><path d="M29.66 17.78c0 1.44-3.24 4.29-7.91 4.29S13.91 21 13.91 18.4s3.79-4.54 8.47-4.69c5.62-.18 7.22 1.47 7.28 4.07z" fill="#68679d"/><path d="M29.55 17.78c0 1.43-3.2 4.24-7.83 4.24S14 21 14 18.39s3.75-4.49 8.38-4.64c5.53-.19 7.11 1.45 7.17 4.03z" fill="#69689d"/><path d="M29.45 17.77c0 1.42-3.17 4.2-7.75 4.2s-7.7-1.06-7.7-3.6 3.71-4.44 8.29-4.59c5.52-.18 7.1 1.44 7.16 3.99z" fill="#6a699e"/><path d="M29.35 17.76c0 1.41-3.14 4.15-7.67 4.15s-7.59-1.05-7.59-3.56 3.67-4.39 8.2-4.54c5.43-.18 7 1.43 7.06 3.95z" fill="#6b6a9f"/><path d="M29.24 17.75c0 1.4-3.11 4.11-7.59 4.11s-7.51-1-7.51-3.53 3.63-4.35 8.11-4.49c5.37-.17 6.93 1.42 6.99 3.91z" fill="#6c6b9f"/><path d="M29.14 17.75c0 1.39-3.08 4.07-7.5 4.07s-7.43-1-7.43-3.49 3.59-4.3 8-4.44c5.32-.18 6.87 1.39 6.93 3.86z" fill="#6d6ca0"/><path d="M29 17.74c0 1.38-3 4-7.42 4s-7.35-1-7.35-3.46 3.55-4.25 7.93-4.39c5.27-.15 6.84 1.41 6.84 3.85z" fill="#6e6da1"/><path d="M28.93 17.73c0 1.37-3 4-7.34 4s-7.27-1-7.27-3.42 3.51-4.2 7.84-4.34c5.18-.19 6.71 1.35 6.77 3.76z" fill="#6f6ea1"/><path d="M28.83 17.72c0 1.36-3 3.94-7.26 3.94s-7.19-1-7.19-3.39 3.47-4.16 7.75-4.29c5.11-.17 6.64 1.36 6.7 3.74z" fill="#706fa2"/><path d="M28.72 17.72c0 1.35-2.95 3.89-7.18 3.89s-7.11-1-7.11-3.35 3.44-4.11 7.67-4.26c5.05-.15 6.57 1.36 6.62 3.72z" fill="#7170a3"/><path d="M28.62 17.71c0 1.33-2.92 3.85-7.1 3.85s-7-1-7-3.32 3.39-4.06 7.57-4.19c4.96-.16 6.48 1.33 6.53 3.66z" fill="#7271a3"/><path d="M28.51 17.7c0 1.32-2.88 3.8-7 3.8s-6.95-1-6.95-3.28 3.35-4 7.48-4.14c4.96-.16 6.43 1.32 6.47 3.62z" fill="#7372a4"/><path d="M28.41 17.69c0 1.31-2.85 3.76-6.93 3.76s-6.87-1-6.87-3.25 3.31-4 7.39-4.09c4.86-.11 6.36 1.31 6.41 3.58z" fill="#7472a4"/><path d="M28.31 17.69c0 1.3-2.82 3.72-6.85 3.72s-6.79-1-6.79-3.21 3.27-3.92 7.3-4c4.8-.2 6.29 1.24 6.34 3.49z" fill="#7573a5"/><path d="M28.2 17.68c0 1.29-2.79 3.67-6.77 3.67s-6.7-1-6.7-3.18 3.23-3.87 7.21-4c4.73-.17 6.22 1.29 6.26 3.51z" fill="#7674a6"/><path d="M28.1 17.67c0 1.28-2.76 3.63-6.69 3.63s-6.62-1-6.62-3.14 3.19-3.82 7.12-3.94c4.67-.16 6.14 1.26 6.19 3.45z" fill="#7776a7"/><path d="M28 17.66c0 1.27-2.72 3.58-6.61 3.58s-6.54-1-6.54-3.11 3.15-3.78 7-3.89C26.48 14.1 28 15.5 28 17.66z" fill="#7877a7"/><path d="M27.89 17.66c0 1.26-2.69 3.54-6.52 3.54s-6.46-1-6.46-3.07 3.11-3.73 6.94-3.84c4.54-.15 6 1.23 6.04 3.37z" fill="#7978a8"/><path d="M27.79 17.65c0 1.25-2.66 3.5-6.44 3.5S15 20.2 15 18.1s3.07-3.68 6.85-3.79c4.44-.14 5.9 1.23 5.94 3.34z" fill="#7a78a8"/><path d="M27.68 17.64c0 1.24-2.63 3.45-6.36 3.45s-6.3-.94-6.3-3 3-3.63 6.76-3.74c4.42-.14 5.86 1.21 5.9 3.29z" fill="#7b79a9"/><path d="M27.58 17.63C27.6 18.86 25 21 21.3 21s-6.22-.93-6.22-3 3-3.59 6.67-3.69c4.35-.07 5.79 1.27 5.83 3.32z" fill="#7c7aaa"/><path d="M27.47 17.63c0 1.22-2.56 3.37-6.2 3.37s-6.14-.92-6.14-2.94 2.95-3.54 6.58-3.64c4.29-.14 5.73 1.18 5.76 3.21z" fill="#7d7baa"/><path d="M27.37 17.62c0 1.21-2.53 3.32-6.12 3.32S15.19 20 15.19 18s2.91-3.49 6.49-3.59c4.23-.09 5.65 1.21 5.69 3.21z" fill="#7e7cab"/><path d="M27.27 17.61c0 1.2-2.5 3.28-6 3.28s-6-.91-6-2.87 2.87-3.44 6.4-3.54c4.14-.13 5.56 1.16 5.6 3.13z" fill="#7f7dab"/><path d="M27.16 17.6c0 1.19-2.47 3.23-6 3.23s-5.9-.9-5.9-2.83 2.83-3.4 6.31-3.49c4.15-.12 5.56 1.15 5.59 3.09z" fill="#807eac"/><path d="M27.06 17.6c0 1.18-2.43 3.19-5.87 3.19s-5.82-.89-5.82-2.8 2.79-3.35 6.22-3.44c4.03-.13 5.41 1.13 5.47 3.05z" fill="#817fad"/><path d="M27 17.59c0 1.17-2.4 3.15-5.79 3.15s-5.74-.89-5.74-2.76 2.75-3.3 6.13-3.39c3.93-.13 5.32 1.11 5.4 3z" fill="#8280ae"/><path d="M26.85 17.58c0 1.15-2.37 3.1-5.71 3.1s-5.65-.88-5.65-2.68 2.71-3.25 6-3.34c3.94-.16 5.33 1.06 5.36 2.92z" fill="#8381ae"/><path d="M26.75 17.57c0 1.14-2.34 3.06-5.62 3.06s-5.58-.87-5.58-2.69 2.67-3.21 6-3.3c3.79-.11 5.16 1.1 5.2 2.93z" fill="#8482af"/><path d="M26.64 17.57c0 1.13-2.31 3-5.54 3s-5.5-.87-5.5-2.66 2.63-3.16 5.86-3.25c3.78-.09 5.15 1.1 5.18 2.91z" fill="#8583af"/><path d="M26.54 17.56c0 1.12-2.27 3-5.46 3s-5.42-.86-5.42-2.62 2.59-3.11 5.77-3.2c3.72-.14 5.08 1.04 5.11 2.82z" fill="#8684b0"/><path d="M26.43 17.55c0 1.11-2.24 2.93-5.38 2.93s-5.34-.85-5.34-2.59 2.55-3.06 5.68-3.15c3.66-.1 5.02 1.07 5.04 2.81z" fill="#8785b1"/><path d="M26.33 17.54c0 1.1-2.21 2.88-5.3 2.88s-5.26-.84-5.26-2.55 2.51-3 5.59-3.1c3.64-.09 4.94 1.06 4.97 2.77z" fill="#8886b1"/><path d="M26.23 17.54c0 1.09-2.18 2.84-5.22 2.84s-5.17-.84-5.17-2.52 2.46-3 5.5-3c3.52-.15 4.86.99 4.89 2.68z" fill="#8986b2"/><path d="M26.12 17.53c0 1.08-2.15 2.79-5.13 2.79s-5.09-.83-5.09-2.48 2.42-2.92 5.41-3c3.46-.09 4.79 1.03 4.81 2.69z" fill="#8a87b2"/><path d="M26 17.52c0 1.07-2.11 2.75-5.05 2.75s-5-.82-5-2.45 2.38-2.87 5.32-2.95c3.4-.09 4.73 1.02 4.73 2.65z" fill="#8b89b4"/><path d="M25.91 17.51c0 1.06-2.08 2.71-5 2.71S16 19.4 16 17.8s2.34-2.82 5.23-2.9c3.35-.08 4.66 1.01 4.68 2.61z" fill="#8c8ab4"/><path d="M25.81 17.5c0 1-2 2.66-4.89 2.66s-4.85-.81-4.85-2.38 2.3-2.78 5.14-2.85c3.27-.08 4.58 1 4.6 2.57z" fill="#8d8bb5"/><path d="M25.71 17.5c0 1-2 2.62-4.81 2.62s-4.77-.8-4.77-2.35S18.39 15 21.18 15c3.21-.11 4.5.95 4.53 2.5z" fill="#8e8cb5"/><path d="M25.6 17.49c0 1-2 2.58-4.73 2.58s-4.69-.79-4.69-2.31 2.22-2.68 5-2.75c3.11-.08 4.4.99 4.42 2.48z" fill="#8f8db6"/><path d="M25.5 17.48c0 1-2 2.53-4.64 2.53s-4.61-.79-4.61-2.28 2.18-2.63 4.87-2.7c3.08-.03 4.36.97 4.38 2.45z" fill="#908db6"/><path d="M25.4 17.47c0 1-1.92 2.49-4.56 2.49s-4.53-.78-4.53-2.24 2.14-2.59 4.78-2.65c3.01-.07 4.28.93 4.31 2.4z" fill="#918eb7"/><path d="M25.29 17.47c0 1-1.89 2.44-4.48 2.44s-4.45-.77-4.45-2.21 2.1-2.54 4.69-2.6c2.95-.1 4.22.9 4.24 2.37z" fill="#928fb8"/><path d="M25.19 17.46c0 1-1.86 2.4-4.4 2.4s-4.37-.76-4.37-2.17 2.06-2.49 4.6-2.55c2.89-.07 4.15.86 4.17 2.32z" fill="#9390b8"/><path d="M25.08 17.45c0 1-1.83 2.36-4.32 2.36s-4.29-.76-4.29-2.14 2-2.44 4.51-2.5c2.84-.06 4.09.9 4.1 2.28z" fill="#9491b9"/><path d="M25 17.44c0 1-1.79 2.31-4.24 2.31s-4.21-.75-4.21-2.1 2-2.4 4.42-2.45c2.75-.06 4.03.89 4.03 2.24z" fill="#9593ba"/><path d="M24.88 17.44c0 1-1.76 2.27-4.15 2.27s-4.13-.74-4.13-2.07 1.94-2.35 4.33-2.4c2.7-.06 3.93.87 3.95 2.2z" fill="#9694bb"/><path d="M24.77 17.43c0 .94-1.73 2.22-4.07 2.22s-4-.74-4-2 1.9-2.3 4.24-2.35c2.59-.09 3.82.83 3.83 2.13z" fill="#9795bb"/><path d="M24.67 17.42c0 .93-1.7 2.18-4 2.18s-4-.73-4-2 1.86-2.25 4.15-2.3c2.62-.05 3.83.85 3.85 2.12z" fill="#9896bc"/><path d="M24.56 17.41c0 .92-1.66 2.14-3.91 2.14s-3.89-.72-3.89-2 1.82-2.21 4.06-2.25c2.52-.01 3.73.87 3.74 2.11z" fill="#9996bc"/><path d="M24.46 17.41c0 .91-1.63 2.09-3.83 2.09s-3.81-.71-3.81-1.93 1.78-2.16 4-2.2c2.43-.05 3.63.82 3.64 2.04z" fill="#9a97bd"/><path d="M24.36 17.4c0 .9-1.6 2-3.75 2s-3.72-.71-3.72-1.89 1.74-2.11 3.88-2.15c2.38 0 3.57.85 3.59 2.04z" fill="#9b98be"/><path d="M24.25 17.39c0 .89-1.57 2-3.66 2s-3.64-.7-3.64-1.86 1.7-2.06 3.79-2.1c2.32-.04 3.5.8 3.51 1.96z" fill="#9c99be"/><path d="M24.15 17.38c0 .88-1.54 2-3.58 2S17 18.65 17 17.52s1.66-2 3.7-2.05c2.3-.04 3.44.78 3.45 1.91z" fill="#9d9abf"/><path d="M24 17.38c0 .87-1.5 1.92-3.5 1.92s-3.48-.68-3.48-1.79 1.62-2 3.61-2c2.24-.04 3.37.76 3.37 1.87z" fill="#9e9bbf"/><path d="M23.94 17.37c0 .86-1.47 1.87-3.42 1.87s-3.4-.68-3.4-1.75 1.58-1.92 3.52-2c2.13.01 3.29.8 3.3 1.88z" fill="#9f9cc0"/><path d="M23.84 17.36c0 .85-1.44 1.83-3.34 1.83s-3.32-.67-3.32-1.72 1.54-1.87 3.43-1.9c2.06-.03 3.22.74 3.23 1.79z" fill="#a09ec1"/><path d="M23.73 17.35c0 .84-1.41 1.79-3.26 1.79s-3.24-.66-3.24-1.69 1.5-1.83 3.34-1.85c2.01-.03 3.15.73 3.16 1.75z" fill="#a19fc2"/><path d="M23.63 17.35c0 .83-1.38 1.74-3.17 1.74s-3.16-.66-3.16-1.65 1.46-1.78 3.25-1.8 3.07.71 3.08 1.71z" fill="#a29fc2"/><path d="M23.52 17.34c0 .82-1.34 1.7-3.09 1.7s-3.08-.65-3.08-1.62 1.42-1.73 3.17-1.75 3 .7 3 1.67z" fill="#a3a0c3"/><path d="M23.42 17.33c0 .8-1.31 1.65-3 1.65s-3-.64-3-1.58 1.38-1.68 3.08-1.7 2.91.69 2.92 1.63z" fill="#a4a1c3"/><path d="M23.32 17.32c0 .79-1.28 1.61-2.93 1.61s-2.92-.63-2.92-1.55 1.34-1.64 3-1.65 2.84.68 2.85 1.59z" fill="#a5a2c4"/><path d="M23.21 17.32c0 .78-1.25 1.57-2.85 1.57s-2.84-.63-2.84-1.51 1.3-1.59 2.9-1.6 2.79.65 2.79 1.54z" fill="#a6a3c5"/><path d="M23.11 17.31c0 .77-1.22 1.52-2.76 1.52s-2.76-.62-2.76-1.48 1.26-1.54 2.81-1.55 2.7.65 2.71 1.51z" fill="#a7a4c5"/><path d="M23 17.3c0 .76-1.18 1.48-2.68 1.48s-2.68-.61-2.68-1.44 1.22-1.49 2.72-1.5S23 16.47 23 17.3z" fill="#a8a5c6"/><path d="M22.9 17.29c0 .75-1.15 1.44-2.6 1.44s-2.6-.61-2.6-1.41 1.18-1.45 2.63-1.45 2.57.62 2.57 1.42z" fill="#a9a6c6"/><path d="M22.8 17.29c0 .74-1.12 1.39-2.52 1.39s-2.52-.6-2.52-1.37 1.14-1.4 2.54-1.4 2.49.6 2.5 1.38z" fill="#aaa8c8"/><path d="M22.69 17.28c0 .73-1.09 1.35-2.44 1.35s-2.44-.59-2.44-1.34 1.1-1.35 2.45-1.35 2.43.59 2.43 1.34z" fill="#aba9c8"/><ellipse cx="20.23" cy="17.27" rx="2.36" ry="1.3" fill="#aca9c9"/><path d="M33.22 11.82c2.87 1.49 4.65 3.56 4.65 5.84 0 4.54-7 8.23-15.7 8.23-5 0-9.52-1.24-12.39-3.17C11.15 27.39 19 31 28.39 31c10.41 0 18.84-4.36 18.84-9.73 0-4.55-5.95-8.34-14.01-9.45z" fill="url(#linear-gradient)"/><g><ellipse class="cls-156" cx="28.35" cy="21.21" rx="20.41" ry="11"/><ellipse cx="28.37" cy="21.17" rx="18.71" ry="9.67" stroke-width=".27" stroke="#231f20" fill="none"/><ellipse class="cls-1" cx="28.35" cy="21.21" rx="20.41" ry="11"/><ellipse class="cls-1" cx="28.37" cy="21.11" rx="20.04" ry="10.63"/><path d="M28.35 10.21c-11.27 0-20.41 4.92-20.41 11s9.14 11 20.41 11 20.41-4.92 20.41-11-9.14-11-20.41-11zm0 21.53c-11.07 0-20-4.76-20-10.63s9-10.63 20-10.63 20 4.76 20 10.63-8.91 10.63-19.98 10.63z" fill="url(#linear-gradient-2)"/><ellipse class="cls-1" cx="28.37" cy="21.17" rx="18.71" ry="9.67"/><path d="M28.35 10.21c-11.27 0-20.41 4.92-20.41 11s9.14 11 20.41 11 20.41-4.92 20.41-11-9.14-11-20.41-11zm0 20.62C18 30.84 9.66 26.51 9.66 21.17S18 11.5 28.37 11.5s18.71 4.33 18.71 9.67-8.38 9.67-18.71 9.67z" fill="url(#linear-gradient-3)"/><path d="M28.28 10.67c-10.92 0-19.76 4.69-19.76 10.48s8.85 10.48 19.76 10.48S48 26.94 48 21.15s-8.8-10.48-19.72-10.48zm.09 20.17c-10.37 0-18.71-4.33-18.71-9.67S18 11.5 28.37 11.5s18.71 4.33 18.71 9.67-8.38 9.67-18.71 9.67z" fill="url(#linear-gradient-4)"/><path d="M28.37 11.35c-10.5 0-19 4.4-19 9.82s8.5 9.83 19 9.83 19-4.4 19-9.82-8.5-9.83-19-9.83zm0 19.49c-10.37 0-18.71-4.33-18.71-9.67S18 11.5 28.37 11.5s18.71 4.33 18.71 9.67-8.38 9.67-18.71 9.67z" fill="url(#linear-gradient-5)"/><path class="cls-155" d="M25 26.37s-2 .15-2 .37 1.62.38 1.89.41a13 13 0 0 1 1.62.26c.3.11.5.19.62.53s.41 1.32.41 1.32.14.55.26.55.26-.58.26-.58a6.07 6.07 0 0 1 .51-1.46c.21-.23.25-.31 1.2-.46a19.19 19.19 0 0 1 2.65-.31 8.19 8.19 0 0 1 1.3.06 14.43 14.43 0 0 1 1.76.29.92.92 0 0 1 .6.63c.1.25.31.9.31.9s.05.27.18.27.18-.28.18-.28a5.64 5.64 0 0 1 .54-1.27c.19-.17.33-.33 1.29-.45s1.53-.24 1.86-.26.57-.06.57-.17-.13-.15-.6-.22-1.88-.22-2.62-.38-.78-.75-.89-1-.18-.75-.35-.75-.21.31-.25.41a5.79 5.79 0 0 1-.33.91.91.91 0 0 1-.73.53 14.49 14.49 0 0 1-2.34.32 12.31 12.31 0 0 1-2.1-.13A6.93 6.93 0 0 1 29 26c-.48-.21-.73-.92-.86-1.35s-.24-.65-.32-.65-.21.32-.3.6-.31 1.11-.64 1.31a4.79 4.79 0 0 1-1.88.46z"/><path d="M36.74 28.28c0 .1-.06.27-.16.27s-.13-.11-.17-.25a5.67 5.67 0 0 0-.25-.89C36 27 35.3 27 34.8 26.94s-2.5-.14-2.91-.1h-.29l-.07.17a7.69 7.69 0 0 1 .88-.06 8.19 8.19 0 0 1 1.3.06 14.43 14.43 0 0 1 1.76.29.92.92 0 0 1 .6.63c.1.25.31.9.31.9s.05.27.18.27.18-.28.18-.28z" fill="url(#linear-gradient-6)"/><path d="M37.39 26.33a6.79 6.79 0 0 0 1.58.23c.16 0 .44 0 .44.12s-.16.15-.35.16h1.39c.33 0 .57-.06.57-.17s-.13-.15-.6-.22-1.88-.22-2.62-.38z" fill="url(#linear-gradient-7)"/><path d="M36.74 25.27c0-.18-.11-.34-.19-.34s-.16.2-.19.35 0 .68-.36.9a3.62 3.62 0 0 1-1.91.38c-1.19.06-2.19 0-2.55 0v-.14a10.81 10.81 0 0 0 1.39 0 14.49 14.49 0 0 0 2.34-.32.91.91 0 0 0 .73-.53 5.79 5.79 0 0 0 .33-.91c0-.1.07-.41.25-.41s.25.46.35.75z" fill="url(#linear-gradient-8)"/><path d="M28.82 25.94L29 26a6.93 6.93 0 0 0 1.83.33 12.31 12.31 0 0 0 2.1.13v.1h-1.38a16.19 16.19 0 0 1-2.87-.27l-.16-.08z" fill="url(#linear-gradient-9)"/><path d="M31.89 26.84c-.35 0-2.33.18-2.86.21a.87.87 0 0 0-.78.52c-.08.15-.29 1.19-.31 1.28s-.05.26-.11.26v.69c.12 0 .26-.58.26-.58a6.07 6.07 0 0 1 .51-1.46c.21-.23.25-.31 1.2-.46.74-.12 1.47-.25 2.1-.3z" fill="url(#linear-gradient-10)"/><path d="M26 27a3.58 3.58 0 0 1 .9.15c.26.12.48.25.55.5s.28 1.18.3 1.27.05.19.11.19.09-.17.11-.26l.15.37s-.14.58-.26.58-.26-.55-.26-.55-.29-1-.41-1.32-.32-.42-.62-.53a3.93 3.93 0 0 0-.59-.12z" fill="url(#linear-gradient-11)"/><path d="M27.72 28.92c0 .09.05.19.11.19s.07-.1.09-.18v.72c0 .08-.08.15-.12.15s-.08-.06-.12-.14z" fill="url(#linear-gradient-12)"/><path d="M26.54 27.4a13 13 0 0 0-1.62-.26c-.27 0-1.88-.19-1.89-.41s2-.37 2-.37l.05.2c-.32 0-.59 0-.59.14s.2.18.6.2.91.1.91.1a3.58 3.58 0 0 1 .9.15z" fill="url(#linear-gradient-13)"/><path d="M23 26.74c0-.21 2-.37 2-.37a4.79 4.79 0 0 0 1.87-.37c.33-.2.56-1 .64-1.31s.23-.6.3-.6.16.2.29.63l-.11.45c-.06-.39-.1-.48-.19-.48s-.16.29-.22.55-.13 1-.64 1.13a6 6 0 0 1-1.91.26c-.32 0-.59 0-.59.14z" fill="url(#linear-gradient-14)"/><path d="M28.65 26.32c-.34-.14-.53-.44-.64-1.19-.06-.39-.1-.48-.19-.48V24c.08 0 .16.2.29.63s.38 1.14.86 1.35z" fill="url(#linear-gradient-15)"/><path d="M27.75 24.68a.07.07 0 0 1 .06 0 .09.09 0 0 1 .07 0v-.58s0-.05-.07-.05 0 0-.08.07z" fill="url(#linear-gradient-16)"/><path d="M24.55 26.83c-.07 0-.11-.07-.11-.12s0-.06.1-.08h-1.23c-.18 0-.3.09-.29.15s.11.11.27.15z" fill="url(#linear-gradient-17)"/><path d="M36.57 29.13c.13 0 .18-.28.18-.28a5.64 5.64 0 0 1 .54-1.27c.19-.17.33-.33 1.29-.45s1.53-.24 1.86-.26.57-.06.57-.17h-1.6c0 .14-.16.15-.35.16s-1.06.09-1.62.19-.68 1.15-.7 1.25-.06.27-.16.27z" fill="url(#linear-gradient-18)"/><path d="M38.14 26.48a3.44 3.44 0 0 1-.75-.15c-.41-.16-.56-.44-.65-1.05 0-.18-.11-.34-.19-.34s-.16.2-.19.35l-.05-.56c0-.1.07-.41.25-.41s.25.46.35.75.15.88.89 1l.46.09z" fill="url(#linear-gradient-19)"/><path d="M36.4 24.42a.17.17 0 0 1 .14-.1s.09 0 .12.09v.7c0-.1-.09-.17-.15-.17s-.11.09-.15.2z" fill="url(#linear-gradient-20)"/><path d="M40.77 26.84c.15 0 .24-.07.24-.14s-.06-.11-.23-.15h-1.51c.08 0 .14.05.14.12a.12.12 0 0 1 0 .09z" fill="url(#linear-gradient-21)"/><path d="M36.74 28.28c0 .1-.06.27-.16.27s-.13-.11-.17-.25v.56s.05.26.18.27.24-.47.24-.47z" fill="url(#linear-gradient-22)"/><path class="cls-156" d="M38.43 23a18.68 18.68 0 0 0-2.62.33c-1 .15-1 .24-1.2.47a6.22 6.22 0 0 0-.51 1.49s-.14.59-.26.59-.26-.56-.26-.56-.29-1-.41-1.35-.32-.43-.62-.54a12.85 12.85 0 0 0-1.62-.26c-.27 0-1.88-.2-1.89-.42s2-.37 2-.37a4.71 4.71 0 0 0 1.89-.43c.33-.21.56-1.05.64-1.34s.23-.61.3-.61.16.21.29.65.34 1.16.84 1.35a6.84 6.84 0 0 0 1.83.34 9.08 9.08 0 0 0 1.71.14 10.15 10.15 0 0 0 1.77-.23c.34-.05 1-.16 1.19-.63s.41-1.16.56-1.17.39.75.39.75.17.74.75.87 1.49.34 2 .41.62.11.62.24-.63.19-.63.19a10 10 0 0 0-2.05.41c-.34.21-.55.37-.81 1.53-.1.3-.12.44-.21.44s-.26-.48-.45-1.15-.35-.85-1.31-1a12.09 12.09 0 0 0-1.93-.14z"/><path d="M37.54 22.6a16.12 16.12 0 0 1-2.88-.27l-.16-.09.33-.3.17.06a6.9 6.9 0 0 0 1.83.34" fill="url(#linear-gradient-23)"/><path d="M37.92 22.86c-.36 0-2.34.19-2.87.22a.87.87 0 0 0-.79.52c-.08.15-.29 1.21-.31 1.3s-.05.26-.11.26v.7c.12 0 .26-.59.26-.59a6.19 6.19 0 0 1 .51-1.48c.22-.23.25-.32 1.21-.47.74-.12 1.48-.25 2.11-.3z" fill="url(#linear-gradient-24)"/><path d="M32 23a3.54 3.54 0 0 1 .91.15c.26.12.49.25.55.51l.3 1.29c.02.09.05.2.11.2s.09-.17.11-.26l.15.37s-.14.59-.26.59-.26-.56-.26-.56-.29-1-.41-1.34-.32-.43-.63-.53a3.91 3.91 0 0 0-.59-.12z" fill="url(#linear-gradient-25)"/><path d="M33.73 25c0 .09.05.2.11.2s.07-.1.09-.18v.73c0 .08-.08.15-.12.15s-.08-.06-.12-.14z" fill="url(#linear-gradient-26)"/><path d="M32.55 23.43a12.92 12.92 0 0 0-1.63-.26c-.27 0-1.89-.2-1.9-.41s2-.37 2-.37l.05.21c-.32 0-.59 0-.59.14s.2.19.6.21.92.05.92.05a3.54 3.54 0 0 1 .91.15z" fill="url(#linear-gradient-27)"/><path d="M29 22.76c0-.22 2-.37 2-.37a4.75 4.75 0 0 0 1.9-.43c.34-.21.56-1 .65-1.33s.23-.61.3-.61.16.21.29.64l-.11.46c-.06-.39-.1-.49-.19-.49s-.16.29-.22.56-.14 1-.65 1.15a5.94 5.94 0 0 1-1.92.26c-.32 0-.59 0-.59.14z" fill="url(#linear-gradient-28)"/><path d="M34.66 22.33c-.35-.14-.53-.45-.65-1.21-.06-.39-.1-.49-.19-.49V20c.08 0 .16.21.29.64s.39 1.18.89 1.36z" fill="url(#linear-gradient-29)"/><path class="cls-1" d="M37.92 22.86c-.36 0-2.34.19-2.87.22a.87.87 0 0 0-.79.52c-.08.15-.29 1.21-.31 1.3s-.05.26-.11.26-.09-.11-.11-.2-.24-1-.3-1.29-.29-.39-.55-.51A3.54 3.54 0 0 0 32 23s-.53-.05-.93-.08-.6-.1-.6-.21.27-.1.59-.14a5.94 5.94 0 0 0 1.94-.24c.51-.16.59-.88.65-1.15s.12-.56.22-.56.13.1.19.49c.12.76.3 1.07.65 1.21a16.12 16.12 0 0 0 2.88.27h1.73c.59 0 1.63-.14 1.87-.19a.73.73 0 0 0 .63-.57c.06-.39.16-.83.28-.83s.18.33.2.42.09.74.51.9a5.59 5.59 0 0 0 1.33.22c.26 0 .49.07.49.19s-.34.19-.48.19a4.35 4.35 0 0 0-1.15.14.82.82 0 0 0-.59.71c-.1.51-.15.68-.15.68s0 .21-.15.21-.17-.27-.17-.27a5.73 5.73 0 0 0-.27-1c-.11-.18-.24-.43-1.28-.46s-1.55-.09-2.47-.07z"/><path d="M42.36 23.77a.82.82 0 0 1 .59-.71 4.35 4.35 0 0 1 1.15-.14c.14 0 .48-.08.48-.19h1.18c0 .13-.63.19-.63.19a10 10 0 0 0-2.05.41 1.25 1.25 0 0 0-.62.83z" fill="url(#linear-gradient-30)"/><path d="M42.77 22.31a5.59 5.59 0 0 0 1.33.22c.26 0 .49.07.49.19s-.34.19-.48.19h1s.63-.06.63-.19-.15-.17-.62-.24-1.39-.28-2-.41z" fill="url(#linear-gradient-31)"/><path d="M43.27 22.44a3.15 3.15 0 0 1-.5-.13c-.42-.15-.51-.9-.51-.9s-.09-.42-.2-.42-.21.44-.28.83l-.29-.18c.2-.47.41-1.16.56-1.17s.39.75.39.75.17.74.75.87l.31.07z" fill="url(#linear-gradient-32)"/><path d="M42 20.47c-.15 0-.35.7-.56 1.17s-.85.58-1.19.63a10.15 10.15 0 0 1-1.77.23 9.08 9.08 0 0 1-1.71-.14l-.12.21h2.59c.59 0 1.63-.14 1.87-.19a.73.73 0 0 0 .63-.57c.06-.39.16-.83.28-.83z" fill="url(#linear-gradient-33)"/><path d="M42 21.1c0-.06.06-.1.1-.1s.07 0 .1.09v-.52c0-.06-.08-.1-.11-.1s-.07 0-.11.1z" fill="url(#linear-gradient-34)"/><path d="M42.54 24a5.57 5.57 0 0 0-.26.9c-.1.3-.12.44-.21.44s-.12-.14-.21-.37v-.55s0 .27.17.27.15-.21.15-.21.05-.17.15-.68a1.32 1.32 0 0 1 .08-.27z" fill="url(#linear-gradient-35)"/><path d="M41.78 23.9a2.35 2.35 0 0 0-.16-.49c-.11-.18-.24-.43-1.28-.46s-1.5-.11-2.42-.08l-.83.06v.19a9.36 9.36 0 0 1 1.34-.12 12.09 12.09 0 0 1 1.87.18c1 .14 1.12.32 1.31 1z" fill="url(#linear-gradient-36)"/><path d="M41.67 23.53a8.28 8.28 0 0 1 .22.86s0 .27.17.27v.65c-.1 0-.26-.48-.45-1.15a2.76 2.76 0 0 0-.13-.37z" fill="url(#linear-gradient-37)"/><path d="M29.32 22.92c-.18 0-.3-.1-.3-.16s.13-.11.32-.15h1.29c-.11 0-.19 0-.19.1a.12.12 0 0 0 .07.1z" fill="url(#linear-gradient-38)"/><path d="M33.76 20.66a.07.07 0 0 1 .06 0 .09.09 0 0 1 .07 0v-.59s0-.05-.07-.05 0 0-.08.07z" fill="url(#linear-gradient-39)"/><path class="cls-156" d="M14.05 18.3l-2.35.32s-.42 0-.42.18.35.16.48.18l2.64.35s4 .55 4.4.61a4.45 4.45 0 0 1 1.93.63 5.19 5.19 0 0 1 1.16 2.66c.29 1.34.6 2.48.6 2.48s0 .4.21.4.21-.42.21-.42.79-3.14 1-3.69a2.49 2.49 0 0 1 2.22-2c1.76-.27 5-.64 5-.64a40.58 40.58 0 0 1 4.29-.32c1.09.06 2.32.23 2.63.27a1.11 1.11 0 0 1 1 .64 14.49 14.49 0 0 1 .45 1.55s.08.31.19.31.19-.29.19-.29.35-1.22.48-1.54.39-.58 1.34-.7 2-.33 2-.33.48 0 .48-.19-.52-.19-.52-.19l-2.19-.35s-.88-.06-1.11-.64-.46-1.21-.46-1.21 0-.26-.17-.26-.19.31-.19.31a6.11 6.11 0 0 1-.46 1.18c-.2.29-.45.58-1.54.69s-1.65.23-2.08.24a15.78 15.78 0 0 1-2-.08l-5.3-.64a20 20 0 0 1-2.42-.4c-.58-.19-1.43-.23-2.08-2.28s-.7-2.2-.7-2.2-.05-.38-.24-.38-.24.42-.24.42-.73 2.37-1.07 3.08-.59 1.37-3.46 1.7c-2.56.34-3.9.55-3.9.55z"/><path d="M21.14 20a2.45 2.45 0 0 0-1-.38c-.76-.15-3.64-.44-3.64-.44L13.64 19s-.55 0-.55-.18.55-.15.55-.15h-1.93s-.42 0-.42.18.35.16.48.18l2.64.35s4 .55 4.4.61a4.45 4.45 0 0 1 1.93.63z" fill="url(#linear-gradient-40)"/><path d="M22.94 12.93s-.05-.38-.24-.38-.24.42-.24.42-.73 2.37-1.07 3.08-.59 1.37-3.46 1.7c-2.55.33-3.88.54-3.88.54l-2.35.32s-.42 0-.42.18h1.8c0-.13.55-.15.55-.15l2.16-.19s2.45-.2 3.63-.32a3 3 0 0 0 2.37-1.45 16.89 16.89 0 0 0 .68-2.68s.06-.66.23-.66.22.64.22.64z" fill="url(#linear-gradient-41)"/><path d="M27.67 17.75a14.52 14.52 0 0 1-1.94-.34c-.58-.19-1.43-.23-2.08-2.28s-.7-2.2-.7-2.2-.05-.38-.24-.38-.24.42-.24.42v1s.06-.66.23-.66.17.28.2.47v.28c.09.39.39 1.69.52 2.23a2.32 2.32 0 0 0 1.32 1.57 11.19 11.19 0 0 0 2.74.41z" fill="url(#linear-gradient-42)"/><path d="M22.56 13.49c0-.11.08-.2.14-.2s.11.09.14.2v-.82a.19.19 0 0 0-.16-.12c-.06 0-.11.05-.15.12z" fill="url(#linear-gradient-43)"/><path d="M39.92 17.15c0-.23-.07-.42-.18-.42s-.16.26-.19.43-.13.88-.41 1.06a3.12 3.12 0 0 1-1.45.36c-.63 0-2 .09-2.33.09l.11-.13c.43 0 1-.13 2.08-.24s1.33-.4 1.54-.69a6.11 6.11 0 0 0 .46-1.18s.06-.31.19-.31.17.26.17.26z" fill="url(#linear-gradient-44)"/><path d="M40.83 18.44a4.74 4.74 0 0 0 .65.08l1 .1s.39 0 .39.14-.37.16-.37.16h1.18s.48 0 .48-.19-.52-.19-.52-.19l-2.19-.35h-.24z" fill="url(#linear-gradient-45)"/><path d="M40.33 19.36c-.24.21-.32.88-.34 1s-.12.56-.12.56 0 .21-.12.21v.69c.12 0 .19-.29.19-.29s.35-1.22.48-1.54a.84.84 0 0 1 .19-.29z" fill="url(#linear-gradient-46)"/><path d="M22.71 25.21c.19 0 .21-.44.21-.44s.42-2.56.48-2.87a3.62 3.62 0 0 1 .72-1.72l.49.52a3 3 0 0 0-.71 1.3c-.19.55-1 3.69-1 3.69s0 .42-.21.42z" fill="url(#linear-gradient-47)"/><path d="M22.92 24.77s0 .44-.21.44-.19-.44-.19-.44-.18-1-.45-2.85-1.18-2.14-1.93-2.29l-.14.57a2 2 0 0 1 .73.37 5.19 5.19 0 0 1 1.16 2.66c.29 1.34.6 2.48.6 2.48s0 .4.21.4.21-.42.21-.42z" fill="url(#linear-gradient-48)"/><path d="M22.54 25.91c0 .1.08.2.16.2s.12-.09.16-.18V25c0 .09-.08.17-.16.17s-.13-.09-.16-.19z" fill="url(#linear-gradient-49)"/><path d="M13.64 19s-.55 0-.55-.18.55-.15.55-.15h-1.93s-.42 0-.42.18.35.16.48.18z" fill="url(#linear-gradient-50)"/><path d="M24.56 20.76a2.64 2.64 0 0 1 1.56-.76c1.76-.27 5-.64 5-.64s1.66-.2 3-.29v-.19c-.63 0-5 .39-7.14.53s-2.45.37-2.9.76z" fill="url(#linear-gradient-51)"/><path d="M38.91 19.69a1.31 1.31 0 0 0-.85-.36c-.31 0-1.53-.21-2.63-.27a14.3 14.3 0 0 0-1.63.06v-.2h.38c.63 0 1.56 0 2.43.06a9.58 9.58 0 0 1 2.35.29.64.64 0 0 1 .26.23z" fill="url(#linear-gradient-52)"/><path d="M38.85 19.62a.92.92 0 0 1 .23.34 14.49 14.49 0 0 1 .45 1.55s.08.31.19.31.19-.29.19-.29v-.61s0 .21-.12.21-.1-.11-.13-.21-.09-.41-.12-.55a2.15 2.15 0 0 0-.36-1z" fill="url(#linear-gradient-53)"/><path d="M39.53 21.52s.08.31.19.31.19-.29.19-.29v-.61s0 .21-.12.21-.1-.11-.13-.21z" fill="url(#linear-gradient-54)"/><path d="M40.53 19.77l.06-.07a2 2 0 0 1 1.15-.4c1-.12 2-.33 2-.33s.48 0 .48-.19H42.9c0 .11-.37.16-.37.16a6 6 0 0 1-1 .13 2 2 0 0 0-1.23.31z" fill="url(#linear-gradient-55)"/><path d="M42.72 18.66c.09 0 .17.06.17.11s0 .07-.09.09h1.3a.14.14 0 0 0 .09-.11c0-.11-.18-.15-.32-.18z" fill="url(#linear-gradient-56)"/><path d="M39.74 16.72c.11 0 .13.2.18.42a2 2 0 0 0 .39 1.06 1.26 1.26 0 0 0 .61.25l.42-.25a1.24 1.24 0 0 1-1-.63c-.23-.58-.46-1.21-.46-1.21s0-.26-.17-.26z" fill="url(#linear-gradient-57)"/><path d="M39.65 16.17a.12.12 0 0 1 .09-.06.13.13 0 0 1 .1.07v.63c0-.05-.05-.09-.1-.09s-.07 0-.1.09z" fill="url(#linear-gradient-58)"/><path d="M36.36 18.43c-.38.05-.65.09-.89.09a15.78 15.78 0 0 1-2-.08l-5.3-.64-.65-.08v.54c.31 0 4.6.31 5.28.34s2.24.05 2.6.05h1z" fill="url(#linear-gradient-59)"/><path d="M41.89 24.38s0 .27.17.27.15-.21.15-.21l.07.42c-.1.3-.12.44-.21.44s-.12-.14-.21-.37z" fill="url(#linear-gradient-60)"/><path d="M15.79 18.44l-2.16.19s-.55 0-.55.15.55.18.55.18l2.85.24s2.88.29 3.64.44 1.66.39 1.93 2.29.45 2.85.45 2.85 0 .44.19.44.21-.44.21-.44.42-2.56.48-2.87a3.62 3.62 0 0 1 .72-1.72c.45-.39.81-.61 2.9-.76s6.51-.53 7.14-.53 1.56 0 2.43.06a9.58 9.58 0 0 1 2.35.29c.43.2.52 1 .55 1.13s.09.46.12.55 0 .21.13.21.12-.21.12-.21.1-.43.12-.56.1-.8.34-1a2 2 0 0 1 1.23-.31 6 6 0 0 0 1-.13s.37 0 .37-.16-.39-.14-.39-.14l-1-.1a2.12 2.12 0 0 1-1.17-.32 2 2 0 0 1-.39-1.06c0-.23-.07-.42-.18-.42s-.16.26-.19.43-.13.88-.41 1.06a3.12 3.12 0 0 1-1.45.36c-.63 0-2 .09-2.33.09s-1.92 0-2.6-.05-4.92-.34-5.22-.35a11.19 11.19 0 0 1-2.74-.41 2.32 2.32 0 0 1-1.32-1.57c-.16-.63-.54-2.35-.54-2.35s-.09-.64-.23-.63-.23.66-.23.66a16.89 16.89 0 0 1-.69 2.71 3 3 0 0 1-2.37 1.45c-1.21.11-3.66.31-3.66.31z" fill="url(#radial-gradient)"/><path d="M37.92 22.86c-.36 0-2.34.19-2.87.22a.87.87 0 0 0-.79.52c-.08.15-.29 1.21-.31 1.3s-.05.26-.11.26-.09-.11-.11-.2-.24-1-.3-1.29-.29-.39-.55-.51A3.54 3.54 0 0 0 32 23s-.53-.05-.93-.08-.6-.1-.6-.21.27-.1.59-.14a5.94 5.94 0 0 0 1.94-.24c.51-.16.59-.88.65-1.15s.12-.56.22-.56.13.1.19.49c.12.76.3 1.07.65 1.21a16.12 16.12 0 0 0 2.88.27h1.73c.59 0 1.63-.14 1.87-.19a.73.73 0 0 0 .63-.57c.06-.39.16-.83.28-.83s.18.33.2.42.09.74.51.9a5.59 5.59 0 0 0 1.33.22c.26 0 .49.07.49.19s-.34.19-.48.19a4.35 4.35 0 0 0-1.15.14.82.82 0 0 0-.59.71c-.1.51-.15.68-.15.68s0 .21-.15.21-.17-.27-.17-.27a5.73 5.73 0 0 0-.27-1c-.11-.18-.24-.43-1.28-.46s-1.55-.09-2.47-.07z" fill="url(#linear-gradient-61)"/><path d="M26 27a3.58 3.58 0 0 1 .9.15c.26.12.48.25.55.5s.28 1.18.3 1.27.05.19.11.19.09-.17.11-.26.24-1.13.31-1.28a.87.87 0 0 1 .78-.52c.53 0 2.5-.2 2.86-.21s2.42.05 2.91.1 1.19.09 1.35.47a5.67 5.67 0 0 1 .25.89c0 .14.08.25.17.25s.14-.17.16-.27.14-1.14.7-1.25 1.43-.18 1.62-.19.35 0 .35-.16-.25-.14-.41-.14a6.86 6.86 0 0 1-1.61-.21c-.41-.16-.56-.44-.65-1.05 0-.18-.11-.34-.19-.34s-.16.2-.19.35 0 .68-.36.9a3.62 3.62 0 0 1-1.9.37c-1.19.06-2.2 0-2.57 0a16.19 16.19 0 0 1-2.87-.27c-.34-.14-.53-.44-.64-1.19-.06-.39-.1-.48-.19-.48s-.16.29-.22.55-.13 1-.64 1.13a6 6 0 0 1-1.91.26c-.32 0-.59 0-.59.14s.2.18.6.2.91.1.91.1z" fill="url(#linear-gradient-62)"/><path d="M44.54 22.63a.1.1 0 0 1 0 .08s-.06.09-.14.13h1c.17 0 .34-.08.34-.15s-.08-.14-.3-.19z" fill="url(#linear-gradient-63)"/></g></g></g></svg>