<svg xmlns="http://www.w3.org/2000/svg" width="20mm" height="15mm" viewBox="0 0 56.69 42.52"><defs><style>.cls-1{fill:#010101}</style></defs><g id="Слой_2" data-name="Слой 2"><g id="Слой_1-2" data-name="Слой 1"><g id="layer1"><path id="path2937" class="cls-1" d="M24.5 6.45C19 7.18 14 10.71 12.76 18l.1 6.52C13.35 34 23.7 36.29 28.39 36.25c10.22-.2 14.4-4.77 15.54-12.65v-4.2c-.3-5.65-3.52-11.07-11.75-13zm.3 1.15h7.09c7.15 1.92 10 6.75 10.29 12v3.88c-1 6.37-4.09 11.4-13.89 11.86-5.14-.23-11.93-1.13-13.8-11.36V18C15.92 11.63 20 8.82 24.8 7.6z"/><path id="path2941" class="cls-1" d="M22.37 21l5.25-14.71.1 12.1H29V6.26l5.34 14.26 2 14.58-7.07-14.87h-1.85l-6.56 14.65L22.37 21z"/></g><path fill="none" d="M0 0h56.69v42.52H0z"/></g></g></svg>