<svg xmlns="http://www.w3.org/2000/svg" xmlns:xlink="http://www.w3.org/1999/xlink" width="20mm" height="15mm" viewBox="0 0 56.69 42.52"><defs><linearGradient id="b" x1="28.35" y1="6.5" x2="28.35" y2="35.93" gradientUnits="userSpaceOnUse"><stop offset=".01" stop-color="#010101"/><stop offset="1" stop-color="#b3b3b3"/></linearGradient><linearGradient id="a" x1="25.38" y1="24.87" x2="21.37" y2="30.6" gradientUnits="userSpaceOnUse"><stop offset="0" stop-color="#5ab7de"/><stop offset=".17" stop-color="#a2cdd7"/><stop offset=".41" stop-color="#e0ebf1"/><stop offset=".52" stop-color="#a66f35"/><stop offset="1" stop-color="#010101"/></linearGradient><linearGradient id="c" x1="21.04" y1="11.13" x2="23.15" y2="14.25" gradientUnits="userSpaceOnUse"><stop offset="0" stop-color="#5ab7de"/><stop offset=".17" stop-color="#a2cdd7"/><stop offset=".46" stop-color="#e0ebf1"/><stop offset=".58" stop-color="#a66f35"/><stop offset="1" stop-color="#010101"/></linearGradient><linearGradient id="d" x1="35.44" y1="11.82" x2="31.35" y2="17.67" xlink:href="#a"/><linearGradient id="e" x1="30.46" y1="18.28" x2="26.26" y2="24.28" xlink:href="#a"/><linearGradient id="f" x1="33.82" y1="28.43" x2="35.54" y2="31.18" gradientUnits="userSpaceOnUse"><stop offset="0" stop-color="#5ab7de"/><stop offset=".17" stop-color="#a2cdd7"/><stop offset=".39" stop-color="#e0ebf1"/><stop offset=".52" stop-color="#a66f35"/><stop offset="1" stop-color="#010101"/></linearGradient></defs><g data-name="Слой 2"><g data-name="Слой 1"><path fill="none" d="M0 0h56.69v42.52H0z"/><path d="M28.27 6.94l14.27 9.85a12.5 12.5 0 0 1-6.9 2.21 6.43 6.43 0 0 1-3.4-.86l-7.4-5.07-1.14.75 18.88 12.95a54.78 54.78 0 0 0-14.14 8.73l-14.11-9.83a12.35 12.35 0 0 1 6.67-2.2 6.54 6.54 0 0 1 3.5.92l7.58 5.17 1-.67-19-13.1c4-1.36 11.33-5.9 14.13-8.84m0-.45l-.21.2c-2.73 2.87-9.92 7.37-14 8.76l-.65.23.56.38 18.57 12.81-.4.26-7.38-5a6.87 6.87 0 0 0-3.7-1 12.5 12.5 0 0 0-6.88 2.27l-.39.29.4.27 14.11 9.83.22.15.21-.17a55.4 55.4 0 0 1 14-8.67l.61-.23-.54-.37-18.43-12.65.52-.34L32 18.47a6.7 6.7 0 0 0 3.59.92 12.82 12.82 0 0 0 7.12-2.34l.36-.29-.38-.26-14.23-9.84-.24-.16z" fill="url(#b)"/><path d="M24.5 24.39c-3.28-2-8.1-.25-10.18 1.28l14.12 9.83 3.64-5.94z" fill="url(#a)"/><path d="M24.84 13.11l3.43-6.16c-2.8 2.94-10.13 7.48-14.13 8.84l9.56-1.93z" fill="url(#c)"/><path d="M32.24 18.18c3.29 2 8.55 0 10.3-1.39L28.27 6.94l-3.43 6.16z" fill="url(#d)"/><path fill="url(#e)" d="M23.7 13.86l-9.56 1.93 18.96 13.1 9.49-2.12L23.7 13.86z"/><path d="M33.1 28.89l-1 .67-3.66 5.94a54.78 54.78 0 0 1 14.15-8.72z" fill="url(#f)"/></g></g></svg>