<svg xmlns="http://www.w3.org/2000/svg" width="20mm" height="60.661" viewBox="0 0 56.69 45.5"><defs><style>.cls-1{fill:none}.cls-4{fill:#676767}.cls-5{fill:#6a6a6a}.cls-7{fill:#717171}.cls-8{fill:#747474}.cls-12{fill:#818181}.cls-13{fill:#838384}.cls-15{fill:#8b8a8a}.cls-16{fill:#8e8d8d}.cls-17{fill:#919090}.cls-18{fill:#949494}.cls-19{fill:#979797}.cls-20{fill:#9a9a9a}.cls-21{fill:#9c9c9d}.cls-24{fill:#a8a7a8}.cls-25{fill:#ababab}.cls-27{fill:#b0b1b1}.cls-28{fill:#b5b5b5}.cls-30{fill:#bbb}.cls-32{fill:#c2c1c1}.cls-175{fill:#c4c5c4}.cls-178,.cls-34{fill:#c8c8c7}.cls-183{fill:#cacbcb}.cls-36{fill:#cfcfce}.cls-190,.cls-37{fill:#d1d2d2}.cls-194{fill:#d5d6d5}.cls-198{fill:#d7d8d8}.cls-202,.cls-40{fill:#dadbdb}.cls-208,.cls-41{fill:#dedfdf}.cls-212{fill:#e1e2e2}.cls-254,.cls-43{fill:#e4e5e5}.cls-221{fill:#e7e8e8}.cls-262{fill:#e8e9e9}.cls-261{fill:#e6e7e7}.cls-255{fill:#e2e3e3}.cls-211{fill:#e0e1e1}.cls-205{fill:#dcdddd}.cls-199{fill:#d8d9d9}.cls-196{fill:#d6d7d7}.cls-195,.cls-53{fill:#d6d5d5}.cls-192{fill:#d3d3d3}.cls-188{fill:#cfd1d1}.cls-186{fill:#cecfce}.cls-184{fill:#cbcccc}.cls-181{fill:#c9cac9}.cls-176{fill:#c6c6c5}.cls-174{fill:#c3c4c4}.cls-63{fill:#bfbebe}.cls-64{fill:#bcbcbc}.cls-65{fill:#b9b9b9}.cls-66{fill:#b6b7b7}.cls-69{fill:#afafaf}.cls-73{fill:#a5a5a5}.cls-74{fill:#a3a3a2}.cls-77{fill:#9b9b9b}.cls-78{fill:#989898}.cls-84{fill:#888}.cls-85{fill:#868686}.cls-86{fill:#848484}.cls-87{fill:#838383}.cls-88{fill:#7f7f7f}.cls-91{fill:#7a7a7a}.cls-92{fill:#787878}.cls-93{fill:#767677}.cls-94{fill:#727272}.cls-95{fill:#6f7070}.cls-96{fill:#6e6d6e}.cls-98{fill:#676868}.cls-99{fill:#6c6d6d}.cls-102{fill:#7b7b7b}.cls-103{fill:#7d7d7d}.cls-106{fill:#8b8b8b}.cls-107{fill:#908f8f}.cls-110{fill:#9e9e9e}.cls-111{fill:#a09f9f}.cls-112{fill:#a2a2a1}.cls-114{fill:#b2b2b2}.cls-117{fill:#c0bfbf}.cls-120{fill:#c9c9c9}.cls-121{fill:#cbcbcb}.cls-123{fill:#d0d1d1}.cls-124{fill:#d2d3d3}.cls-197{fill:#d7d7d7}.cls-126,.cls-200{fill:#d9d9d8}.cls-204{fill:#dddddc}.cls-207{fill:#dfdfde}.cls-210{fill:#e0e1e0}.cls-130,.cls-214{fill:#e3e3e3}.cls-131,.cls-217{fill:#e5e5e5}.cls-132,.cls-222{fill:#e8e8e8}.cls-133,.cls-225{fill:#eaeaea}.cls-134,.cls-227{fill:#ececec}.cls-232{fill:#f0efef}.cls-235{fill:#f2f2f2}.cls-137,.cls-238{fill:#f4f4f4}.cls-240{fill:#f6f6f6}.cls-139,.cls-241{fill:#f7f8f8}.cls-140,.cls-244{fill:#fbfcfc}.cls-141,.cls-246{fill:#fff}.cls-242{fill:#f9f9fa}.cls-239{fill:#f5f6f6}.cls-236{fill:#f3f3f3}.cls-233{fill:#f1f0f0}.cls-230{fill:#efeeee}.cls-220{fill:#e7e7e7}.cls-256{fill:#e1e1e1}.cls-257{fill:#e0e0df}.cls-258{fill:#dededd}.cls-203{fill:#dcdbdb}.cls-174,.cls-175,.cls-176,.cls-177,.cls-178,.cls-179,.cls-180,.cls-181,.cls-182,.cls-183,.cls-184,.cls-185,.cls-186,.cls-187,.cls-188,.cls-189,.cls-190,.cls-191,.cls-192,.cls-193,.cls-194,.cls-195,.cls-196,.cls-197,.cls-198,.cls-199,.cls-200,.cls-201,.cls-202,.cls-203,.cls-204,.cls-205,.cls-206,.cls-207,.cls-208,.cls-209,.cls-210,.cls-211,.cls-212,.cls-213,.cls-214,.cls-215,.cls-216,.cls-217,.cls-218,.cls-219,.cls-220,.cls-221,.cls-222,.cls-223,.cls-224,.cls-225,.cls-226,.cls-227,.cls-228,.cls-229,.cls-230,.cls-231,.cls-232,.cls-233,.cls-234,.cls-235,.cls-236,.cls-237,.cls-238,.cls-239,.cls-240,.cls-241,.cls-242,.cls-243,.cls-244,.cls-245,.cls-246,.cls-247,.cls-248,.cls-249,.cls-250,.cls-251,.cls-252,.cls-253,.cls-254,.cls-255,.cls-256,.cls-257,.cls-258,.cls-259,.cls-260,.cls-261,.cls-262,.cls-263,.cls-264{fill-rule:evenodd}.cls-177{fill:#c7c7c6}.cls-179{fill:#c8c8c8}.cls-180{fill:#c8c9c8}.cls-182{fill:#cacaca}.cls-185{fill:#cdcdcd}.cls-187{fill:#ced0d0}.cls-189{fill:#d0d1d2}.cls-191{fill:#d3d4d3}.cls-193{fill:#d4d5d4}.cls-201{fill:#dbdada}.cls-206{fill:#dddede}.cls-209{fill:#dfe0e0}.cls-213{fill:#e2e2e2}.cls-215{fill:#e3e4e3}.cls-216{fill:#e4e4e4}.cls-218{fill:#e5e6e6}.cls-219{fill:#e6e6e5}.cls-223{fill:#e9e9e9}.cls-224{fill:#e9eae9}.cls-226{fill:#ebebeb}.cls-228{fill:#eceded}.cls-229{fill:#ededed}.cls-231{fill:#efefef}.cls-234{fill:#f1f1f2}.cls-237{fill:#f2f3f3}.cls-243{fill:#fafafa}.cls-245{fill:#fdfeff}.cls-247{fill:#fafbfc}.cls-248{fill:#f7f9fa}.cls-249{fill:#f6f7f8}.cls-250{fill:#f4f5f5}.cls-251{fill:#f0f0f0}.cls-252{fill:#eee}.cls-253{fill:#ebeceb}.cls-259{fill:#dbdddc}.cls-260{fill:#d9dada}.cls-263{fill:#fcfdfd}.cls-264{fill:#c2c3c3}</style><clipPath id="clip-path"><path class="cls-1" d="M11.68 20.25a9.86 9.86 0 0 0 4.11 8.49c2.51 1.79 6 2.74 10.26 2.85a13.61 13.61 0 0 0-4-9.23A10.89 10.89 0 0 0 14.9 19a4.94 4.94 0 0 0-2.6.62c-.41.26-.61.48-.61.61zm33.32 0c0-.13-.2-.35-.61-.61a4.89 4.89 0 0 0-2.6-.62 10.89 10.89 0 0 0-7.18 3.34 13.65 13.65 0 0 0-4 9.23c4.21-.11 7.76-1.06 10.26-2.85A9.86 9.86 0 0 0 45 20.26zM7.55 19.5a1.64 1.64 0 0 1 .37-1 3.83 3.83 0 0 1 .55-.6 18.84 18.84 0 0 1 5-2.81c.28-.12.6-.23.95-.36l.94-.3a15.72 15.72 0 0 1 4.13-.77 2.85 2.85 0 0 1 1.62.63 9 9 0 0 1 1.49 1.42 28.49 28.49 0 0 1 3.64 5.76.28.28 0 0 0 0-.07 2.55 2.55 0 0 1-.59-1.17 27.27 27.27 0 0 0-2.42-5.64l-.13-.21c-.62-1.06-.74-1.29.79-2.06a10.51 10.51 0 0 1 8.88 0c1.53.77 1.4 1 .79 2.06a2.33 2.33 0 0 0-.12.21c-.34.63-.66 1-1 1.66s-.58 1.34-.81 2a28.85 28.85 0 0 1-1.26 3.22c2.06-4.13 5-7.8 6.75-7.8a12.53 12.53 0 0 1 2.72.38l.52.13a25.18 25.18 0 0 1 2.75.9c.39.15.8.32 1.2.51s.78.37 1.13.55c2.06 1.07 3.61 2.35 3.61 3.34v.07c-.41 4.3-1.36 8-4.4 10.7s-8 4.2-16.39 4.2S14.95 32.91 12 30.28s-4-6.4-4.4-10.7v-.08z"/></clipPath><clipPath id="clip-path-2"><path d="M8.37 19.5c0-.9 2.62-2.51 5.42-3.63a17.86 17.86 0 0 1 5.72-1.38c2.38 0 7.45 8.58 8.33 14A33.88 33.88 0 0 0 24.57 14c-.33-.69-.5-.76.26-1.19a8.14 8.14 0 0 1 3.52-.9 8.14 8.14 0 0 1 3.52.9c.75.43.58.5.25 1.19a34 34 0 0 0-3.27 14.49c.88-5.38 5.95-14 8.33-14a17.9 17.9 0 0 1 5.73 1.38c2.79 1.12 5.42 2.73 5.42 3.63-.8 8.23-3.56 14.14-20 14.14S9.16 27.73 8.37 19.5zm37.46.75c0-.75-1.32-2.06-4-2.06-4.69 0-12 4.8-12 14.23 9.52 0 16-4 16-12.17zm-35 0c0-.75 1.32-2.06 4-2.06 4.69 0 12 4.8 12 14.23-9.52 0-16-4-16-12.17z" clip-rule="evenodd" fill="none"/></clipPath></defs><g id="Слой_2" data-name="Слой 2"><g id="Слой_1-2" data-name="Слой 1"><g clip-path="url(#clip-path)"><path class="cls-4" d="M7.55 34.43h41.59v.04H7.55z"/><path class="cls-5" d="M7.55 34.34h41.59v.13H7.55z"/><path fill="#6d6e6e" d="M7.55 34.25h41.59v.13H7.55z"/><path class="cls-7" d="M7.55 34.16h41.59v.13H7.55z"/><path class="cls-8" d="M7.55 34.07h41.59v.13H7.55z"/><path fill="#777" d="M7.55 33.98h41.59v.13H7.55z"/><path fill="#7a7b7b" d="M7.55 33.89h41.59v.13H7.55z"/><path fill="#7e7e7e" d="M7.55 33.79h41.59v.14H7.55z"/><path class="cls-12" d="M7.55 33.7h41.59v.13H7.55z"/><path class="cls-13" d="M7.55 33.61h41.59v.13H7.55z"/><path fill="#868787" d="M7.55 33.52h41.59v.13H7.55z"/><path class="cls-15" d="M7.55 33.43h41.59v.13H7.55z"/><path class="cls-16" d="M7.55 33.34h41.59v.13H7.55z"/><path class="cls-17" d="M7.55 33.25h41.59v.13H7.55z"/><path class="cls-18" d="M7.55 33.17h41.59v.13H7.55z"/><path class="cls-19" d="M7.55 33.08h41.59v.13H7.55z"/><path class="cls-20" d="M7.55 32.98h41.59v.14H7.55z"/><path class="cls-21" d="M7.55 32.89h41.59v.14H7.55z"/><path fill="#a0a1a0" d="M7.55 32.8h41.59v.13H7.55z"/><path fill="#a3a3a3" d="M7.55 32.71h41.59v.13H7.55z"/><path class="cls-24" d="M7.55 32.62h41.59v.13H7.55z"/><path class="cls-25" d="M7.55 32.53h41.59v.13H7.55z"/><path fill="#aeafae" d="M7.55 32.44h41.59v.13H7.55z"/><path class="cls-27" d="M7.55 32.35h41.59v.13H7.55z"/><path class="cls-28" d="M7.55 32.26h41.59v.13H7.55z"/><path fill="#b7b7b8" d="M7.55 32.16h41.59v.14H7.55z"/><path class="cls-30" d="M7.55 32.07h41.59v.14H7.55z"/><path fill="#bdbebe" d="M7.55 31.98h41.59v.13H7.55z"/><path class="cls-32" d="M7.55 31.89h41.59v.13H7.55z"/><path fill="#c4c5c4" d="M7.55 31.81h41.59v.13H7.55z"/><path class="cls-34" d="M7.55 31.72h41.59v.13H7.55z"/><path fill="#cacbcb" d="M7.55 31.63h41.59v.13H7.55z"/><path class="cls-36" d="M7.55 31.54h41.59v.13H7.55z"/><path class="cls-37" d="M7.55 31.45h41.59v.13H7.55z"/><path fill="#d5d6d5" d="M7.55 31.36h41.59v.13H7.55z"/><path fill="#d7d8d8" d="M7.55 31.26h41.59v.14H7.55z"/><path class="cls-40" d="M7.55 31.17h41.59v.13H7.55z"/><path class="cls-41" d="M7.55 31.08h41.59v.13H7.55z"/><path fill="#e1e2e2" d="M7.55 30.99h41.59v.13H7.55z"/><path class="cls-43" d="M7.55 30.9h41.59v.13H7.55z"/><path fill="#e7e8e8" d="M7.55 30.81h41.59v.13H7.55z"/><path fill="#eaebeb" d="M7.55 30.72h41.59v.13H7.55z"/><path fill="#e8e9e9" d="M7.55 30.63h41.59v.13H7.55z"/><path fill="#e6e7e7" d="M7.55 30.54h41.59v.13H7.55z"/><path class="cls-43" d="M7.55 30.45h41.59v.14H7.55z"/><path fill="#e2e3e3" d="M7.55 30.36h41.59v.13H7.55z"/><path fill="#e0e1e1" d="M7.55 30.27h41.59v.13H7.55z"/><path class="cls-41" d="M7.55 30.18h41.59v.13H7.55z"/><path fill="#dcdddd" d="M7.55 30.09h41.59v.13H7.55z"/><path class="cls-40" d="M7.55 30h41.59v.13H7.55z"/><path fill="#d8d9d9" d="M7.55 29.91h41.59v.13H7.55z"/><path fill="#d6d7d7" d="M7.55 29.82h41.59v.13H7.55z"/><path class="cls-53" d="M7.55 29.73h41.59v.13H7.55z"/><path fill="#d3d3d3" d="M7.55 29.63h41.59v.14H7.55z"/><path class="cls-37" d="M7.55 29.54h41.59v.14H7.55z"/><path fill="#cfd1d1" d="M7.55 29.45h41.59v.13H7.55z"/><path fill="#cecfce" d="M7.55 29.36h41.59v.13H7.55z"/><path fill="#cbcccc" d="M7.55 29.27h41.59v.13H7.55z"/><path fill="#c9cac9" d="M7.55 29.18h41.59v.13H7.55z"/><path class="cls-34" d="M7.55 29.09h41.59v.13H7.55z"/><path fill="#c6c6c5" d="M7.55 29h41.59v.13H7.55z"/><path fill="#c3c4c4" d="M7.55 28.92h41.59v.13H7.55z"/><path fill="#c1c2c2" d="M7.55 28.82h41.59v.14H7.55z"/><path fill="silver" d="M7.55 28.73h41.59v.14H7.55z"/><path class="cls-63" d="M7.55 28.64h41.59v.13H7.55z"/><path class="cls-64" d="M7.55 28.55h41.59v.13H7.55z"/><path class="cls-30" d="M7.55 28.46h41.59v.13H7.55z"/><path class="cls-65" d="M7.55 28.37h41.59v.13H7.55z"/><path class="cls-66" d="M7.55 28.28h41.59v.13H7.55z"/><path fill="#b5b5b6" d="M7.55 28.19h41.59v.13H7.55z"/><path fill="#b3b4b4" d="M7.55 28.1h41.59v.13H7.55z"/><path class="cls-27" d="M7.55 28.01h41.59v.13H7.55z"/><path class="cls-69" d="M7.55 27.91h41.59v.14H7.55z"/><path fill="#adaead" d="M7.55 27.82h41.59v.13H7.55z"/><path fill="#abacac" d="M7.55 27.73h41.59v.13H7.55z"/><path fill="#a9aaaa" d="M7.55 27.64h41.59v.13H7.55z"/><path class="cls-24" d="M7.55 27.56h41.59v.13H7.55z"/><path class="cls-73" d="M7.55 27.47h41.59v.13H7.55z"/><path class="cls-74" d="M7.55 27.38h41.59v.13H7.55z"/><path fill="#a1a1a0" d="M7.55 27.29h41.59v.13H7.55z"/><path fill="#9f9f9f" d="M7.55 27.2h41.59v.13H7.55z"/><path class="cls-21" d="M7.55 27.1h41.59v.14H7.55z"/><path class="cls-77" d="M7.55 27.01h41.59v.14H7.55z"/><path class="cls-78" d="M7.55 26.92h41.59v.13H7.55z"/><path fill="#979898" d="M7.55 26.83h41.59v.13H7.55z"/><path fill="#959696" d="M7.55 26.74h41.59v.13H7.55z"/><path class="cls-18" d="M7.55 26.65h41.59v.13H7.55z"/><path fill="#929392" d="M7.55 26.56h41.59v.13H7.55z"/><path class="cls-17" d="M7.55 26.47h41.59v.13H7.55z"/><path fill="#8f8f8e" d="M7.55 26.38h41.59v.13H7.55z"/><path fill="#8c8c8c" d="M7.55 26.29h41.59v.14H7.55z"/><path class="cls-15" d="M7.55 26.2h41.59v.14H7.55z"/><path class="cls-84" d="M7.55 26.11h41.59v.13H7.55z"/><path class="cls-85" d="M7.55 26.02h41.59v.13H7.55z"/><path class="cls-86" d="M7.55 25.93h41.59v.13H7.55z"/><path class="cls-87" d="M7.55 25.84h41.59v.13H7.55z"/><path class="cls-12" d="M7.55 25.75h41.59v.13H7.55z"/><path class="cls-88" d="M7.55 25.66h41.59v.13H7.55z"/><path fill="#7d7e7e" d="M7.55 25.57h41.59v.13H7.55z"/><path fill="#7b7c7c" d="M7.55 25.48h41.59v.13H7.55z"/><path class="cls-91" d="M7.55 25.38h41.59v.14H7.55z"/><path class="cls-92" d="M7.55 25.29h41.59v.13H7.55z"/><path class="cls-93" d="M7.55 25.2h41.59v.13H7.55z"/><path class="cls-8" d="M7.55 25.11h41.59v.13H7.55z"/><path class="cls-94" d="M7.55 25.02h41.59v.13H7.55z"/><path class="cls-95" d="M7.55 24.93h41.59v.13H7.55z"/><path class="cls-96" d="M7.55 24.84h41.59v.13H7.55z"/><path fill="#6b6c6c" d="M7.55 24.76h41.59v.13H7.55z"/><path class="cls-5" d="M7.55 24.67h41.59v.13H7.55z"/><path class="cls-98" d="M7.55 24.57h41.59v.14H7.55z"/><path class="cls-98" d="M7.55 24.48h41.59v.13H7.55z"/><path class="cls-5" d="M7.55 24.39h41.59v.13H7.55z"/><path class="cls-99" d="M7.55 24.3h41.59v.13H7.55z"/><path fill="#6f6f6f" d="M7.55 24.21h41.59v.13H7.55z"/><path class="cls-7" d="M7.55 24.12h41.59v.13H7.55z"/><path class="cls-8" d="M7.55 24.03h41.59v.13H7.55z"/><path class="cls-93" d="M7.55 23.94h41.59v.13H7.55z"/><path fill="#797979" d="M7.55 23.85h41.59v.13H7.55z"/><path class="cls-102" d="M7.55 23.75h41.59v.14H7.55z"/><path class="cls-103" d="M7.55 23.66h41.59v.14H7.55z"/><path fill="gray" d="M7.55 23.57h41.59v.13H7.55z"/><path fill="#828282" d="M7.55 23.48h41.59v.13H7.55z"/><path class="cls-13" d="M7.55 23.4h41.59v.13H7.55z"/><path class="cls-85" d="M7.55 23.31h41.59v.13H7.55z"/><path class="cls-84" d="M7.55 23.22h41.59v.13H7.55z"/><path class="cls-106" d="M7.55 23.13h41.59v.13H7.55z"/><path class="cls-16" d="M7.55 23.04h41.59v.13H7.55z"/><path class="cls-107" d="M7.55 22.95h41.59v.13H7.55z"/><path fill="#939292" d="M7.55 22.85h41.59v.14H7.55z"/><path fill="#959494" d="M7.55 22.76h41.59v.13H7.55z"/><path class="cls-19" d="M7.55 22.67h41.59v.13H7.55z"/><path class="cls-78" d="M7.55 22.58h41.59v.13H7.55z"/><path class="cls-77" d="M7.55 22.49h41.59v.13H7.55z"/><path class="cls-110" d="M7.55 22.4h41.59v.13H7.55z"/><path class="cls-111" d="M7.55 22.31h41.59v.13H7.55z"/><path class="cls-112" d="M7.55 22.22h41.59v.13H7.55z"/><path class="cls-73" d="M7.55 22.13h41.59v.13H7.55z"/><path class="cls-24" d="M7.55 22.04h41.59v.14H7.55z"/><path class="cls-25" d="M7.55 21.95h41.59v.13H7.55z"/><path fill="#adadad" d="M7.55 21.86h41.59v.13H7.55z"/><path class="cls-69" d="M7.55 21.77h41.59v.13H7.55z"/><path class="cls-114" d="M7.55 21.68h41.59v.13H7.55z"/><path fill="#b4b4b4" d="M7.55 21.59h41.59v.13H7.55z"/><path class="cls-66" d="M7.55 21.5h41.59v.13H7.55z"/><path class="cls-65" d="M7.55 21.41h41.59v.13H7.55z"/><path class="cls-30" d="M7.55 21.32h41.59v.13H7.55z"/><path fill="#bdbdbd" d="M7.55 21.22h41.59v.14H7.55z"/><path class="cls-117" d="M7.55 21.13h41.59v.14H7.55z"/><path class="cls-32" d="M7.55 21.04h41.59v.13H7.55z"/><path fill="#c4c4c4" d="M7.55 20.95h41.59v.13H7.55z"/><path fill="#c7c6c6" d="M7.55 20.86h41.59v.13H7.55z"/><path class="cls-120" d="M7.55 20.77h41.59v.13H7.55z"/><path class="cls-121" d="M7.55 20.68h41.59v.13H7.55z"/><path fill="#cececd" d="M7.55 20.6h41.59v.13H7.55z"/><path class="cls-123" d="M7.55 20.51h41.59v.13H7.55z"/><path class="cls-124" d="M7.55 20.41h41.59v.14H7.55z"/><path class="cls-53" d="M7.55 20.32h41.59v.14H7.55z"/><path fill="#d7d7d7" d="M7.55 20.23h41.59v.13H7.55z"/><path class="cls-126" d="M7.55 20.14h41.59v.13H7.55z"/><path fill="#dddddc" d="M7.55 20.05h41.59v.13H7.55z"/><path fill="#dfdfde" d="M7.55 19.96h41.59v.13H7.55z"/><path fill="#e0e1e0" d="M7.55 19.87h41.59V20H7.55z"/><path class="cls-130" d="M7.55 19.78h41.59v.13H7.55z"/><path class="cls-131" d="M7.55 19.69h41.59v.13H7.55z"/><path class="cls-132" d="M7.55 19.6h41.59v.13H7.55z"/><path class="cls-133" d="M7.55 19.5h41.59v.14H7.55z"/><path class="cls-134" d="M7.55 19.41h41.59v.13H7.55z"/><path fill="#f0efef" d="M7.55 19.32h41.59v.13H7.55z"/><path fill="#f2f2f2" d="M7.55 19.24h41.59v.13H7.55z"/><path class="cls-137" d="M7.55 19.15h41.59v.13H7.55z"/><path fill="#f6f6f6" d="M7.55 19.06h41.59v.13H7.55z"/><path class="cls-139" d="M7.55 18.97h41.59v.13H7.55z"/><path class="cls-140" d="M7.55 18.88h41.59v.13H7.55z"/><path class="cls-141" d="M7.55 18.79h41.59v.13H7.55z"/><path class="cls-141" d="M7.55 18.69h41.59v.14H7.55z"/><path class="cls-140" d="M7.55 18.6h41.59v.13H7.55z"/><path fill="#f9f9fa" d="M7.55 18.51h41.59v.13H7.55z"/><path class="cls-139" d="M7.55 18.42h41.59v.13H7.55z"/><path fill="#f5f6f6" d="M7.55 18.33h41.59v.13H7.55z"/><path class="cls-137" d="M7.55 18.24h41.59v.13H7.55z"/><path fill="#f3f3f3" d="M7.55 18.15h41.59v.13H7.55z"/><path fill="#f1f0f0" d="M7.55 18.06h41.59v.13H7.55z"/><path fill="#efeeee" d="M7.55 17.97h41.59v.13H7.55z"/><path class="cls-134" d="M7.55 17.88h41.59v.14H7.55z"/><path class="cls-133" d="M7.55 17.79h41.59v.14H7.55z"/><path class="cls-132" d="M7.55 17.7h41.59v.13H7.55z"/><path fill="#e7e7e7" d="M7.55 17.61h41.59v.13H7.55z"/><path class="cls-131" d="M7.55 17.52h41.59v.13H7.55z"/><path class="cls-130" d="M7.55 17.43h41.59v.13H7.55z"/><path fill="#e1e1e1" d="M7.55 17.34h41.59v.13H7.55z"/><path fill="#e0e0df" d="M7.55 17.25h41.59v.13H7.55z"/><path fill="#dededd" d="M7.55 17.16h41.59v.13H7.55z"/><path fill="#dcdbdb" d="M7.55 17.07h41.59v.13H7.55z"/><path class="cls-126" d="M7.55 16.97h41.59v.14H7.55z"/><path fill="#d8d9d8" d="M7.55 16.88h41.59v.13H7.55z"/><path fill="#d7d6d6" d="M7.55 16.79h41.59v.13H7.55z"/><path fill="#d4d4d4" d="M7.55 16.7h41.59v.13H7.55z"/><path class="cls-124" d="M7.55 16.61h41.59v.13H7.55z"/><path class="cls-123" d="M7.55 16.52h41.59v.13H7.55z"/><path class="cls-36" d="M7.55 16.43h41.59v.13H7.55z"/><path fill="#cdcccc" d="M7.55 16.35h41.59v.13H7.55z"/><path class="cls-121" d="M7.55 16.26h41.59v.13H7.55z"/><path class="cls-120" d="M7.55 16.16h41.59v.14H7.55z"/><path fill="#c8c7c7" d="M7.55 16.07h41.59v.13H7.55z"/><path fill="#c6c5c5" d="M7.55 15.98h41.59v.13H7.55z"/><path fill="#c3c3c3" d="M7.55 15.89h41.59v.13H7.55z"/><path class="cls-32" d="M7.55 15.8h41.59v.13H7.55z"/><path class="cls-117" d="M7.55 15.71h41.59v.13H7.55z"/><path class="cls-63" d="M7.55 15.62h41.59v.13H7.55z"/><path class="cls-64" d="M7.55 15.53h41.59v.13H7.55z"/><path class="cls-30" d="M7.55 15.44h41.59v.13H7.55z"/><path class="cls-65" d="M7.55 15.34h41.59v.14H7.55z"/><path class="cls-66" d="M7.55 15.25h41.59v.14H7.55z"/><path class="cls-28" d="M7.55 15.16h41.59v.13H7.55z"/><path fill="#b3b3b3" d="M7.55 15.08h41.59v.13H7.55z"/><path class="cls-114" d="M7.55 14.99h41.59v.13H7.55z"/><path fill="#b0b0b0" d="M7.55 14.9h41.59v.13H7.55z"/><path fill="#aeaeae" d="M7.55 14.81h41.59v.13H7.55z"/><path fill="#acacac" d="M7.55 14.72h41.59v.13H7.55z"/><path fill="#aaa" d="M7.55 14.63h41.59v.13H7.55z"/><path class="cls-24" d="M7.55 14.53h41.59v.14H7.55z"/><path class="cls-73" d="M7.55 14.44h41.59v.14H7.55z"/><path class="cls-74" d="M7.55 14.35h41.59v.13H7.55z"/><path class="cls-112" d="M7.55 14.26h41.59v.13H7.55z"/><path class="cls-111" d="M7.55 14.17h41.59v.13H7.55z"/><path class="cls-110" d="M7.55 14.08h41.59v.13H7.55z"/><path fill="#9b9c9c" d="M7.55 13.99h41.59v.13H7.55z"/><path class="cls-20" d="M7.55 13.9h41.59v.13H7.55z"/><path fill="#989798" d="M7.55 13.81h41.59v.13H7.55z"/><path fill="#969696" d="M7.55 13.72h41.59v.13H7.55z"/><path fill="#959595" d="M7.55 13.63h41.59v.14H7.55z"/><path fill="#939393" d="M7.55 13.54h41.59v.13H7.55z"/><path fill="#919191" d="M7.55 13.45h41.59v.13H7.55z"/><path class="cls-107" d="M7.55 13.36h41.59v.13H7.55z"/><path class="cls-16" d="M7.55 13.27h41.59v.13H7.55z"/><path class="cls-106" d="M7.55 13.18h41.59v.13H7.55z"/><path fill="#898989" d="M7.55 13.09h41.59v.13H7.55z"/><path class="cls-84" d="M7.55 13h41.59v.13H7.55z"/><path class="cls-85" d="M7.55 12.91h41.59v.13H7.55z"/><path class="cls-86" d="M7.55 12.81h41.59v.14H7.55z"/><path class="cls-87" d="M7.55 12.72h41.59v.14H7.55z"/><path class="cls-12" d="M7.55 12.63h41.59v.13H7.55z"/><path class="cls-88" d="M7.55 12.54h41.59v.13H7.55z"/><path class="cls-103" d="M7.55 12.45h41.59v.13H7.55z"/><path class="cls-102" d="M7.55 12.36h41.59v.13H7.55z"/><path class="cls-91" d="M7.55 12.27h41.59v.13H7.55z"/><path class="cls-92" d="M7.55 12.19h41.59v.13H7.55z"/><path class="cls-93" d="M7.55 12.1h41.59v.13H7.55z"/><path class="cls-8" d="M7.55 12h41.59v.14H7.55z"/><path class="cls-94" d="M7.55 11.91h41.59v.14H7.55z"/><path class="cls-95" d="M7.55 11.82h41.59v.13H7.55z"/><path class="cls-96" d="M7.55 11.73h41.59v.13H7.55z"/><path class="cls-99" d="M7.55 11.64h41.59v.13H7.55z"/><path fill="#6b6b6a" d="M7.55 11.55h41.59v.13H7.55z"/><path fill="#686969" d="M7.55 11.46h41.59v.13H7.55z"/><path class="cls-4" d="M7.55 11.33h41.59v.18H7.55z"/></g><g clip-path="url(#clip-path-2)"><path class="cls-174" d="M28.34 22.75l.07 22.75h.42l-.49-22.75z"/><path class="cls-174" d="M28.34 22.75l.42 22.75.35-.01-.77-22.74z"/><path class="cls-175" d="M28.34 22.75l.71 22.74.35-.01-1.06-22.73z"/><path class="cls-176" d="M28.34 22.75l.99 22.73.35-.01-1.34-22.72z"/><path class="cls-176" d="M28.34 22.75l1.26 22.72.35-.02-1.61-22.7z"/><path class="cls-177" d="M28.34 22.75l1.54 22.71.35-.03-1.89-22.68z"/><path class="cls-178" d="M28.34 22.75l1.83 22.68.35-.03-2.18-22.65z"/><path class="cls-179" d="M28.34 22.75l2.1 22.66.35-.03-2.45-22.63z"/><path class="cls-180" d="M28.34 22.75l2.38 22.63.35-.04-2.73-22.59z"/><path class="cls-181" d="M28.34 22.75L31 45.35l.35-.04-3.01-22.56z"/><path class="cls-182" d="M28.34 22.75l2.94 22.56.35-.04-3.29-22.52z"/><path class="cls-183" d="M28.34 22.75l3.21 22.53.35-.05-3.56-22.48z"/><path class="cls-184" d="M28.34 22.75l3.49 22.48.35-.05-3.84-22.43z"/><path class="cls-185" d="M28.34 22.75l3.77 22.44.35-.05-4.12-22.39z"/><path class="cls-185" d="M28.34 22.75l4.05 22.4.34-.07-4.39-22.33z"/><path class="cls-186" d="M28.34 22.75l4.32 22.34.34-.07-4.66-22.27z"/><path class="cls-187" d="M28.34 22.75l4.6 22.29.34-.07-4.94-22.22z"/><path class="cls-187" d="M28.34 22.75l4.87 22.23.34-.08-5.21-22.15z"/><path class="cls-188" d="M28.34 22.75l5.15 22.17.34-.08-5.49-22.09z"/><path class="cls-189" d="M28.34 22.75l5.42 22.1.33-.08-5.75-22.02z"/><path class="cls-190" d="M28.34 22.75l5.69 22.04.34-.09-6.03-21.95z"/><path class="cls-190" d="M28.34 22.75l5.96 21.97.34-.1-6.3-21.87z"/><path class="cls-191" d="M28.34 22.75l6.23 21.88.34-.09-6.57-21.79z"/><path class="cls-192" d="M28.34 22.75l6.5 21.81.34-.1-6.84-21.71z"/><path class="cls-193" d="M28.34 22.75l6.77 21.72.34-.09-7.11-21.63z"/><path class="cls-194" d="M28.34 22.75l7.03 21.64.33-.1-7.36-21.54z"/><path class="cls-195" d="M28.34 22.75l7.3 21.55.33-.11-7.63-21.44z"/><path class="cls-196" d="M28.34 22.75l7.56 21.46.33-.11-7.89-21.35z"/><path class="cls-196" d="M28.34 22.75l7.83 21.37.33-.12-8.16-21.25z"/><path class="cls-197" d="M28.34 22.75l8.09 21.27.33-.13-8.42-21.14z"/><path class="cls-198" d="M28.34 22.75l8.35 21.17.33-.14-8.68-21.03z"/><path class="cls-199" d="M28.34 22.75l8.62 21.06.32-.13-8.94-20.93z"/><path class="cls-200" d="M28.34 22.75l8.87 20.95.32-.13-9.19-20.82z"/><path class="cls-201" d="M28.34 22.75l9.13 20.85.32-.15-9.45-20.7z"/><path class="cls-202" d="M28.34 22.75l9.39 20.73.31-.14-9.7-20.59z"/><path class="cls-203" d="M28.34 22.75l9.64 20.61.32-.15-9.96-20.46z"/><path class="cls-204" d="M28.34 22.75l9.9 20.5.31-.16-10.21-20.34z"/><path class="cls-205" d="M28.34 22.75l10.15 20.37.31-.16-10.46-20.21z"/><path class="cls-206" d="M28.34 22.75L38.74 43l.3-.16-10.7-20.09z"/><path class="cls-207" d="M28.34 22.75l10.64 20.11.31-.16-10.95-19.95z"/><path class="cls-208" d="M28.34 22.75l10.89 19.98.3-.17-11.19-19.81z"/><path class="cls-209" d="M28.34 22.75l11.13 19.84.31-.17-11.44-19.67z"/><path class="cls-210" d="M28.34 22.75l11.38 19.71.3-.18-11.68-19.53z"/><path class="cls-211" d="M28.34 22.75l11.62 19.57.3-.18-11.92-19.39z"/><path class="cls-212" d="M28.34 22.75L40.2 42.17l.3-.18-12.16-19.24z"/><path class="cls-213" d="M28.34 22.75l12.1 19.27.29-.19-12.39-19.08z"/><path class="cls-214" d="M28.34 22.75l12.34 19.12.29-.19-12.63-18.93z"/><path class="cls-215" d="M28.34 22.75l12.57 18.97.29-.2-12.86-18.77z"/><path class="cls-216" d="M28.34 22.75l12.81 18.82.28-.2-13.09-18.62z"/><path class="cls-217" d="M28.34 22.75l13.04 18.66.28-.21-13.32-18.45z"/><path class="cls-218" d="M28.34 22.75L41.6 41.24l.29-.2-13.55-18.29z"/><path class="cls-219" d="M28.34 22.75l13.49 18.32.28-.2-13.77-18.12z"/><path class="cls-220" d="M28.34 22.75l13.72 18.16.27-.21-13.99-17.95z"/><path class="cls-221" d="M28.34 22.75l13.94 17.99.27-.21-14.21-17.78z"/><path class="cls-222" d="M28.34 22.75L42.5 40.56l.27-.21-14.43-17.6z"/><path class="cls-223" d="M28.34 22.75l14.38 17.64.27-.22-14.65-17.42z"/><path class="cls-224" d="M28.34 22.75l14.59 17.47.27-.24-14.86-17.23z"/><path class="cls-225" d="M28.34 22.75l14.81 17.29.26-.24-15.07-17.05z"/><path class="cls-226" d="M28.34 22.75l15.01 17.1.27-.23-15.28-16.87z"/><path class="cls-227" d="M28.34 22.75l15.23 16.91.26-.23-15.49-16.68z"/><path class="cls-228" d="M28.34 22.75l15.43 16.72.26-.24-15.69-16.48z"/><path class="cls-229" d="M28.34 22.75l15.64 16.53.25-.24-15.89-16.29z"/><path class="cls-230" d="M28.34 22.75l15.84 16.34.25-.24-16.09-16.1z"/><path class="cls-231" d="M28.34 22.75l16.04 16.14.25-.25-16.29-15.89z"/><path class="cls-232" d="M28.34 22.75l16.24 15.94.24-.25-16.48-15.69z"/><path class="cls-233" d="M28.34 22.75l16.44 15.74.24-.25-16.68-15.49z"/><path class="cls-234" d="M28.34 22.75l16.63 15.54.24-.26-16.87-15.28z"/><path class="cls-235" d="M28.34 22.75l16.81 15.34.24-.26-17.05-15.08z"/><path class="cls-236" d="M28.34 22.75l17 15.12.23-.26-17.23-14.86z"/><path class="cls-237" d="M28.34 22.75l17.19 14.91.23-.26-17.42-14.65z"/><path class="cls-236" d="M28.34 22.75l17.38 14.7.22-.27-17.6-14.43z"/><path class="cls-238" d="M28.34 22.75L45.9 37.24l.21-.27-17.77-14.22z"/><path class="cls-239" d="M28.34 22.75l17.72 14.27.23-.28-17.95-13.99z"/><path class="cls-239" d="M28.34 22.75l17.9 14.05.22-.28-18.12-13.77z"/><path class="cls-240" d="M28.34 22.75l18.07 13.82.22-.27-18.29-13.55z"/><path class="cls-241" d="M28.34 22.75l18.24 13.6.21-.28-18.45-13.32z"/><path class="cls-241" d="M28.34 22.75l18.41 13.38.2-.29-18.61-13.09z"/><path class="cls-241" d="M28.34 22.75L46.91 35.9l.2-.28-18.77-12.87z"/><path class="cls-242" d="M28.34 22.75l18.74 12.92.19-.29-18.93-12.63z"/><path class="cls-242" d="M28.34 22.75l18.89 12.69.19-.3-19.08-12.39z"/><path class="cls-243" d="M28.34 22.75L47.39 35.2l.19-.29-19.24-12.16z"/><path class="cls-244" d="M28.34 22.75l19.2 12.22.18-.3-19.38-11.92z"/><path class="cls-244" d="M28.34 22.75l19.35 11.98.18-.29-19.53-11.69z"/><path class="cls-245" d="M28.34 22.75l19.5 11.74.18-.3-19.68-11.44z"/><path class="cls-246" d="M28.34 22.75l19.64 11.5.17-.3-19.81-11.2z"/><path class="cls-246" d="M28.34 22.75l19.77 11.26.17-.31-19.94-10.95z"/><path class="cls-246" d="M28.34 22.75l19.92 11.01.16-.3-20.08-10.71z"/><path class="cls-246" d="M28.34 22.75l20.05 10.76.16-.3-20.21-10.46z"/><path class="cls-245" d="M28.34 22.75l20.18 10.52.16-.31-20.34-10.21z"/><path class="cls-245" d="M28.34 22.75l20.31 10.27.15-.31-20.46-9.96z"/><path class="cls-244" d="M28.34 22.75l20.44 10.02.15-.31-20.59-9.71z"/><path class="cls-247" d="M28.34 22.75l20.55 9.77.15-.32-20.7-9.45z"/><path class="cls-243" d="M28.34 22.75l20.67 9.51.15-.31-20.82-9.2z"/><path class="cls-242" d="M28.34 22.75l20.79 9.26.14-.32-20.93-8.94z"/><path class="cls-248" d="M28.34 22.75l20.9 9 .14-.32-21.04-8.68z"/><path class="cls-241" d="M28.34 22.75l21.01 8.74.13-.32-21.14-8.42z"/><path class="cls-241" d="M28.34 22.75l21.12 8.48.12-.32-21.24-8.16z"/><path class="cls-249" d="M28.34 22.75l21.21 8.22.13-.33-21.34-7.89z"/><path class="cls-240" d="M28.34 22.75l21.32 7.96.12-.33-21.44-7.63z"/><path class="cls-239" d="M28.34 22.75l21.41 7.7.12-.34-21.53-7.36z"/><path class="cls-250" d="M28.34 22.75l21.51 7.44.11-.33-21.62-7.11z"/><path class="cls-238" d="M28.34 22.75l21.6 7.17.11-.33-21.71-6.84z"/><path class="cls-236" d="M28.34 22.75l21.68 6.9.11-.33-21.79-6.57z"/><path class="cls-237" d="M28.34 22.75l21.77 6.63.1-.33-21.87-6.3z"/><path class="cls-236" d="M28.34 22.75l21.85 6.36.09-.33-21.94-6.03z"/><path class="cls-235" d="M28.34 22.75l21.92 6.09.1-.34-22.02-5.75z"/><path class="cls-235" d="M28.34 22.75l22 5.82.08-.34-22.08-5.48z"/><path class="cls-233" d="M28.34 22.75l22.06 5.56.09-.34-22.15-5.22z"/><path class="cls-251" d="M28.34 22.75l22.14 5.28.08-.34-22.22-4.94z"/><path class="cls-232" d="M28.34 22.75l22.2 5.01.07-.35-22.27-4.66z"/><path class="cls-230" d="M28.34 22.75l22.26 4.73.07-.34-22.33-4.39z"/><path class="cls-252" d="M28.34 22.75l22.32 4.46.06-.34-22.38-4.12z"/><path class="cls-229" d="M28.34 22.75l22.37 4.19.06-.35-22.43-3.84z"/><path class="cls-227" d="M28.34 22.75l22.41 3.91.07-.35-22.48-3.56z"/><path class="cls-253" d="M28.34 22.75l22.47 3.63.05-.34-22.52-3.29z"/><path class="cls-226" d="M28.34 22.75l22.5 3.36.06-.35-22.56-3.01z"/><path class="cls-225" d="M28.34 22.75l22.55 3.08.04-.35-22.59-2.73z"/><path class="cls-224" d="M28.34 22.75l22.58 2.8.04-.35-22.62-2.45z"/><path class="cls-223" d="M28.34 22.75l22.62 2.52.03-.34-22.65-2.18z"/><path class="cls-222" d="M28.34 22.75L50.99 25l.02-.35-22.67-1.9z"/><path class="cls-221" d="M28.34 22.75l22.67 1.96.03-.35-22.7-1.61z"/><path class="cls-220" d="M28.34 22.75l22.69 1.68.03-.35-22.72-1.33z"/><path class="cls-219" d="M28.34 22.75l22.71 1.41.03-.35-22.74-1.06z"/><path class="cls-218" d="M28.34 22.75l22.73 1.13.01-.35-22.74-.78z"/><path class="cls-217" d="M28.34 22.75l22.74.84.01-.35-22.75-.49z"/><path class="cls-254" d="M28.34 22.75l22.74.57.01-.35-22.75-.22z"/><path class="cls-215" d="M28.34 22.75l22.75.29v-.35l-22.75.06z"/><path class="cls-214" d="M28.34 22.75h22.75v-.35l-22.75.35z"/><path class="cls-255" d="M28.34 22.75l22.75-.28-.01-.34-22.74.62z"/><path class="cls-212" d="M28.34 22.75l22.74-.55v-.35l-22.74.9z"/><path class="cls-256" d="M28.34 22.75l22.74-.84-.01-.35-22.73 1.19z"/><path class="cls-211" d="M28.34 22.75l22.73-1.12-.02-.35-22.71 1.47z"/><path class="cls-209" d="M28.34 22.75l22.71-1.39-.02-.35-22.69 1.74z"/><path class="cls-257" d="M28.34 22.75l22.69-1.67-.03-.35-22.66 2.02z"/><path class="cls-208" d="M28.34 22.75l22.67-1.96-.03-.35-22.64 2.31z"/><path class="cls-206" d="M28.34 22.75l22.65-2.23-.04-.35-22.61 2.58z"/><path class="cls-258" d="M28.34 22.75l22.62-2.51-.05-.35-22.57 2.86z"/><path class="cls-205" d="M28.34 22.75l22.58-2.79-.04-.35-22.54 3.14z"/><path class="cls-259" d="M28.34 22.75l22.55-3.07-.06-.35-22.49 3.42z"/><path class="cls-203" d="M28.34 22.75l22.5-3.34-.05-.35-22.45 3.69z"/><path class="cls-202" d="M28.34 22.75l22.47-3.62-.07-.35-22.4 3.97z"/><path class="cls-260" d="M28.34 22.75l22.41-3.9-.06-.35-22.35 4.25z"/><path class="cls-260" d="M28.34 22.75l22.37-4.18-.07-.34-22.3 4.52z"/><path class="cls-199" d="M28.34 22.75l22.32-4.45-.08-.34-22.24 4.79z"/><path class="cls-198" d="M28.34 22.75l22.26-4.72-.08-.35-22.18 5.07z"/><path class="cls-198" d="M28.34 22.75l22.2-5-.08-.34-22.12 5.34z"/><path class="cls-199" d="M28.34 22.75l22.14-5.27-.09-.34-22.05 5.61z"/><path class="cls-260" d="M28.34 22.75L50.4 17.2l-.08-.34-21.98 5.89z"/><path class="cls-202" d="M28.34 22.75l22-5.81-.1-.34-21.9 6.15z"/><path class="cls-203" d="M28.34 22.75l21.92-6.08-.09-.34-21.83 6.42z"/><path class="cls-259" d="M28.34 22.75l21.85-6.36-.1-.33-21.75 6.69z"/><path class="cls-205" d="M28.34 22.75l21.77-6.63-.11-.33-21.66 6.96z"/><path class="cls-206" d="M28.34 22.75l21.68-6.89-.11-.34-21.57 7.23z"/><path class="cls-207" d="M28.34 22.75l21.6-7.16-.12-.33-21.48 7.49z"/><path class="cls-208" d="M28.34 22.75l21.51-7.42-.12-.34-21.39 7.76z"/><path class="cls-209" d="M28.34 22.75l21.41-7.68-.12-.34-21.29 8.02z"/><path class="cls-211" d="M28.34 22.75l21.32-7.95-.12-.32-21.2 8.27z"/><path class="cls-256" d="M28.34 22.75l21.21-8.21-.12-.33-21.09 8.54z"/><path class="cls-212" d="M28.34 22.75l21.12-8.47-.14-.33-20.98 8.8z"/><path class="cls-255" d="M28.34 22.75l21.01-8.73-.14-.32-20.87 9.05z"/><path class="cls-215" d="M28.34 22.75l20.9-8.99-.14-.32-20.76 9.31z"/><path class="cls-216" d="M28.34 22.75l20.79-9.25-.15-.32-20.64 9.57z"/><path class="cls-254" d="M28.34 22.75l20.67-9.5-.14-.32-20.53 9.82z"/><path class="cls-218" d="M28.34 22.75l20.55-9.76-.15-.31-20.4 10.07z"/><path class="cls-261" d="M28.34 22.75l20.44-10.01-.16-.31-20.28 10.32z"/><path class="cls-220" d="M28.34 22.75l20.31-10.26-.16-.31-20.15 10.57z"/><path class="cls-222" d="M28.34 22.75l20.18-10.51-.16-.31-20.02 10.82z"/><path class="cls-262" d="M28.34 22.75l20.05-10.76-.17-.31-19.88 11.07z"/><path class="cls-224" d="M28.34 22.75l19.92-11-.18-.31-19.74 11.31z"/><path class="cls-225" d="M28.34 22.75l19.77-11.24-.17-.31-19.6 11.55z"/><path class="cls-226" d="M28.34 22.75l19.64-11.49-.18-.3-19.46 11.79z"/><path class="cls-253" d="M28.34 22.75l19.5-11.74-.19-.29-19.31 12.03z"/><path class="cls-228" d="M28.34 22.75l19.35-11.97-.19-.3-19.16 12.27z"/><path class="cls-229" d="M28.34 22.75l19.2-12.21-.2-.3-19 12.51z"/><path class="cls-230" d="M28.34 22.75l19.05-12.44-.2-.3-18.85 12.74z"/><path class="cls-231" d="M28.34 22.75l18.89-12.68-.2-.29-18.69 12.97z"/><path class="cls-251" d="M28.34 22.75L47.08 9.84l-.21-.29-18.53 13.2z"/><path class="cls-233" d="M28.34 22.75L46.91 9.61l-.2-.29-18.37 13.43z"/><path class="cls-235" d="M28.34 22.75L46.75 9.38l-.21-.28-18.2 13.65z"/><path class="cls-235" d="M28.34 22.75l18.24-13.6-.21-.27-18.03 13.87z"/><path class="cls-237" d="M28.34 22.75L46.41 8.93l-.21-.27-17.86 14.09z"/><path class="cls-236" d="M28.34 22.75l17.9-14.04-.21-.27-17.69 14.31z"/><path class="cls-238" d="M28.34 22.75L46.06 8.49l-.21-.27-17.51 14.53z"/><path class="cls-239" d="M28.34 22.75L45.9 8.28l-.24-.27-17.32 14.74z"/><path class="cls-239" d="M28.34 22.75L45.72 8.06l-.24-.27-17.14 14.96z"/><path class="cls-240" d="M28.34 22.75l17.19-14.9-.23-.26-16.96 15.16z"/><path class="cls-241" d="M28.34 22.75l17-15.11-.23-.27-16.77 15.38z"/><path class="cls-241" d="M28.34 22.75L45.15 7.43l-.23-.26-16.58 15.58z"/><path class="cls-248" d="M28.34 22.75L44.97 7.22l-.25-.25-16.38 15.78z"/><path class="cls-242" d="M28.34 22.75L44.78 7.01l-.25-.25-16.19 15.99z"/><path class="cls-243" d="M28.34 22.75L44.58 6.82l-.25-.25-15.99 16.18z"/><path class="cls-244" d="M28.34 22.75L44.38 6.62l-.25-.25-15.79 16.38z"/><path class="cls-263" d="M28.34 22.75L44.18 6.42l-.25-.24-15.59 16.57z"/><path class="cls-245" d="M28.34 22.75L43.98 6.23l-.26-.24-15.38 16.76z"/><path class="cls-246" d="M28.34 22.75L43.77 6.04l-.25-.24-15.18 16.95z"/><path class="cls-246" d="M28.34 22.75l15.23-16.9-.26-.23-14.97 17.13z"/><path class="cls-246" d="M28.34 22.75L43.35 5.66l-.26-.23-14.75 17.32z"/><path class="cls-245" d="M28.34 22.75L43.15 5.47l-.27-.22-14.54 17.5z"/><path class="cls-244" d="M28.34 22.75L42.93 5.3l-.27-.23-14.32 17.68z"/><path class="cls-243" d="M28.34 22.75L42.72 5.12l-.28-.22-14.1 17.85z"/><path class="cls-242" d="M28.34 22.75L42.5 4.94l-.28-.22-13.88 18.03z"/><path class="cls-241" d="M28.34 22.75L42.28 4.77l-.29-.22-13.65 18.2z"/><path class="cls-241" d="M28.34 22.75L42.06 4.6l-.29-.21-13.43 18.36z"/><path class="cls-240" d="M28.34 22.75L41.83 4.43l-.28-.21-13.21 18.53z"/><path class="cls-239" d="M28.34 22.75L41.6 4.27l-.29-.21-12.97 18.69z"/><path class="cls-238" d="M28.34 22.75L41.38 4.11l-.3-.2-12.74 18.84z"/><path class="cls-236" d="M28.34 22.75L41.15 3.94l-.3-.19-12.51 19z"/><path class="cls-236" d="M28.34 22.75L40.91 3.79l-.29-.19-12.28 19.15z"/><path class="cls-235" d="M28.34 22.75L40.68 3.63l-.3-.19-12.04 19.31z"/><path class="cls-233" d="M28.34 22.75l12.1-19.26-.3-.19-11.8 19.45z"/><path class="cls-232" d="M28.34 22.75L40.2 3.34l-.3-.18-11.56 19.59z"/><path class="cls-230" d="M28.34 22.75L39.96 3.19l-.3-.17-11.32 19.73z"/><path class="cls-229" d="M28.34 22.75l11.38-19.7-.3-.17-11.08 19.87z"/><path class="cls-227" d="M28.34 22.75L39.47 2.92l-.3-.17-10.83 20z"/><path class="cls-226" d="M28.34 22.75L39.23 2.78l-.3-.17-10.59 20.14z"/><path class="cls-225" d="M28.34 22.75l10.64-20.1-.31-.16-10.33 20.26z"/><path class="cls-223" d="M28.34 22.75l10.4-20.24-.32-.15-10.08 20.39z"/><path class="cls-222" d="M28.34 22.75L38.49 2.39l-.32-.15-9.83 20.51z"/><path class="cls-220" d="M28.34 22.75l9.9-20.49-.33-.15-9.57 20.64z"/><path class="cls-219" d="M28.34 22.75l9.64-20.6-.32-.15-9.32 20.75z"/><path class="cls-217" d="M28.34 22.75l9.39-20.72-.32-.14-9.07 20.86z"/><path class="cls-216" d="M28.34 22.75l9.13-20.83-.32-.14-8.81 20.97z"/><path class="cls-214" d="M28.34 22.75l8.87-20.94-.32-.14-8.55 21.08z"/><path class="cls-213" d="M28.34 22.75L36.96 1.7l-.33-.13-8.29 21.18z"/><path class="cls-256" d="M28.34 22.75l8.35-21.16-.32-.12-8.03 21.28z"/><path class="cls-210" d="M28.34 22.75l8.09-21.26-.32-.12-7.77 21.38z"/><path class="cls-257" d="M28.34 22.75L36.17 1.4l-.33-.13-7.5 21.48z"/><path class="cls-207" d="M28.34 22.75L35.9 1.3l-.33-.12-7.23 21.57z"/><path class="cls-258" d="M28.34 22.75l7.3-21.54-.33-.12-6.97 21.66z"/><path class="cls-204" d="M28.34 22.75l7.03-21.63-.33-.11-6.7 21.74z"/><path class="cls-203" d="M28.34 22.75l6.77-21.72-.34-.1-6.43 21.82z"/><path class="cls-201" d="M28.34 22.75l6.5-21.8-.33-.1-6.17 21.9z"/><path class="cls-200" d="M28.34 22.75L34.57.88l-.34-.1-5.89 21.97z"/><path class="cls-198" d="M28.34 22.75L34.3.8l-.34-.09-5.62 22.04z"/><path class="cls-196" d="M28.34 22.75L34.03.72l-.34-.08-5.35 22.11z"/><path class="cls-196" d="M28.34 22.75L33.76.66l-.35-.09-5.07 22.18z"/><path class="cls-194" d="M28.34 22.75L33.49.59l-.34-.07-4.81 22.23z"/><path class="cls-193" d="M28.34 22.75L33.21.53l-.34-.07-4.53 22.29z"/><path class="cls-191" d="M28.34 22.75L32.94.47 32.59.4l-4.25 22.35z"/><path class="cls-190" d="M28.34 22.75L32.66.42l-.35-.06-3.97 22.39z"/><path class="cls-189" d="M28.34 22.75L32.39.37 32.05.3l-3.71 22.45z"/><path class="cls-188" d="M28.34 22.75L32.11.32l-.34-.06-3.43 22.49z"/><path class="cls-187" d="M28.34 22.75L31.83.28l-.34-.06-3.15 22.53z"/><path class="cls-186" d="M28.34 22.75L31.55.23l-.34-.04-2.87 22.56z"/><path class="cls-185" d="M28.34 22.75L31.28.2l-.35-.05-2.59 22.6z"/><path class="cls-184" d="M28.34 22.75L31 .16l-.35-.03-2.31 22.62z"/><path class="cls-183" d="M28.34 22.75L30.72.13 30.37.1l-2.03 22.65z"/><path class="cls-181" d="M28.34 22.75L30.44.1 30.1.07l-1.76 22.68z"/><path class="cls-180" d="M28.34 22.75L30.17.08l-.35-.03-1.48 22.7z"/><path class="cls-178" d="M28.34 22.75L29.88.05l-.35-.01-1.19 22.71z"/><path class="cls-177" d="M28.34 22.75L29.6.04l-.35-.02-.91 22.73z"/><path class="cls-176" d="M28.34 22.75L29.33.03l-.35-.02-.64 22.74z"/><path class="cls-175" d="M28.34 22.75L29.05.02l-.36-.01-.35 22.74z"/><path class="cls-174" d="M28.34 22.75L28.76.01 28.41 0l-.07 22.75z"/><path class="cls-264" d="M28.34 22.75L28.48.01h-.34l.2 22.74z"/><path class="cls-174" d="M28.34 22.75L28.21.01h-.36l.49 22.74z"/><path class="cls-175" d="M28.34 22.75L27.92.01l-.35.01.77 22.73z"/><path class="cls-176" d="M28.34 22.75L27.64.02l-.34.01 1.04 22.72z"/><path class="cls-177" d="M28.34 22.75L27.37.03l-.36.01 1.33 22.71z"/><path class="cls-178" d="M28.34 22.75L27.08.04l-.35.02 1.61 22.69z"/><path class="cls-180" d="M28.34 22.75L26.8.05l-.35.03 1.89 22.67z"/><path class="cls-181" d="M28.34 22.75L26.53.08l-.35.03 2.16 22.64z"/><path class="cls-183" d="M28.34 22.75L26.25.1l-.35.03 2.44 22.62z"/><path class="cls-184" d="M28.34 22.75L25.96.13l-.35.04 2.73 22.58z"/><path class="cls-185" d="M28.34 22.75L25.68.16l-.34.05 3 22.54z"/><path class="cls-186" d="M28.34 22.75L25.41.2l-.35.04 3.28 22.51z"/><path class="cls-187" d="M28.34 22.75L25.13.23l-.35.06 3.56 22.46z"/><path class="cls-188" d="M28.34 22.75L24.85.28l-.34.05 3.83 22.42z"/><path class="cls-189" d="M28.34 22.75L24.57.32l-.34.06 4.11 22.37z"/><path class="cls-190" d="M28.34 22.75L24.3.37l-.34.06 4.38 22.32z"/><path class="cls-191" d="M28.34 22.75L24.03.42l-.35.06 4.66 22.27z"/><path class="cls-193" d="M28.34 22.75L23.75.47l-.34.08 4.93 22.2z"/><path class="cls-194" d="M28.34 22.75L23.48.53l-.34.08 5.2 22.14z"/><path class="cls-196" d="M28.34 22.75L23.21.59l-.34.08 5.47 22.08z"/><path class="cls-196" d="M28.34 22.75L22.93.66l-.34.08 5.75 22.01z"/><path class="cls-198" d="M28.34 22.75L22.66.72l-.34.09 6.02 21.94z"/><path class="cls-200" d="M28.34 22.75L22.39.8l-.34.1 6.29 21.85z"/><path class="cls-201" d="M28.34 22.75L22.11.88l-.33.09 6.56 21.78z"/><path class="cls-203" d="M28.34 22.75L21.85.95l-.33.11 6.82 21.69z"/><path class="cls-204" d="M28.34 22.75L21.58 1.03l-.33.11 7.09 21.61z"/><path class="cls-258" d="M28.34 22.75L21.31 1.12l-.33.11 7.36 21.52z"/><path class="cls-207" d="M28.34 22.75L21.05 1.21l-.33.11 7.62 21.43z"/><path class="cls-257" d="M28.34 22.75L20.78 1.3l-.33.11 7.89 21.34z"/><path class="cls-210" d="M28.34 22.75L20.52 1.4l-.33.11 8.15 21.24z"/><path class="cls-256" d="M28.34 22.75L20.25 1.49l-.32.13 8.41 21.13z"/><path class="cls-213" d="M28.34 22.75L20 1.59l-.33.14 8.67 21.02z"/><path class="cls-214" d="M28.34 22.75L19.73 1.7l-.32.13 8.93 20.92z"/><path class="cls-216" d="M28.34 22.75L19.48 1.81l-.33.13 9.19 20.81z"/><path class="cls-217" d="M28.34 22.75L19.22 1.92l-.33.14 9.45 20.69z"/><path class="cls-219" d="M28.34 22.75L18.97 2.03l-.33.14 9.7 20.58z"/><path class="cls-220" d="M28.34 22.75l-9.63-20.6-.32.15 9.95 20.45z"/><path class="cls-222" d="M28.34 22.75L18.46 2.26l-.32.16 10.2 20.33z"/><path class="cls-223" d="M28.34 22.75L18.2 2.39l-.31.16 10.45 20.2z"/><path class="cls-225" d="M28.34 22.75L17.95 2.51l-.31.16 10.7 20.08z"/><path class="cls-226" d="M28.34 22.75L17.7 2.65l-.3.16 10.94 19.94z"/><path class="cls-227" d="M28.34 22.75L17.45 2.78l-.3.16 11.19 19.81z"/><path class="cls-229" d="M28.34 22.75L17.21 2.92l-.3.17 11.43 19.66z"/><path class="cls-230" d="M28.34 22.75L16.97 3.05l-.3.18 11.67 19.52z"/><path class="cls-232" d="M28.34 22.75L16.73 3.19l-.3.18 11.91 19.38z"/><path class="cls-233" d="M28.34 22.75L16.49 3.34l-.3.18 12.15 19.23z"/><path class="cls-235" d="M28.34 22.75L16.25 3.49l-.3.19 12.39 19.07z"/><path class="cls-236" d="M28.34 22.75L16.01 3.63l-.29.2 12.62 18.92z"/><path class="cls-236" d="M28.34 22.75L15.78 3.79l-.29.19 12.85 18.77z"/><path class="cls-238" d="M28.34 22.75L15.55 3.94l-.3.2 13.09 18.61z"/><path class="cls-239" d="M28.34 22.75L15.32 4.11l-.29.2 13.31 18.44z"/><path class="cls-240" d="M28.34 22.75L15.08 4.27l-.27.2 13.53 18.28z"/><path class="cls-241" d="M28.34 22.75L14.86 4.43l-.29.21 13.77 18.11z"/><path class="cls-241" d="M28.34 22.75L14.64 4.6l-.28.21 13.98 17.94z"/><path class="cls-242" d="M28.34 22.75L14.41 4.77l-.28.21 14.21 17.77z"/><path class="cls-243" d="M28.34 22.75L14.19 4.94l-.27.22 14.42 17.59z"/><path class="cls-244" d="M28.34 22.75L13.97 5.12l-.26.22 14.63 17.41z"/><path class="cls-245" d="M28.34 22.75L13.76 5.3l-.27.22 14.85 17.23z"/><path class="cls-246" d="M28.34 22.75L13.54 5.47l-.26.24 15.06 17.04z"/><path class="cls-246" d="M28.34 22.75L13.33 5.66l-.26.24 15.27 16.85z"/><path class="cls-246" d="M28.34 22.75L13.12 5.85l-.26.23 15.48 16.67z"/><path class="cls-245" d="M28.34 22.75L12.92 6.04l-.26.23 15.68 16.48z"/><path class="cls-263" d="M28.34 22.75L12.71 6.23l-.26.24 15.89 16.28z"/><path class="cls-244" d="M28.34 22.75L12.51 6.42l-.25.25 16.08 16.08z"/><path class="cls-243" d="M28.34 22.75L12.31 6.62l-.25.25 16.28 15.88z"/><path class="cls-242" d="M28.34 22.75L12.11 6.82l-.25.25 16.48 15.68z"/><path class="cls-248" d="M28.34 22.75L11.92 7.01l-.25.26 16.67 15.48z"/><path class="cls-241" d="M28.34 22.75L11.72 7.22l-.23.26 16.85 15.27z"/><path class="cls-241" d="M28.34 22.75L11.53 7.43l-.23.25 17.04 15.07z"/><path class="cls-240" d="M28.34 22.75l-17-15.11-.23.26 17.23 14.85z"/><path class="cls-239" d="M28.34 22.75L11.16 7.85l-.23.27 17.41 14.63z"/><path class="cls-239" d="M28.34 22.75L10.98 8.06l-.23.27 17.59 14.42z"/><path class="cls-238" d="M28.34 22.75L10.8 8.28l-.23.26 17.77 14.21z"/><path class="cls-236" d="M28.34 22.75L10.62 8.49l-.22.28 17.94 13.98z"/><path class="cls-237" d="M28.34 22.75L10.45 8.71l-.22.28 18.11 13.76z"/><path class="cls-235" d="M28.34 22.75L10.27 8.93l-.21.28 18.28 13.54z"/><path class="cls-235" d="M28.34 22.75L10.11 9.15l-.22.29 18.45 13.31z"/><path class="cls-233" d="M28.34 22.75L9.94 9.38l-.21.29 18.61 13.08z"/><path class="cls-251" d="M28.34 22.75L9.78 9.61l-.21.28 18.77 12.86z"/><path class="cls-231" d="M28.34 22.75L9.62 9.84l-.2.29 18.92 12.62z"/><path class="cls-230" d="M28.34 22.75L9.46 10.07l-.2.29 19.08 12.39z"/><path class="cls-229" d="M28.34 22.75L9.3 10.31l-.18.29 19.22 12.15z"/><path class="cls-228" d="M28.34 22.75L9.15 10.54l-.19.29 19.38 11.92z"/><path class="cls-253" d="M28.34 22.75L9 10.78l-.18.3 19.52 11.67z"/><path class="cls-226" d="M28.34 22.75L8.86 11.01l-.18.31 19.66 11.43z"/><path class="cls-225" d="M28.34 22.75L8.71 11.26l-.18.3 19.81 11.19z"/><path class="cls-224" d="M28.34 22.75L8.57 11.51l-.17.3 19.94 10.94z"/><path class="cls-262" d="M28.34 22.75l-19.9-11-.17.3 20.07 10.7z"/><path class="cls-222" d="M28.34 22.75L8.3 11.99l-.16.31 20.2 10.45z"/><path class="cls-220" d="M28.34 22.75L8.17 12.24l-.16.31 20.33 10.2z"/><path class="cls-261" d="M28.34 22.75L8.04 12.49l-.16.31 20.46 9.95z"/><path class="cls-218" d="M28.34 22.75L7.92 12.74l-.16.31 20.58 9.7z"/><path class="cls-254" d="M28.34 22.75L7.79 12.99l-.14.32 20.69 9.44z"/><path class="cls-216" d="M28.34 22.75l-20.67-9.5-.14.31 20.81 9.19z"/><path class="cls-215" d="M28.34 22.75L7.56 13.5l-.14.32 20.92 8.93z"/><path class="cls-255" d="M28.34 22.75L7.45 13.76l-.14.32 21.03 8.67z"/><path class="cls-212" d="M28.34 22.75L7.33 14.02l-.12.32 21.13 8.41z"/><path class="cls-256" d="M28.34 22.75l-21.1-8.47-.14.32 21.24 8.15z"/><path class="cls-211" d="M28.34 22.75L7.13 14.54l-.13.32 21.34 7.89z"/><path class="cls-209" d="M28.34 22.75L7.03 14.8l-.12.33 21.43 7.62z"/><path class="cls-208" d="M28.34 22.75L6.93 15.07l-.11.32 21.52 7.36z"/><path class="cls-207" d="M28.34 22.75l-21.5-7.42-.11.33 21.61 7.09z"/><path class="cls-206" d="M28.34 22.75L6.75 15.59l-.1.34 21.69 6.82z"/><path class="cls-205" d="M28.34 22.75L6.66 15.86l-.1.33 21.78 6.56z"/><path class="cls-259" d="M28.34 22.75L6.58 16.12l-.1.34 21.86 6.29z"/><path class="cls-203" d="M28.34 22.75L6.5 16.39l-.09.34 21.93 6.02z"/><path class="cls-202" d="M28.34 22.75L6.42 16.67l-.09.33 22.01 5.75z"/><path class="cls-260" d="M28.34 22.75L6.35 16.94l-.09.34 22.08 5.47z"/><path class="cls-199" d="M28.34 22.75L6.28 17.2l-.08.34 22.14 5.21z"/><path class="cls-198" d="M28.34 22.75L6.22 17.48l-.08.34 22.2 4.93z"/><path class="cls-198" d="M28.34 22.75l-22.19-5-.08.34 22.27 4.66z"/><path class="cls-199" d="M28.34 22.75L6.09 18.03l-.07.34 22.32 4.38z"/><path class="cls-260" d="M28.34 22.75L6.04 18.3l-.07.34 22.37 4.11z"/><path class="cls-260" d="M28.34 22.75L5.98 18.57l-.06.35 22.42 3.83z"/><path class="cls-202" d="M28.34 22.75l-22.41-3.9-.05.35 22.46 3.55z"/><path class="cls-203" d="M28.34 22.75L5.89 19.13l-.06.35 22.51 3.27z"/><path class="cls-259" d="M28.34 22.75l-22.5-3.34-.05.34 22.55 3z"/><path class="cls-205" d="M28.34 22.75L5.8 19.68l-.04.35 22.58 2.72z"/><path class="cls-258" d="M28.34 22.75L5.77 19.96l-.05.35 22.62 2.44z"/><path class="cls-206" d="M28.34 22.75L5.73 20.24l-.03.35 22.64 2.16z"/><path class="cls-208" d="M28.34 22.75L5.71 20.52l-.04.34 22.67 1.89z"/><path class="cls-257" d="M28.34 22.75L5.68 20.79l-.03.35 22.69 1.61z"/><path class="cls-209" d="M28.34 22.75L5.65 21.08l-.01.35 22.7 1.32z"/><path class="cls-211" d="M28.34 22.75l-22.7-1.39-.02.34 22.72 1.05z"/><path class="cls-256" d="M28.34 22.75L5.62 21.63l-.01.35 22.73.77z"/><path class="cls-212" d="M28.34 22.75l-22.73-.84-.01.36 22.74.48z"/><path class="cls-255" d="M28.34 22.75L5.6 22.2l-.01.35 22.75.2z"/><path class="cls-214" d="M28.34 22.75l-22.75-.28v.35l22.75-.07z"/><path class="cls-215" d="M28.34 22.75H5.59l.01.36 22.74-.36z"/><path class="cls-254" d="M28.34 22.75l-22.75.29.01.35 22.74-.64z"/><path class="cls-217" d="M28.34 22.75l-22.74.57.01.34 22.73-.91z"/><path class="cls-218" d="M28.34 22.75l-22.73.84.02.36 22.71-1.2z"/><path class="cls-219" d="M28.34 22.75L5.62 23.88l.02.35 22.7-1.48z"/><path class="cls-220" d="M28.34 22.75l-22.7 1.41.02.34 22.68-1.75z"/><path class="cls-221" d="M28.34 22.75L5.65 24.43l.03.35 22.66-2.03z"/><path class="cls-222" d="M28.34 22.75L5.68 24.71l.03.35 22.63-2.31z"/><path class="cls-223" d="M28.34 22.75L5.71 25l.03.35 22.6-2.6z"/><path class="cls-224" d="M28.34 22.75L5.73 25.27l.04.35 22.57-2.87z"/><path class="cls-225" d="M28.34 22.75l-22.57 2.8.04.35 22.53-3.15z"/><path class="cls-226" d="M28.34 22.75L5.8 25.83l.05.35 22.49-3.43z"/><path class="cls-253" d="M28.34 22.75l-22.5 3.36.05.34 22.45-3.7z"/><path class="cls-227" d="M28.34 22.75L5.89 26.38l.05.35 22.4-3.98z"/><path class="cls-229" d="M28.34 22.75L5.93 26.66l.06.34 22.35-4.25z"/><path class="cls-252" d="M28.34 22.75L5.98 26.94l.07.34 22.29-4.53z"/><path class="cls-230" d="M28.34 22.75l-22.3 4.46.06.35 22.24-4.81z"/><path class="cls-232" d="M28.34 22.75L6.09 27.48l.07.34 22.18-5.07z"/><path class="cls-251" d="M28.34 22.75L6.15 27.76l.08.34 22.11-5.35z"/><path class="cls-233" d="M28.34 22.75L6.22 28.03l.08.34 22.04-5.62z"/><path class="cls-235" d="M28.34 22.75L6.28 28.31l.09.34 21.97-5.9z"/><path class="cls-235" d="M28.34 22.75L6.35 28.57l.09.34 21.9-6.16z"/><path class="cls-236" d="M28.34 22.75L6.42 28.84l.1.34 21.82-6.43z"/><path class="cls-237" d="M28.34 22.75L6.5 29.11l.1.34 21.74-6.7z"/><path class="cls-236" d="M28.34 22.75L6.58 29.38l.1.34 21.66-6.97z"/><path class="cls-238" d="M28.34 22.75l-21.68 6.9.11.34 21.57-7.24z"/><path class="cls-250" d="M28.34 22.75L6.75 29.92l.11.33 21.48-7.5z"/><path class="cls-239" d="M28.34 22.75l-21.5 7.44.12.33 21.38-7.77z"/><path class="cls-240" d="M28.34 22.75l-21.41 7.7.13.33 21.28-8.03z"/><path class="cls-249" d="M28.34 22.75L7.03 30.71l.13.33 21.18-8.29z"/><path class="cls-241" d="M28.34 22.75L7.13 30.97l.12.33 21.09-8.55z"/><path class="cls-241" d="M28.34 22.75l-21.1 8.48.12.32 20.98-8.8z"/><path class="cls-248" d="M28.34 22.75L7.33 31.49l.15.32 20.86-9.06z"/><path class="cls-242" d="M28.34 22.75l-20.89 9 .14.32 20.75-9.32z"/><path class="cls-243" d="M28.34 22.75L7.56 32.01l.14.31 20.64-9.57z"/><path class="cls-247" d="M28.34 22.75L7.67 32.26l.16.32 20.51-9.83z"/><path class="cls-244" d="M28.34 22.75L7.79 32.52l.15.31 20.4-10.08z"/><path class="cls-245" d="M28.34 22.75L7.92 32.77l.15.32 20.27-10.34z"/><path class="cls-245" d="M28.34 22.75L8.04 33.02l.16.32 20.14-10.59z"/><path class="cls-246" d="M28.34 22.75L8.17 33.27l.17.31 20-10.83z"/><path class="cls-246" d="M28.34 22.75L8.3 33.51l.17.32 19.87-11.08z"/><path class="cls-246" d="M28.34 22.75L8.44 33.76l.17.31 19.73-11.32z"/><path class="cls-246" d="M28.34 22.75L8.57 34.01l.18.3 19.59-11.56z"/><path class="cls-245" d="M28.34 22.75L8.71 34.25l.18.3 19.45-11.8z"/><path class="cls-244" d="M28.34 22.75L8.86 34.49l.18.3 19.3-12.04z"/><path class="cls-244" d="M28.34 22.75L9 34.73l.19.3 19.15-12.28z"/><path class="cls-243" d="M28.34 22.75L9.15 34.97l.19.3 19-12.52z"/><path class="cls-242" d="M28.34 22.75L9.3 35.2l.19.3 18.85-12.75z"/><path class="cls-242" d="M28.34 22.75L9.46 35.44l.19.28 18.69-12.97z"/><path class="cls-241" d="M28.34 22.75L9.62 35.67l.19.29 18.53-13.21z"/><path class="cls-241" d="M28.34 22.75L9.78 35.9l.2.29 18.36-13.44z"/><path class="cls-241" d="M28.34 22.75L9.94 36.13l.2.28 18.2-13.66z"/><path class="cls-240" d="M28.34 22.75l-18.23 13.6.2.29 18.03-13.89z"/><path class="cls-239" d="M28.34 22.75L10.27 36.57l.21.28 17.86-14.1z"/><path class="cls-239" d="M28.34 22.75L10.45 36.8l.21.28 17.68-14.33z"/><path class="cls-238" d="M28.34 22.75L10.62 37.02l.22.27 17.5-14.54z"/><path class="cls-236" d="M28.34 22.75L10.8 37.24l.22.26 17.32-14.75z"/><path class="cls-237" d="M28.34 22.75l-17.36 14.7.22.27 17.14-14.97z"/><path class="cls-236" d="M28.34 22.75L11.16 37.66l.23.26 16.95-15.17z"/><path class="cls-235" d="M28.34 22.75l-17 15.12.24.26 16.76-15.38z"/><path class="cls-234" d="M28.34 22.75L11.53 38.09l.24.25 16.57-15.59z"/><path class="cls-233" d="M28.34 22.75L11.72 38.29l.24.25 16.38-15.79z"/><path class="cls-232" d="M28.34 22.75L11.92 38.49l.24.25 16.18-15.99z"/><path class="cls-231" d="M28.34 22.75L12.11 38.69l.24.26 15.99-16.2z"/><path class="cls-230" d="M28.34 22.75L12.31 38.89l.25.25 15.78-16.39z"/><path class="cls-229" d="M28.34 22.75L12.51 39.09l.25.24 15.58-16.58z"/><path class="cls-228" d="M28.34 22.75L12.71 39.28l.25.24 15.38-16.77z"/><path class="cls-227" d="M28.34 22.75L12.92 39.47l.25.23 15.17-16.95z"/><path class="cls-226" d="M28.34 22.75L13.12 39.66l.26.23 14.96-17.14z"/><path class="cls-225" d="M28.34 22.75l-15.01 17.1.27.23 14.74-17.33z"/><path class="cls-224" d="M28.34 22.75l-14.8 17.29.27.22 14.53-17.51z"/><path class="cls-223" d="M28.34 22.75L13.76 40.22l.27.22 14.31-17.69z"/><path class="cls-222" d="M28.34 22.75L13.97 40.39l.27.22 14.1-17.86z"/><path class="cls-221" d="M28.34 22.75L14.19 40.56l.28.23 13.87-18.04z"/><path class="cls-220" d="M28.34 22.75L14.41 40.74l.28.22 13.65-18.21z"/><path class="cls-219" d="M28.34 22.75l-13.7 18.16.27.21 13.43-18.37z"/><path class="cls-218" d="M28.34 22.75L14.86 41.07l.29.21 13.19-18.53z"/><path class="cls-217" d="M28.34 22.75L15.08 41.24l.29.21 12.97-18.7z"/><path class="cls-216" d="M28.34 22.75L15.32 41.41l.28.19 12.74-18.85z"/><path class="cls-215" d="M28.34 22.75L15.55 41.57l.29.19 12.5-19.01z"/><path class="cls-214" d="M28.34 22.75L15.78 41.72l.29.19 12.27-19.16z"/><path class="cls-213" d="M28.34 22.75L16.01 41.87l.3.19 12.03-19.31z"/><path class="cls-212" d="M28.34 22.75L16.25 42.02l.3.19 11.79-19.46z"/><path class="cls-211" d="M28.34 22.75L16.49 42.17l.29.18 11.56-19.6z"/><path class="cls-210" d="M28.34 22.75L16.73 42.32l.3.18 11.31-19.75z"/><path class="cls-209" d="M28.34 22.75L16.97 42.46l.3.17 11.07-19.88z"/><path class="cls-208" d="M28.34 22.75L17.21 42.59l.31.18 10.82-20.02z"/><path class="cls-207" d="M28.34 22.75L17.45 42.73l.32.17 10.57-20.15z"/><path class="cls-206" d="M28.34 22.75L17.7 42.86l.32.16 10.32-20.27z"/><path class="cls-205" d="M28.34 22.75L17.95 43l.32.15 10.07-20.4z"/><path class="cls-204" d="M28.34 22.75L18.2 43.12l.32.15 9.82-20.52z"/><path class="cls-203" d="M28.34 22.75l-9.88 20.5.31.14 9.57-20.64z"/><path class="cls-202" d="M28.34 22.75l-9.63 20.61.32.15 9.31-20.76z"/><path class="cls-201" d="M28.34 22.75l-9.37 20.73.31.14 9.06-20.87z"/><path class="cls-200" d="M28.34 22.75L19.22 43.6l.32.13 8.8-20.98z"/><path class="cls-199" d="M28.34 22.75L19.48 43.7l.32.14 8.54-21.09z"/><path class="cls-198" d="M28.34 22.75l-8.61 21.06.33.14 8.28-21.2z"/><path class="cls-197" d="M28.34 22.75L20 43.92l.33.12 8.01-21.29z"/><path class="cls-196" d="M28.34 22.75l-8.09 21.27.34.12 7.75-21.39z"/><path class="cls-196" d="M28.34 22.75l-7.82 21.37.32.11 7.5-21.48z"/><path class="cls-195" d="M28.34 22.75l-7.56 21.46.33.12 7.23-21.58z"/><path class="cls-194" d="M28.34 22.75L21.05 44.3l.33.11 6.96-21.66z"/><path class="cls-193" d="M28.34 22.75l-7.03 21.64.34.11 6.69-21.75z"/><path class="cls-192" d="M28.34 22.75l-6.76 21.72.34.11 6.42-21.83z"/><path class="cls-191" d="M28.34 22.75l-6.49 21.81.34.09 6.15-21.9z"/><path class="cls-190" d="M28.34 22.75l-6.23 21.88.34.1 5.89-21.98z"/><path class="cls-190" d="M28.34 22.75l-5.95 21.97.33.08 5.62-22.05z"/><path class="cls-189" d="M28.34 22.75l-5.68 22.04.34.08 5.34-22.12z"/><path class="cls-188" d="M28.34 22.75l-5.41 22.1.34.08 5.07-22.18z"/><path class="cls-187" d="M28.34 22.75l-5.13 22.17.34.07 4.79-22.24z"/><path class="cls-187" d="M28.34 22.75l-4.86 22.23.34.07 4.52-22.3z"/><path class="cls-186" d="M28.34 22.75l-4.59 22.29.34.07 4.25-22.36z"/><path class="cls-185" d="M28.34 22.75l-4.31 22.34.34.06 3.97-22.4z"/><path class="cls-185" d="M28.34 22.75l-4.04 22.4.35.06 3.69-22.46z"/><path class="cls-184" d="M28.34 22.75l-3.77 22.44.35.06 3.42-22.5z"/><path class="cls-183" d="M28.34 22.75l-3.49 22.48.35.06 3.14-22.54z"/><path class="cls-182" d="M28.34 22.75l-3.21 22.53.35.04 2.86-22.57z"/><path class="cls-181" d="M28.34 22.75l-2.93 22.56.35.05 2.58-22.61z"/><path class="cls-180" d="M28.34 22.75l-2.66 22.6.35.04 2.31-22.64z"/><path class="cls-179" d="M28.34 22.75l-2.38 22.63.35.03 2.03-22.66z"/><path class="cls-178" d="M28.34 22.75l-2.09 22.66.35.03 1.74-22.69z"/><path class="cls-177" d="M28.34 22.75l-1.81 22.68.35.03 1.46-22.71z"/><path class="cls-176" d="M28.34 22.75L26.8 45.46l.35.02 1.19-22.73z"/><path class="cls-176" d="M28.34 22.75l-1.26 22.72.35.01.91-22.73z"/><path class="cls-175" d="M28.34 22.75l-.97 22.73.35.01.62-22.74z"/><path class="cls-174" d="M28.34 22.75l-.7 22.74.35.01.35-22.75z"/><path class="cls-174" d="M28.34 22.75l-.42 22.75h.35l.07-22.75z"/><path class="cls-264" d="M28.34 22.75l-.13 22.75h.27l-.14-22.75z"/></g><path class="cls-1" d="M0 1.69h56.69v42.52H0z"/></g></g></svg>