<svg xmlns="http://www.w3.org/2000/svg" xmlns:xlink="http://www.w3.org/1999/xlink" width="20mm" height="65.31" viewBox="0 0 56.69 48.99"><defs><style>.cls-1,.cls-16{fill:none}.cls-2{fill:#d8d8c9}.cls-4{fill:#fff}.cls-14{fill:#231f20;stroke:#231f20;stroke-width:.39px}.cls-16{stroke:#120c15;stroke-width:.1px}</style><linearGradient id="linear-gradient" x1="28.35" y1="12.31" x2="28.35" y2="43.07" gradientUnits="userSpaceOnUse"><stop offset="0" stop-color="#8c8f90"/><stop offset=".31" stop-color="#686869"/><stop offset=".77" stop-color="#363435"/><stop offset="1" stop-color="#231f20"/></linearGradient><clipPath id="clip-path"><ellipse class="cls-1" cx="28.35" cy="27.69" rx="14.94" ry="15.07"/></clipPath><radialGradient id="radial-gradient" cx="28.38" cy="12.51" r="12.51" gradientUnits="userSpaceOnUse"><stop offset="0" stop-color="#bcbb9f"/><stop offset="1" stop-color="#fff"/></radialGradient><linearGradient id="linear-gradient-2" x1="42.84" y1="44.04" x2="42.84" y2="19.02" gradientUnits="userSpaceOnUse"><stop offset=".2" stop-color="#8c8f90"/><stop offset=".49" stop-color="#c2c1a7"/><stop offset=".58" stop-color="#c8c7b0"/><stop offset=".74" stop-color="#d9d8c8"/><stop offset=".93" stop-color="#f4f4f0"/><stop offset="1" stop-color="#fff"/></linearGradient><linearGradient id="linear-gradient-3" x1="16.16" y1="48.98" x2="16.16" y2="23.97" gradientUnits="userSpaceOnUse"><stop offset=".29" stop-color="#8c8f90"/><stop offset=".39" stop-color="#959897"/><stop offset=".54" stop-color="#adafa9"/><stop offset=".74" stop-color="#d5d5c6"/><stop offset=".75" stop-color="#d8d8c9"/><stop offset="1" stop-color="#fff"/></linearGradient><clipPath id="clip-path-2"><path class="cls-2" d="M28.55 40.62a13.75 13.75 0 0 0 2-.14c5.14-.57 6.42-2.21 8.42-5.42s2.21-9.7 1.78-12.84-3.07-4.78-5.21-5.85a25.67 25.67 0 0 0-7.41-1.6 20.5 20.5 0 0 0-6.88 1.6c-2.14 1.07-4.78 2.71-5.21 5.85s-.21 9.63 1.78 12.84 3.28 4.85 8.42 5.42c-.04 0 1.24.14 2.31.14z"/></clipPath><radialGradient id="radial-gradient-2" cx="19.01" cy="19.64" r="13.27" gradientUnits="userSpaceOnUse"><stop offset="0" stop-color="#867c79"/><stop offset="1" stop-color="#d8d8c9"/></radialGradient><radialGradient id="radial-gradient-3" cx="41.84" cy="26.35" r="13.27" gradientUnits="userSpaceOnUse"><stop offset="0" stop-color="#cbc9b3"/><stop offset="1" stop-color="#d8d8c9"/></radialGradient><radialGradient id="radial-gradient-4" cx="28.85" cy="26.67" r="12.8" gradientUnits="userSpaceOnUse"><stop offset="0" stop-color="#ed1c24"/><stop offset=".15" stop-color="#e41a22"/><stop offset=".4" stop-color="#cc161c"/><stop offset=".71" stop-color="#a40f12"/><stop offset="1" stop-color="#7a0708"/></radialGradient><clipPath id="clip-path-3"><path class="cls-1" d="M22.41 17.77c-1.52.47-3.65.92-3.92 3.14S17.7 26.38 19.82 34c.32 1.15.67 3.13 2.45 3.88a13.77 13.77 0 0 0 5.83 1.02 13.86 13.86 0 0 0 6.23-1.06C36 37 36.45 35.12 36.77 34c2.12-7.58 1.62-10.84 1.34-13.06s-2.38-2.76-3.92-3.14c-2.81-.73-8.48-1.05-11.78-.03z"/></clipPath><linearGradient id="New_Gradient_Swatch_1" data-name="New Gradient Swatch 1" x1="21.02" y1="27.63" x2="24.4" y2="27.63" gradientUnits="userSpaceOnUse"><stop offset="0" stop-color="#fff"/><stop offset=".13" stop-color="#f0f0ea"/><stop offset=".33" stop-color="#deded2"/><stop offset=".44" stop-color="#d8d8c9"/><stop offset=".46" stop-color="#d8d8c9"/><stop offset=".65" stop-color="#d8d8c9"/><stop offset="1" stop-color="#fff"/></linearGradient><linearGradient id="New_Gradient_Swatch_1-2" x1="25.05" y1="27.92" x2="26.79" y2="27.92" xlink:href="#New_Gradient_Swatch_1"/><linearGradient id="New_Gradient_Swatch_1-3" x1="27.52" y1="27.92" x2="32.48" y2="27.92" xlink:href="#New_Gradient_Swatch_1"/><linearGradient id="New_Gradient_Swatch_1-4" x1="32.23" y1="27.92" x2="36.46" y2="27.92" xlink:href="#New_Gradient_Swatch_1"/><linearGradient id="linear-gradient-4" x1="22.71" y1="33.38" x2="22.71" y2="21.89" gradientUnits="userSpaceOnUse"><stop offset="0" stop-color="#c8c9b3"/><stop offset=".04" stop-color="#d5d6c5"/><stop offset=".12" stop-color="#e8e8df"/><stop offset=".2" stop-color="#f5f5f1"/><stop offset=".28" stop-color="#fcfdfb"/><stop offset=".38" stop-color="#fff"/><stop offset=".74" stop-color="#fff"/><stop offset=".79" stop-color="#f8f8f5"/><stop offset=".89" stop-color="#e4e5da"/><stop offset="1" stop-color="#c8c9b3"/></linearGradient><linearGradient id="linear-gradient-5" x1="25.92" y1="33.67" x2="25.92" y2="22.17" xlink:href="#linear-gradient-4"/><linearGradient id="linear-gradient-6" x1="30" y1="33.67" x2="30" y2="22.17" xlink:href="#linear-gradient-4"/><linearGradient id="linear-gradient-7" x1="34.35" y1="33.67" x2="34.35" y2="22.17" xlink:href="#linear-gradient-4"/></defs><g id="Слой_2" data-name="Слой 2"><g id="Слой_1-2" data-name="Слой 1"><path d="M39.13 16.81a15.16 15.16 0 0 0-21.57 0 15.47 15.47 0 0 0 0 21.75 15.16 15.16 0 0 0 21.57 0 15.47 15.47 0 0 0 0-21.75z" fill="url(#linear-gradient)"/><path class="cls-4" d="M38.9 17a14.83 14.83 0 0 0-21.1 0 15.14 15.14 0 0 0 0 21.28 14.83 14.83 0 0 0 21.1 0 15.14 15.14 0 0 0 0-21.28z"/><path d="M43.29 27.69a14.94 14.94 0 1 1-29.89 0c0-8.33 29.89-8.33 29.89 0z" fill="#8c8f90" stroke="#8c8f90" stroke-width=".49"/><g clip-path="url(#clip-path)"><circle cx="28.38" cy="12.51" r="12.51" fill="url(#radial-gradient)"/><circle cx="42.84" cy="31.53" r="12.51" fill="url(#linear-gradient-2)"/><circle cx="16.16" cy="36.48" r="12.51" fill="url(#linear-gradient-3)"/></g><path class="cls-2" d="M28.55 40.62a13.75 13.75 0 0 0 2-.14c5.14-.57 6.42-2.21 8.42-5.42s2.21-9.7 1.78-12.84-3.07-4.78-5.21-5.85a25.67 25.67 0 0 0-7.41-1.6 20.5 20.5 0 0 0-6.88 1.6c-2.14 1.07-4.78 2.71-5.21 5.85s-.21 9.63 1.78 12.84 3.28 4.85 8.42 5.42c-.04 0 1.24.14 2.31.14z"/><g clip-path="url(#clip-path-2)"><circle cx="19.01" cy="19.64" r="13.27" fill="url(#radial-gradient-2)"/><circle cx="41.84" cy="26.35" r="13.27" fill="url(#radial-gradient-3)"/></g><path class="cls-4" d="M22.23 17.45c-1.57.48-3.76 1-4 3.23s-.81 5.65 1.38 13.46c.33 1.19.69 3.22 2.52 4a14.19 14.19 0 0 0 6 1.09 14.28 14.28 0 0 0 6.42-1.09c1.77-.91 2.19-2.81 2.52-4 2.15-7.81 1.63-11.14 1.34-13.45s-2.45-2.84-4-3.23c-2.94-.72-8.78-1.05-12.18-.01z"/><path d="M22.41 17.77c-1.68.51-3.67 1.1-3.92 3.14A33.51 33.51 0 0 0 19.82 34c.41 1.51.85 3.2 2.45 3.88a14.86 14.86 0 0 0 5.83 1.02 13.63 13.63 0 0 0 6.23-1.06c1.5-.77 2-2.35 2.45-3.88a33.38 33.38 0 0 0 1.33-13.06c-.25-2-2.2-2.72-3.92-3.14a23.71 23.71 0 0 0-11.78.01z" fill="url(#radial-gradient-4)"/><path class="cls-14" d="M25.18 22.24v.07l.2 11.49v.15h1.55V22.16h-1.75v.08zM31.2 22.2h-3.5v.15l.2 11.49v.14h1.5v-5.31h1.62l.14 5.16v.14h1.42v-.14c.01-.43.36-10.12-1.38-11.63zm-1.92 5v-3.62h.85a15.52 15.52 0 0 1 .87 3.59z"/><path class="cls-14" d="M32.09 22.16v1.4h1.24l-.02 10.24v.15h1.47v-.14l.26-10.25h1.29v-1.4h-4.24z"/><g clip-path="url(#clip-path-3)"><path class="cls-16" d="M18.77 19.71c0 1.29.1 9.34.24 10.93M19.44 18.62c-.29 1.93-.19 9.59.76 16.91M20.1 18.17a79.78 79.78 0 0 0 1 19.08M20.63 18c-.1 3.61-.33 12.16 1 19.72M21.24 17.73a166.47 166.47 0 0 0 .81 20.42M21.86 17.53c-.14 2.42-.1 16.26.76 20.71M22.39 17.38c0 3.91-.1 16.76.81 21.21M23 17.28c0 2.72.1 16.56.57 21.5M23.62 17c0 3.81-.24 15.67.57 21.95M24.29 17c0 2.47 0 18.19.48 22.1M24.91 16.84c0 4.1 0 20.27.33 22.25M25.43 16.79c0 4.94.24 20.17.24 22.39M26.1 16.74c0 3.11.14 22 .14 22.49M26.71 16.74c0 3.46.14 19.51.1 22.54M27.33 16.74c0 3.46.14 19.51.1 22.54M28 16.74c0 3.46.14 19.51.1 22.54M37.89 19.71c0 1.29-.1 9.34-.24 10.93M37.22 18.62c.29 1.93.19 9.59-.76 16.91M36.56 18.17a79.78 79.78 0 0 1-1 19.08M36 18c.1 3.61.33 12.16-1 19.72M35.41 17.73a166.47 166.47 0 0 1-.81 20.42M34.8 17.53c.14 2.42.1 16.26-.76 20.71M34.27 17.38c0 3.91.1 16.76-.81 21.21M33.66 17.28c0 2.72-.1 16.56-.57 21.5M33 17c0 3.81.24 15.67-.57 21.95M32.37 17c0 2.47 0 18.19-.48 22.1M31.75 16.84c0 4.1 0 20.27-.33 22.25M31.23 16.79C31.18 21.73 31 37 31 39.18M30.56 16.74c0 3.11-.14 22-.14 22.49M29.95 16.74c0 3.46-.14 19.51-.1 22.54M29.28 16.74c0 3.46-.14 19.51-.1 22.54M28.61 16.74c0 3.46-.14 19.51-.1 22.54"/></g><path class="cls-14" d="M21.16 21.95v.08l.14 4.87h-.15l.01.15.07 1.13v.13h.11l.14 5.21.01.14h1.54v-5.35h1.08V26.9h-1.08v-3.47h1.5v-1.55h-3.37v.07z"/><path fill="url(#New_Gradient_Swatch_1)" d="M21.02 21.82l.01.07.13 4.87h-.14l.01.15.06 1.13.01.07v.07h.1l.15 5.21v.13h1.55v-5.34h1.08v-1.42H22.9v-3.47h1.5v-1.54h-3.38v.07z"/><path fill="url(#New_Gradient_Swatch_1-2)" d="M25.05 22.1v.08l.2 11.49v.14h1.54V22.03h-1.74v.07z"/><path d="M31.06 22.06h-3.5v.15l.2 11.49v.14h1.54v-5.31h1.62l.08 5.14v.14h1.42v-.14c.04-.41.39-10.09-1.36-11.61zm-1.92 5v-3.61H30a15.52 15.52 0 0 1 .83 3.55z" fill="url(#New_Gradient_Swatch_1-3)"/><path fill="url(#New_Gradient_Swatch_1-4)" d="M32.23 22.03v1.39h1.23l-.02 10.25v.14h1.47l.01-.14.26-10.25h1.28v-1.39h-4.23z"/><g><path fill="url(#linear-gradient-4)" d="M24.26 23.15v-1.26h-3.09l.14 5.02h-.14l.06 1.13h.11l.15 5.34h1.26v-5.34h1.09v-1.13h-1.09v-3.76h1.51z"/><path fill="url(#linear-gradient-5)" d="M26.65 22.17h-1.46l.2 11.5h1.26v-11.5z"/><path d="M31 22.17h-3.34l.2 11.49h1.26v-5.27h1.9l.14 5.3h1.14s.38-10.03-1.3-11.52zm0 5h-2V23.3h1.09a14.92 14.92 0 0 1 .91 3.88z" fill="url(#linear-gradient-6)"/><path fill="url(#linear-gradient-7)" d="M36.32 22.17h-3.95v1.11h1.24l-.02 10.39h1.18l.27-10.39h1.28v-1.11z"/></g><path class="cls-1" d="M0 6.47h56.69v42.52H0z"/></g></g></svg>