<svg xmlns="http://www.w3.org/2000/svg" width="20mm" height="15mm" viewBox="0 0 56.69 42.52"><g data-name="Слой 2"><g data-name="Слой 1"><g data-name="3 столбик"><path d="M40.72 22V9l.15.19V20a14.05 14.05 0 0 1-.15 2zm0-13zm-.09.38V9h.09v13c0 .18-.06.36-.09.55V9.42zm.09-.38zm-.1.38v13.21a14 14 0 0 1-3.39 6.76A14.71 14.71 0 0 1 36 30.52 23.57 23.57 0 0 1 30.7 34l-1.13.49c-.38.16-.77.3-1.16.44h-.06v-.4c.36-.12.72-.26 1.08-.4s.75-.32 1.11-.49a23 23 0 0 0 5.23-3.37 12.15 12.15 0 0 0 1.18-1.14A13.34 13.34 0 0 0 40.47 20V9.39q-1.62-.39-3.26-.67t-3.44-.49a52.36 52.36 0 0 0-5.43-.29v-.4a51.47 51.47 0 0 1 5.48.29 50.469 50.469 0 0 1 6.8 1.18v.4zM28.34 7.55v.4h-.07v-.4zm0 26.93v.4h-.07v-.42zm-.07-26.93v.4a51.33 51.33 0 0 0-12 1.45V20a13.48 13.48 0 0 0 1.23 5.62c.13.29.27.56.42.84a13.47 13.47 0 0 0 3 3.74c.31.27.62.52.95.77s.65.49 1 .71a23.22 23.22 0 0 0 5.41 2.76v.42A23.37 23.37 0 0 1 22.63 32q-.51-.35-1-.72c-.33-.25-.65-.51-1-.78a14.09 14.09 0 0 1-3.15-3.86c-.15-.28-.3-.57-.43-.86A13.79 13.79 0 0 1 15.83 20V9.24L16 9a52.08 52.08 0 0 1 12.27-1.45z" fill="#034ea2"/><path d="M40.62 9.42zm.1-.38l.15.19V20a14 14 0 0 1-3.63 9.33A14.71 14.71 0 0 1 36 30.52 23.57 23.57 0 0 1 30.7 34l-1.13.49c-.38.16-.77.3-1.16.44h-.13A23.67 23.67 0 0 1 22.63 32q-.51-.35-1-.72c-.33-.25-.65-.51-1-.78a14.09 14.09 0 0 1-3.15-3.86c-.15-.28-.3-.57-.43-.86A13.79 13.79 0 0 1 15.83 20V9.24L16 9a51.89 51.89 0 0 1 17.84-1.2A50.469 50.469 0 0 1 40.73 9zm0 0zm-.25.35q-1.62-.39-3.26-.67t-3.44-.49a51.5 51.5 0 0 0-17.54 1.16V20a13.48 13.48 0 0 0 1.23 5.62c.13.29.27.56.42.84a13.47 13.47 0 0 0 3 3.74c.31.27.62.52.95.77s.65.49 1 .71a22.93 22.93 0 0 0 5.48 2.78c.36-.12.72-.26 1.08-.4s.75-.32 1.11-.49a23 23 0 0 0 5.23-3.37 12.15 12.15 0 0 0 1.18-1.14A13.34 13.34 0 0 0 40.47 20V9.39zm-12.2 25.12z" stroke-miterlimit="10" stroke-width=".04" stroke="#034ea2" fill="none"/><path d="M30.52 12.24a11.13 11.13 0 0 1 1.87-.16 1.82 1.82 0 0 1 1.93-1.42.18.18 0 0 1 .12.17l-.38 1 2 2.28a.65.65 0 0 1 .1.61.63.63 0 0 0 0 .58l2.61 4.26a.84.84 0 0 1 0 .51.61.61 0 0 1-.33.53 7.07 7.07 0 0 0-1.1.74 3.46 3.46 0 0 1-.48.49.24.24 0 0 1-.38-.13.94.94 0 0 0-.83-.9.21.21 0 0 0-.22.08.19.19 0 0 0 0 .23l.62.51a.33.33 0 0 1 .05.4.38.38 0 0 1-.27 0 3.13 3.13 0 0 0-1.22-.15.32.32 0 0 1-.19-.16.28.28 0 0 1 0-.25.37.37 0 0 0-.14-.41l-1.44-1.16a3 3 0 0 1-2.31-1.08v-6.57zm0 11.95a5.26 5.26 0 0 1 0 2.34v-2.34zm0 5.13a14.4 14.4 0 0 0 1.77-2.66 5.3 5.3 0 0 0 .36-2.6A9 9 0 0 0 31 20.44a.86.86 0 0 1 0-1l-.42-.39-.08.07v4.28a5.27 5.27 0 0 1 .14 3.6l-.12.27v2zm0-17.33a11.4 11.4 0 0 1 1.58-.15 5.28 5.28 0 0 1 .6-.77 14.41 14.41 0 0 0-2.18-.1zm-.44 15.74a38.52 38.52 0 0 1-1.86 3.41 16.49 16.49 0 0 0-1.4-3v-14.6a11.31 11.31 0 0 1 3.69-1.3v6.58a3.11 3.11 0 0 0-1.16 2.71 5.39 5.39 0 0 0 .65 1.33 5 5 0 0 1 .5 1.33v2.34a5.18 5.18 0 0 1-.44 1.21zM30.52 11a13.23 13.23 0 0 0-3.69.66v1.62A11.94 11.94 0 0 1 30.52 12v-1zm0 8.19a2.46 2.46 0 0 0-.64 3 6.27 6.27 0 0 1 .64 1.24v-4.27zm0 8.14a27.14 27.14 0 0 1-2.16 4.1 14.29 14.29 0 0 0 2.16-2.09zm-3.69.85a16.57 16.57 0 0 0-5.88-5.79 11.56 11.56 0 0 1 5.88-8.83v14.6zm0-16.52A13.35 13.35 0 0 0 18.08 21q1.35.58 2.64 1.27a11.82 11.82 0 0 1 6.11-9z" fill-rule="evenodd" fill="#034ea2"/><path d="M35.24 29.6a12.58 12.58 0 0 0 4.42-9.6V10A50.73 50.73 0 0 0 17 10v10a12.59 12.59 0 0 0 4.43 9.58 22.22 22.22 0 0 0 6.88 4 22.29 22.29 0 0 0 6.89-4z" stroke-linejoin="bevel" stroke-width=".58" fill-rule="evenodd" stroke="#034ea2" fill="none"/></g><path fill="none" d="M0 0h56.69v42.52H0z"/></g></g></svg>