<svg xmlns="http://www.w3.org/2000/svg" xmlns:xlink="http://www.w3.org/1999/xlink" width="20mm" height="15mm" viewBox="0 0 56.69 42.52"><defs><linearGradient id="c" x1="42.13" y1="10.28" x2="33.2" y2="23.96" gradientUnits="userSpaceOnUse"><stop offset=".2" stop-color="#b5b3b3"/><stop offset=".22" stop-color="#a19f9f"/><stop offset=".25" stop-color="#787676"/><stop offset=".28" stop-color="#585656"/><stop offset=".31" stop-color="#413f3f"/><stop offset=".34" stop-color="#333131"/><stop offset=".37" stop-color="#2e2c2c"/><stop offset=".45" stop-color="#343232"/><stop offset=".55" stop-color="#454242"/><stop offset=".67" stop-color="#605e5e"/><stop offset=".81" stop-color="#878484"/><stop offset=".81" stop-color="#898686"/><stop offset="1"/></linearGradient><linearGradient id="d" x1="17.05" y1="20.21" x2="18.67" y2="16.51" gradientUnits="userSpaceOnUse"><stop offset=".03" stop-color="#8c8888"/><stop offset=".2" stop-color="#8c8888"/><stop offset=".99" stop-color="#403e3d"/></linearGradient><linearGradient id="e" x1="39.14" y1="11.31" x2="37.15" y2="11.12" gradientUnits="userSpaceOnUse"><stop offset=".2" stop-color="#2e2c2c"/><stop offset=".26" stop-color="#302e2e"/><stop offset=".28" stop-color="#373535"/><stop offset=".3" stop-color="#424040"/><stop offset=".31" stop-color="#535151"/><stop offset=".32" stop-color="#696767"/><stop offset=".33" stop-color="#848383"/><stop offset=".34" stop-color="#a4a3a3"/><stop offset=".35" stop-color="#c9c9c9"/><stop offset=".36" stop-color="#f2f2f2"/><stop offset=".36" stop-color="#fff"/><stop offset=".82" stop-color="#2e2c2c"/><stop offset="1" stop-color="#1a1a1a"/></linearGradient><linearGradient id="f" x1="21.21" y1="22.17" x2="22.85" y2="18.41" gradientUnits="userSpaceOnUse"><stop offset="0" stop-color="#b5b3b3"/><stop offset=".01" stop-color="#b4b2b2"/><stop offset=".14" stop-color="#9e9b9b"/><stop offset=".26" stop-color="#918d8d"/><stop offset=".37" stop-color="#8c8888"/><stop offset=".99"/></linearGradient><linearGradient id="g" x1="37.16" y1="39.87" x2="7.87" y2="10.07" gradientUnits="userSpaceOnUse"><stop offset=".08" stop-color="#676464"/><stop offset=".12" stop-color="#73706f"/><stop offset=".17" stop-color="#53504f"/><stop offset=".31" stop-color="#676464"/><stop offset=".47" stop-color="#e6e5e5"/><stop offset=".7" stop-color="#e6e5e5"/><stop offset=".72" stop-color="#d7d6d6"/><stop offset=".76" stop-color="#b0aeae"/><stop offset=".82" stop-color="#716e6d"/><stop offset=".84" stop-color="#575453"/><stop offset=".96" stop-color="#2e2c2c"/></linearGradient><radialGradient id="h" cx="24.49" cy="13.96" r="6.68" gradientUnits="userSpaceOnUse"><stop offset=".04" stop-color="#fff"/><stop offset=".47" stop-color="#fff"/><stop offset=".51" stop-color="#fbfbfb"/><stop offset=".56" stop-color="#efefee"/><stop offset=".61" stop-color="#dbdada"/><stop offset=".66" stop-color="#bebdbd"/><stop offset=".7" stop-color="#9a9898"/><stop offset=".75" stop-color="#73706f"/><stop offset=".85" stop-color="#53504f"/><stop offset="1" stop-color="#2e2c2c"/></radialGradient><radialGradient id="i" cx="25.99" cy="28.14" r="2.36" gradientTransform="matrix(1 0 0 .96 0 -14.5)" gradientUnits="userSpaceOnUse"><stop offset=".04" stop-color="#fff"/><stop offset=".23" stop-color="#fff"/><stop offset=".29" stop-color="#f6f6f6"/><stop offset=".4" stop-color="#dcdcdc"/><stop offset=".54" stop-color="#b3b3b3"/><stop offset=".7" stop-color="#797979"/><stop offset=".89" stop-color="#313131"/><stop offset="1"/></radialGradient><radialGradient id="j" cx="24.51" cy="8.91" r="2.77" gradientUnits="userSpaceOnUse"><stop offset=".23" stop-color="#fff"/><stop offset=".5" stop-color="#efefee"/><stop offset=".57" stop-color="#eae9e8"/><stop offset=".86"/></radialGradient><radialGradient id="k" cx="29.16" cy="14.32" r="9.34" gradientUnits="userSpaceOnUse"><stop offset=".04" stop-color="#fff"/><stop offset=".25" stop-color="#fff"/><stop offset=".27" stop-color="#fbfbfb"/><stop offset=".29" stop-color="#efeeee"/><stop offset=".3" stop-color="#dbdada"/><stop offset=".32" stop-color="#bebdbd"/><stop offset=".34" stop-color="#9a9898"/><stop offset=".35" stop-color="#7f7c7c"/><stop offset=".41" stop-color="#53504f"/><stop offset=".47" stop-color="#2e2c2c"/><stop offset=".86" stop-color="#2e2c2c"/></radialGradient><linearGradient id="l" x1="22.63" y1="19.64" x2="18.06" y2="20.78" gradientUnits="userSpaceOnUse"><stop offset="0" stop-color="#e6e5e5"/><stop offset=".11" stop-color="#c3c1c1"/><stop offset=".26" stop-color="#999696"/><stop offset=".27" stop-color="#a29f9f"/><stop offset=".32" stop-color="#bbb8b8"/><stop offset=".38" stop-color="#cecccc"/><stop offset=".44" stop-color="#dcdada"/><stop offset=".52" stop-color="#e4e3e3"/><stop offset=".65" stop-color="#e6e5e5"/><stop offset=".9" stop-color="#fff"/></linearGradient><linearGradient id="m" x1="904.54" y1="446.68" x2="952.34" y2="504.92" gradientTransform="matrix(.44 0 0 .44 -374.05 -187.64)" gradientUnits="userSpaceOnUse"><stop offset="0" stop-color="#fff"/><stop offset=".07" stop-color="#cbc9c9"/><stop offset=".16" stop-color="#fff"/><stop offset=".2" stop-color="#fff"/><stop offset=".22" stop-color="#f3f3f3"/><stop offset=".29" stop-color="#c6c5c5"/><stop offset=".33" stop-color="#b5b3b3"/><stop offset=".33" stop-color="#b9b7b7"/><stop offset=".36" stop-color="#d2d1d1"/><stop offset=".38" stop-color="#e6e6e6"/><stop offset=".41" stop-color="#f4f4f4"/><stop offset=".45" stop-color="#fdfcfc"/><stop offset=".5" stop-color="#fff"/><stop offset=".89" stop-color="#fff"/><stop offset=".98" stop-color="#969393"/></linearGradient><linearGradient id="n" x1="17.09" y1="13.09" x2="38.51" y2="33.43" gradientUnits="userSpaceOnUse"><stop offset="0" stop-color="#c5c2c2"/><stop offset=".01" stop-color="#bfbcbc"/><stop offset=".14" stop-color="#8b8989"/><stop offset=".25" stop-color="#636161"/><stop offset=".35" stop-color="#464444"/><stop offset=".44" stop-color="#343232"/><stop offset=".51" stop-color="#2e2c2c"/><stop offset=".58" stop-color="#333131"/><stop offset=".66" stop-color="#413f3f"/><stop offset=".75" stop-color="#595757"/><stop offset=".84" stop-color="#7b7878"/><stop offset=".94" stop-color="#a5a2a2"/><stop offset="1" stop-color="#c5c2c2"/></linearGradient><linearGradient id="o" x1="27.41" y1="22.94" x2="19.07" y2="35.41" gradientUnits="userSpaceOnUse"><stop offset="0" stop-color="#a7a4a4"/><stop offset=".1" stop-color="#fff"/><stop offset=".35" stop-color="#dfdddd"/><stop offset=".47" stop-color="#f6f6f6"/><stop offset=".54" stop-color="#fff"/><stop offset=".54" stop-color="#f4f4f4"/><stop offset=".58" stop-color="#b3b3b3"/><stop offset=".61" stop-color="#7c7c7c"/><stop offset=".65" stop-color="#525252"/><stop offset=".67" stop-color="#333"/><stop offset=".7" stop-color="#212121"/><stop offset=".71" stop-color="#1a1a1a"/><stop offset=".72" stop-color="#373737"/><stop offset=".74" stop-color="#6c6c6c"/><stop offset=".76" stop-color="#999"/><stop offset=".77" stop-color="#bebebe"/><stop offset=".79" stop-color="#dadada"/><stop offset=".81" stop-color="#efefef"/><stop offset=".82" stop-color="#fbfbfb"/><stop offset=".84" stop-color="#fff"/><stop offset=".85" stop-color="#fafafa"/><stop offset=".86" stop-color="#ededed"/><stop offset=".87" stop-color="#d7d6d6"/><stop offset=".88" stop-color="#b7b7b7"/><stop offset=".89" stop-color="#8f8f8e"/><stop offset=".9" stop-color="#5f5e5d"/><stop offset=".91" stop-color="#2f2e2d"/><stop offset=".95" stop-color="#2f2e2d"/><stop offset="1" stop-color="#5d5a59"/></linearGradient><linearGradient id="p" x1="26.48" y1="29.43" x2="28.68" y2="30.73" gradientUnits="userSpaceOnUse"><stop offset=".2" stop-color="#fff"/><stop offset=".31" stop-color="#fdfdfd"/><stop offset=".37" stop-color="#f4f4f4"/><stop offset=".42" stop-color="#e7e6e6"/><stop offset=".47" stop-color="#d3d2d2"/><stop offset=".51" stop-color="#bab8b8"/><stop offset=".52" stop-color="#afadad"/><stop offset=".84" stop-color="#2e2c2c"/><stop offset=".96" stop-color="#1f1f1f"/><stop offset="1" stop-color="#1a1a1a"/></linearGradient><linearGradient id="q" x1="27.72" y1="23.47" x2="30.03" y2="20.69" gradientUnits="userSpaceOnUse"><stop offset=".02" stop-color="#fff"/><stop offset=".18" stop-color="#fff"/><stop offset=".21" stop-color="#fff"/><stop offset=".28" stop-color="#f8f7f7"/><stop offset=".38" stop-color="#e3e2e2"/><stop offset=".5" stop-color="#c5c2c2"/><stop offset=".62" stop-color="#aba8a8"/><stop offset=".83" stop-color="#83807f"/><stop offset=".95" stop-color="#73706f"/><stop offset="1" stop-color="#6c6969"/></linearGradient><linearGradient id="a" x1="32.83" y1="7.99" x2="35.85" y2="11.08" gradientUnits="userSpaceOnUse"><stop offset="0"/><stop offset=".04" stop-color="#020202"/><stop offset=".07" stop-color="#0b0b0b"/><stop offset=".09" stop-color="#191919"/><stop offset=".11" stop-color="#2c2c2c"/><stop offset=".12" stop-color="#464646"/><stop offset=".14" stop-color="#666565"/><stop offset=".15" stop-color="#8c8b8b"/><stop offset=".17" stop-color="#b6b5b5"/><stop offset=".18" stop-color="#e6e5e5"/><stop offset=".18" stop-color="#e2e1e1"/><stop offset=".24" stop-color="#b0afaf"/><stop offset=".29" stop-color="#858484"/><stop offset=".35" stop-color="#626161"/><stop offset=".4" stop-color="#474646"/><stop offset=".46" stop-color="#333232"/><stop offset=".52" stop-color="#282727"/><stop offset=".58" stop-color="#242323"/><stop offset=".72" stop-color="#1d1c1c"/><stop offset=".92" stop-color="#090909"/><stop offset="1"/></linearGradient><linearGradient id="r" x1="33.19" y1="20.82" x2="36.63" y2="18.56" xlink:href="#a"/><linearGradient id="s" x1="35.95" y1="9.85" x2="40.46" y2="9.85" gradientUnits="userSpaceOnUse"><stop offset="0" stop-color="#403e3d"/><stop offset=".29" stop-color="#b5b3b3"/><stop offset=".29" stop-color="#b2b0b0"/><stop offset=".34" stop-color="#8a8887"/><stop offset=".39" stop-color="#6a6867"/><stop offset=".45" stop-color="#535150"/><stop offset=".49" stop-color="#454342"/><stop offset=".53" stop-color="#403e3d"/><stop offset=".76" stop-color="#1a1a1a"/><stop offset="1"/></linearGradient><linearGradient id="b" x1="17.54" y1="33.3" x2="27.94" y2="33.3" gradientUnits="userSpaceOnUse"><stop offset="0"/><stop offset=".05" stop-color="#020202"/><stop offset=".09" stop-color="#0b0a0a"/><stop offset=".11" stop-color="#191818"/><stop offset=".13" stop-color="#2c2b2b"/><stop offset=".15" stop-color="#464444"/><stop offset=".17" stop-color="#656363"/><stop offset=".18" stop-color="#757272"/><stop offset=".23" stop-color="#625f5f"/><stop offset=".31" stop-color="#474545"/><stop offset=".4" stop-color="#333232"/><stop offset=".49" stop-color="#282727"/><stop offset=".58" stop-color="#242323"/><stop offset=".72" stop-color="#1d1c1c"/><stop offset=".92" stop-color="#090909"/><stop offset="1"/></linearGradient><linearGradient id="t" x1="30.77" y1="29.31" x2="35.42" y2="29.31" xlink:href="#b"/><linearGradient id="u" x1="33.89" y1="29.94" x2="42.43" y2="29.94" xlink:href="#b"/><linearGradient id="v" x1="17.08" y1="21.6" x2="25.99" y2="21.6" gradientUnits="userSpaceOnUse"><stop offset="0" stop-color="#53504f"/><stop offset=".06" stop-color="#555251"/><stop offset=".09" stop-color="#5d5b5a"/><stop offset=".12" stop-color="#6b6868"/><stop offset=".14" stop-color="#7f7c7b"/><stop offset=".16" stop-color="#979595"/><stop offset=".18" stop-color="#b5b3b3"/><stop offset=".28" stop-color="#8b8a8a"/><stop offset=".39" stop-color="#616060"/><stop offset=".51" stop-color="#3e3d3d"/><stop offset=".63" stop-color="#232222"/><stop offset=".75" stop-color="#0f0f0f"/><stop offset=".87" stop-color="#040404"/><stop offset="1"/></linearGradient><linearGradient id="w" x1="17.28" y1="16.18" x2="20.45" y2="16.18" gradientUnits="userSpaceOnUse"><stop offset="0" stop-color="#242323"/><stop offset=".05" stop-color="#262525"/><stop offset=".08" stop-color="#2f2e2e"/><stop offset=".1" stop-color="#3d3b3b"/><stop offset=".12" stop-color="#504f4f"/><stop offset=".14" stop-color="#6a6969"/><stop offset=".16" stop-color="#8a8888"/><stop offset=".18" stop-color="#afadad"/><stop offset=".18" stop-color="#b5b3b3"/><stop offset=".28" stop-color="#8b8a8a"/><stop offset=".39" stop-color="#616060"/><stop offset=".51" stop-color="#3e3d3d"/><stop offset=".63" stop-color="#232222"/><stop offset=".75" stop-color="#0f0f0f"/><stop offset=".87" stop-color="#040404"/><stop offset="1"/></linearGradient><linearGradient id="x" x1="14.57" y1="20.8" x2="16.66" y2="20.8" gradientUnits="userSpaceOnUse"><stop offset="0" stop-color="#53504f"/><stop offset=".06" stop-color="#555251"/><stop offset=".1" stop-color="#5d5a5a"/><stop offset=".13" stop-color="#6b6868"/><stop offset=".16" stop-color="#7f7c7b"/><stop offset=".18" stop-color="#989595"/><stop offset=".18" stop-color="#999696"/><stop offset=".25" stop-color="#858282"/><stop offset=".4" stop-color="#626060"/><stop offset=".54" stop-color="#474545"/><stop offset=".69" stop-color="#333232"/><stop offset=".84" stop-color="#282727"/><stop offset="1" stop-color="#242323"/></linearGradient><linearGradient id="y" x1="25.54" y1="7.87" x2="25.77" y2="8.37" gradientUnits="userSpaceOnUse"><stop offset="0" stop-color="#fff"/><stop offset=".12" stop-color="#dcdada"/><stop offset=".91" stop-color="#373534"/></linearGradient><linearGradient id="z" x1="22.67" y1="13.06" x2="31.1" y2="13.06" gradientUnits="userSpaceOnUse"><stop offset=".69" stop-color="#fff"/><stop offset=".72" stop-color="#fafafa"/><stop offset=".75" stop-color="#eaeaea"/><stop offset=".79" stop-color="#d1d1d1"/><stop offset=".84" stop-color="#adadad"/><stop offset=".88" stop-color="#7f7f7f"/><stop offset=".93" stop-color="#474747"/><stop offset=".98" stop-color="#070707"/><stop offset=".98"/></linearGradient><linearGradient id="A" x1="22.12" y1="33.92" x2="25.25" y2="22.87" gradientUnits="userSpaceOnUse"><stop offset="0" stop-color="#d5d3d3"/><stop offset=".07" stop-color="#373534"/><stop offset=".23" stop-color="#565353"/><stop offset=".35" stop-color="#676464"/><stop offset=".49" stop-color="#807d7d"/><stop offset=".6" stop-color="#918e8e"/><stop offset=".71" stop-color="#797676"/><stop offset=".87" stop-color="#565353"/><stop offset=".96" stop-color="#494646"/><stop offset="1" stop-color="#8c8888"/></linearGradient></defs><g data-name="Слой 2"><g data-name="Слой 1"><path fill="none" d="M0 0h56.69v42.52H0z"/><path d="M42.61 33.9a40 40 0 0 0-4.54-8.12c-.38-.51-.24-.77 0-.93a14.51 14.51 0 0 0 1.63-1.61 3 3 0 0 0 .42-3.36c-.55-1.44-2.36-4.88-2.74-6a3.55 3.55 0 0 1-.22-2.61c.31-.84.76-.88 1.1-.87a.36.36 0 0 1 .32.28 4.8 4.8 0 0 0 .39 1.79 5.54 5.54 0 0 0 2.53 2.72c.33.14.38-.11.36-.23l-.87-3.43c-.42-1.53-.61-1.84-.99-2.15a3 3 0 0 0-2-.76 2.89 2.89 0 0 0-2.3 1.69c-.07.12-.1.21-.26.1C35 10.1 33.71 9 33.59 8.35c-.07-.4-.14-.45-.54-.61a23 23 0 0 0-4.37-1.39 2.5 2.5 0 0 0-1.32 0 8.9 8.9 0 0 0-2.78 1 1.4 1.4 0 0 0-.64.55.65.65 0 0 1-.33.27 14.58 14.58 0 0 0-1.76.72c-.23.14-.36.28-.24.54A7.68 7.68 0 0 0 22.73 11a1.94 1.94 0 0 0 .68.27c.1 0 .17.05.21 0a.63.63 0 0 1 .25-.34 2.82 2.82 0 0 1 1.13-.35.67.67 0 0 1 .47.06 1.58 1.58 0 0 1 .47.65c.09.28 0 .39-.12.45a5 5 0 0 1-1.18.22c-.55 0-.7-.11-.74-.14a.1.1 0 0 0-.16 0 1.13 1.13 0 0 1-.44.32c-.12.06-.19.19-.07.39.35.6.81 1.28 1.23 1.41s.52 0 .9-.28.56-.24.66-.18.31.25.26.42a6.19 6.19 0 0 1-.82 1.17c-.11.14-.21.22-.41.12s-4.66-2.41-5.25-2.64a4.7 4.7 0 0 0-1.68-.33 8.29 8.29 0 0 0-1.61.1 1.46 1.46 0 0 0-.77.47 2.46 2.46 0 0 0-.87 1.21 2.13 2.13 0 0 0 .32.89.25.25 0 0 0 .26.1 2.67 2.67 0 0 1 1.12-.15c.47.08.51.45.54.73a.19.19 0 0 0 .19.16 1.75 1.75 0 0 1 .82.17 7.59 7.59 0 0 1 1.36 1c.1.11.1.22-.1.24a19.14 19.14 0 0 0-3.37.64 2.51 2.51 0 0 0-1.35.78 5.92 5.92 0 0 0-.66 1.6c-.09.49.43 1.09.57 1.23s.16.15.32.06a3.62 3.62 0 0 1 1.46-.56c.36 0 .5.32.59.44s.17 0 .49 0a37.3 37.3 0 0 1 4.86 0 4.18 4.18 0 0 1 1.75.39 10.88 10.88 0 0 1 1.47 1.18s-1.26 2.1-1.93 3.35-1.08 2-1.31 2.52a3.69 3.69 0 0 0-.27 1.52 14.44 14.44 0 0 1 0 1.47c0 .3-.29.33-.68.43s-1.63.24-2.51.45-1.1.39-1.24 1a16.64 16.64 0 0 0-.3 2.23c0 .22 0 .33.27.27a12.33 12.33 0 0 1 1.27-.14c.74-.06 1.54 0 2.17 0 1.14 0 4.51.19 4.74.21s.35 0 .33-.21-.05-1.15-.05-1.65a1.83 1.83 0 0 1 .37-1.51c.45-.49 3.89-4.33 4.08-4.52s.28-.34.53-.11 3.09 2.28 3.66 2.69a2.86 2.86 0 0 0 1.76.57c.47 0 .6.82.2.9l-1.46.3a1.27 1.27 0 0 0-1.08.83 15.14 15.14 0 0 0-.37 2.41c0 .12 0 .29.17.25a17.26 17.26 0 0 1 3.5-.16c1.61 0 3.17.18 3.39.2s.26 0 .38-.2a8 8 0 0 1 1.33-1.45c.26-.24.26-.33.15-.65zm-6.17-11.32a.79.79 0 0 1-.87-.17c-.2-.19-1.82-2.14-2.34-2.74a.76.76 0 0 1 .33-1.28c.65-.23 1.81-.61 2.13-.78a.8.8 0 0 0 .52-.68v-.83c0-.12.16-.23.25-.08s.35.67.7 1.33c.53 1 1.2 2.22 1.42 2.75a1.16 1.16 0 0 1-.21 1.28 5.86 5.86 0 0 1-1.93 1.2z"/><path d="M38.11 8.92c-1.26 0-2.55 1.46-2.3 3.65a7.87 7.87 0 0 0 .75 2.81c.2.43 2.36 4.54 2.46 5a1.32 1.32 0 0 1-.46 1.45 6.88 6.88 0 0 1-2 1.22 1.2 1.2 0 0 1-.38.07c-.13 0-.47 0-1.1-.82l2.78 3.7c-.36-.48-.54-.84-.48-1.15s.57-.65 1.16-1.11a4.44 4.44 0 0 0 1.53-1.81 1.87 1.87 0 0 0 .12-.69 6.36 6.36 0 0 0-.79-2.49 37.45 37.45 0 0 1-2.62-5.57 4.66 4.66 0 0 1-.17-1.2 1.91 1.91 0 0 1 1-1.9 1.8 1.8 0 0 1 .68-.14 1.28 1.28 0 0 1 .58.13.43.43 0 0 1 .17.4v.22a4.8 4.8 0 0 0 .51 2.31 4.69 4.69 0 0 0 2.07 2s-1-3.67-1.14-4.36a2.14 2.14 0 0 0-2.37-1.72z" fill="url(#c)"/><path d="M20.74 17.1c.24.24-.18.23-1.47.34a14.48 14.48 0 0 0-3.32.64c-.5.19-.81.33-1 .79a8 8 0 0 0-.48 1.27.52.52 0 0 0 .07.41c0 .08.17-2.38 3.34-2.54 2.8-.14 3.49-.44 2.94-1z" fill="url(#d)"/><path d="M36.77 12.07a5.06 5.06 0 0 1 .17-.94 1.23 1.23 0 0 1 1.16-1 .54.54 0 0 1 .45.17.46.46 0 0 1 .14.29 4.58 4.58 0 0 0 .38 1.73l.07.17a5.08 5.08 0 0 1-.34-1.83v-.25c0-.28-.3-.36-.58-.36a1.58 1.58 0 0 0-.61.13 1.72 1.72 0 0 0-.87 1.68z" fill="url(#e)"/><path d="M20.85 17.21c.09.26-.28.2-1.57.31a14.58 14.58 0 0 0-3.32.63c-.51.19-.81.32-1 .79a8.09 8.09 0 0 0-.48 1.27.52.52 0 0 0 .11.41c.13.21.22.26.42.15a3.59 3.59 0 0 1 1.32-.5.62.62 0 0 1 .66.46c0 .14.22.07.25.06a4.65 4.65 0 0 1 1-.15c.78-.06 3.81 0 4.93 0s4.95 3.12 5 3.13l.2-.4c-1.34-1.11-6.32-5.06-7.52-6.23z" fill="url(#f)"/><path d="M32.21 19.66c.6.72 2.39 2.89 3.92 4.85a38.37 38.37 0 0 1 5.41 9c.15.35 0 .39-.21.59-.48.39-.37.54-.73 1.15 0 .07-.13.18-.24.17-.33 0-2.87-.24-4.53-.18a6.22 6.22 0 0 0-1.47.16c-.18 0-.24 0-.23-.21a10.69 10.69 0 0 1 .33-1.52.91.91 0 0 1 .7-.62c.33-.09 1.27-.27 1.65-.36s.4-.46.36-.73-.25-.64-.5-.69a3.52 3.52 0 0 1-.93-.27c-.36-.16-5.54-4.34-6-4.72-.12-.1-.21-.17-.25-.13s.06.17.11.22.87.9 1 1.07.06.18 0 .24-2.54 2.5-3.56 3.56-1.75 1.67-1.74 2.51 0 1.5 0 1.65-.13.12-.24.11c-.32 0-2.75-.27-4.12-.3a11.74 11.74 0 0 0-3 .26c-.15 0-.2-.05-.19-.18a9.72 9.72 0 0 1 .35-1.64.92.92 0 0 1 .75-.62c.44-.11 2.19-.42 3-.54.43-.07.52-.21.51-.57s0-1.15-.07-1.55a2.83 2.83 0 0 1 .25-1.17 39.85 39.85 0 0 1 3.47-6.36.41.41 0 0 1 .45-.21 10 10 0 0 1 1 .7c.14.07.32 0 .24-.08-.46-.46-1.86-1.32-2.72-2-1.69-1.35-3.45-3.3-4.87-4.61a5.25 5.25 0 0 0-2.1-1.3c-.21 0-.4 0-.58-.07a.12.12 0 0 1-.1-.13.67.67 0 0 0-.17-.47.93.93 0 0 0-.63-.21 4.26 4.26 0 0 0-1 .13h-.24a1 1 0 0 1-.14-.38.5.5 0 0 1 .08-.33 4.24 4.24 0 0 1 .87-.89 1 1 0 0 1 .68-.29 6.45 6.45 0 0 1 2.19.06 7.07 7.07 0 0 1 1.63.65c.57.29 3.9 2 4.33 2.19z" fill="url(#g)"/><path d="M26.68 13.59a1.31 1.31 0 0 1-.36.94c-.16.25-.48.62-.65.83a.68.68 0 0 1-.62.19l3 1.53c.44.22 1.12 0 1.59-.86.11-.2.8-1.66 1-2.1a1.83 1.83 0 0 0 0-1.74 20.32 20.32 0 0 0-2.11-2.94 1.47 1.47 0 0 0-1.2-.53 7.92 7.92 0 0 0-2.45.33 22 22 0 0 0-2.41.85v.07l.15.27a.65.65 0 0 0 .27.28 1.69 1.69 0 0 0 .44.17.08.08 0 0 0 .09 0 1.41 1.41 0 0 1 .93-.58 3.08 3.08 0 0 1 .75-.11 1.07 1.07 0 0 1 .64.25 2.19 2.19 0 0 1 .53.89.48.48 0 0 1-.19.55 4.49 4.49 0 0 1-1.14.28A1.76 1.76 0 0 1 24 12a.07.07 0 0 0-.09 0 1.66 1.66 0 0 1-.29.22s-.06.07 0 .14a4.73 4.73 0 0 0 .76 1c.27.21.42.11.75-.07s.55-.4.89-.39a.76.76 0 0 1 .66.69z" fill="url(#h)"/><path d="M26.06 11.93a4.56 4.56 0 0 1-1.12.25 1.81 1.81 0 0 1-.94-.1.08.08 0 0 0-.09 0 1.62 1.62 0 0 1-.29.2s-.06.06 0 .13a4.11 4.11 0 0 0 .72 1c.28.2.43.11.76-.07s.56-.4.91-.39z" style="mix-blend-mode:multiply" fill="url(#i)" opacity=".85"/><path d="M24.84 9.37a21.64 21.64 0 0 0-2.29.77v.1l.14.24a.6.6 0 0 0 .26.25 1.79 1.79 0 0 0 .4.16.08.08 0 0 0 .09 0 1.41 1.41 0 0 1 .93-.58 3.08 3.08 0 0 1 .75-.11z" style="mix-blend-mode:multiply" fill="url(#j)" opacity=".85"/><path d="M26.69 13.65a1.38 1.38 0 0 1-.36 1c-.16.25-.49.63-.65.83a.47.47 0 0 1-.52.15l2.92 1.48c.44.22 1.1.07 1.56-.8.11-.2.8-1.66 1-2.1z" style="mix-blend-mode:multiply" fill="url(#k)" opacity=".85"/><path d="M17.64 20.48c-.09 0-.09-.13 0-.25a2.78 2.78 0 0 1 .87-.55c.31-.07 1.4-.17 1.87-.2.13 0 1.82-.16 2-.15s.54.61 1 1.1h-2.77c-1.25 0-2.22 0-2.6.07a1.12 1.12 0 0 1-.37-.02z" fill="url(#l)"/><path d="M17.64 20.5a.11.11 0 0 1-.08-.11.28.28 0 0 1 .09-.18 2.78 2.78 0 0 1 .88-.56c.31-.07 1.4-.17 1.87-.2.13 0 1.74-.15 2-.15a.31.31 0 0 1 .17.11l.23.26c.17.21.38.49.61.73h-2.82c-1.18 0-2.22 0-2.6.07h-.37zm.11 0h.26c.38 0 1.42-.06 2.6-.07H23.33c-.33-.36-.62-.77-.8-1a.28.28 0 0 0-.14-.1c-.22 0-1.83.14-2 .15-.46 0-1.55.13-1.86.2a2.75 2.75 0 0 0-.86.54.25.25 0 0 0-.08.15.07.07 0 0 0 0 .06h.09z" fill="#7f7f7e"/><path d="M42 33.63a42.42 42.42 0 0 0-3.93-7c-1.94-2.85-5.22-6.72-5.68-7.36s-.62-1.34.31-1.63c.6-.19 2.06-.49 2.66-.66s.62-.35.67-.8a22.56 22.56 0 0 0-.42-4.18 1.18 1.18 0 0 0-.49-.7 12.36 12.36 0 0 1-1.45-1.35 3.4 3.4 0 0 1-.82-1.55.41.41 0 0 0-.22-.27A19.82 19.82 0 0 0 28 6.68a6.84 6.84 0 0 0-3.34 1c-.41.25-.42.55-.71.72s-.95.3-1.59.6c-.38.17-.38.2-.29.41s.28.54.41.54a1.2 1.2 0 0 0 .43-.12A19.89 19.89 0 0 1 25.53 9c1.2-.26 2.48-.28 2.94.21a19.81 19.81 0 0 1 2.28 3.1 1.86 1.86 0 0 1 .08 1.78 20.25 20.25 0 0 1-1.31 2.77c-.25.36-.55.56-1.27.27S24.63 15.34 24 15l-3.5-1.74a6.51 6.51 0 0 0-1.34-.54 6.55 6.55 0 0 0-2.52-.06c-.22 0-.36.39-.35.54s.53.05 1 .08a9.1 9.1 0 0 1 2.22.43c.72.29 4.35 2.24 5.26 2.74 7 3.79 9.95 6.23 15.34 15.28.24.4.36.9 0 1-.55.16-2.85.6-3.54.83s-.66.24-.75.53a4.66 4.66 0 0 0-.21 1.11c0 .05 0 .12.09.12.65 0 3 0 4.75.17.21 0 .23 0 .36-.19a7 7 0 0 1 1.18-1.25c.11-.1.01-.34.01-.42z" fill="url(#m)"/><path d="M40.32 32.29a5.84 5.84 0 0 0-1-1.85c-.6-.94-1.36-2.23-2.37-3.66a28.8 28.8 0 0 0-5.74-6.25 39.61 39.61 0 0 0-4.56-3c-1.25-.73-6.5-3.6-7.32-3.86a8.84 8.84 0 0 0-1.86-.36 8.9 8.9 0 0 0-1 0c-.3 0-.19-.24-.15-.34 0 .07-.21.41.09.41a10.45 10.45 0 0 1 1.06 0 8.88 8.88 0 0 1 2 .45c.73.28 4.16 2.33 5.05 2.83a47.53 47.53 0 0 1 6.61 4.44c2.92 2.35 5.43 5.07 8.59 10.6a1.1 1.1 0 0 1 .19.58.45.45 0 0 1-.34.45c-.54.16-2.77.66-3.43.89s-.66.32-.74.58a3.19 3.19 0 0 1-.23.77.83.83 0 0 1-.64.17c-.17 0-.25 0-.23-.18s.13-.69.19-1a.94.94 0 0 1 .45-.67 10.8 10.8 0 0 1 1.71-.44c.52-.13.55-.37.54-.76 0 .42-.14.52-.67.63a7.57 7.57 0 0 0-1.71.43 1.1 1.1 0 0 0-.44.68 7.36 7.36 0 0 0-.28 1.46c0 .16.08.18.26.16s.63-.08 1.3-.11c.2 0 .19-.24.18-.51a2 2 0 0 1 .06-.53.5.5 0 0 1 .33-.32c.37-.12 2.44-.67 3.5-1 .45-.12.64-.27.6-.69z" fill="url(#n)"/><path d="M26.51 22.59a3.06 3.06 0 0 1 .61.38l.3.22a52.72 52.72 0 0 0-4.13 6 2.54 2.54 0 0 0-.29 1.57c0 .58.08 1.3 0 1.64s-.25.48-.59.58-2.34.42-2.79.55a.8.8 0 0 0-.62.7c-.08.32-.1.53-.14.65s0 .23-.14.24l-.58.06c-.15 0-.17 0-.16-.17a10 10 0 0 1 .25-1.22A.9.9 0 0 1 19 33c.5-.12 2.54-.46 2.92-.53s.56-.27.54-.71-.09-1.08-.1-1.47a2.62 2.62 0 0 1 .14-1.06c.14-.38.87-2 1.47-3.06A39.61 39.61 0 0 1 26 22.81c.2-.2.31-.28.51-.22z" fill="url(#o)"/><path d="M25.33 33.79a1.63 1.63 0 0 1 .34-1A14.41 14.41 0 0 1 27 31.27c1-1.06 3.52-3.5 3.61-3.59s.12-.13 0-.27-.38-.39-.77-.78c-.24-.24-.4-.38-.39-.46a24.15 24.15 0 0 0-3.7 5.44 4.1 4.1 0 0 0-.48 1.71 2 2 0 0 0 .06.47z" style="mix-blend-mode:multiply" fill="url(#p)"/><path d="M16.49 13.33a8.51 8.51 0 0 1 1.09 0 8.57 8.57 0 0 1 2 .47c.27.11.9.45 1.63.87 1.27.72 2.87 1.66 3.43 2a49.2 49.2 0 0 1 5.07 3.27c.53.4 1 .8 1.55 1.21 2.92 2.36 5.33 5 8.53 10.58a1 1 0 0 1 .15.58.46.46 0 0 1-.39.39z" style="mix-blend-mode:multiply" fill="url(#q)"/><path d="M35.59 10.7a.44.44 0 0 1-.26-.09c-.46-.34-1.76-1.35-1.94-2.21-.12-.4 0-.22-.39-.43l-.34-.13.11.06a.77.77 0 0 1 .16.12.6.6 0 0 1 .19.32 3.16 3.16 0 0 0 .77 1.43 12 12 0 0 0 1.45 1.31 1.69 1.69 0 0 1 .32.26 4.74 4.74 0 0 1 .27-.91 1.15 1.15 0 0 1-.08.13.34.34 0 0 1-.26.14z" fill="url(#a)"/><path d="M32.76 17.91c-.43.16-.49.29-.5.51a1.44 1.44 0 0 0 .28.78c.22.32 1.31 1.55 2.52 3.08a4.42 4.42 0 0 0 .31.35c0-.06-1.75-2.22-2.28-2.82a1.13 1.13 0 0 1-.32-.72 1 1 0 0 1 .72-.91c.65-.24 1.83-.62 2.1-.77s.34-.22.38-.4a1.44 1.44 0 0 1-.53.24c-.6.17-2.1.48-2.68.66z" fill="url(#r)"/><path d="M35.95 10.82A2.35 2.35 0 0 1 38.11 9c1.51 0 2.14.57 2.35 1.42a2.1 2.1 0 0 0-2.35-1.55 2.41 2.41 0 0 0-2.16 1.95z" fill="url(#s)"/><path d="M26.13 32.67l1.81-2-.71.72c-1.17 1.19-1.7 1.56-1.67 2.31 0 .44 0 1.52.05 1.68a.28.28 0 0 1-.17.31.78.78 0 0 1-.33 0c-.32 0-3.39-.3-4.47-.3a11.3 11.3 0 0 0-2.56.26.45.45 0 0 1-.42-.13.43.43 0 0 1-.07-.21v.56a12.31 12.31 0 0 1 1.24-.15c.76-.06 1.61 0 2.18 0s4.8.22 4.82.22c0-.33-.07-1.1-.08-1.58v-.47a1.68 1.68 0 0 1 .38-1.22z" fill="url(#b)"/><path d="M34.73 30.7a2.73 2.73 0 0 0 .7.37l-.85-.64-1.94-1.53-1.69-1.35a.38.38 0 0 1-.16.3.61.61 0 0 1 .32.17c.2.21 3.05 2.27 3.62 2.68z" fill="url(#t)"/><path d="M42.29 34.34c.1-.08.14-.07.14-.15a1.13 1.13 0 0 0-.08-.28 40.49 40.49 0 0 0-4.48-8 1.34 1.34 0 0 1-.27-.71.71.71 0 0 1 .28-.56c.12-.1.41-.35.79-.72a4 4 0 0 0-1.05 1 .79.79 0 0 0-.07.32 1.34 1.34 0 0 0 .29.75l.4.57a41.17 41.17 0 0 1 3.89 7.06c.11.32.09.48 0 .62s-1 1.06-1.16 1.25a.94.94 0 0 1-.16.21.64.64 0 0 1-.42.09c-1.52-.14-3.18-.2-4-.2-1.08 0-1.71.1-2.07.11a.56.56 0 0 1-.35-.07v.32a15 15 0 0 1 2.51-.17h1c1.61 0 3.48.2 3.49.2a14.5 14.5 0 0 1 1.32-1.64z" fill="url(#u)"/><path d="M26 22.42c-.48-.34-1-.69-1.46-1a4.31 4.31 0 0 0-1.37-.64h-3c-.85 0-1.66 0-2 .06a6.14 6.14 0 0 0-1 .14h-.1l.05.09h.09a11.21 11.21 0 0 1 2.35-.17h2.75a4.45 4.45 0 0 1 1.86.42c.57.32 1.76 1.15 1.83 1.1z" fill="url(#v)"/><path d="M20.37 17a7.14 7.14 0 0 0-2.27-1.5 3.82 3.82 0 0 0-.63-.07c-.15 0-.14-.19-.19-.22s0 .3.11.31a2 2 0 0 1 .87.12A12.91 12.91 0 0 1 20.12 17c.23.22.45.19.25 0z" fill="url(#w)"/><path d="M16.36 20.58a.62.62 0 0 1 .3.05c-.07-.12-.15-.18-.38-.17A4.5 4.5 0 0 0 15 21c-.2.11-.28.11-.4 0 .06.14.15.22.24.19a5.85 5.85 0 0 1 1.52-.61z" fill="url(#x)"/><path d="M26.15 7.76c.15 0 .29-.06.3.07a.46.46 0 0 1 0 .2.16.16 0 0 1-.11.09l-1.22.45a.14.14 0 0 1-.21-.08.55.55 0 0 1 .05-.34.26.26 0 0 1 .15-.15c.08 0 .81-.2 1.04-.24z" fill="url(#y)"/><path d="M26.13 7.84h.16a.4.4 0 0 1 0 .12l-.07.07-.93.34c-.15.06-.22 0-.23 0a.37.37 0 0 1 0-.21.2.2 0 0 1 .12-.09c.14-.07.76-.2.95-.23z"/><path d="M29.84 16.5c.11-.2.85-1.76 1-2.2a2.34 2.34 0 0 0 .24-.92 2.29 2.29 0 0 0-.22-.93 21.1 21.1 0 0 0-2.2-3.09 1.64 1.64 0 0 0-1.56-.57A12.31 12.31 0 0 0 22.67 10a14.59 14.59 0 0 1 4-1c1-.06 1.37 0 1.73.43a21.1 21.1 0 0 1 2.16 3 1.6 1.6 0 0 1 .22.87 2.79 2.79 0 0 1-.28.91c-.19.43-.88 1.84-1 2-.5.87-1 .84-1.5.72l.48.21c.64.35 1.01.01 1.36-.64z" fill="url(#z)"/><path d="M27.57 23.3l-.23-.16a33 33 0 0 0-2.44 3.32c-.67 1.06-1.63 2.65-1.78 3a2.4 2.4 0 0 0-.19 1l.05 1.73a.77.77 0 0 1-.14.52.82.82 0 0 1-.53.23c-.4.06-2.27.35-2.78.45a1 1 0 0 0-.82.67 3.47 3.47 0 0 0-.17.82.56.56 0 0 0 0 .1c0 .19.05.18.05.18A33.32 33.32 0 0 1 22 35c1.29.08 3.07.24 3.07.24s-1.87-.35-3.14-.43-3 .06-3 0a.81.81 0 0 1 0-.29c0-.1 0-.22.08-.34a.87.87 0 0 1 .72-.71c.47-.12 2.29-.42 2.63-.5s.56-.21.61-.49a3.78 3.78 0 0 0 0-.45c0-.36-.06-1.33-.06-1.39a2.52 2.52 0 0 1 .43-1.56 50.39 50.39 0 0 1 4-5.66c.07-.08.1-.14.23-.12z" fill="url(#A)"/></g></g></svg>