<svg xmlns="http://www.w3.org/2000/svg" width="20mm" height="15mm" viewBox="0 0 56.69 42.52"><defs><style>.cls-10,.cls-11,.cls-18,.cls-20{fill:none}.cls-2,.cls-5{fill:#1a1a1a}.cls-3{fill:#8c8c8c}.cls-10,.cls-18,.cls-5{stroke:#f2f2f2}.cls-10,.cls-5{stroke-width:.12px}.cls-11,.cls-18,.cls-20{stroke-width:.16px}.cls-11,.cls-20{stroke:#1a1a1a}.cls-20{stroke-linecap:square}</style><linearGradient id="linear-gradient" x1="10.51" y1="18.37" x2="36.62" y2="18.37" gradientUnits="userSpaceOnUse"><stop offset="0" stop-color="#8c8c8c"/><stop offset="1" stop-color="#4d4d4d"/></linearGradient><linearGradient id="linear-gradient-2" x1="17.06" y1="11.74" x2="39.63" y2="30.67" gradientUnits="userSpaceOnUse"><stop offset="0" stop-color="#e0e0e0"/><stop offset=".15" stop-color="#939393"/><stop offset=".17" stop-color="#9f9f9f"/><stop offset=".24" stop-color="#c1c1c1"/><stop offset=".3" stop-color="#dcdcdc"/><stop offset=".37" stop-color="#f0f0f0"/><stop offset=".44" stop-color="#fbfbfb"/><stop offset=".51" stop-color="#fff"/><stop offset=".58" stop-color="#fbfbfb"/><stop offset=".64" stop-color="#f0f0f0"/><stop offset=".7" stop-color="#dcdcdc"/><stop offset=".76" stop-color="#c1c1c1"/><stop offset=".82" stop-color="#9e9e9e"/><stop offset=".85" stop-color="#8c8c8c"/><stop offset="1" stop-color="#fafafa"/></linearGradient><linearGradient id="linear-gradient-3" x1="13.39" y1="28.17" x2="43.05" y2="28.17" gradientUnits="userSpaceOnUse"><stop offset=".01" stop-color="#1a1a1a"/><stop offset=".01" stop-color="#282828"/><stop offset=".03" stop-color="#5d5d5d"/><stop offset=".05" stop-color="#888"/><stop offset=".06" stop-color="#a6a6a6"/><stop offset=".07" stop-color="#b8b8b8"/><stop offset=".08" stop-color="#bfbfbf"/><stop offset=".14" stop-color="#999"/><stop offset=".21" stop-color="#787878"/><stop offset=".28" stop-color="#5a5a5a"/><stop offset=".36" stop-color="#434343"/><stop offset=".45" stop-color="#303030"/><stop offset=".56" stop-color="#242424"/><stop offset=".7" stop-color="#1c1c1c"/><stop offset="1" stop-color="#1a1a1a"/></linearGradient><linearGradient id="linear-gradient-4" x1="13.66" y1="14.3" x2="43.32" y2="14.3" gradientUnits="userSpaceOnUse"><stop offset="0" stop-color="#e0e0e0"/><stop offset=".12" stop-color="#dbdbdb"/><stop offset=".26" stop-color="#cbcbcb"/><stop offset=".42" stop-color="#b2b2b2"/><stop offset=".59" stop-color="#8f8f8f"/><stop offset=".77" stop-color="#626262"/><stop offset=".84" stop-color="#4d4d4d"/><stop offset="1" stop-color="#1a1a1a"/></linearGradient><linearGradient id="linear-gradient-5" x1="14.05" y1="27.85" x2="42.41" y2="27.85" gradientUnits="userSpaceOnUse"><stop offset="0" stop-color="#fff"/><stop offset="0" stop-color="#ececec"/><stop offset="0" stop-color="#dbdbdb"/><stop offset="0" stop-color="#d0d0d0"/><stop offset="0" stop-color="#c9c9c9"/><stop offset=".01" stop-color="#c7c7c7"/><stop offset=".18" stop-color="#c9c9c9"/><stop offset=".28" stop-color="#d2d2d2"/><stop offset=".36" stop-color="#e0e0e0"/><stop offset=".43" stop-color="#f4f4f4"/><stop offset=".47" stop-color="#fff"/><stop offset=".64" stop-color="#fdfdfd"/><stop offset=".73" stop-color="#f5f5f5"/><stop offset=".81" stop-color="#e7e7e7"/><stop offset=".87" stop-color="#d4d4d4"/><stop offset=".92" stop-color="#bcbcbc"/><stop offset=".98" stop-color="#9d9d9d"/><stop offset="1" stop-color="#8c8c8c"/></linearGradient><linearGradient id="linear-gradient-6" x1="17.75" y1="10.3" x2="42.61" y2="22.35" gradientUnits="userSpaceOnUse"><stop offset=".01" stop-color="#c7c7c7"/><stop offset=".02" stop-color="#d2d2d2"/><stop offset=".05" stop-color="#ddd"/><stop offset=".09" stop-color="#e0e0e0"/><stop offset=".1" stop-color="#e9e9e9"/><stop offset=".12" stop-color="#f6f6f6"/><stop offset=".14" stop-color="#fdfdfd"/><stop offset=".2" stop-color="#fff"/><stop offset=".71" stop-color="#8c8c8c"/><stop offset="1" stop-color="#8c8c8c"/></linearGradient><linearGradient id="linear-gradient-7" x1="41.77" y1="15.02" x2="15.16" y2="15.02" gradientUnits="userSpaceOnUse"><stop offset="0" stop-color="#e0e0e0"/><stop offset="0" stop-color="#e0e0e0"/><stop offset=".01" stop-color="#e0e0e0"/><stop offset=".18" stop-color="#c2c2c2"/><stop offset=".57" stop-color="#757575"/><stop offset="1" stop-color="#1a1a1a"/></linearGradient><linearGradient id="linear-gradient-8" x1="41.5" y1="27.49" x2="14.94" y2="27.49" gradientUnits="userSpaceOnUse"><stop offset="0" stop-color="#1a1a1a"/><stop offset=".02" stop-color="#303030"/><stop offset=".06" stop-color="#656565"/><stop offset=".1" stop-color="#919191"/><stop offset=".15" stop-color="#b3b3b3"/><stop offset=".18" stop-color="#ccc"/><stop offset=".22" stop-color="#dbdbdb"/><stop offset=".25" stop-color="#e0e0e0"/><stop offset=".36" stop-color="#dcdcdc"/><stop offset=".47" stop-color="#d0d0d0"/><stop offset=".57" stop-color="#bdbdbd"/><stop offset=".68" stop-color="#a1a1a1"/><stop offset=".78" stop-color="#7e7e7e"/><stop offset=".89" stop-color="#535353"/><stop offset=".99" stop-color="#202020"/><stop offset="1" stop-color="#1a1a1a"/></linearGradient></defs><g id="Слой_2" data-name="Слой 2"><g id="Слой_1-2" data-name="Слой 1"><path fill="none" d="M0 0h56.69v42.52H0z"/><path class="cls-2" d="M34.5 18.34l2.12-.73-4.89 3.6-1.87.56 4.64-3.43z"/><path class="cls-3" d="M47.4 22.11l-1.19.6-16.35-.94 1.87-.56 15.67.9z"/><path class="cls-2" d="M46.19 23.95l-26.3.86 2.13-.74 23.8-.78.37.66z"/><path class="cls-3" d="M19.89 24.81l2.13-.74 4.65-3.42-1.88.56-4.9 3.6z"/><path class="cls-2" d="M26.67 20.65l-1.88.56-15.5-.9 1.19-.6 16.19.94z"/><path class="cls-3" d="M10.51 18.47l.36.65-.39.59-1.19.6 1.22-1.84z"/><path fill="url(#linear-gradient)" d="M10.51 18.47l.36.65 23.63-.78 2.12-.73"/><path class="cls-5" d="M31.73 21.21l-1.87.56 4.64-3.43"/><path stroke-width=".16" stroke="#f2f2f2" fill="#8c8c8c" d="M47.4 22.11l-1.19.6-16.35-.94"/><path stroke-width=".16" stroke="#f2f2f2" fill="#1a1a1a" d="M19.89 24.81l2.13-.74 23.8-.78.37.66"/><path class="cls-2" d="M46.19 23.95l-.37-.66.39-.58 1.19-.6"/><path fill="#c2c2c2" stroke-width=".12" stroke="#f2f2f2" d="M19.89 24.81l2.13-.74 4.65-3.42-1.88.56"/><path d="M10.87 19.12l-.39.59 16.18.94L22 24.07l23.81-.78.39-.59-16.35-.94 4.64-3.42z" fill="url(#linear-gradient-2)"/><path class="cls-5" d="M9.29 20.31l1.19-.6 16.19.94-2.08.62"/><path class="cls-10" d="M10.51 18.47l.36.65-.39.59-1.19.6"/><path class="cls-10" d="M10.51 18.47l.36.65 23.63-.78 2.12-.73"/><path class="cls-11" d="M36.62 17.58l-26.13.86-1.25 1.9 15.46.9-4.9 3.61L46.21 24l1.25-1.9-15.63-.9 4.89-3.61z"/><path d="M42.42 23.8a14.3 14.3 0 0 1-28.32-3.64l-.69.38A15 15 0 0 0 43.05 24z" fill="url(#linear-gradient-3)"/><path d="M43.31 21.87a15 15 0 0 0-29.65-3.51l.61.36a14.3 14.3 0 0 1 28.33 3.63z" fill="url(#linear-gradient-4)"/><path d="M41.5 23.87A13.41 13.41 0 0 1 15 20.35l-.88-.18a14.3 14.3 0 0 0 28.32 3.62z" fill="url(#linear-gradient-5)"/><path d="M42.61 22.35a14.3 14.3 0 0 0-28.33-3.63l.89.07a13.41 13.41 0 0 1 26.56 3.45z" fill="url(#linear-gradient-6)"/><path d="M41.73 22.25v-1a13.41 13.41 0 0 0-26.61-2.41l.79-.52a12.75 12.75 0 0 1 25.19 2.89v.75z" fill="url(#linear-gradient-7)"/><path d="M40.76 24.15a12.75 12.75 0 0 1-25.15-2.94v-.61l-.61-.25v.86a13.41 13.41 0 0 0 26.5 2.66z" fill="url(#linear-gradient-8)"/><path class="cls-18" d="M42.61 22.35v-1.14a14.3 14.3 0 0 0-28.38-2.49M14.09 20.18v1a14.3 14.3 0 0 0 28.33 2.62"/><path d="M15.16 18.81a13.41 13.41 0 0 1 26.61 2.41v1" stroke-linejoin="bevel" stroke-linecap="square" stroke-width=".16" stroke="#f2f2f2" fill="none"/><path class="cls-18" d="M15 20.36v.86a13.41 13.41 0 0 0 26.5 2.65"/><path class="cls-11" d="M13.4 20.55l.69-.38.87.19.65.26v.6a12.75 12.75 0 0 0 25.15 3l.75-.3.92-.08.63.25"/><path class="cls-20" d="M43 24.07a15 15 0 0 1-29.66-2.85v-.64"/><path class="cls-10" d="M41.06 21.93l.64.32.9.1.72-.51"/><path class="cls-11" d="M41.09 21.71v.26"/><path stroke-linejoin="bevel" stroke-linecap="square" stroke-width=".12" stroke="#f2f2f2" fill="none" d="M15.94 18.28l-.76.55-.91-.1-.61-.4"/><path class="cls-11" d="M15.94 18.29a12.75 12.75 0 0 1 25.16 2.92v.5"/><path class="cls-20" d="M13.66 18.33a15 15 0 0 1 29.65 2.88v.63"/></g></g></svg>