<svg xmlns="http://www.w3.org/2000/svg" width="20mm" height="15mm" viewBox="0 0 56.69 42.52"><defs><linearGradient id="a" data-name="Безымянный градиент 60" x1="28.22" y1="6.33" x2="28.47" y2="36.27" gradientUnits="userSpaceOnUse"><stop offset="0" stop-color="#fff"/><stop offset="0" stop-color="#e3e3e3"/><stop offset=".01" stop-color="#bfbfbf"/><stop offset=".01" stop-color="#9f9f9f"/><stop offset=".02" stop-color="#838383"/><stop offset=".03" stop-color="#6d6d6d"/><stop offset=".04" stop-color="#5c5c5c"/><stop offset=".05" stop-color="#515151"/><stop offset=".06" stop-color="#4a4a4a"/><stop offset=".11" stop-color="#484848"/><stop offset=".12" stop-color="#3e3e3e"/><stop offset=".16" stop-color="#282828"/><stop offset=".2" stop-color="#161616"/><stop offset=".25" stop-color="#090909"/><stop offset=".32" stop-color="#020202"/><stop offset=".49"/><stop offset=".6" stop-color="#040404"/><stop offset=".72" stop-color="#121212"/><stop offset=".85" stop-color="#272727"/><stop offset=".93" stop-color="#393939"/></linearGradient><linearGradient id="b" x1="14.78" y1="21.21" x2="41.91" y2="21.21" gradientUnits="userSpaceOnUse"><stop offset=".02" stop-color="#888"/><stop offset=".05" stop-color="#9f9f9f"/><stop offset=".1" stop-color="#bdbdbd"/><stop offset=".15" stop-color="#d5d5d5"/><stop offset=".21" stop-color="#e8e8e8"/><stop offset=".27" stop-color="#f5f5f5"/><stop offset=".36" stop-color="#fdfdfd"/><stop offset=".53" stop-color="#fff"/><stop offset=".64" stop-color="#fcfcfc"/><stop offset=".72" stop-color="#f2f2f2"/><stop offset=".79" stop-color="#e2e2e2"/><stop offset=".86" stop-color="#cacaca"/><stop offset=".92" stop-color="#adadad"/><stop offset=".98" stop-color="#888"/><stop offset=".98" stop-color="#888"/></linearGradient></defs><g data-name="Слой 2"><g data-name="Слой 1"><path fill="none" d="M0 0h56.69v42.52H0z"/><path d="M28.35 36.27a15.06 15.06 0 1 1 15-15.06 15 15 0 0 1-15 15.06zm0-28.5a13.44 13.44 0 1 0 13.34 13.44A13.41 13.41 0 0 0 28.35 7.77zm1.18 25.58L36 12.19h-3l-4.6 17.69-4.95-17.67h-2.76L27 33.33 25.66 33a12.15 12.15 0 0 1-6-20.15l.62-.66h-.5l2.62-1.51a11.95 11.95 0 0 1 11.92 0l2.64 1.51h-.51l.6.63a12.16 12.16 0 0 1-6.15 20.25zM36.78 15l-4.87 16a10.55 10.55 0 0 0 4.87-16zm-16.9.07A10.55 10.55 0 0 0 24.64 31zm5-3.81l3.39 12.31 3.23-12.41a10.41 10.41 0 0 0-6.62.15z" fill="url(#a)"/><path d="M28.35 34.87a13.66 13.66 0 1 1 13.56-13.66 13.62 13.62 0 0 1-13.56 13.66zm1.49-1.8l1-.21a11.94 11.94 0 0 0 6-19.89l-.7-.74zM19.78 13a11.94 11.94 0 0 0 5.93 19.8l1 .23-6.22-20.76zm8.54 16l4.44-17h3.37l-1.94-1.11a11.73 11.73 0 0 0-11.71 0L20.55 12h3.07z" fill="url(#b)"/><path d="M28.35 8.16a12.89 12.89 0 0 1 9.37 4l-1.67-1-.16-.16v.06l-1.39-.8a12.33 12.33 0 0 0-12.3 0l-1.39.81V11l-.16.17-1.66 1a12.89 12.89 0 0 1 9.41-4.08m9.71 4.41a13 13 0 1 1-19.44 0h.75a12.53 12.53 0 0 0 6.16 20.9l2 .46-.59-2-5.64-18.77-.15-.49h2l4 14.47 1.18 4.29L29.45 27l3.77-14.48h2.22l-.14.48-5.74 18.9-.56 1.96 2-.42a12.54 12.54 0 0 0 6.36-20.87h.75M28.35 7A14.25 14.25 0 1 0 42.5 21.21 14.23 14.23 0 0 0 28.35 7zm-5.58 4.4a11.14 11.14 0 0 1 11.12 0H32.3l-4 15.37-4.23-15.37zm7.93 20.87l5.74-18.9a11.35 11.35 0 0 1-5.74 18.9zm-4.86 0a11.34 11.34 0 0 1-5.63-18.81l5.63 18.81z" fill="#939598"/></g></g></svg>