<svg xmlns="http://www.w3.org/2000/svg" width="20mm" height="15mm" viewBox="0 0 56.69 42.52"><defs><style>.cls-1{fill-rule:evenodd}</style></defs><g id="Слой_2" data-name="Слой 2"><g id="Слой_1-2" data-name="Слой 1"><g id="_3_столбик" data-name="3 столбик"><path class="cls-1" d="M18 21.54c0 3.83-1.76 5.29-5.29 5.29s-5.14-2-5.14-5v-1.9h3.88v1.56c0 1.06 0 2.06 1.16 2.06s1.06-1.36 1.06-2v-8.87H18v8.86zM21.85 20.33a1.7 1.7 0 0 1 1.76-1.66 1.59 1.59 0 0 1 1.56 1.66zm6.7 2c0-3.93-1.61-6.14-5.24-6.14-2.92 0-4.83 2.37-4.83 5.29a4.9 4.9 0 0 0 5.14 5.29 4.67 4.67 0 0 0 4.73-3.17h-3.28a1.79 1.79 0 0 1-1.46.7c-1.11 0-1.71-.81-1.81-2zM32.17 20.33a1.7 1.7 0 0 1 1.76-1.66 1.59 1.59 0 0 1 1.56 1.66zm6.7 2c0-3.93-1.61-6.14-5.24-6.14-2.92 0-4.83 2.37-4.83 5.29a4.9 4.9 0 0 0 5.14 5.29 4.71 4.71 0 0 0 4.73-3.17H35.4a1.79 1.79 0 0 1-1.46.7c-1.11 0-1.71-.81-1.81-2zM42.6 21.49c0-1.21.25-2.47 1.51-2.47s1.56 1.26 1.56 2.47-.3 2.51-1.56 2.51-1.51-1.31-1.51-2.47zm-3.37 8.26h3.47v-4.33h.05a2.87 2.87 0 0 0 2.52 1.36c3.07 0 3.88-2.87 3.88-5.24 0-2.52-1.21-5.34-3.83-5.34a2.8 2.8 0 0 0-2.72 1.36v-1.1h-3.38v13.29zM47.58 28A.71.71 0 1 1 49 28a.71.71 0 0 1-1.41 0zm-.2 0a.89.89 0 0 0 .91.86.88.88 0 0 0 .86-.86.85.85 0 0 0-.86-.86.86.86 0 0 0-.91.86zm.55.5h.15V28h.2l.25.45h.2l-.3-.45c.15 0 .25-.1.25-.3s-.1-.25-.35-.25h-.4v1zm.15-.91h.25c.1 0 .2.05.2.15s-.15.2-.25.2h-.2v-.35z"/></g><path fill="none" d="M0 0h56.69v42.52H0z"/></g></g></svg>