<svg xmlns="http://www.w3.org/2000/svg" height="81.006" width="332.999"><path d="M51.811.113C38.5-.403 26.411.792 17.548 4.88 6.8 10.064 2.445 16.643.822 24.43c-1.23 5.85-1.256 31.675 1.141 37.113C4.03 66.199 13 71.986 17.611 74.15a83.024 83.024 0 0 0 25.463 6.856c-7.19-2.177-31.6-7.9-39.108-19.488-.964-1.484-.38-2.277.19-2.478 1.471-.5.723 3.145 4.172 2.529 1.8 1.988 2.371 5.372 4.3 4.642 3.056-1.183 2.486-.44 3.982 1.61 2.9 3.988 4.1-.78 6.38 1.95a30.571 30.571 0 0 0 2.9 3.258c2.916-2.327.735-.931-1.485-3.95-3.31-4.491-4.337 1.208-7.063-3.032-1.408-2.214-1.28-3.258-3.7-2.277-2.878 1.17-2.688-4.4-5.072-4.378-2.27.014-1.57.768-3.47-1.686-1.56-2.013-1.84.944-2.13-.038a36.513 36.513 0 0 1-.22-4.352c1.331-2.063 1.888 3.56 4.272 2.554 4.16-1.723 2.3 5.259 6.353 4.454 3.221-.642 2.562.554 4.311 3.309 1.522 2.378 3.69-2.177 6.974 2.315 1 1.384 2.511 1.962 3.3-.038.28-.68-1.255-.126-2.84-1.95-2.232-2.566-1.686-2.617-4.933-1.912-3.335.73-.976-3.85-6.467-3.7-3.487.1-3.107-5.31-5.795-4.491-3.208.994-1.775-2.491-3.627-2.868-.938-.2-1.7-1.623-1.674-3.41.013-.968 1.395-2.276 2.283.215.241.654 1.522 3.435 2.3 3.17 4.59-1.573 1.953 4.755 6.974 3.938 4.87-.805 1.94 4.743 6.708 3.61 4.73-1.131 4.464 4.593 6.645 3.083 1.433-1.007-.95-1.875-2.016-3.347-2.942-4.013-4.882.717-7.076-3.045-2.663-4.542-1.47-2.315-4.375-2.58-3.487-.326-1.243-4.754-5.58-3.937-1.763.34-1.889-2.353-2.942-4.177-.6-1.044-.6-.856-2.13-.68-.583.063-.469.164-.659-.906-.33-1.8 1.737-3.41 3.018-.163.964 2.44.545 3.32 3.07 2.654 3.157-.83 2.6 5.27 5.186 4.353 4.438-1.56 2.815 3.7 8.826 2.83 2.587-.364 2.8 3.95 4.755 3.75 1.053-.113 1.015-.994.152-1.774-1.369-1.246-1.408-1.673-2.384-2.63-2.752-2.68-4.388 1.6-6.378-2.29-2.308-4.528-2.739-1.471-5.02-2.29-2.385-.854-.7-5.2-4.908-4.088-2.726.717-1.37-6.366-4.692-4.818-1.2.566-1.167-.1-1.446-1.522-.609-3.17.786-12.254 1.9-15.588C8.278 11.07 16.75 7.257 26.551 4.365 43.074.087 66.483.113 81.611 8.665a61.28 61.28 0 0 1 3.26 2.015 43.828 43.828 0 0 1 6.3 5.158c3.144 2.856-3.514-4.152-3.957-4.517C76.234 2.779 65.24.93 51.811.113zm-7.469 58.349a2.305 2.305 0 0 1-1.268 1.144 2.434 2.434 0 0 1-.52.138c-1.255.1-1.978-1.51-3.2-2a1.155 1.155 0 0 0-.127-.063 3.125 3.125 0 0 0-1.445.063c-.85.176-.355-.491-.025-.805.431-.4 1.23-1.183 1.864-.805.66.39 1.116 1.6 2.054 2.1a5.559 5.559 0 0 0 2.447-.038c.28-.025.3-.012.216.264zm0 5.888a2.306 2.306 0 0 1-1.268 1.145 3.491 3.491 0 0 1-.52.126c-1.255.1-1.978-1.5-3.2-2a1.311 1.311 0 0 0-.127-.05 2.966 2.966 0 0 0-1.445.063c-.85.176-.355-.491-.025-.818.431-.39 1.23-1.183 1.864-.805.66.4 1.116 1.6 2.054 2.114a5.751 5.751 0 0 0 2.447-.038c.28-.038.3-.025.216.264zm0 5.875a2.305 2.305 0 0 1-1.268 1.145 2.4 2.4 0 0 1-.52.126c-1.255.113-1.978-1.5-3.2-2a.886.886 0 0 1-.127-.05 3.129 3.129 0 0 0-1.445.063c-.85.176-.355-.491-.025-.805.431-.4 1.23-1.183 1.864-.805.66.39 1.116 1.6 2.054 2.1a5.754 5.754 0 0 0 2.447-.038c.28-.038.3-.013.216.264zm0 5.888a2.306 2.306 0 0 1-1.268 1.145 3.491 3.491 0 0 1-.52.126c-1.255.1-1.978-1.51-3.2-2a.378.378 0 0 0-.127-.05 3.122 3.122 0 0 0-1.445.05c-.85.176-.355-.491-.025-.805.431-.4 1.23-1.183 1.864-.805.66.4 1.116 1.6 2.054 2.114a5.754 5.754 0 0 0 2.447-.038c.28-.038.3-.025.216.264zm-7.887-19.878A2.281 2.281 0 0 1 35.2 57.38a2.6 2.6 0 0 1-.52.126c-1.927.164-1.763-2.6-4.78-1.988-.838.176-.356-.491-.026-.805.431-.4 1.23-1.182 1.864-.805 1.661.982 2.03 2.378 4.5 2.063.28-.038.3-.025.216.264zm0 5.875a2.282 2.282 0 0 1-1.256 1.145 2.669 2.669 0 0 1-.52.139c-1.065.088-1.623-.843-2.422-1.41a1.841 1.841 0 0 0-1.9-.565c-.723.075-.533-.39-.469-.566a1.34 1.34 0 0 1 1.23-.805 5.254 5.254 0 0 1 1.915.755 3.943 3.943 0 0 0 3.206 1.043c.28-.038.3-.013.216.264zm0 5.888a2.282 2.282 0 0 1-1.256 1.145 2.61 2.61 0 0 1-.52.126c-1.154.1-1.85-1.107-2.853-1.635a1.037 1.037 0 0 0-1.015-.315 2.145 2.145 0 0 1-.925-.313c-.418-.012.177-.717.61-.805.57-.1 1.305-.478 1.89-.025.988.78 2.244 1.9 3.854 1.56.28-.063.3-.025.216.264zm0 5.875a2.282 2.282 0 0 1-1.256 1.145 1.956 1.956 0 0 1-.52.126c-1.255.126-2.067-1.36-3.284-1.862a1.333 1.333 0 0 0-.127-.05 2.67 2.67 0 0 0-1.37-.075c-.837.176-.355-.491-.025-.805.431-.4 1.293-1.27 1.864-.8 1.18.956 2.7 2.5 4.5 2.063.28-.063.3-.013.216.264zm51.217-39.214c2.88-5.926 1.636-12.38-3.3-17.525-18.003-18.796-70.64-13.26-70.857 9.872-.24 24.7 63.38 29.867 74.157 7.649zM26.665 14.316c10.107-5.46 20.95-6.404 32.134-4.894a41.657 41.657 0 0 1 16.7 5.573 31.264 31.264 0 0 1 7.076 5.91c4.2 4.895 4.82 10.92.38 15.639A29.013 29.013 0 0 1 71.8 43.566c-13.128 4.894-31.286 2.919-43.79-2.44-7.62-3.51-13.91-9.763-9.637-18.657a18.432 18.432 0 0 1 8.293-8.152z" fill="#00eaff" fill-rule="evenodd"/><path d="M199.926 19.852c2.177-3.036 5.03-3.278 8.532-3.278h11.394l1.28-8.117h-14.7a15.864 15.864 0 0 0-12.54 5.4c-3.682 4.206-5.065 10.48-5.933 16.06-.819 5.214-1.313 11.126 1.234 15.442 2.758 4.66 7.522 5.2 10.865 5.2h15.031l1.26-8.117h-12.587c-4.282 0-6.3-.882-7.176-3.136-.687-1.8-.69-4.8-.013-9.172.76-4.86 1.856-8.221 3.353-10.282zM171.6 8.006c-3.8 0-5.5 1.866-7.146 5.09l-19.03 37.46h9.04l4.976-10.111h14.61l1.874 10.11h8.821l-7.3-37.187c-.776-3.862-2.414-5.362-5.845-5.362zm-1.379 10.243l2.652 14.716h-9.919zm-19.086-9.79h-8.457l-5.049 32.37-.023.16a2.95 2.95 0 0 1-.345 1.239.667.667 0 0 1-.7.21h-9.679l5.288-33.98h-8.457l-5.3 33.98h-9.967a2.993 2.993 0 0 1-.425-.02 2.86 2.86 0 0 1 .051-1.034l5.135-32.926h-8.458l-5.582 35.8a5.8 5.8 0 0 0 .7 4.55 4.6 4.6 0 0 0 3.915 1.752h35.528a5.762 5.762 0 0 0 4.26-1.626 7.818 7.818 0 0 0 1.946-4.348zm161.007 20.687c.1-.69 1.442-1.99 1.943-2.474L333 8.457h-10.876L306.791 23.73a11.307 11.307 0 0 0-1.976 2.634l2.793-17.908h-8.458l-6.564 42.1h8.458l3-19.253a8.8 8.8 0 0 0 1.618 3.469l11.711 15.784H328.1l-14.585-18.551c-.49-.641-1.515-1.975-1.373-2.86zm-78.614-9.295c2.177-3.036 5.03-3.278 8.532-3.278h11.4l1.28-8.117h-14.7a15.865 15.865 0 0 0-12.542 5.4c-3.68 4.206-5.064 10.48-5.932 16.06-.819 5.214-1.313 11.125 1.235 15.442 2.757 4.66 7.521 5.2 10.865 5.2H248.7l1.26-8.117h-12.595c-4.283 0-6.3-.882-7.176-3.136-.687-1.8-.692-4.8-.014-9.172.761-4.86 1.857-8.22 3.353-10.281zM287.21 8.006c-2.85 0-4.73 1.288-7.18 4.925l-16.88 25.289 4.786-29.762h-8.478l-5.37 34.482c-.23 1.485-.71 4.575.933 6.5a4.958 4.958 0 0 0 3.98 1.566c3.95 0 5.582-2.436 6.782-4.227l17.514-25.93-4.827 29.7h8.48l5.314-34.128c.221-1.413.735-4.722-1.04-6.8a5 5 0 0 0-4.014-1.615zM57.78 77.588l.936-5.318h7.006a4.322 4.322 0 0 0 2.414-.73c1.345-.964 1.812-2.894 2.028-4.116.223-1.265.414-2.96-.438-3.945a3.5 3.5 0 0 0-2.81-.9H59.8a2.692 2.692 0 0 0-1.789.579 2.5 2.5 0 0 0-.807 1.672L54.96 77.588zm1.332-7.57l.755-4.287a1.082 1.082 0 0 1 .317-.708.935.935 0 0 1 .7-.193h4.55a2.144 2.144 0 0 1 1.661.515 2.865 2.865 0 0 1 .172 2.058 3.938 3.938 0 0 1-.854 2.058 2.582 2.582 0 0 1-1.935.558zm9.262 7.57h2.97l2.184-3.8h7.2l.87 3.8h2.97l-3.268-13.482a1.873 1.873 0 0 0-2.159-1.7 2.772 2.772 0 0 0-2.755 1.7zm9.766-11.922a1.192 1.192 0 0 1 .537-.622.749.749 0 0 1 .318.622l1.36 6.11h-5.747zm7.92 11.922h7.731a7.07 7.07 0 0 0 3.31-.6 4.521 4.521 0 0 0 1.946-3.41 4.7 4.7 0 0 0 0-2.443 1.9 1.9 0 0 0-1.769-1.115l.015-.086a3.4 3.4 0 0 0 1.377-.665 3.908 3.908 0 0 0 1.32-2.637 3.835 3.835 0 0 0-.369-3.131 3.543 3.543 0 0 0-2.977-.922h-7.86l-.4 2.25h7.22a1.757 1.757 0 0 1 1.245.323 1.874 1.874 0 0 1 .193 1.694 2.671 2.671 0 0 1-.632 1.56 3.165 3.165 0 0 1-2.048.472H87.89l-.4 2.25h6.835a2.2 2.2 0 0 1 1.637.408 1.991 1.991 0 0 1 .236 1.694 2.329 2.329 0 0 1-1.047 1.823 5.162 5.162 0 0 1-1.822.279h-6.874zm30.706-15.01h-10.55a2.429 2.429 0 0 0-1.616.558 2.709 2.709 0 0 0-.8 1.63l-1.9 10.828a1.886 1.886 0 0 0 .16 1.394 1.542 1.542 0 0 0 1.39.6h8.074a3.893 3.893 0 0 0 2.736-.986 5.95 5.95 0 0 0 1.405-3.366 5.036 5.036 0 0 0-.2-3.26 2.685 2.685 0 0 0-2.452-1.114H105.9l.547-3.11a1.206 1.206 0 0 1 .346-.75 1.5 1.5 0 0 1 .821-.171h8.757zM105.5 71.113h5.7a1.772 1.772 0 0 1 1.381.407 1.947 1.947 0 0 1 .183 1.63 2.925 2.925 0 0 1-.758 1.758 2.145 2.145 0 0 1-1.549.429h-4.529a1.182 1.182 0 0 1-1.019-.28 1.505 1.505 0 0 1 .041-.835zm22.531-8.706c-1.816 0-4.293 0-6.239 1.587-1.895 1.544-2.443 4.052-2.8 6.089-.3 1.694-.778 4.417.658 6.089 1.365 1.587 3.907 1.587 5.68 1.587 1.687 0 4.357 0 6.238-1.587 1.907-1.608 2.476-4.481 2.76-6.09.347-1.972.636-4.588-.616-6.088-1.345-1.587-3.95-1.587-5.68-1.587zm-6.13 7.677c.4-2.294.963-3.41 1.693-4.16a5.166 5.166 0 0 1 4.024-1.265c1.24 0 2.855.043 3.6 1.265.448.729.6 1.908.208 4.16a7.792 7.792 0 0 1-1.668 4.138 5.192 5.192 0 0 1-4.058 1.285c-1.688 0-2.9-.15-3.576-1.287-.476-.791-.606-1.992-.224-4.136zm17.133 7.5l.935-5.318h7.006a4.323 4.323 0 0 0 2.414-.73c1.345-.964 1.812-2.894 2.027-4.116.223-1.265.414-2.96-.437-3.945a3.5 3.5 0 0 0-2.81-.9h-7.113a2.694 2.694 0 0 0-1.79.579 2.509 2.509 0 0 0-.807 1.672l-2.245 12.758zm1.332-7.57l.754-4.287a1.087 1.087 0 0 1 .317-.708.936.936 0 0 1 .7-.193h4.55a2.145 2.145 0 0 1 1.661.515 2.865 2.865 0 0 1 .171 2.058 3.931 3.931 0 0 1-.853 2.058 2.583 2.583 0 0 1-1.935.558h-5.36zm12.465 7.57h2.82l2.641-15.01h-2.819zm14.311 0l-5.957-6.325a1.929 1.929 0 0 1-.719-1.372 2.56 2.56 0 0 1 .994-1.158l7.533-6.154h-3.48l-6.65 5.618a2.96 2.96 0 0 0-1.11 1.694 2.278 2.278 0 0 0 .686 1.93l5.136 5.768h3.567zm-.214 0h2.97l2.184-3.8h7.2l.87 3.8h2.968l-3.272-13.477a1.872 1.872 0 0 0-2.158-1.7 2.771 2.771 0 0 0-2.754 1.694zm9.766-11.922a1.2 1.2 0 0 1 .537-.622.751.751 0 0 1 .318.622l1.36 6.11h-5.747zm28.4 11.922l2.2-12.48c.132-.75.433-2.7-1.81-2.7-1.025 0-1.748.344-2.793 1.673l-7.767 9.906a.981.981 0 0 1-.489.472c-.278 0-.2-.343-.136-.686l2.034-11.193h-2.819l-2.225 12.61c-.15.859-.41 2.574 1.747 2.574a2.946 2.946 0 0 0 2.62-1.415l7.906-9.97a1.777 1.777 0 0 1 .676-.686c.193 0 .17.257.127.493l-2.093 11.407h2.82zm19.686-15.01h-2.82l-1.083 6.155H213.1l1.083-6.154h-2.819l-2.642 15.009h2.82l1.162-6.6h7.775l-1.163 6.6h2.82zm10.92-.167c-1.815 0-4.293 0-6.238 1.587-1.895 1.544-2.443 4.052-2.8 6.089-.3 1.694-.777 4.417.658 6.089 1.366 1.587 3.908 1.587 5.68 1.587 1.688 0 4.358 0 6.24-1.587 1.905-1.608 2.475-4.481 2.758-6.09.347-1.972.637-4.588-.616-6.088-1.346-1.587-3.952-1.587-5.682-1.587zm-6.135 7.676c.4-2.294.963-3.41 1.693-4.16a5.17 5.17 0 0 1 4.025-1.265c1.24 0 2.854.043 3.6 1.265.45.729.6 1.908.208 4.16a7.784 7.784 0 0 1-1.668 4.138 5.19 5.19 0 0 1-4.05 1.287c-1.687 0-2.9-.15-3.575-1.287-.48-.792-.61-1.993-.233-4.137zm31.635-4.137a.967.967 0 0 1 .45-.493c.085 0 .248.043.177.45l-2.143 11.686h2.82l2.325-13.208c.241-1.374-.679-1.974-2.067-1.974-1.089 0-2.032.257-2.967 1.93l-5.628 10.013a1.041 1.041 0 0 1-.5.558.647.647 0 0 1-.308-.558l-2.1-10.013a2.01 2.01 0 0 0-2.288-1.93 2.554 2.554 0 0 0-2.76 1.973l-2.325 13.208h2.814l1.991-11.681a.493.493 0 0 1 .314-.45.662.662 0 0 1 .276.493l2.061 10.013c.285 1.415.666 1.8 1.82 1.8 1.238 0 1.7-.45 2.452-1.8zm3.012 11.643h2.97l2.184-3.8h7.2l.87 3.8h2.964l-3.263-13.482a1.872 1.872 0 0 0-2.158-1.694 2.77 2.77 0 0 0-2.754 1.694zm9.766-11.922a1.193 1.193 0 0 1 .537-.622.751.751 0 0 1 .318.622l1.36 6.11h-5.747zm10.952 11.922l.936-5.318h7.006a4.323 4.323 0 0 0 2.414-.73c1.344-.964 1.812-2.894 2.027-4.116.223-1.265.414-2.96-.437-3.945a3.5 3.5 0 0 0-2.81-.9h-7.113a2.693 2.693 0 0 0-1.79.579 2.5 2.5 0 0 0-.807 1.672l-2.245 12.758zm1.332-7.57l.755-4.287a1.082 1.082 0 0 1 .317-.708.935.935 0 0 1 .7-.193h4.55a2.142 2.142 0 0 1 1.66.515 2.86 2.86 0 0 1 .172 2.058 3.939 3.939 0 0 1-.853 2.058 2.583 2.583 0 0 1-1.935.558h-5.362zm22.4-7.611c-1.815 0-4.293 0-6.238 1.587-1.895 1.544-2.444 4.052-2.8 6.089-.3 1.694-.778 4.417.658 6.089 1.365 1.587 3.907 1.587 5.68 1.587 1.687 0 4.357 0 6.24-1.587 1.905-1.608 2.475-4.481 2.758-6.09.347-1.972.636-4.588-.616-6.088-1.344-1.588-3.952-1.588-5.682-1.588zm-6.135 7.676c.4-2.294.963-3.41 1.693-4.16a5.169 5.169 0 0 1 4.024-1.265c1.24 0 2.855.043 3.6 1.265.45.729.6 1.908.208 4.16a7.784 7.784 0 0 1-1.668 4.138 5.19 5.19 0 0 1-4.05 1.287c-1.687 0-2.9-.15-3.576-1.287-.478-.793-.609-1.994-.23-4.138zm14.313 7.5h2.82l2.64-15.004h-2.819zm14.311 0l-5.957-6.325a1.929 1.929 0 0 1-.719-1.372 2.554 2.554 0 0 1 .994-1.158l7.531-6.15h-3.48l-6.65 5.619a2.96 2.96 0 0 0-1.11 1.694 2.278 2.278 0 0 0 .686 1.93l5.136 5.768h3.567z" fill="#013c76" fill-rule="evenodd"/><path d="M37.661 19.397c-.063 2.294-.013 4.562-.24 6.8a4.143 4.143 0 0 1-3.815 3.793c-2.724.4-5.448.769-8.274 1.159-.684-3.24.773-5.456 2.89-7.372a22.135 22.135 0 0 1 8.691-4.423 2.779 2.779 0 0 1 .748.038zm10-3.554c-6.462.315-12.708 1.537-18.3 5.015-3.5 2.193-6.246 4.99-6.715 9.376-.494 4.486 5.562 8.254 9.161 9.918a48.471 48.471 0 0 0 37.72 1.676 23.7 23.7 0 0 0 9.63-5.973c4.015-4.285 4.434-9.741.645-14.177a28.122 28.122 0 0 0-6.403-5.372 37.81 37.81 0 0 0-15.09-5.041C48.186 9.89 38.38 10.748 29.243 15.7a16.7 16.7 0 0 0-7.5 7.385c-1.292 2.709-1.622 6.717-.013 8.809-.887-4.7 1.622-8.67 5-11.19a25.536 25.536 0 0 1 6.221-3.465 48.113 48.113 0 0 1 36.01.819 21.393 21.393 0 0 1 7.715 5.33c-1.85-1.146-3.282-2.18-4.84-2.973-7.6-3.881-15.762-4.99-24.188-4.574zm17.9 4.6c-2.129.139-4.27.328-6.4.416-3.75.139-7.514.29-11.277.277-2.243-.012-3.51-.945-4.865-3.112a45.317 45.317 0 0 1 22.54 2.419zm9.782 14.92c-2.66-2.18-5-4.032-7.247-6a8.069 8.069 0 0 1-1.634-2.28 1.2 1.2 0 0 1 .722-1.978c1.1-.441 2.053-1.223 3.117-1.777a1.668 1.668 0 0 1 1.2-.113c2.914 1.159 5.537 5.57 5.068 8.7a19.675 19.675 0 0 1-1.229 3.453zM46.277 25.37a13.6 13.6 0 0 1 11.327.769c2.978 1.65 3.028 4.285 0 5.81a13.224 13.224 0 0 1-12.632-.252 3.462 3.462 0 0 1-2.14-3.125c.037-1.424 1.215-2.18 2.381-2.785a10.97 10.97 0 0 1 1.064-.416zm-9.313 9.665a34.172 34.172 0 0 1 6.411 1.386c4.574 1.727 4.3 2.924 2.914 6.225-6.3-.013-17.612-3.907-20.032-9.2 3.484.517 7.108 1 10.706 1.588zm22.11 2.67c3.332-2.141 7.02-2.167 10.732-.931.836.277 1.66.617 2.775 1.033-6.41 4.108-13.228 5.268-20.589 5.356 2.5-1.941 4.663-3.894 7.083-5.457zm137.852-21.853c2.177-3.036 5.03-3.278 8.532-3.278h11.394l1.28-8.117h-14.7a15.864 15.864 0 0 0-12.54 5.4c-3.682 4.206-5.065 10.48-5.933 16.06-.819 5.214-1.313 11.126 1.234 15.442 2.758 4.66 7.522 5.2 10.865 5.2h15.031l1.26-8.117h-12.587c-4.282 0-6.3-.882-7.176-3.136-.687-1.8-.69-4.8-.013-9.172.76-4.86 1.856-8.221 3.353-10.282zM168.6 4.006c-3.8 0-5.5 1.866-7.146 5.09l-19.03 37.46h9.04l4.976-10.111h14.61l1.874 10.11h8.821l-7.3-37.187c-.776-3.862-2.414-5.362-5.845-5.362zm-1.379 10.243l2.652 14.716h-9.919zm-19.086-9.79h-8.457l-5.049 32.37-.023.16a2.95 2.95 0 0 1-.345 1.239.667.667 0 0 1-.7.21h-9.679l5.288-33.98h-8.457l-5.3 33.98h-9.967a2.993 2.993 0 0 1-.425-.02 2.86 2.86 0 0 1 .051-1.034l5.135-32.926h-8.458l-5.582 35.8a5.8 5.8 0 0 0 .7 4.55 4.6 4.6 0 0 0 3.915 1.752h35.528a5.762 5.762 0 0 0 4.26-1.626 7.818 7.818 0 0 0 1.946-4.348zm161.007 20.687c.1-.69 1.442-1.99 1.943-2.474L330 4.457h-10.876L303.791 19.73a11.307 11.307 0 0 0-1.976 2.634l2.793-17.908h-8.458l-6.564 42.1h8.458l3-19.253a8.8 8.8 0 0 0 1.618 3.469l11.711 15.784H325.1l-14.585-18.551c-.49-.641-1.515-1.975-1.373-2.86zm-78.614-9.295c2.177-3.036 5.03-3.278 8.532-3.278h11.4l1.28-8.117h-14.7a15.865 15.865 0 0 0-12.542 5.4c-3.68 4.206-5.064 10.48-5.932 16.06-.819 5.214-1.313 11.125 1.235 15.442 2.757 4.66 7.521 5.2 10.865 5.2H245.7l1.26-8.117h-12.595c-4.283 0-6.3-.882-7.176-3.136-.687-1.8-.692-4.8-.014-9.172.761-4.86 1.857-8.22 3.353-10.281zM284.21 4.006c-2.85 0-4.73 1.288-7.18 4.925l-16.88 25.289 4.786-29.762h-8.478l-5.37 34.482c-.23 1.485-.71 4.575.933 6.5a4.958 4.958 0 0 0 3.98 1.566c3.95 0 5.582-2.436 6.782-4.227l17.514-25.93-4.827 29.7h8.48l5.314-34.128c.221-1.413.735-4.722-1.04-6.8a5 5 0 0 0-4.014-1.615zM54.78 73.588l.936-5.318h7.006a4.322 4.322 0 0 0 2.414-.73c1.345-.964 1.812-2.894 2.028-4.116.223-1.265.414-2.96-.438-3.945a3.5 3.5 0 0 0-2.81-.9H56.8a2.691 2.691 0 0 0-1.789.579 2.5 2.5 0 0 0-.807 1.672L51.96 73.588zm1.332-7.57l.755-4.287a1.082 1.082 0 0 1 .317-.707.935.935 0 0 1 .7-.193h4.55a2.144 2.144 0 0 1 1.661.515 2.865 2.865 0 0 1 .172 2.058 3.938 3.938 0 0 1-.854 2.058 2.582 2.582 0 0 1-1.935.558h-5.366zm9.262 7.57h2.97l2.184-3.8h7.2l.87 3.8h2.97l-3.268-13.482a1.873 1.873 0 0 0-2.159-1.7 2.771 2.771 0 0 0-2.755 1.7zm9.766-11.922a1.192 1.192 0 0 1 .537-.622.749.749 0 0 1 .318.622l1.36 6.11h-5.747zm7.92 11.922h7.731a7.07 7.07 0 0 0 3.31-.6 4.521 4.521 0 0 0 1.946-3.41 4.7 4.7 0 0 0 0-2.443 1.9 1.9 0 0 0-1.769-1.115l.015-.086a3.4 3.4 0 0 0 1.377-.665 3.908 3.908 0 0 0 1.32-2.637 3.835 3.835 0 0 0-.369-3.131 3.543 3.543 0 0 0-2.977-.922h-7.86l-.4 2.25h7.22a1.757 1.757 0 0 1 1.245.323 1.874 1.874 0 0 1 .193 1.694 2.672 2.672 0 0 1-.632 1.56 3.165 3.165 0 0 1-2.048.472H84.89l-.4 2.25h6.835a2.2 2.2 0 0 1 1.637.408 1.991 1.991 0 0 1 .236 1.694 2.329 2.329 0 0 1-1.047 1.823 5.162 5.162 0 0 1-1.822.279h-6.874zm30.706-15.01h-10.55a2.429 2.429 0 0 0-1.616.558 2.709 2.709 0 0 0-.8 1.63l-1.905 10.828a1.886 1.886 0 0 0 .16 1.394 1.541 1.541 0 0 0 1.39.6h8.074a3.893 3.893 0 0 0 2.736-.986 5.95 5.95 0 0 0 1.405-3.366 5.036 5.036 0 0 0-.2-3.26 2.685 2.685 0 0 0-2.452-1.114H102.9l.547-3.11a1.206 1.206 0 0 1 .345-.746 1.5 1.5 0 0 1 .821-.172h8.757zM102.5 67.113h5.7a1.772 1.772 0 0 1 1.381.407 1.947 1.947 0 0 1 .183 1.63 2.925 2.925 0 0 1-.758 1.758 2.145 2.145 0 0 1-1.549.429h-4.529a1.182 1.182 0 0 1-1.019-.28 1.505 1.505 0 0 1 .041-.835zm22.531-8.706c-1.816 0-4.293 0-6.239 1.587-1.895 1.544-2.443 4.052-2.8 6.089-.3 1.694-.778 4.417.658 6.089 1.365 1.587 3.907 1.587 5.68 1.587 1.687 0 4.357 0 6.238-1.587 1.907-1.608 2.476-4.481 2.76-6.09.347-1.972.636-4.588-.616-6.088-1.345-1.587-3.95-1.587-5.68-1.587zm-6.13 7.677c.4-2.294.963-3.41 1.693-4.16a5.166 5.166 0 0 1 4.024-1.265c1.24 0 2.855.043 3.6 1.265.448.729.6 1.908.208 4.16a7.792 7.792 0 0 1-1.668 4.138 5.192 5.192 0 0 1-4.058 1.285c-1.688 0-2.9-.15-3.576-1.287-.476-.791-.606-1.992-.224-4.136zm17.133 7.5l.935-5.318h7.006a4.323 4.323 0 0 0 2.414-.73c1.345-.964 1.812-2.894 2.027-4.116.223-1.265.414-2.96-.437-3.945a3.5 3.5 0 0 0-2.81-.9h-7.113a2.694 2.694 0 0 0-1.79.579 2.509 2.509 0 0 0-.807 1.672l-2.245 12.758zm1.332-7.57l.754-4.287a1.087 1.087 0 0 1 .317-.707.936.936 0 0 1 .7-.193h4.55a2.145 2.145 0 0 1 1.661.515 2.865 2.865 0 0 1 .171 2.058 3.931 3.931 0 0 1-.853 2.058 2.583 2.583 0 0 1-1.935.558h-5.36zm12.465 7.57h2.82l2.641-15.01h-2.819zm14.311 0l-5.957-6.325a1.929 1.929 0 0 1-.719-1.372 2.56 2.56 0 0 1 .994-1.158l7.533-6.154h-3.48l-6.65 5.618a2.96 2.96 0 0 0-1.11 1.694 2.278 2.278 0 0 0 .686 1.93l5.136 5.768h3.567zm-.214 0h2.97l2.184-3.8h7.2l.87 3.8h2.968l-3.272-13.477a1.872 1.872 0 0 0-2.158-1.7 2.771 2.771 0 0 0-2.754 1.694zm9.766-11.922a1.2 1.2 0 0 1 .537-.622.751.751 0 0 1 .318.622l1.36 6.11h-5.747zm28.4 11.922l2.2-12.48c.132-.75.433-2.7-1.81-2.7-1.025 0-1.748.344-2.793 1.673l-7.767 9.906a.981.981 0 0 1-.489.472c-.278 0-.2-.343-.136-.686l2.034-11.193h-2.819l-2.225 12.61c-.15.859-.41 2.574 1.747 2.574a2.946 2.946 0 0 0 2.62-1.415l7.906-9.97a1.777 1.777 0 0 1 .676-.686c.193 0 .17.257.127.493l-2.093 11.407h2.82zm19.686-15.01h-2.82l-1.083 6.155H210.1l1.083-6.154h-2.819l-2.642 15.009h2.82l1.162-6.6h7.775l-1.163 6.6h2.82zm10.92-.167c-1.815 0-4.293 0-6.238 1.587-1.895 1.544-2.443 4.052-2.8 6.089-.3 1.694-.777 4.417.658 6.089 1.366 1.587 3.908 1.587 5.68 1.587 1.688 0 4.358 0 6.24-1.587 1.905-1.608 2.475-4.481 2.758-6.09.347-1.972.637-4.588-.616-6.088-1.346-1.587-3.952-1.587-5.682-1.587zm-6.135 7.676c.4-2.294.963-3.41 1.693-4.16a5.17 5.17 0 0 1 4.025-1.265c1.24 0 2.854.043 3.6 1.265.45.729.6 1.908.208 4.16a7.784 7.784 0 0 1-1.668 4.138 5.19 5.19 0 0 1-4.05 1.287c-1.687 0-2.9-.15-3.575-1.287-.48-.792-.61-1.993-.233-4.137zm31.635-4.137a.967.967 0 0 1 .45-.493c.085 0 .248.043.177.45l-2.143 11.686h2.82l2.325-13.208c.241-1.374-.679-1.974-2.067-1.974-1.089 0-2.032.257-2.967 1.93l-5.628 10.013a1.041 1.041 0 0 1-.5.558.647.647 0 0 1-.308-.558l-2.1-10.013a2.01 2.01 0 0 0-2.288-1.93 2.554 2.554 0 0 0-2.76 1.973l-2.325 13.208h2.814l1.991-11.681a.493.493 0 0 1 .314-.45.662.662 0 0 1 .276.493l2.061 10.013c.285 1.415.666 1.8 1.82 1.8 1.238 0 1.7-.45 2.452-1.8zm3.012 11.643h2.97l2.183-3.8h7.2l.87 3.8h2.965l-3.263-13.482a1.872 1.872 0 0 0-2.158-1.694 2.77 2.77 0 0 0-2.754 1.694zm9.766-11.922a1.193 1.193 0 0 1 .537-.622.751.751 0 0 1 .318.622l1.36 6.11h-5.747zm10.952 11.922l.936-5.318h7.006a4.323 4.323 0 0 0 2.414-.73c1.344-.964 1.812-2.894 2.027-4.116.223-1.265.414-2.96-.437-3.945a3.5 3.5 0 0 0-2.81-.9h-7.113a2.693 2.693 0 0 0-1.79.579 2.5 2.5 0 0 0-.807 1.672l-2.245 12.758zm1.332-7.57l.755-4.287a1.082 1.082 0 0 1 .317-.707.935.935 0 0 1 .7-.193h4.55a2.142 2.142 0 0 1 1.66.515 2.86 2.86 0 0 1 .172 2.058 3.939 3.939 0 0 1-.853 2.058 2.583 2.583 0 0 1-1.935.558h-5.362zm22.4-7.611c-1.815 0-4.293 0-6.238 1.587-1.895 1.544-2.444 4.052-2.8 6.089-.3 1.694-.778 4.417.658 6.089 1.365 1.587 3.907 1.587 5.68 1.587 1.687 0 4.357 0 6.24-1.587 1.905-1.608 2.475-4.481 2.758-6.09.347-1.972.636-4.588-.616-6.088-1.344-1.588-3.952-1.588-5.682-1.588zm-6.135 7.676c.4-2.294.963-3.41 1.693-4.16a5.169 5.169 0 0 1 4.024-1.265c1.24 0 2.855.043 3.6 1.265.45.729.6 1.908.208 4.16a7.784 7.784 0 0 1-1.668 4.138 5.19 5.19 0 0 1-4.05 1.287c-1.687 0-2.9-.15-3.576-1.287-.478-.793-.609-1.994-.23-4.138zm14.313 7.5h2.82l2.64-15.004h-2.819zm14.311 0l-5.957-6.325a1.929 1.929 0 0 1-.719-1.372 2.554 2.554 0 0 1 .994-1.158l7.531-6.15h-3.48l-6.65 5.619a2.96 2.96 0 0 0-1.11 1.694 2.278 2.278 0 0 0 .686 1.93l5.136 5.768h3.567z" data-name="надпись + диск" fill="#fff" fill-rule="evenodd"/></svg>